<svg width="335" height="124" viewBox="0 0 335 124" fill="none" xmlns="http://www.w3.org/2000/svg">
<path d="M43.4136 31.7109C43.3776 31.8859 43.3417 32.0626 43.3058 32.2376C42.4055 32.3876 41.5016 32.4875 40.5977 32.5429C41.5573 32.284 42.4971 32.0109 43.4136 31.7109Z" fill="#ED1C27"/>
<path d="M63.5361 14.5212C60.9607 21.6047 55.659 27.9995 48.5039 30.8097C48.5039 30.8097 48.7913 29.4055 48.7931 29.4055C54.6012 26.0975 58.5649 20.1738 60.1669 13.8182C60.7326 13.5113 62.2772 12.6353 62.2772 12.6353C62.2772 12.6353 63.0925 13.8378 63.5361 14.5212Z" fill="#ED1C27"/>
<path d="M51.3468 16.9541C51.3989 16.6971 51.4797 16.5365 51.7725 16.5151C53.026 16.417 54.2778 16.2154 55.5278 16.2261C57.0723 16.2368 58.0943 17.3198 58.2954 18.9614C59.091 17.3109 59.716 15.5855 60.1632 13.8173C60.1416 13.8013 60.1201 13.787 60.0985 13.7727C58.8647 12.9359 57.4549 12.7111 56.0073 12.6504C53.0494 12.522 50.1848 13.0929 47.3544 13.8691C47.2035 13.9119 47.0293 14.1403 46.9934 14.3098C46.7438 15.5195 42.3203 37.052 42.3203 37.052H45.6303C46.5624 37.052 47.3616 36.3383 47.5502 35.4212C47.552 35.4247 51.1313 18.0121 51.3468 16.9541Z" fill="white"/>
<path d="M62.5606 16.8848C59.9241 22.5926 55.4971 27.6082 49.75 30.2739C59.0585 32.9164 65.1845 23.8148 62.5606 16.8848Z" fill="white"/>
<path d="M41.1698 21.4271C34.4098 14.9378 22.8851 22.3442 24.7331 31.1692C25.8826 36.6593 31.8631 37.878 36.7032 36.5826C39.7743 35.7619 39.408 32.8018 39.408 32.8018C35.5556 33.6868 28.2245 32.891 28.8261 29.9666C31.7895 30.7927 36.3063 30.989 39.4762 29.3706C43.6123 27.2581 42.9065 23.3648 41.1698 21.4271ZM38.3358 25.1259C37.3031 27.2438 31.4016 27.226 29.2769 26.6068C30.6095 23.6021 34.1135 21.8072 37.3264 23.1079C38.2963 23.5022 38.7273 24.3158 38.3358 25.1259Z" fill="white"/>
<path d="M83.7336 20.3228C80.8708 19.3896 77.4369 18.9614 74.9226 18.9614C68.2685 18.9614 64.0803 24.9119 64.2761 30.1327C64.3515 32.1364 65.0286 36.6845 71.1223 37.2073C72.8141 37.3518 74.4287 37.1359 75.8421 36.0975C75.8529 36.0885 75.9517 36.0011 75.9283 36.126C75.878 36.4168 75.7649 37.0556 75.7649 37.0556C75.7649 37.0556 78.9419 37.0556 80.4488 37.0556C80.7325 37.0556 80.772 36.8611 80.8133 36.6631C81.8963 31.3995 82.9865 26.1466 84.0569 20.8795C84.1251 20.5476 84.0586 20.4263 83.7336 20.3228ZM78.5702 23.4595C77.9991 26.1734 77.4459 28.8908 76.8694 31.6065C76.8191 31.8402 76.697 32.0525 76.5174 32.2113C75.1489 33.4211 73.5541 33.819 71.7725 33.4122C68.3565 32.6324 68.9169 27.8203 70.113 25.499C71.2031 23.3864 73.6672 22.1927 76.1762 22.5157C78.6869 22.8368 78.6348 23.1437 78.5702 23.4595Z" fill="white"/>
<path d="M142.315 25.3116C141.965 21.1579 138.664 18.9614 134.702 18.9614C126.394 18.9614 123.649 25.8576 123.903 30.6501C124.145 35.2517 128.242 37.3946 132.369 37.011C136.203 36.7844 139.084 35.0448 140.865 31.6368C141.896 29.6616 142.564 27.5794 142.315 25.3116ZM130.857 33.116C127.2 32.3684 128.439 27.5633 129.202 26.1466C131.045 22.7244 133.556 22.5674 134.984 22.7922C136.869 23.0866 137.94 24.4248 137.834 26.6855C137.674 30.1077 135.111 33.9849 130.857 33.116Z" fill="white"/>
<path d="M83.6836 45.0638L84.3032 42.0144C84.3966 41.6576 84.7324 41.4035 85.1006 41.3927C86.9576 41.3404 87.5934 41.016 88.5219 40.0032C89.2313 39.0985 89.7683 38.3722 90.3646 37.5359C90.4436 37.426 90.4508 37.2296 90.422 37.0854C89.4163 31.9617 86.8786 18.9624 86.8786 18.9624C86.8786 18.9624 91.505 18.9209 91.796 20.7844C92.3545 24.3528 93.6763 31.567 93.7392 31.8518C93.9026 31.5688 98.2291 24.1149 100.253 20.5411C101.246 18.7875 105.03 18.9624 106.28 18.9624C102.55 25.2178 95.3053 37.3485 94.1756 39.2336C91.241 44.1248 88.6584 45.1016 85.9537 45.0674C85.2173 45.0584 83.6836 45.0638 83.6836 45.0638Z" fill="white"/>
<path d="M120.535 32.0665C120.273 33.3386 119.797 35.6528 119.781 35.7349C119.754 35.8705 119.696 36.0204 119.515 36.0882C117.017 37.016 114.35 37.4531 111.923 36.5985C104.071 33.8365 106.18 21.302 114.38 19.3072C118.407 18.3277 122.422 19.7461 122.618 19.8068C122.846 19.8782 122.988 20.1066 122.942 20.3385C122.8 21.0362 122.349 23.2451 122.329 23.3254C120.057 22.5956 117.67 22.0675 115.35 22.8775C110.738 24.4905 109.736 32.3519 114.323 33.2726C116.521 33.7151 118.532 32.9408 120.535 32.0665Z" fill="white"/>
<path d="M109.437 43.91C110.072 44.0401 111.64 43.9996 111.676 43.0051C111.676 42.6061 111.145 42.2331 110.642 42.1262C110.019 41.9961 109.622 41.9932 108.993 42.1262C108.605 42.2707 108.486 41.9007 108.838 41.7763C109.506 41.5393 112.111 41.4901 112.234 43.0051C112.126 44.5027 109.852 44.3957 109.339 44.2945C109.136 44.2569 108.981 44.1644 108.981 43.9158V42.6697C108.981 42.3748 109.434 42.3777 109.434 42.6697V43.91H109.437Z" fill="white"/>
<path d="M114.331 42.1561C113.824 42.1561 112.972 43.6566 112.718 44.1943C112.569 44.5152 112.092 44.2868 112.244 43.963C112.513 43.3848 113.529 41.6385 114.325 41.6559C115.121 41.6414 116.138 43.3848 116.406 43.963C116.555 44.2868 116.081 44.5152 115.932 44.1943C115.682 43.6566 114.835 42.1561 114.331 42.1561Z" fill="white"/>
<path d="M117.88 43.8459C118.387 43.8459 119.239 42.3454 119.49 41.8076C119.639 41.4867 120.116 41.7151 119.964 42.036C119.695 42.6142 118.679 44.3605 117.883 44.346C117.087 44.3605 116.07 42.6171 115.802 42.036C115.653 41.7122 116.127 41.4838 116.279 41.8076C116.529 42.3454 117.373 43.8459 117.88 43.8459Z" fill="white"/>
<path d="M120.822 41.9132V44.0989C120.822 44.4256 120.312 44.414 120.312 44.0873V41.9074C120.312 41.5691 120.822 41.5662 120.822 41.9132Z" fill="white"/>
<path d="M123.262 43.8459C123.769 43.8459 124.621 42.3454 124.872 41.8076C125.021 41.4867 125.498 41.7151 125.346 42.036C125.074 42.6142 124.058 44.3605 123.262 44.346C122.466 44.3605 121.449 42.6171 121.181 42.036C121.032 41.7122 121.506 41.4838 121.655 41.8076C121.905 42.3454 122.749 43.8459 123.256 43.8459" fill="white"/>
<path d="M127.175 43.2276C127.324 43.5341 127.75 43.7827 128.162 43.8694C128.782 44.0024 129.178 44.0024 129.807 43.8694C130.183 43.7509 130.314 44.1036 129.959 44.2193C129.262 44.4477 126.704 44.5286 126.555 43.0079C126.638 41.5594 128.68 41.597 129.461 41.6982C129.843 41.7474 129.765 42.1377 129.366 42.0567C128.844 41.9902 127.425 41.9093 127.148 42.82H128.603C128.829 42.82 128.829 43.2276 128.603 43.2276H127.175Z" fill="white"/>
<path d="M135.285 43.9124C135.92 44.0425 137.488 44.0021 137.524 43.0075C137.524 42.6085 136.993 42.2356 136.486 42.1286C135.866 41.9985 135.47 41.9956 134.841 42.1286C134.453 42.2732 134.334 41.9031 134.686 41.7788C135.356 41.5417 137.959 41.4926 138.081 43.0075C137.974 44.5051 135.699 44.3982 135.189 44.297C134.987 44.2594 134.832 44.1669 134.832 43.9182V42.6721C134.832 42.3773 135.285 42.3801 135.285 42.6721V43.9124Z" fill="white"/>
<path d="M140.182 42.1561C139.675 42.1561 138.819 43.6566 138.569 44.1943C138.42 44.5152 137.946 44.2868 138.095 43.963C138.366 43.3848 139.383 41.6385 140.176 41.6559C140.972 41.6414 141.988 43.3848 142.257 43.963C142.406 44.2868 141.932 44.5152 141.783 44.1943C141.532 43.6566 140.689 42.1561 140.182 42.1561Z" fill="white"/>
<path d="M126.201 41.9132V44.0989C126.201 44.4256 125.691 44.414 125.691 44.0873V41.9074C125.691 41.5691 126.201 41.5662 126.201 41.9132Z" fill="white"/>
<path d="M132.327 43.4467C132.011 42.8887 131.665 42.1486 131.427 42.1312C130.84 42.1312 131.105 43.253 131.096 44.129C131.093 44.4383 130.586 44.4383 130.586 44.0943C130.586 42.9783 130.339 41.6455 131.439 41.6455C131.761 41.6455 132.065 42.1139 132.339 42.5533C132.655 43.1142 133.031 43.8543 133.266 43.8717C133.854 43.8717 133.573 42.773 133.585 41.897C133.588 41.5877 134.095 41.5877 134.095 41.9317C134.095 43.0506 134.357 44.3603 133.257 44.3603C132.932 44.3603 132.602 43.8919 132.327 43.4496" fill="white"/>
<path fill-rule="evenodd" clip-rule="evenodd" d="M102.371 42.188C102.382 42.2707 102.371 42.6249 102.038 43.111C101.688 43.6462 102.24 44.5408 103.355 44.3133C103.6 44.3986 103.864 44.4115 104.035 44.4089C104.205 44.4089 104.472 44.3986 104.717 44.3158C105.831 44.5434 106.381 43.6462 106.031 43.111C105.695 42.6275 105.687 42.2707 105.698 42.188H102.376H102.371Z" fill="#E5252B"/>
<path fill-rule="evenodd" clip-rule="evenodd" d="M104.032 44.4024C102.946 44.3741 102.749 43.8888 103.047 43.7882C103.223 43.7288 103.452 43.6307 103.452 43.6307C103.335 43.0836 103.526 42.3841 104.035 42.3867C104.543 42.3867 104.727 43.1068 104.612 43.6436C104.612 43.6436 104.844 43.7237 105.014 43.7908C105.299 43.8966 105.118 44.3766 104.032 44.405" fill="#0682C4"/>
<path fill-rule="evenodd" clip-rule="evenodd" d="M103.623 44.0209C103.334 43.2401 103.589 42.5083 104.032 42.5083C104.455 42.5109 104.742 43.2195 104.444 44.0183C104.444 44.0183 104.303 43.9874 104.019 43.9874C103.807 43.9874 103.626 44.0209 103.626 44.0209" fill="#FFE11B"/>
<path fill-rule="evenodd" clip-rule="evenodd" d="M104.027 44.4142C104.466 44.4142 104.808 44.324 104.808 44.1977C104.808 44.0713 104.466 43.9785 104.027 43.9785C103.589 43.9785 103.246 44.0688 103.246 44.1977C103.246 44.3266 103.589 44.4142 104.027 44.4142Z" fill="#F49824"/>
<path fill-rule="evenodd" clip-rule="evenodd" d="M102.585 42.5762H103.112C103.195 42.5762 103.261 42.6407 103.261 42.7208V43.0642C103.261 43.1469 103.195 43.2114 103.112 43.2114H102.585C102.503 43.2114 102.434 43.1469 102.434 43.0642V42.7208C102.434 42.6407 102.5 42.5762 102.585 42.5762Z" fill="#0682C4"/>
<path d="M102.641 42.6616H103.055C103.119 42.6616 103.169 42.7105 103.169 42.7697V43.0192C103.169 43.081 103.119 43.1299 103.055 43.1299H102.641C102.578 43.1299 102.527 43.081 102.527 43.0192V42.7697C102.527 42.7105 102.578 42.6616 102.641 42.6616Z" fill="#231F20"/>
<path fill-rule="evenodd" clip-rule="evenodd" d="M103.172 42.9535C102.985 42.9357 102.922 42.724 102.906 42.6577H103.059C103.122 42.6577 103.172 42.7062 103.172 42.7648V42.951V42.9535Z" fill="#FFE11B"/>
<path fill-rule="evenodd" clip-rule="evenodd" d="M102.799 42.6616C102.789 42.7228 102.728 42.9472 102.531 42.9574V42.7687C102.531 42.7101 102.581 42.6616 102.644 42.6616H102.799Z" fill="#FFE11B"/>
<path fill-rule="evenodd" clip-rule="evenodd" d="M104.958 42.5762H105.482C105.564 42.5762 105.634 42.6407 105.634 42.7208V43.0642C105.634 43.1469 105.567 43.2114 105.482 43.2114H104.958C104.875 43.2114 104.809 43.1469 104.809 43.0642V42.7208C104.809 42.6407 104.875 42.5762 104.958 42.5762Z" fill="#0682C4"/>
<path d="M105.018 42.6616H105.434C105.498 42.6616 105.548 42.7105 105.548 42.7697V43.0192C105.548 43.081 105.498 43.1299 105.434 43.1299H105.018C104.957 43.1299 104.906 43.081 104.906 43.0192V42.7697C104.906 42.7105 104.957 42.6616 105.018 42.6616Z" fill="#231F20"/>
<path fill-rule="evenodd" clip-rule="evenodd" d="M105.543 42.9535C105.356 42.9357 105.293 42.724 105.277 42.6577H105.432C105.495 42.6577 105.545 42.7062 105.545 42.7648V42.951L105.543 42.9535Z" fill="#FFE11B"/>
<path fill-rule="evenodd" clip-rule="evenodd" d="M105.17 42.6616C105.157 42.7228 105.099 42.9472 104.902 42.9574V42.7687C104.902 42.7101 104.952 42.6616 105.013 42.6616H105.17Z" fill="#FFE11B"/>
<path fill-rule="evenodd" clip-rule="evenodd" d="M105.122 40.8575C105.067 40.675 105.056 40.5851 105.228 40.5851H105.607C105.837 40.5799 105.742 40.7547 105.721 40.9243C105.692 41.1479 105.692 41.2173 105.692 41.2173C105.692 41.2173 105.122 40.8626 105.122 40.8601" fill="#E5252B"/>
<path fill-rule="evenodd" clip-rule="evenodd" d="M104.03 42.1699C103.462 42.1699 102.683 42.219 102.182 42.2552C101.798 42.2837 101.5 41.9993 101.756 41.7304C102.302 41.1564 103.632 40.4351 104.035 40.4351C104.464 40.4351 105.768 41.1564 106.314 41.7304C106.57 41.9993 106.314 42.2552 105.925 42.2552C105.496 42.2552 104.598 42.1699 104.03 42.1699Z" fill="#F49824"/>
<path d="M104.34 43.4553C104.34 43.4148 104.371 43.3818 104.413 43.3818C104.455 43.3818 104.483 43.4148 104.483 43.4553C104.483 43.4958 104.452 43.5262 104.413 43.5262C104.374 43.5262 104.34 43.4933 104.34 43.4553Z" fill="#231F20"/>
<path fill-rule="evenodd" clip-rule="evenodd" d="M104.031 43.9664C103.804 43.9664 103.623 44 103.623 44C103.354 43.2373 103.599 42.5211 104.031 42.5211C104.463 42.5211 104.711 43.2399 104.439 44C104.439 44 104.265 43.9664 104.031 43.9664ZM104.431 44.0258C104.655 44.0595 104.804 44.1241 104.804 44.1965C104.804 44.3051 104.46 44.3956 104.034 44.3956C103.607 44.3956 103.263 44.3051 103.263 44.1965C103.263 44.1241 103.41 44.0595 103.634 44.0258C103.634 44.0258 103.876 43.9974 104.034 43.9974C104.191 43.9974 104.433 44.0258 104.433 44.0258M104.465 44.0026C104.748 43.2114 104.473 42.4849 104.034 42.4875C103.594 42.4875 103.319 43.214 103.602 44.0026C103.383 44.0439 103.239 44.1138 103.239 44.1965C103.239 44.2223 103.255 44.2456 103.282 44.2689C102.914 44.1138 102.879 43.8578 103.082 43.788C103.255 43.7285 103.468 43.6484 103.468 43.6484C103.356 43.1158 103.53 42.4022 104.036 42.4022C104.543 42.4022 104.716 43.1158 104.601 43.6484C104.601 43.6484 104.812 43.7311 104.988 43.788C105.185 43.8526 105.156 44.1086 104.791 44.2663C104.817 44.243 104.831 44.2198 104.831 44.1939C104.831 44.1137 104.687 44.0414 104.468 44M105.148 40.8534C105.105 40.6854 105.103 40.6156 105.252 40.6156H105.58C105.796 40.613 105.708 40.7733 105.689 40.9362C105.678 41.0344 105.67 41.1146 105.668 41.1741C105.495 41.0551 105.319 40.9491 105.151 40.8534M104.769 44.3077C105.814 44.4783 106.324 43.6303 105.99 43.1157C105.732 42.7434 105.67 42.4306 105.662 42.2703C104.977 42.2367 104.505 42.2031 104.034 42.1979C103.562 42.2031 103.09 42.2367 102.405 42.2703C102.394 42.4306 102.333 42.7434 102.074 43.1157C101.741 43.6303 102.25 44.4783 103.295 44.3077C102.853 44.1448 102.797 43.8681 103.034 43.7776C103.207 43.713 103.439 43.6303 103.439 43.6303C103.324 43.0821 103.524 42.3582 104.031 42.3582C104.54 42.3582 104.74 43.0796 104.623 43.6303C104.623 43.6303 104.855 43.713 105.028 43.7776C105.265 43.8655 105.209 44.1448 104.767 44.3077M104.034 42.1307C103.444 42.1384 102.887 42.1798 102.231 42.2212C101.823 42.247 101.594 41.9833 101.85 41.7092C102.229 41.3085 103.522 40.4811 104.034 40.4811C104.545 40.4811 105.836 41.3085 106.217 41.7092C106.473 41.9807 106.244 42.247 105.838 42.2212C105.183 42.1798 104.623 42.141 104.036 42.1307M105.073 40.8095C105.068 40.794 105.063 40.7759 105.06 40.7604C105.031 40.6621 105.06 40.5535 105.233 40.5535H105.614C105.838 40.5535 105.814 40.7035 105.774 40.8483C105.748 40.9517 105.726 41.0836 105.716 41.2077C105.716 41.2077 106.028 41.43 106.201 41.5722C106.745 42.0195 106.39 42.3091 105.87 42.2858C105.817 42.2832 105.766 42.2806 105.716 42.2781C105.718 42.4254 105.764 42.6995 106.004 43.0123C106.606 43.713 105.806 44.5921 104.679 44.3439C104.492 44.4033 104.196 44.4318 104.034 44.4318C103.871 44.4318 103.575 44.4033 103.386 44.3439C102.258 44.5921 101.458 43.713 102.061 43.0123C102.301 42.7021 102.346 42.428 102.349 42.2781L102.197 42.2858C101.677 42.3117 101.322 42.0195 101.866 41.5722C102.677 40.9103 103.655 40.4191 104.034 40.4165C104.241 40.4165 104.631 40.569 105.073 40.8121" fill="#231F20"/>
<path d="M103.107 43.2257H102.581C102.488 43.2257 102.414 43.1535 102.414 43.0634V42.7208C102.414 42.6332 102.488 42.561 102.581 42.561H103.107C103.197 42.561 103.272 42.6332 103.272 42.7208V43.0634C103.272 43.1535 103.197 43.2257 103.107 43.2257ZM102.584 42.5919C102.51 42.5919 102.449 42.6512 102.449 42.7208V43.0634C102.449 43.1355 102.51 43.1948 102.584 43.1948H103.11C103.184 43.1948 103.242 43.1355 103.242 43.0634V42.7208C103.242 42.6486 103.181 42.5919 103.11 42.5919H102.584Z" fill="#231F20"/>
<path d="M105.481 43.2257H104.958C104.867 43.2257 104.793 43.1535 104.793 43.0634V42.7208C104.793 42.6332 104.867 42.561 104.958 42.561H105.481C105.574 42.561 105.648 42.6332 105.648 42.7208V43.0634C105.648 43.1535 105.574 43.2257 105.481 43.2257ZM104.955 42.5919C104.881 42.5919 104.822 42.6512 104.822 42.7208V43.0634C104.822 43.1355 104.883 43.1948 104.955 43.1948H105.478C105.552 43.1948 105.613 43.1355 105.613 43.0634V42.7208C105.613 42.6486 105.552 42.5919 105.478 42.5919H104.955Z" fill="#231F20"/>
<rect x="199.621" y="56.605" width="48.5514" height="48.5514" rx="10.9241" fill="#009E3D"/>
<rect x="259.309" y="55.8477" width="49.6164" height="49.6164" rx="9.92329" fill="#284F9B"/>
<path d="M284.352 70.7217V72.8309C284.352 72.9164 284.381 72.9354 284.457 72.9354H285.635C285.72 72.9354 285.749 72.9544 285.749 73.0399C285.739 73.2679 285.739 73.4959 285.749 73.724C285.749 73.819 285.72 73.8285 285.635 73.8285H284.457C284.381 73.8285 284.352 73.8475 284.352 73.933V76.7833C284.352 76.8973 284.362 77.0018 284.39 77.1158C284.476 77.6288 284.922 77.9994 285.435 77.9994C285.549 78.0089 285.663 78.0089 285.768 77.9994C285.825 77.9994 285.834 77.9994 285.834 78.0564V78.902C285.834 78.94 285.834 78.9685 285.777 78.978C285.112 79.035 284.476 78.959 283.915 78.5409C283.488 78.2084 283.307 77.7429 283.25 77.2203C283.231 77.0398 283.222 76.8593 283.231 76.6788V73.971C283.231 73.8665 283.203 73.8475 283.108 73.8475C282.927 73.857 282.746 73.8475 282.566 73.8475C282.499 73.8475 282.48 73.8285 282.48 73.762V73.0304C282.48 72.9639 282.509 72.9449 282.566 72.9544C282.746 72.9544 282.927 72.9449 283.108 72.9544C283.231 72.9639 283.269 72.9354 283.269 72.8024C283.26 72.1658 283.269 71.5198 283.269 70.8832C283.269 70.8357 283.279 70.7977 283.279 70.7502L284.352 70.7217Z" fill="white"/>
<path d="M276.2 70.7216C276.295 70.7406 276.314 70.8071 276.314 70.8927C276.305 71.1207 276.305 71.3582 276.314 71.5862C276.314 71.6717 276.305 71.7002 276.21 71.6907C275.972 71.6622 275.735 71.6907 275.516 71.7572C275.06 71.9283 274.775 72.3748 274.822 72.8593C274.832 72.9354 274.879 72.9164 274.917 72.9164H276.067C276.162 72.9164 276.191 72.9449 276.191 73.0399C276.181 73.2584 276.181 73.4769 276.191 73.6954C276.191 73.7904 276.172 73.8189 276.077 73.8094C275.706 73.7999 275.326 73.8094 274.946 73.8094C274.841 73.8094 274.813 73.8284 274.813 73.9329C274.813 75.5576 274.813 77.1823 274.813 78.7974C274.813 78.9874 274.841 78.9589 274.651 78.9589C274.385 78.9589 274.119 78.9494 273.863 78.9589C273.739 78.9589 273.73 78.9209 273.73 78.8164V73.9615C273.73 73.8284 273.701 73.7904 273.568 73.7999C273.407 73.8094 273.245 73.7999 273.084 73.7999C273.027 73.7999 273.008 73.7904 273.008 73.7239V72.9829C273.008 72.9259 273.027 72.9069 273.084 72.9069H273.616C273.701 72.9069 273.73 72.8878 273.73 72.8023C273.72 72.4508 273.787 72.1088 273.929 71.7857C274.205 71.1777 274.699 70.8737 275.336 70.7501C275.412 70.7501 275.478 70.7311 275.545 70.7026L276.2 70.7216Z" fill="white"/>
<path d="M281.294 77.3439C281.437 77.5909 281.56 77.8284 281.703 78.0565C281.741 78.0945 281.741 78.161 281.703 78.199C281.693 78.2085 281.684 78.218 281.665 78.2275C281.256 78.5505 280.781 78.7785 280.278 78.883C279.318 79.0921 278.415 78.959 277.617 78.37C276.905 77.8474 276.544 77.1159 276.468 76.2513C276.382 75.5482 276.544 74.8261 276.905 74.2181C277.37 73.4675 278.064 73.0495 278.938 72.945C279.48 72.8595 280.031 72.945 280.515 73.1825C281.237 73.553 281.608 74.1706 281.769 74.9402C281.836 75.2822 281.845 75.6242 281.817 75.9758C281.807 76.0708 281.779 76.0993 281.674 76.0993H277.741C277.627 76.0993 277.598 76.1278 277.608 76.2418C277.665 77.2204 278.463 77.99 279.442 78.009C280.059 78.028 280.667 77.8284 281.161 77.4484C281.199 77.4199 281.247 77.3819 281.294 77.3439Z" fill="white"/>
<path d="M271.051 77.847C270.985 77.9515 270.918 78.0655 270.842 78.1605C270.367 78.7781 269.73 79.0251 268.961 78.9586C268.552 78.9301 268.163 78.7781 267.849 78.5311C267.127 77.942 267.023 76.8684 267.612 76.1464C267.697 76.0418 267.792 75.9468 267.897 75.8708C268.324 75.5573 268.809 75.4243 269.322 75.3293C269.825 75.2438 270.338 75.2153 270.852 75.2248C270.947 75.2248 270.966 75.1963 270.966 75.1108C270.966 74.9872 270.947 74.8542 270.928 74.7307C270.814 74.1987 270.452 73.9041 269.882 73.8661C269.284 73.8376 268.695 73.9991 268.201 74.3412C268.096 74.4077 268.068 74.3887 268.02 74.2937C267.916 74.0847 267.802 73.8851 267.678 73.6856C267.64 73.6191 267.65 73.5811 267.707 73.5431C268.191 73.2201 268.752 73.011 269.331 72.9445C269.825 72.8685 270.329 72.916 270.795 73.0776C271.517 73.3436 271.897 73.8851 272.02 74.6262C272.058 74.8352 272.068 75.0347 272.068 75.2438V78.8446C272.068 78.9586 272.039 78.9871 271.935 78.9776C271.678 78.9681 271.412 78.9681 271.156 78.9776C271.051 78.9776 271.032 78.9396 271.032 78.8541C271.051 78.5216 271.042 78.189 271.051 77.847Z" fill="white"/>
<path d="M285.91 72.926H287.088C287.164 72.926 287.164 72.983 287.183 73.0305C287.582 74.0566 287.972 75.0827 288.361 76.1088C288.551 76.5554 288.713 77.0209 288.846 77.4864C288.855 77.5054 288.865 77.5244 288.874 77.5435C289.055 76.8024 289.349 76.1278 289.597 75.4247C289.891 74.6267 290.186 73.8286 290.48 73.021C290.509 72.945 290.537 72.9165 290.623 72.9165C290.984 72.926 291.345 72.9165 291.715 72.9165C291.649 73.0875 291.582 73.2395 291.525 73.4011C290.68 75.5483 289.825 77.6955 288.969 79.8522C288.789 80.3177 288.513 80.7168 288.076 80.9733C287.402 81.3628 286.727 81.3248 286.053 80.9448C285.977 80.9068 285.977 80.8688 286.015 80.8023C286.119 80.5837 286.224 80.3747 286.309 80.1467C286.347 80.0612 286.376 80.0517 286.452 80.0992C286.965 80.4127 287.459 80.3177 287.82 79.8712C287.905 79.7667 287.972 79.6527 288.029 79.5386C288.133 79.3106 288.228 79.0731 288.333 78.8451C288.352 78.7976 288.352 78.7406 288.323 78.6931C287.715 77.2679 287.117 75.8428 286.509 74.4176C286.319 73.9711 286.129 73.5151 285.939 73.0685C285.92 73.0115 285.91 72.9735 285.91 72.926Z" fill="white"/>
<path d="M266.101 74.3983C265.664 74.0373 265.104 73.8567 264.534 73.9042C264.363 73.9137 264.191 73.9613 264.039 74.0563C263.754 74.2083 263.64 74.5693 263.802 74.8543C263.84 74.9208 263.887 74.9874 263.954 75.0349C264.134 75.1774 264.344 75.2914 264.553 75.3674C264.904 75.5194 265.256 75.6429 265.598 75.8139C265.854 75.9374 266.092 76.099 266.291 76.2985C266.852 76.916 266.814 77.8756 266.196 78.4362C266.158 78.4647 266.12 78.5027 266.082 78.5312C265.731 78.7972 265.303 78.9587 264.857 78.9777C264.001 79.0537 263.156 78.7877 262.5 78.2272C262.415 78.1607 262.415 78.1037 262.481 78.0181C262.624 77.8186 262.757 77.6286 262.89 77.4291C262.937 77.3626 262.956 77.3626 263.023 77.4101C263.488 77.8186 264.087 78.0371 264.705 78.0086C264.904 77.9991 265.085 77.9421 265.256 77.8376C265.645 77.5811 265.674 77.1251 265.303 76.8305C265.132 76.6975 264.942 76.6025 264.743 76.517C264.401 76.365 264.049 76.2415 263.716 76.08C263.507 75.9754 263.308 75.8519 263.127 75.6999C262.5 75.1774 262.405 74.2368 262.937 73.6097C263.013 73.5242 263.099 73.4387 263.194 73.3722C263.536 73.1157 263.954 72.9732 264.372 72.9447C265.028 72.8876 265.655 72.9827 266.234 73.3247C266.567 73.5242 266.567 73.5337 266.386 73.8662L266.101 74.3983Z" fill="white"/>
<path d="M279.175 75.2823H277.769C277.655 75.2823 277.626 75.2633 277.655 75.1398C277.921 73.9807 278.975 73.6482 279.736 73.8667C280.315 74.0282 280.591 74.4558 280.676 75.0163C280.714 75.2728 280.714 75.2728 280.448 75.2728L279.175 75.2823Z" fill="#284F9B"/>
<path d="M270.501 76.0708H270.9C270.957 76.0708 270.985 76.0803 270.985 76.1563C270.985 76.8214 270.776 77.3914 270.235 77.819C269.874 78.1135 269.37 78.1895 268.933 77.9995C268.61 77.8855 268.392 77.6004 268.363 77.2584C268.315 76.9069 268.496 76.5648 268.81 76.4033C269.133 76.2133 269.484 76.1563 269.845 76.1088C270.073 76.0803 270.282 76.0708 270.501 76.0708Z" fill="#284F9B"/>
<path d="M305.785 80.3675C305.749 80.3134 305.749 80.2412 305.785 80.187V80.3675Z" fill="white"/>
<path d="M305.747 81.0892C305.747 81.0351 305.729 80.9809 305.765 80.9448V81.0892C305.765 81.1073 305.765 81.1073 305.747 81.0892Z" fill="white"/>
<path d="M305.75 81.0894H305.768V81.2337C305.732 81.1976 305.768 81.1435 305.75 81.0894Z" fill="white"/>
<path d="M303.021 80.6561C303.021 80.0064 302.931 79.3747 302.768 78.761C301.938 76.0177 300.115 74.303 297.336 73.5992C296.92 73.4909 296.505 73.4367 296.09 73.4187C296 73.4187 296 73.3645 296 73.3104V70.6753H296.072C296.126 70.6933 296.199 70.6933 296.253 70.6753H296.397C296.56 70.7114 296.74 70.6933 296.92 70.7114C297.787 70.8197 298.653 71.0182 299.465 71.3431C300.512 71.7582 301.505 72.3538 302.353 73.0938C303.436 74.0323 304.32 75.1874 304.916 76.505C305.367 77.4796 305.656 78.5083 305.764 79.5552C305.782 79.7176 305.764 79.88 305.8 80.0425V80.1869C305.782 80.241 305.782 80.3132 305.8 80.3673V80.6742C305.746 80.7103 305.692 80.7283 305.638 80.7103H303.219C303.129 80.7103 303.057 80.7103 303.021 80.6561Z" fill="white"/>
<path d="M303.021 80.6558H305.782V80.9265C305.764 80.9806 305.782 81.0348 305.764 81.0709C305.746 81.107 305.746 81.1792 305.782 81.2153V81.2875C305.746 81.4679 305.764 81.6484 305.746 81.8289C305.674 82.4065 305.548 82.984 305.385 83.5616C305.114 84.482 304.699 85.3484 304.158 86.1425C303.869 86.5937 303.526 87.0088 303.165 87.4059C302.516 88.1098 301.776 88.7234 300.963 89.2108C299.718 89.9688 298.328 90.4381 296.866 90.6005C296.722 90.6185 296.56 90.6005 296.415 90.6366H296.361C296.307 90.6185 296.253 90.6366 296.217 90.6185C296.162 90.6185 296.108 90.6005 296.072 90.6366H296V88.0015C296 87.9113 296.018 87.8932 296.108 87.8932C299.357 87.7488 302.209 85.3303 302.876 82.1538C302.967 81.6845 303.021 81.1792 303.021 80.6558Z" fill="white"/>
<path d="M296.235 70.6753C296.181 70.7114 296.109 70.7114 296.055 70.6753H296.235Z" fill="white"/>
<path d="M293.672 80.6741V79.8981V76.7215V76.5591L294.267 77.0283C295.784 78.2195 297.318 79.4107 298.834 80.6019C298.87 80.62 298.906 80.638 298.906 80.6741C298.852 80.7102 298.78 80.7283 298.707 80.7102H293.852C293.798 80.7283 293.726 80.7102 293.672 80.6741Z" fill="white"/>
<path d="M293.672 80.6743H298.907C298.744 80.8187 298.582 80.9631 298.401 81.0894C296.885 82.2806 295.351 83.4718 293.817 84.663C293.781 84.6991 293.727 84.7172 293.691 84.7533C293.654 84.7172 293.672 84.6991 293.672 84.6811V80.7285C293.672 80.6924 293.672 80.6743 293.672 80.6743Z" fill="white"/>
<path d="M273.031 90.6373C273.098 90.2478 273.164 89.8677 273.24 89.4782C273.506 88.0531 273.772 86.6374 274.048 85.2123C274.219 84.2812 274.399 83.3596 274.57 82.4285C274.589 82.3525 274.608 82.324 274.694 82.324C274.96 82.3335 275.235 82.3335 275.501 82.324C275.606 82.324 275.615 82.362 275.596 82.4475C275.549 82.7515 275.473 83.0556 275.387 83.3501C275.454 83.3406 275.473 83.2931 275.501 83.2551C276.157 82.4 277.307 82.0865 278.314 82.4855C278.95 82.742 279.311 83.2456 279.463 83.8917C279.767 85.1743 279.349 86.8844 278.076 87.806C277.383 88.3001 276.623 88.4996 275.777 88.2716C275.33 88.1576 274.95 87.8535 274.751 87.4355C274.741 87.4165 274.722 87.3975 274.713 87.369H274.703C274.523 88.4521 274.304 89.5352 274.095 90.6183L273.031 90.6373Z" fill="white"/>
<path d="M285.354 90.637C285.278 90.599 285.193 90.5705 285.107 90.5705C284.908 90.5135 284.708 90.428 284.528 90.314C284.471 90.276 284.461 90.2475 284.499 90.1904C284.632 89.9814 284.775 89.7724 284.908 89.5539C284.946 89.4969 284.965 89.4874 285.031 89.5254C285.449 89.7724 285.982 89.7249 286.343 89.3924C286.523 89.2404 286.675 89.0503 286.799 88.8413C286.913 88.6513 287.036 88.4518 287.16 88.2618C287.198 88.2048 287.217 88.1287 287.188 88.0527C286.761 86.1906 286.324 84.3189 285.886 82.4472C285.867 82.3427 285.867 82.3142 285.991 82.3142C286.295 82.3237 286.599 82.3142 286.894 82.3142C286.97 82.3142 287.008 82.3237 287.027 82.4187C287.293 83.7583 287.559 85.1075 287.825 86.4566C287.863 86.6466 287.882 86.8366 287.91 87.0646C288.072 86.7226 288.233 86.4186 288.404 86.1146C289.079 84.8889 289.753 83.6633 290.428 82.4377C290.466 82.3522 290.542 82.3047 290.637 82.3142C290.998 82.3237 291.359 82.3142 291.711 82.3142C291.73 82.3617 291.692 82.3902 291.673 82.4187C290.314 84.7179 288.946 87.0266 287.587 89.3259C287.293 89.8294 286.903 90.238 286.352 90.485C286.2 90.5515 286.029 90.5705 285.877 90.637H285.354Z" fill="white"/>
<path d="M283.51 87.2547C283.444 87.3403 283.387 87.4163 283.33 87.4828C282.883 87.9958 282.332 88.3379 281.629 88.3759C281.183 88.4139 280.736 88.2808 280.366 88.0148C279.862 87.6443 279.691 87.0077 279.91 86.3237C280.071 85.8106 280.413 85.4591 280.869 85.212C281.354 84.9555 281.886 84.7845 282.427 84.718C282.883 84.6515 283.349 84.623 283.815 84.6325C283.91 84.6325 283.948 84.604 283.957 84.509C283.986 84.319 283.986 84.1289 283.967 83.9389C283.91 83.5589 283.634 83.3214 283.216 83.2739C282.551 83.1979 281.962 83.4069 281.392 83.7204C281.24 83.8059 281.24 83.8059 281.183 83.6349C281.116 83.4259 281.04 83.2074 280.974 82.9983C280.955 82.9413 280.955 82.9128 281.012 82.8843C281.876 82.4283 282.788 82.2003 283.767 82.3808C284.499 82.5138 284.945 82.9603 285.078 83.6539C285.126 84.0149 285.116 84.3855 285.031 84.737C284.803 85.9151 284.575 87.0837 284.347 88.2618C284.328 88.3474 284.299 88.3759 284.214 88.3759C283.948 88.3664 283.672 88.3759 283.406 88.3759C283.311 88.3759 283.301 88.3569 283.32 88.2618C283.377 87.9388 283.444 87.6063 283.51 87.2547Z" fill="white"/>
<path d="M275.027 85.8677C275.056 85.0601 275.331 84.338 275.949 83.7775C276.291 83.4449 276.757 83.2739 277.232 83.2929C277.802 83.3214 278.21 83.6445 278.353 84.186C278.581 85.0316 278.324 86.3427 277.374 87.0173C277.042 87.2738 276.633 87.3973 276.215 87.3783C275.607 87.3403 275.179 86.9508 275.065 86.3237C275.046 86.1717 275.027 86.0197 275.027 85.8677Z" fill="#284F9B"/>
<path d="M283.33 85.4497H283.71C283.767 85.4497 283.786 85.4687 283.767 85.5257C283.634 86.2003 283.244 86.7893 282.684 87.1884C282.399 87.3879 282.047 87.4829 281.695 87.4449C280.926 87.3689 280.793 86.7038 281.059 86.2193C281.182 86.0198 281.353 85.8677 281.562 85.7727C281.923 85.6112 282.313 85.5067 282.703 85.4782C282.921 85.4592 283.13 85.4497 283.33 85.4497Z" fill="#284F9B"/>
<path d="M212.977 76.6261C212.932 77.3963 212.75 78.076 212.451 78.7376C211.844 78.6288 211.273 78.4929 210.693 78.4385C210.159 78.3932 209.606 78.3298 209.08 78.511C208.672 78.656 208.428 78.946 208.364 79.3628C208.292 79.8341 208.355 80.2872 208.79 80.5772C209.298 80.9215 209.841 81.2206 210.358 81.5559C210.856 81.864 211.346 82.1812 211.681 82.6887C211.998 83.169 212.152 83.6765 212.17 84.2564C212.189 85.0177 212.034 85.7155 211.618 86.3589C211.228 86.966 210.666 87.3648 210.014 87.6366C209.434 87.8813 208.826 88.0535 208.174 88.0354C207.984 88.0263 207.784 88.126 207.594 88.1079C206.552 87.9991 205.492 87.981 204.477 87.5188C204.658 86.812 204.866 86.1051 205.165 85.4527C205.772 85.6158 206.334 85.788 206.905 85.8967C207.494 86.0145 208.074 86.0961 208.69 85.9601C209.57 85.7517 209.959 84.6008 209.261 83.9302C209.008 83.6855 208.69 83.4952 208.382 83.2958C208.065 83.0874 207.739 82.9062 207.413 82.7249C206.996 82.4984 206.661 82.1631 206.352 81.8187C206.207 81.6556 206.09 81.4472 205.999 81.2478C205.772 80.7041 205.627 80.1422 205.791 79.535C205.872 79.236 205.881 78.9007 205.999 78.6197C206.443 77.5595 207.277 76.9432 208.355 76.617C209.252 76.3451 210.168 76.2998 211.083 76.3633C211.699 76.3814 212.306 76.5173 212.977 76.6261Z" fill="white"/>
<path d="M215.958 83.6581C215.958 83.9572 215.958 84.1837 215.958 84.4103C215.958 84.8906 216.185 85.2168 216.638 85.3618C217.145 85.5249 217.68 85.5431 218.196 85.4434C218.795 85.3256 219.393 85.1624 220.018 85.0084C220.127 85.6518 220.226 86.3315 220.208 87.0655C220.036 87.1289 219.864 87.2196 219.683 87.2649C218.631 87.5458 217.544 87.6274 216.466 87.5458C215.668 87.4824 214.943 87.2014 214.39 86.5762C214.019 86.1593 213.81 85.679 213.702 85.1353C213.62 84.7184 213.611 84.3015 213.62 83.8756C213.629 83.1959 213.792 82.5435 213.955 81.8819C214.164 81.0301 214.535 80.2779 215.133 79.6345C215.741 78.982 216.475 78.5923 217.372 78.5017C217.517 78.4836 217.662 78.4292 217.816 78.4202C218.541 78.402 219.248 78.4927 219.909 78.828C220.58 79.1723 220.942 79.7342 221.124 80.432C221.314 81.2023 221.25 81.9816 221.096 82.7519C221.042 83.0328 220.979 83.3047 220.906 83.6219C220.734 83.6309 220.58 83.6491 220.417 83.6491C219.103 83.6491 217.789 83.6491 216.475 83.6491C216.321 83.6581 216.166 83.6581 215.958 83.6581ZM218.867 82.1629C219.03 81.7732 219.112 81.3201 219.039 80.9848C218.994 80.7854 218.912 80.6042 218.776 80.4229C218.45 80.0242 217.435 80.0514 217.118 80.3685C216.765 80.722 216.538 81.1207 216.42 81.601C216.375 81.7913 216.221 81.9907 216.402 82.19C217.073 82.2535 218.541 82.2354 218.867 82.1629Z" fill="white"/>
<path d="M223.507 78.7281C224.259 78.5197 224.975 78.6103 225.754 78.5831C225.709 78.9728 225.664 79.299 225.609 79.7068C225.745 79.5981 225.827 79.5346 225.908 79.4621C226.189 79.2175 226.452 78.9365 226.76 78.7281C227.304 78.3565 227.857 78.3203 228.464 78.574C228.346 79.3353 228.156 80.0874 227.884 80.8033C227.44 80.7943 227.005 80.7308 226.579 80.7852C226.153 80.8396 225.727 80.9665 225.319 81.2111C224.966 83.2411 224.612 85.271 224.259 87.31C223.96 87.3916 222.882 87.4188 222.075 87.3553C222.066 87.2466 222.039 87.1288 222.057 87.02C222.229 85.9688 222.41 84.9266 222.601 83.8754C222.827 82.6248 223.072 81.3743 223.298 80.1237C223.371 79.6706 223.434 79.2084 223.507 78.7281Z" fill="white"/>
<path d="M239.501 87.3644C238.74 87.3644 238.033 87.3644 237.317 87.3644C237.208 87.0926 237.353 86.857 237.39 86.6123C237.516 85.7876 237.661 84.963 237.816 84.1383C237.951 83.4043 238.087 82.6702 238.223 81.9271C238.368 81.1296 238.495 80.3322 238.631 79.5347C238.685 79.2266 238.758 78.9275 238.83 78.6104C239.583 78.6104 240.299 78.6104 241.042 78.6104C240.525 81.5374 240.018 84.4374 239.501 87.3644Z" fill="white"/>
<path d="M241.604 76.0916C241.64 77.2153 240.526 77.8043 239.665 77.4962C239.184 77.324 238.94 76.7803 239.03 76.3453C239.076 76.1006 239.112 75.856 239.257 75.6294C239.529 75.1944 240.217 74.8772 240.788 74.9769C241.341 75.0857 241.64 75.5207 241.604 76.0916Z" fill="white"/>
<path d="M229.262 78.7009C229.262 78.7009 231.264 78.3566 231.654 78.6194L232.316 84.8813L235.207 78.5287L237.554 78.6284C237.554 78.6284 234.889 84.4554 233.086 87.5094H230.558C230.558 87.5003 229.434 81.9271 229.262 78.7009Z" fill="#FFDD00"/>
<path d="M217.091 75.6016C217.182 74.931 216.357 74.8856 216.357 74.8856L214.708 74.8403L214.137 77.6496H215.025L215.251 76.5803H215.559C215.958 77.0334 215.985 77.6496 215.985 77.6496H216.964C216.874 77.1149 216.457 76.39 216.457 76.39C216.457 76.39 217.009 76.2722 217.091 75.6016ZM216.158 75.6922C216.076 76.0728 215.732 76.0365 215.732 76.0365H215.333L215.451 75.4384C215.451 75.4294 216.239 75.3116 216.158 75.6922Z" fill="#FFDD00"/>
<path d="M221.666 74.8403H219.4L218.848 77.6406H221.177L221.294 77.0424L219.89 77.0243L219.971 76.544L221.14 76.5531L221.276 75.8734H220.089L220.144 75.4928H221.512L221.666 74.8403Z" fill="#FFDD00"/>
<path d="M226.087 75.2576C225.933 75.0401 225.689 74.8498 225.335 74.8317C224.42 74.7864 223.704 74.8317 223.704 74.8317L223.16 77.6409H224.519C224.519 77.6409 225.58 77.6228 226.114 76.7347C226.395 76.2816 226.404 75.6926 226.087 75.2576ZM225.326 76.4538C225.09 77.0791 224.637 77.0882 224.637 77.0882H224.175L224.492 75.4116C224.492 75.4116 224.574 75.4026 224.982 75.4116C225.163 75.4116 225.272 75.5566 225.335 75.7198C225.435 75.9463 225.417 76.2091 225.326 76.4538Z" fill="#FFDD00"/>
<rect x="139.797" y="56.3989" width="48.9636" height="48.9636" rx="9.79272" fill="#E72A81"/>
<g clip-path="url(#clip0_10792_36459)">
<path d="M146.444 81.6155C146.444 82.9834 146.14 83.2367 145.431 83.2367C145.026 83.2367 144.621 83.1861 144.215 83.0341H144.165C144.114 83.0341 144.063 82.9328 144.063 82.8821V80.653C144.063 80.6023 144.063 80.5516 144.114 80.5516C144.621 80.197 145.026 79.9437 145.533 79.9437C146.14 79.9437 146.444 80.197 146.444 81.6155ZM146.039 78.8291C145.381 78.8291 144.722 79.0824 144.165 79.4877C144.114 79.4877 144.063 79.5384 144.013 79.4877C143.962 79.4877 143.911 79.4371 143.911 79.3864L143.861 79.1331C143.861 79.0318 143.759 78.9304 143.658 78.9304H142.949C142.847 78.9304 142.746 79.0318 142.746 79.1837V86.0738C142.746 86.1752 142.847 86.2765 142.949 86.2765H143.861C143.962 86.2765 144.063 86.1752 144.063 86.0738V84.9086C144.063 84.6553 144.063 84.4526 144.063 84.1487C144.063 84.098 144.063 84.0473 144.114 83.9967C144.165 83.946 144.215 83.946 144.266 83.9967C144.722 84.25 145.279 84.3513 145.786 84.3513C147.204 84.3513 147.812 83.5407 147.812 81.6662C147.863 79.741 147.255 78.8291 146.039 78.8291Z" fill="white"/>
<path d="M153.435 78.9302H152.523C152.421 78.9302 152.32 79.0315 152.32 79.1328V82.5272C152.32 82.5779 152.269 82.6285 152.219 82.6792C151.661 82.9832 151.256 83.1858 150.8 83.1858C150.648 83.1858 150.446 83.1352 150.344 83.0338C150.243 82.8818 150.192 82.6792 150.192 82.4765V79.1835C150.192 79.0822 150.091 78.9808 149.99 78.9808H149.078C148.976 78.9808 148.875 79.0822 148.875 79.1835V82.8818C148.875 83.8444 149.382 84.3511 150.344 84.3511C151.053 84.3511 151.712 84.0977 152.269 83.6924C152.32 83.6418 152.421 83.6418 152.472 83.7431V83.7938L152.523 84.0471C152.523 84.1484 152.624 84.2497 152.725 84.2497H153.384C153.485 84.2497 153.587 84.1484 153.587 84.0471V79.1835C153.637 79.0315 153.536 78.9302 153.435 78.9302Z" fill="white"/>
<path d="M158.351 78.7783C157.693 78.7783 157.034 79.0316 156.325 79.5383C156.274 79.5889 156.173 79.5889 156.122 79.4876C156.122 79.4876 156.122 79.4369 156.071 79.4369L156.021 79.133C156.021 79.0316 155.919 78.9303 155.818 78.9303H155.109C155.008 78.9303 154.906 79.0316 154.906 79.1836V83.9966C154.906 84.0979 155.008 84.1992 155.109 84.1992H156.021C156.122 84.1992 156.223 84.0979 156.223 83.9966V80.7035C156.223 80.6528 156.274 80.6022 156.325 80.5515C156.933 80.1969 157.439 79.9436 157.946 79.9436C158.351 79.9436 158.453 80.0955 158.453 80.6528V83.9459C158.453 84.0472 158.554 84.1485 158.655 84.1485H159.567C159.669 84.1485 159.77 84.0472 159.77 83.9459V80.2475C159.821 79.3356 159.314 78.7783 158.351 78.7783Z" fill="white"/>
<path d="M164.124 78.9301H163.01C162.909 78.9301 162.858 78.8795 162.858 78.7782V77.6636C162.858 77.5623 162.757 77.4609 162.655 77.4609H161.743C161.642 77.4609 161.541 77.5623 161.541 77.6636V78.7782C161.541 78.8795 161.49 78.9301 161.389 78.9301L160.781 78.9808C160.679 78.9808 160.578 79.0821 160.578 79.1835V79.6901C160.578 79.7914 160.679 79.8927 160.781 79.8927H161.338C161.439 79.8927 161.49 79.9434 161.49 80.0447V82.7298C161.49 83.6924 161.997 84.2497 162.909 84.2497C163.314 84.2497 163.719 84.199 164.074 84.0977C164.175 84.0471 164.276 83.9457 164.226 83.8444L164.124 83.2365C164.124 83.1351 164.023 83.0338 163.922 83.0338H163.365C162.909 83.0338 162.757 82.8818 162.757 82.4765V80.0954C162.757 79.9941 162.807 79.9434 162.909 79.9434H164.074C164.175 79.9434 164.276 79.8421 164.276 79.7407V79.1835C164.378 79.0315 164.276 78.9301 164.124 78.9301Z" fill="white"/>
<path d="M174.512 78.7783C173.752 78.829 173.093 79.0823 172.536 79.4876C172.485 79.5383 172.384 79.5383 172.333 79.4369C172.333 79.4369 172.333 79.3863 172.283 79.3863L172.232 79.0823C172.232 78.981 172.131 78.8796 172.029 78.8796H171.371C171.269 78.8796 171.168 78.981 171.168 79.0823V83.8952C171.168 83.9966 171.269 84.0979 171.371 84.0979H172.283C172.384 84.0979 172.485 83.9966 172.485 83.8952V80.5515C172.485 80.5008 172.536 80.4502 172.587 80.3995C173.245 80.2475 173.701 80.0449 174.208 80.0449H174.41C174.512 80.0449 174.613 79.9436 174.613 79.8422L174.714 79.0316C174.714 78.9303 174.664 78.829 174.512 78.7783Z" fill="white"/>
<path d="M178.262 81.1595H176.692C176.641 81.1595 176.59 81.1595 176.59 81.1088C176.54 81.0581 176.54 81.0581 176.54 81.0075C176.59 80.1462 176.894 79.8929 177.705 79.8929C178.465 79.8929 178.718 80.0955 178.718 80.6022C178.718 80.8555 178.668 81.1595 178.262 81.1595ZM176.742 82.122H178.668C179.63 82.122 180.086 81.6154 180.086 80.6022C180.086 79.3356 179.326 78.7783 177.705 78.7783C176.793 78.7783 176.185 78.981 175.78 79.3863C175.375 79.7916 175.172 80.5008 175.172 81.5648C175.172 83.5406 175.932 84.3005 177.806 84.3005C178.465 84.3005 179.174 84.1992 179.833 83.9966C179.934 83.9459 179.985 83.8446 179.985 83.7432L179.934 83.2366C179.934 83.1353 179.833 83.034 179.681 83.034C179.073 83.0846 178.414 83.1353 178.009 83.1353C177.249 83.1353 176.844 82.9833 176.692 82.2234C176.54 82.2234 176.59 82.1727 176.742 82.122C176.692 82.122 176.692 82.122 176.742 82.122Z" fill="white"/>
<path d="M184.491 80.2475V82.578C184.491 82.6287 184.441 82.6793 184.441 82.73C183.934 83.0846 183.681 83.186 183.174 83.186C182.516 83.186 182.212 82.9327 182.212 81.5648C182.212 80.1969 182.465 79.9436 183.225 79.9436C183.58 79.9436 183.934 79.9942 184.289 80.0956H184.339C184.441 80.0956 184.491 80.1462 184.491 80.2475ZM185.606 76.7012H184.694C184.593 76.7012 184.491 76.8025 184.491 76.9038V78.221C184.491 78.525 184.491 78.7277 184.491 78.9303C184.491 78.981 184.491 79.0316 184.441 79.0823C184.39 79.133 184.339 79.133 184.289 79.0823C183.833 78.8797 183.326 78.7783 182.87 78.7783C181.452 78.7783 180.844 79.5889 180.844 81.5141C180.844 83.3886 181.452 84.3005 182.718 84.3005C183.377 84.3005 183.985 84.0472 184.491 83.6419C184.542 83.5913 184.593 83.5913 184.643 83.6419C184.694 83.6419 184.745 83.6926 184.745 83.7433L184.795 83.9459C184.795 84.0472 184.897 84.1486 184.998 84.1486H185.657C185.758 84.1486 185.859 84.0472 185.859 83.9459V76.9545C185.809 76.8025 185.758 76.7012 185.606 76.7012Z" fill="white"/>
<path d="M168.787 76.7013C168.787 77.4105 168.23 77.9171 167.571 77.9171C166.862 77.9171 166.355 77.3599 166.355 76.7013C166.355 76.0426 166.862 75.4854 167.521 75.4854C168.23 75.4854 168.787 76.0426 168.787 76.7013Z" fill="white"/>
<path d="M167.521 82.9326C166.761 82.9326 166.153 82.3247 166.153 81.5648C166.153 80.8048 166.761 80.1969 167.521 80.1969C168.281 80.1969 168.889 80.8048 168.889 81.5648C168.94 82.274 168.281 82.9326 167.521 82.9326ZM167.521 78.7783C165.647 78.7783 164.938 79.5383 164.938 81.5648C164.938 83.5913 165.647 84.3005 167.521 84.3005C169.396 84.3005 170.105 83.5406 170.105 81.5648C170.105 79.5383 169.446 78.7783 167.521 78.7783Z" fill="white"/>
</g>
<path d="M16.3689 28.3262C7.50983 28.3262 0.328125 35.5079 0.328125 44.367V103.404C0.328125 114.22 9.09682 122.989 19.9136 122.989H314.743C325.559 122.989 334.328 114.22 334.328 103.404V47.9116C334.328 37.0949 325.559 28.3262 314.743 28.3262H158.581" stroke="white" stroke-width="0.652848"/>
<rect x="20.1484" y="56.3989" width="48.9636" height="48.9636" rx="9.79272" fill="#FFDA01"/>
<path d="M28.1291 95.1632C28.1291 96.3384 28.9125 97.1218 30.1855 97.1218C30.7731 97.1218 31.3607 96.9259 31.9482 96.6321L32.4379 97.6114C31.7524 98.0031 30.969 98.2969 30.0876 98.199C27.7374 98.199 26.6602 96.5342 26.6602 94.5757C26.6602 92.5192 27.8353 91.0503 29.6959 91.0503C31.5565 91.0503 32.6337 92.4213 32.6337 94.6736V95.0653L28.1291 95.1632ZM30.969 94.086C30.969 93.2047 30.4793 92.3233 29.598 92.3233C28.7166 92.3233 28.1291 93.1068 28.1291 94.086H30.969Z" fill="black"/>
<path d="M33.9059 92.5193H33.1224L32.6328 91.3442H33.8079V90.3649C33.8079 88.7001 34.7872 88.0146 35.9623 88.0146C36.452 88.0146 36.8437 88.1126 37.2354 88.3084L36.9416 89.4836C36.6478 89.3856 36.354 89.2877 36.1582 89.2877C35.5706 89.2877 35.2768 89.6794 35.2768 90.3649V91.4421H37.1375L36.6478 92.6172H35.2768V98.297H33.8079L33.9059 92.5193Z" fill="black"/>
<path d="M38.8048 95.1632C38.8048 96.3384 39.5883 97.1218 40.8613 97.1218C41.4489 97.1218 42.0364 96.9259 42.624 96.6321L43.1136 97.6114C42.4281 98.0031 41.6447 98.2969 40.7634 98.199C38.4131 98.199 37.3359 96.5342 37.3359 94.5757C37.3359 92.5192 38.5111 91.0503 40.3717 91.0503C42.2323 91.0503 43.3095 92.4213 43.3095 94.6736V95.0653L38.8048 95.1632ZM41.7427 94.086C41.7427 93.2047 41.253 92.3233 40.3717 92.3233C39.4903 92.3233 38.9028 93.1068 38.9028 94.086H41.7427Z" fill="black"/>
<path d="M43.9922 94.7717C43.9922 92.7153 45.4611 91.1484 47.5176 91.1484C48.1051 91.1484 48.7906 91.2464 49.2803 91.6381V92.9111C48.7906 92.6173 48.2031 92.4215 47.6155 92.4215C46.2445 92.4215 45.4611 93.4008 45.4611 94.7717C45.4611 96.2406 46.2445 97.122 47.5176 97.122C48.1051 97.122 48.6927 96.9261 49.1823 96.6324L49.574 97.7096C48.8885 98.1013 48.1051 98.395 47.3217 98.395C45.2652 98.2971 43.9922 96.7303 43.9922 94.7717Z" fill="black"/>
<path d="M60.7399 91.3443L59.0752 96.4365C59.0752 96.4365 57.8021 93.4008 57.4104 92.4215C57.3125 92.1277 56.9208 91.4422 55.8436 91.4422H52.9058V89.3857L51.4368 89.8754V91.4422H50.2617V92.6173H51.4368V96.6324C51.4368 97.7096 52.1223 98.395 53.2975 98.395C53.983 98.395 54.6684 98.1992 55.1581 97.9054L54.6684 96.8282C54.3747 97.0241 53.983 97.122 53.5912 97.2199C53.1016 97.2199 52.9058 96.9261 52.9058 96.3386V92.6173H55.9415L58.4876 98.2971C57.998 99.9619 57.3125 100.452 56.5291 100.452C56.1374 100.452 55.8436 100.354 55.5498 100.158L55.1581 101.333C55.6477 101.529 56.1373 101.627 56.627 101.627C57.8021 101.627 58.8793 101.235 59.9565 98.493L62.6005 91.3443H60.7399Z" fill="black"/>
<path d="M57.5537 72.9893C56.1564 80.1151 49.31 85.8438 42.1842 85.8438C35.0583 85.8438 30.3077 80.1151 31.7049 72.9893C33.1022 65.8634 39.9486 60.1348 47.0745 60.1348C54.2003 60.1348 58.9509 65.8634 57.5537 72.9893ZM50.7072 61.9512C54.4798 63.4881 56.5756 67.5401 55.7373 72.1509C55.5975 73.129 55.1784 74.107 54.7592 74.9454C54.34 75.9234 53.7811 76.7618 53.0825 77.6001C53.0825 77.6001 53.0825 77.6001 52.9428 77.7398C52.9428 77.7398 52.9428 77.8796 52.8031 77.8796C51.2661 79.8357 49.1703 81.2329 46.795 82.211H46.6553H46.5156C46.5156 82.211 46.5156 82.211 46.3758 82.211V81.0932C47.4936 80.8137 48.6114 80.3946 49.4497 79.5562C50.4278 78.5782 50.9867 77.1809 50.847 75.7837C50.847 74.6659 50.2881 73.5482 49.4497 72.8495C48.4717 72.0112 47.4936 71.4523 46.3758 70.8934L46.2361 70.7537C45.3978 70.3345 44.5594 69.9154 43.8608 69.4962C43.4417 69.2167 43.1622 68.7976 43.0225 68.2387C43.0225 67.9592 43.1622 67.6798 43.3019 67.5401C43.7211 67.1209 44.28 66.9812 44.8389 67.1209C45.8169 67.2606 46.9347 67.4004 47.7731 67.9592C47.9128 67.9592 47.9128 67.9592 48.0525 67.9592C48.6114 67.8195 49.0306 67.5401 49.31 66.9812C49.4497 66.562 49.5895 66.2826 49.7292 65.8634C49.7292 65.7237 49.7292 65.584 49.5895 65.4442C48.6114 64.7456 47.6333 64.4662 46.5156 64.3264H46.3758C46.3758 64.3264 46.5156 62.9292 46.5156 62.5101C46.5156 62.3703 46.5156 62.0909 46.5156 61.9512C46.5156 61.8114 46.2361 61.6717 46.0964 61.6717C44.4197 61.8114 42.8828 62.2306 41.4855 62.9292C37.4336 64.8853 34.0802 68.7976 33.2419 73.2687C32.2638 78.2987 34.6391 82.6301 38.9705 84.3068C35.198 82.7699 33.1022 78.7179 33.9405 74.107C34.0802 73.129 34.4994 72.1509 34.9186 71.1729C35.0583 70.7537 35.3377 70.3345 35.6172 69.9154C37.1541 67.4004 39.3897 65.4442 42.0444 64.3264C42.4636 64.1867 43.0225 63.9073 43.4417 63.7676L43.3019 64.4662C42.3239 64.6059 41.3458 65.1648 40.6472 65.7237C38.8308 67.4004 38.6911 70.3345 40.3678 72.2906C41.2061 73.2687 42.1842 73.9673 43.3019 74.3865H43.4417C44.4197 74.8057 45.2581 75.2248 46.0964 75.7837C46.795 76.2029 46.9347 76.6221 46.9347 77.0412C46.9347 77.3207 46.795 77.7398 46.6553 77.8796C46.2361 78.159 45.6772 78.4384 45.1183 78.4384C43.7211 78.4384 42.4636 78.0193 41.3458 77.3207C41.2061 77.1809 40.9267 77.1809 40.6472 77.1809C40.3678 77.1809 40.228 77.3207 40.0883 77.4604C39.9486 77.6001 39.8089 77.7398 39.6691 78.0193C39.3897 78.4384 39.3897 78.9973 39.3897 79.5562C39.3897 79.696 39.3897 79.696 39.3897 79.8357C39.3897 79.9754 39.5294 80.1151 39.5294 80.1151C40.6472 80.9535 41.9047 81.3726 43.3019 81.5124C43.3019 81.5124 43.3019 81.5124 43.4417 81.5124C43.4417 82.211 43.4417 82.9096 43.4417 83.6082C43.4417 83.8876 43.4417 84.0274 43.4417 84.3068C43.4417 84.3068 43.4417 84.4465 43.5814 84.4465C43.7211 84.5863 43.7211 84.5863 43.8608 84.5863C43.8608 84.5863 43.8608 84.5863 44.0006 84.5863C44.28 84.5863 44.4197 84.5863 44.6992 84.4465C45.5375 84.3068 46.3758 84.0274 47.2142 83.7479C47.3539 83.7479 47.4936 83.6082 47.6333 83.6082C47.7731 83.6082 47.9128 83.4685 48.0525 83.4685C52.2442 81.5123 55.5975 77.6001 56.4359 72.9893C57.4139 67.8195 54.8989 63.4881 50.7072 61.9512Z" fill="black"/>
<rect x="79.9727" y="56.3984" width="48.9636" height="48.9636" rx="9.79272" fill="#87B843"/>
<g clip-path="url(#clip1_10792_36459)">
<path d="M92.857 72.7915H91.8192C91.6361 72.7915 91.514 72.8525 91.3919 72.9746C91.2698 73.0967 91.2088 73.2799 91.2088 73.402V73.6461C90.2931 73.0967 89.3164 72.7915 88.2786 72.7915C86.8746 72.7915 85.5927 73.3409 84.616 74.3176C83.6392 75.2943 83.0898 76.6373 83.0898 77.9803C83.0898 79.3843 83.6392 80.6663 84.616 81.643C85.5927 82.6197 86.8746 83.1691 88.2786 83.1691C89.3164 83.1691 90.2931 82.8639 91.1477 82.2534V83.6574V83.7185C91.1477 84.5121 90.8425 85.2446 90.2931 85.794C89.7437 86.3434 89.0112 86.6486 88.2786 86.6486C87.7292 86.6486 87.1798 86.4655 86.6915 86.1603C86.2031 85.8551 85.8369 85.4277 85.6537 84.9394L85.5927 84.7563C85.5927 84.6342 85.4706 84.451 85.4095 84.39C85.2875 84.2679 85.1654 84.2679 84.9822 84.2679H83.8224C83.6392 84.2679 83.5172 84.3289 83.3951 84.451C83.273 84.5731 83.2119 84.6952 83.2119 84.8783C83.2119 84.9394 83.2119 85.0004 83.273 85.0615C83.5782 86.1603 84.1886 87.198 85.1043 87.8695C86.02 88.6021 87.1188 88.9683 88.2786 88.9683C89.6216 88.9683 90.9646 88.4189 91.9413 87.4422C92.918 86.4655 93.4674 85.1225 93.4674 83.7795V83.7185V73.402C93.4674 73.2188 93.4064 73.0967 93.2843 72.9746C93.1622 72.8525 92.9791 72.7915 92.857 72.7915ZM88.2786 80.9104C87.4851 80.9104 86.7525 80.6052 86.2642 80.0558C85.7148 79.5064 85.4095 78.7739 85.4095 77.9803C85.4095 77.1867 85.7148 76.4542 86.2642 75.9048C86.7525 75.4164 87.4851 75.1112 88.2786 75.1112C89.0722 75.1112 89.8048 75.4164 90.2931 75.9658C90.8425 76.5152 91.1477 77.2478 91.1477 78.0413C91.1477 78.8349 90.8425 79.5675 90.2931 80.1169C89.7437 80.6052 89.0112 80.9104 88.2786 80.9104Z" fill="white"/>
<path d="M99.0832 80.1778C98.5949 80.1778 98.1065 79.9947 97.7402 79.6895C97.374 79.3843 97.0688 78.9569 96.9467 78.5296C96.8856 78.3465 96.8856 78.1023 97.0688 78.0413C97.2519 77.9802 97.374 78.1023 97.435 78.2854C97.6182 78.8959 98.4728 79.3843 99.1443 79.3843C99.8158 79.3843 100.67 78.9569 100.854 78.2854C100.915 78.1023 101.037 77.9802 101.22 78.0413C101.403 78.1023 101.403 78.3465 101.342 78.5296C101.22 79.018 100.915 79.4453 100.548 79.6895C99.9989 79.9947 99.5716 80.1778 99.0832 80.1778Z" fill="white"/>
<path d="M103.601 72.7915H102.563C102.502 72.7915 102.38 72.7915 102.319 72.8525C102.258 72.9136 102.197 72.9136 102.136 72.9746C102.075 73.0357 102.013 73.0967 102.013 73.1578C102.013 73.2188 101.952 73.3409 101.952 73.402V73.6461C101.098 73.0967 100.06 72.7915 99.0833 72.7915C97.6793 72.7915 96.3974 73.3409 95.4206 74.3176C94.4439 75.2943 93.8945 76.6373 93.8945 77.9803C93.8945 79.3843 94.4439 80.6663 95.4206 81.643C96.3974 82.6197 97.6793 83.1691 99.0833 83.1691C100.121 83.1691 101.098 82.8639 101.952 82.2534V82.5586C101.952 82.7418 102.013 82.8639 102.136 82.986C102.258 83.108 102.441 83.1691 102.563 83.1691H103.601C103.784 83.1691 103.906 83.108 104.028 82.986C104.15 82.8639 104.211 82.6807 104.211 82.5586V73.402C104.211 73.2188 104.15 73.0967 104.028 72.9746C103.906 72.8525 103.784 72.7915 103.601 72.7915ZM99.0833 80.9104C98.2897 80.9104 97.5572 80.6052 97.0689 80.0558C96.5194 79.5064 96.2142 78.7739 96.2142 77.9803C96.2142 77.1867 96.5194 76.4542 97.0689 75.9048C97.6183 75.3554 98.3508 75.0502 99.0833 75.0502C99.8769 75.0502 100.609 75.3554 101.098 75.9048C101.647 76.4542 101.952 77.1867 101.952 77.9803C101.952 78.7739 101.647 79.5064 101.098 80.0558C100.548 80.6052 99.8159 80.9104 99.0833 80.9104Z" fill="white"/>
<path d="M125.21 72.7915H124.172C123.989 72.7915 123.867 72.8526 123.745 72.9746C123.623 73.0967 123.562 73.2799 123.562 73.402V73.6461C122.707 73.0967 121.73 72.7305 120.693 72.7305C119.35 72.7305 118.007 73.2799 117.03 74.2566C116.053 75.2333 115.504 76.5763 115.504 77.9193C115.504 79.3233 116.053 80.6052 117.03 81.5819C118.007 82.5587 119.289 83.1081 120.693 83.1081C121.73 83.1081 122.707 82.8028 123.562 82.1924V82.5587C123.562 82.7418 123.623 82.8639 123.745 82.986C123.867 83.1081 123.989 83.1691 124.172 83.1691H125.21C125.393 83.1691 125.515 83.1081 125.637 82.986C125.759 82.8639 125.82 82.6807 125.82 82.5587V73.402C125.82 73.2188 125.759 73.0967 125.637 72.9746C125.515 72.8526 125.332 72.7915 125.21 72.7915ZM120.632 80.9104C119.838 80.9104 119.106 80.6052 118.617 80.0558C118.068 79.5064 117.763 78.7739 117.763 77.9803C117.763 77.1867 118.068 76.4542 118.617 75.9048C119.167 75.3554 119.899 75.0502 120.632 75.0502C121.425 75.0502 122.158 75.3554 122.646 75.9048C123.196 76.4542 123.501 77.1867 123.501 77.9803C123.501 78.7739 123.196 79.5064 122.646 80.0558C122.158 80.6052 121.425 80.9104 120.632 80.9104Z" fill="white"/>
<path d="M109.827 72.7915C108.789 72.7915 107.812 73.0967 106.958 73.6461V73.402C106.958 73.2188 106.897 73.0967 106.775 72.9746C106.653 72.8525 106.531 72.7915 106.347 72.7915H105.31C105.127 72.7915 105.004 72.8525 104.882 72.9746C104.76 73.0967 104.699 73.2799 104.699 73.402V82.5586C104.699 82.7418 104.76 82.8639 104.882 82.986C105.004 83.108 105.188 83.1691 105.31 83.1691H106.347C106.531 83.1691 106.653 83.108 106.775 82.986C106.897 82.8639 106.958 82.6807 106.958 82.5586V77.9803C106.958 77.1867 107.263 76.4542 107.812 75.9048C108.362 75.3554 109.094 75.0502 109.827 75.0502C110.621 75.0502 111.353 75.3554 111.841 75.9048C112.391 76.4542 112.696 77.1867 112.696 77.9803V82.5586C112.696 82.7418 112.757 82.8639 112.879 82.986C113.001 83.108 113.184 83.1691 113.307 83.1691H114.344C114.527 83.1691 114.649 83.108 114.772 82.986C114.894 82.8639 114.955 82.6807 114.955 82.5586V77.9803C114.955 76.5763 114.405 75.2943 113.429 74.3176C112.513 73.3409 111.231 72.7915 109.827 72.7915Z" fill="white"/>
</g>
<defs>
<clipPath id="clip0_10792_36459">
<rect width="43.0631" height="10.7911" fill="white" transform="translate(142.746 75.4854)"/>
</clipPath>
<clipPath id="clip1_10792_36459">
<rect width="42.7312" height="16.1768" fill="white" transform="translate(83.0898 72.7915)"/>
</clipPath>
</defs>
</svg>
