<svg width="362" height="64" viewBox="0 0 362 64" fill="none" xmlns="http://www.w3.org/2000/svg">
<g clip-path="url(#clip0_10761_21958)">
<rect width="372.417" height="124.139" transform="translate(-10.7969 -5.39893)" fill="#9A9A9A"/>
<rect x="3.23438" y="2.16016" width="355.031" height="59.3907" rx="17.9036" fill="white"/>
<path d="M32.2793 40.1934V24.875H37.8867C41.5605 24.875 43.3652 26.7871 43.3652 29.8594C43.3652 33.2969 41.2168 35.3809 37.8008 35.3809H35.3086V40.1934H32.2793ZM35.3086 32.8672H37.5859C39.2402 32.8672 40.25 31.9004 40.25 30.0312C40.25 28.291 39.3047 27.5176 37.6504 27.5176H35.3086V32.8672ZM52.548 40.1934C52.2042 39.6348 51.8819 39.0117 51.6456 38.1523C51.0011 39.6777 49.5831 40.4297 48.0577 40.4297C46.3605 40.4297 45.0069 39.5273 45.0069 37.5937C45.0069 34.0273 49.1105 34.3281 51.3448 33.2754C51.2159 31.6855 50.0773 31.2773 48.6593 31.2773C47.671 31.2773 46.5968 31.4707 45.5226 31.707V29.1074C46.7687 28.8066 47.9933 28.6348 49.089 28.6348C52.0109 28.6348 54.1808 29.8594 54.1808 33.4043V36.3262C54.1808 37.3789 54.2023 38.5176 54.4171 40.1934H52.548ZM47.9073 37.1211C47.9073 37.8516 48.3585 38.2168 49.046 38.2168C50.0773 38.2168 51.3448 37.25 51.3448 35.5098V35.0371C49.6691 35.832 47.9073 35.5742 47.9073 37.1211ZM60.8488 36.7559C60.5695 36.7559 60.2902 36.7344 60.0109 36.7129C59.6887 36.8848 59.5598 37.1641 59.5598 37.4648C59.5598 38.2383 60.6984 38.2598 62.1809 38.3887C64.3508 38.5605 66.7355 38.9473 66.7355 41.4609C66.7355 43.8672 64.1789 45.0273 60.7199 45.0273C57.5832 45.0273 55.4133 44.168 55.4133 42.1055C55.4133 40.4941 57.0461 39.7852 58.3781 39.8926C57.6262 39.5703 57.132 39.0117 57.132 38.2812C57.132 37.293 57.9699 36.6914 58.9582 36.4766C57.2394 35.8965 56.3371 34.4785 56.3371 32.6738C56.3371 30.3535 58.0344 28.6348 60.9777 28.6348C61.6867 28.6348 62.3098 28.7422 62.8469 28.8926C62.9113 28.9141 63.0187 28.9355 63.1047 28.9355C63.8566 28.9355 64.0285 28.2695 64.0285 27.4961C64.0285 27.1309 63.9641 26.7227 63.8996 26.3789H66.5852C66.6281 26.6582 66.6711 26.916 66.6711 27.1953C66.6711 28.9141 65.425 29.752 64.3078 29.752C64.1789 29.752 64.05 29.7305 63.9426 29.709C64.9523 30.4395 65.4894 31.4707 65.4894 32.8027C65.4894 34.9297 63.7922 36.7559 60.8488 36.7559ZM60.8918 34.6934C62.0519 34.6934 62.6965 34.0273 62.6965 32.6953C62.6965 31.3203 62.0949 30.6758 60.9133 30.6758C59.7531 30.6758 59.1301 31.2773 59.1301 32.6523C59.1301 34.0059 59.7316 34.6934 60.8918 34.6934ZM58.1633 41.418C58.1633 42.5352 59.5383 42.8145 60.9562 42.8145C62.4601 42.8145 63.7277 42.5352 63.7277 41.6758C63.7277 40.5371 61.5148 40.6875 59.6672 40.4082C58.8293 40.3438 58.1633 40.752 58.1633 41.418ZM74.8296 40.1934C74.4859 39.6348 74.1636 39.0117 73.9273 38.1523C73.2827 39.6777 71.8648 40.4297 70.3394 40.4297C68.6421 40.4297 67.2886 39.5273 67.2886 37.5937C67.2886 34.0273 71.3921 34.3281 73.6265 33.2754C73.4976 31.6855 72.3589 31.2773 70.9409 31.2773C69.9527 31.2773 68.8784 31.4707 67.8042 31.707V29.1074C69.0503 28.8066 70.2749 28.6348 71.3706 28.6348C74.2925 28.6348 76.4624 29.8594 76.4624 33.4043V36.3262C76.4624 37.3789 76.4839 38.5176 76.6988 40.1934H74.8296ZM70.189 37.1211C70.189 37.8516 70.6402 38.2168 71.3277 38.2168C72.3589 38.2168 73.6265 37.25 73.6265 35.5098V35.0371C71.9507 35.832 70.189 35.5742 70.189 37.1211ZM86.2887 31.6426C84.2262 31.5566 83.023 31.9863 82.5289 32.8027V40.1934H79.5211V33.1465C79.5211 32.0508 79.4996 30.6113 79.3707 28.8711H81.2828C81.691 29.4082 82.0777 30.3965 82.2711 31.3203C82.8082 29.5801 84.0113 28.6348 86.2887 28.6348V31.6426ZM97.7628 40.4297C94.4113 40.4297 92.048 38.582 92.048 34.5215C92.048 30.6543 94.5187 28.6348 97.8918 28.6348C98.6437 28.6348 99.4601 28.7422 100.277 28.9355V31.4492C99.546 31.2988 98.8371 31.2129 98.2355 31.2129C96.3019 31.2129 95.0343 32.0293 95.0343 34.543C95.0343 37.0566 96.2804 37.8516 98.1925 37.8516C98.8371 37.8516 99.546 37.7656 100.277 37.6152V40.1289C99.3957 40.3008 98.5578 40.4297 97.7628 40.4297ZM107.281 40.4297C103.672 40.4297 101.867 37.873 101.867 34.6504C101.867 31.2988 103.801 28.6348 107.496 28.6348C111.084 28.6348 112.91 31.1914 112.91 34.4141C112.91 37.7656 110.976 40.4297 107.281 40.4297ZM107.389 38.0234C109.107 38.0234 109.924 36.6699 109.924 34.5215C109.924 32.3301 109.129 31.041 107.389 31.041C105.648 31.041 104.832 32.3945 104.832 34.543C104.832 36.7344 105.648 38.0234 107.389 38.0234ZM122.957 33.4473C122.957 31.9863 122.205 31.3418 120.981 31.3418C119.842 31.3418 119.047 31.8789 118.553 32.6094V40.1934H115.545V33.1465C115.545 32.0508 115.524 30.6113 115.395 28.8711H117.307C117.694 29.3867 118.037 30.2676 118.252 31.1055C118.725 29.8379 119.864 28.6348 121.926 28.6348C124.246 28.6348 125.965 29.9238 125.965 32.9746V40.1934H122.957V33.4473Z" fill="#1D1D1D"/>
<g clip-path="url(#clip1_10761_21958)">
<path d="M310.315 21.2578C306.173 21.2578 302.804 24.6272 302.804 28.7686V33.0593C302.804 33.1075 302.743 33.1909 302.699 33.2041C302.291 33.3401 301.962 33.4585 301.659 33.5726C301.299 33.713 301.027 34.1122 301.027 34.5027V44.3562C301.027 44.7423 301.299 45.1415 301.655 45.2863C304.423 46.3831 307.336 46.9403 310.315 46.9403C313.294 46.9403 316.207 46.3831 318.975 45.2863C319.335 45.1459 319.603 44.7467 319.603 44.3562V34.5027C319.603 34.1122 319.331 33.713 318.971 33.5726C318.668 33.4541 318.339 33.3401 317.931 33.2041C317.883 33.1865 317.826 33.1075 317.826 33.0593V28.7686C317.826 24.6272 314.456 21.2578 310.315 21.2578ZM308.271 37.5035C308.271 36.3716 309.187 35.4591 310.315 35.4591C311.442 35.4591 312.359 36.376 312.359 37.5035C312.359 38.2537 311.938 38.8811 311.337 39.2364V42.6189C311.337 43.1849 310.881 43.6411 310.315 43.6411C309.749 43.6411 309.293 43.1849 309.293 42.6189V39.2364C308.692 38.8811 308.271 38.2537 308.271 37.5035ZM315.242 28.7686V32.4714C313.627 32.1248 311.969 31.9493 310.315 31.9493C308.661 31.9493 307.007 32.1248 305.388 32.4714V28.773C305.388 26.0574 307.599 23.8462 310.315 23.8462C313.031 23.8419 315.242 26.0486 315.242 28.7686Z" fill="#1D1D1D"/>
</g>
<path d="M160.12 36.4224C160.073 36.6531 160.025 36.8862 159.978 37.1169C158.79 37.3147 157.598 37.4466 156.406 37.5196C157.672 37.1782 158.911 36.8179 160.12 36.4224Z" fill="#ED1C27"/>
<path d="M186.657 13.7519C183.26 23.0938 176.268 31.5274 166.832 35.2336C166.832 35.2336 167.211 33.3817 167.213 33.3817C174.873 29.019 180.101 21.2066 182.213 12.8248C182.96 12.42 184.997 11.2646 184.997 11.2646C184.997 11.2646 186.072 12.8507 186.657 13.7519Z" fill="#ED1C27"/>
<path d="M170.584 16.9603C170.653 16.6215 170.759 16.4097 171.145 16.3815C172.799 16.2521 174.45 15.9862 176.098 16.0003C178.135 16.0144 179.483 17.4427 179.748 19.6076C180.797 17.431 181.622 15.1555 182.211 12.8236C182.183 12.8024 182.154 12.7836 182.126 12.7647C180.499 11.6611 178.64 11.3646 176.73 11.2846C172.829 11.1152 169.052 11.8682 165.319 12.8918C165.12 12.9483 164.89 13.2495 164.843 13.473C164.513 15.0684 158.68 43.4659 158.68 43.4659H163.045C164.274 43.4659 165.328 42.5247 165.577 41.3152C165.579 41.3199 170.3 18.3557 170.584 16.9603Z" fill="#1D1D1D"/>
<path d="M185.375 16.8691C181.898 24.3968 176.06 31.0114 168.48 34.527C180.757 38.012 188.836 26.0087 185.375 16.8691Z" fill="#1D1D1D"/>
<path d="M157.161 22.8596C148.246 14.3013 133.047 24.0691 135.484 35.7076C137 42.9482 144.887 44.5554 151.27 42.847C155.32 41.7646 154.837 37.8607 154.837 37.8607C149.757 39.0279 140.088 37.9784 140.882 34.1216C144.79 35.2111 150.747 35.47 154.927 33.3357C160.382 30.5496 159.451 25.4151 157.161 22.8596ZM153.423 27.7376C152.061 30.5308 144.278 30.5072 141.476 29.6907C143.234 25.728 147.855 23.3608 152.092 25.0762C153.371 25.5963 153.94 26.6693 153.423 27.7376Z" fill="#1D1D1D"/>
<path d="M213.295 21.4029C209.519 20.1722 204.99 19.6074 201.674 19.6074C192.899 19.6074 187.376 27.4551 187.634 34.3403C187.733 36.9829 188.626 42.981 196.663 43.6705C198.894 43.8611 201.023 43.5763 202.887 42.2068C202.901 42.1951 203.032 42.0798 203.001 42.2445C202.935 42.628 202.785 43.4704 202.785 43.4704C202.785 43.4704 206.975 43.4704 208.963 43.4704C209.337 43.4704 209.389 43.214 209.443 42.9528C210.872 36.011 212.309 29.0835 213.721 22.137C213.811 21.6993 213.723 21.5393 213.295 21.4029ZM206.485 25.5396C205.732 29.1187 205.002 32.7026 204.242 36.284C204.176 36.5923 204.015 36.8723 203.778 37.0817C201.973 38.6771 199.87 39.2019 197.52 38.6654C193.015 37.6371 193.754 31.2907 195.331 28.2293C196.769 25.4432 200.019 23.8689 203.328 24.2948C206.639 24.7184 206.57 25.1231 206.485 25.5396Z" fill="#1D1D1D"/>
<path d="M290.557 27.9822C290.095 22.5041 285.742 19.6074 280.517 19.6074C269.56 19.6074 265.941 28.7022 266.275 35.0227C266.595 41.0914 271.997 43.9175 277.44 43.4116C282.497 43.1128 286.296 40.8185 288.646 36.324C290.005 33.7191 290.887 30.973 290.557 27.9822ZM275.446 38.2748C270.623 37.2888 272.258 30.9518 273.264 29.0835C275.695 24.5702 279.006 24.3631 280.889 24.6596C283.376 25.0478 284.788 26.8127 284.648 29.7941C284.437 34.3074 281.057 39.4207 275.446 38.2748Z" fill="#1D1D1D"/>
<path d="M213.227 54.0321L214.044 50.0105C214.167 49.5399 214.61 49.2048 215.095 49.1905C217.544 49.1216 218.383 48.6938 219.607 47.358C220.543 46.1649 221.251 45.207 222.038 44.1042C222.142 43.9592 222.151 43.7001 222.113 43.51C220.787 36.7527 217.44 19.6089 217.44 19.6089C217.44 19.6089 223.542 19.5542 223.925 22.0119C224.662 26.7179 226.405 36.2322 226.488 36.6078C226.704 36.2346 232.409 26.4042 235.079 21.691C236.389 19.3784 241.379 19.6089 243.028 19.6089C238.108 27.8588 228.553 43.857 227.064 46.3431C223.193 52.7938 219.787 54.082 216.22 54.0368C215.249 54.0249 213.227 54.0321 213.227 54.0321Z" fill="#1D1D1D"/>
<path d="M261.827 36.891C261.481 38.5688 260.853 41.6208 260.832 41.729C260.797 41.9079 260.721 42.1055 260.482 42.1949C257.187 43.4186 253.67 43.9951 250.47 42.8679C240.114 39.2253 242.895 22.6946 253.71 20.0638C259.02 18.772 264.316 20.6427 264.574 20.7227C264.875 20.8168 265.062 21.118 265.001 21.4239C264.814 22.344 264.219 25.2572 264.193 25.363C261.197 24.4006 258.049 23.7041 254.989 24.7724C248.906 26.8996 247.585 37.2675 253.634 38.4817C256.533 39.0653 259.186 38.044 261.827 36.891Z" fill="#1D1D1D"/>
<path d="M247.199 52.5106C248.036 52.6822 250.104 52.6288 250.152 51.3172C250.152 50.791 249.452 50.2992 248.787 50.1581C247.966 49.9865 247.443 49.9827 246.613 50.1581C246.102 50.3487 245.945 49.8607 246.409 49.6967C247.289 49.3841 250.726 49.3192 250.887 51.3172C250.745 53.2923 247.745 53.1512 247.069 53.0177C246.802 52.9682 246.597 52.8462 246.597 52.5183V50.8749C246.597 50.486 247.195 50.4898 247.195 50.8749V52.5106H247.199Z" fill="#ED1C27"/>
<path d="M253.654 50.1969C252.986 50.1969 251.862 52.1758 251.527 52.885C251.331 53.3082 250.702 53.007 250.902 52.58C251.256 51.8174 252.597 49.5144 253.647 49.5373C254.696 49.5182 256.037 51.8174 256.391 52.58C256.587 53.007 255.962 53.3082 255.766 52.885C255.435 52.1758 254.319 50.1969 253.654 50.1969Z" fill="#ED1C27"/>
<path d="M258.333 52.426C259.001 52.426 260.126 50.4472 260.456 49.738C260.652 49.3147 261.281 49.6159 261.081 50.0392C260.727 50.8017 259.386 53.1047 258.337 53.0857C257.287 53.1047 255.946 50.8056 255.592 50.0392C255.396 49.6121 256.021 49.3109 256.221 49.738C256.552 50.4472 257.664 52.426 258.333 52.426Z" fill="#ED1C27"/>
<path d="M262.215 49.8769V52.7594C262.215 53.1903 261.543 53.175 261.543 52.7442V49.8692C261.543 49.4231 262.215 49.4193 262.215 49.8769Z" fill="#ED1C27"/>
<path d="M265.43 52.426C266.099 52.426 267.223 50.4472 267.554 49.738C267.75 49.3147 268.379 49.6159 268.179 50.0392C267.821 50.8017 266.48 53.1047 265.43 53.0857C264.381 53.1047 263.04 50.8056 262.686 50.0392C262.49 49.6121 263.115 49.3109 263.311 49.738C263.642 50.4472 264.754 52.426 265.423 52.426" fill="#ED1C27"/>
<path d="M270.591 51.6101C270.788 52.0143 271.35 52.3422 271.893 52.4566C272.71 52.632 273.233 52.632 274.063 52.4566C274.558 52.3002 274.731 52.7654 274.263 52.9179C273.343 53.2191 269.97 53.3259 269.773 51.3203C269.884 49.4101 272.577 49.4596 273.607 49.5931C274.11 49.6579 274.008 50.1726 273.481 50.0659C272.793 49.9782 270.921 49.8714 270.556 51.0725H272.474C272.773 51.0725 272.773 51.6101 272.474 51.6101H270.591Z" fill="#ED1C27"/>
<path d="M281.289 52.5136C282.126 52.6851 284.194 52.6318 284.241 51.3201C284.241 50.794 283.541 50.3021 282.873 50.161C282.055 49.9894 281.532 49.9856 280.703 50.161C280.192 50.3517 280.035 49.8636 280.498 49.6997C281.383 49.387 284.815 49.3222 284.977 51.3201C284.835 53.2952 281.835 53.1541 281.163 53.0207C280.896 52.9711 280.691 52.8491 280.691 52.5212V50.8778C280.691 50.4889 281.289 50.4927 281.289 50.8778V52.5136Z" fill="#ED1C27"/>
<path d="M287.747 50.1969C287.079 50.1969 285.95 52.1758 285.62 52.885C285.423 53.3082 284.798 53.007 284.995 52.58C285.353 51.8174 286.693 49.5144 287.739 49.5373C288.789 49.5182 290.129 51.8174 290.483 52.58C290.68 53.007 290.055 53.3082 289.858 52.885C289.528 52.1758 288.415 50.1969 287.747 50.1969Z" fill="#ED1C27"/>
<path d="M269.309 49.8769V52.7594C269.309 53.1903 268.637 53.175 268.637 52.7442V49.8692C268.637 49.4231 269.309 49.4193 269.309 49.8769Z" fill="#ED1C27"/>
<path d="M277.386 51.8994C276.969 51.1635 276.513 50.1874 276.199 50.1645C275.424 50.1645 275.774 51.6439 275.762 52.7992C275.758 53.2072 275.09 53.2072 275.09 52.7534C275.09 51.2817 274.764 49.5239 276.214 49.5239C276.639 49.5239 277.04 50.1416 277.402 50.7212C277.819 51.4609 278.314 52.437 278.625 52.4598C279.399 52.4598 279.029 51.011 279.045 49.8556C279.049 49.4477 279.717 49.4477 279.717 49.9014C279.717 51.377 280.063 53.1042 278.613 53.1042C278.184 53.1042 277.748 52.4865 277.386 51.9032" fill="#ED1C27"/>
<path fill-rule="evenodd" clip-rule="evenodd" d="M237.878 50.2397C237.892 50.3489 237.878 50.816 237.438 51.457C236.978 52.1629 237.705 53.3427 239.175 53.0426C239.498 53.1551 239.847 53.1722 240.072 53.1688C240.297 53.1688 240.648 53.1551 240.972 53.046C242.441 53.3461 243.166 52.1629 242.705 51.457C242.262 50.8194 242.251 50.3489 242.266 50.2397H237.885H237.878Z" fill="#E5252B"/>
<path fill-rule="evenodd" clip-rule="evenodd" d="M240.066 53.1603C238.634 53.1229 238.374 52.483 238.767 52.3502C238.999 52.2719 239.3 52.1426 239.3 52.1426C239.146 51.421 239.399 50.4986 240.069 50.502C240.739 50.502 240.982 51.4516 240.831 52.1596C240.831 52.1596 241.136 52.2651 241.361 52.3536C241.736 52.4932 241.498 53.1263 240.066 53.1637" fill="#0682C4"/>
<path fill-rule="evenodd" clip-rule="evenodd" d="M239.53 52.657C239.148 51.6273 239.484 50.6621 240.069 50.6621C240.627 50.6655 241.005 51.6001 240.613 52.6536C240.613 52.6536 240.427 52.6128 240.052 52.6128C239.772 52.6128 239.533 52.657 239.533 52.657" fill="#FFE11B"/>
<path fill-rule="evenodd" clip-rule="evenodd" d="M240.061 53.1757C240.64 53.1757 241.092 53.0567 241.092 52.8901C241.092 52.7235 240.64 52.6011 240.061 52.6011C239.483 52.6011 239.031 52.7201 239.031 52.8901C239.031 53.0601 239.483 53.1757 240.061 53.1757Z" fill="#F49824"/>
<path fill-rule="evenodd" clip-rule="evenodd" d="M238.157 50.7515H238.852C238.961 50.7515 239.049 50.8366 239.049 50.9422V51.3951C239.049 51.5041 238.961 51.5892 238.852 51.5892H238.157C238.048 51.5892 237.957 51.5041 237.957 51.3951V50.9422C237.957 50.8366 238.045 50.7515 238.157 50.7515Z" fill="#0682C4"/>
<path d="M238.236 50.8643H238.782C238.866 50.8643 238.932 50.9287 238.932 51.0068V51.3359C238.932 51.4173 238.866 51.4818 238.782 51.4818H238.236C238.152 51.4818 238.086 51.4173 238.086 51.3359V51.0068C238.086 50.9287 238.152 50.8643 238.236 50.8643Z" fill="#231F20"/>
<path fill-rule="evenodd" clip-rule="evenodd" d="M238.932 51.2495C238.686 51.226 238.603 50.9468 238.582 50.8594H238.783C238.866 50.8594 238.932 50.9233 238.932 51.0006V51.2462V51.2495Z" fill="#FFE11B"/>
<path fill-rule="evenodd" clip-rule="evenodd" d="M238.439 50.8643C238.426 50.945 238.346 51.2409 238.086 51.2544V51.0055C238.086 50.9282 238.152 50.8643 238.235 50.8643H238.439Z" fill="#FFE11B"/>
<path fill-rule="evenodd" clip-rule="evenodd" d="M241.286 50.7515H241.978C242.087 50.7515 242.178 50.8366 242.178 50.9422V51.3951C242.178 51.5041 242.09 51.5892 241.978 51.5892H241.286C241.178 51.5892 241.09 51.5041 241.09 51.3951V50.9422C241.09 50.8366 241.178 50.7515 241.286 50.7515Z" fill="#0682C4"/>
<path d="M241.366 50.8643H241.915C241.999 50.8643 242.065 50.9287 242.065 51.0068V51.3359C242.065 51.4173 241.999 51.4818 241.915 51.4818H241.366C241.285 51.4818 241.219 51.4173 241.219 51.3359V51.0068C241.219 50.9287 241.285 50.8643 241.366 50.8643Z" fill="#231F20"/>
<path fill-rule="evenodd" clip-rule="evenodd" d="M242.061 51.2495C241.815 51.226 241.732 50.9468 241.711 50.8594H241.915C241.999 50.8594 242.064 50.9233 242.064 51.0006V51.2462L242.061 51.2495Z" fill="#FFE11B"/>
<path fill-rule="evenodd" clip-rule="evenodd" d="M241.568 50.8643C241.551 50.945 241.475 51.2409 241.215 51.2544V51.0055C241.215 50.9282 241.281 50.8643 241.36 50.8643H241.568Z" fill="#FFE11B"/>
<path fill-rule="evenodd" clip-rule="evenodd" d="M241.509 48.4854C241.436 48.2448 241.422 48.1261 241.649 48.1261H242.148C242.452 48.1193 242.326 48.3498 242.298 48.5735C242.26 48.8684 242.26 48.9599 242.26 48.9599C242.26 48.9599 241.509 48.4922 241.509 48.4888" fill="#E5252B"/>
<path fill-rule="evenodd" clip-rule="evenodd" d="M240.062 50.2157C239.314 50.2157 238.287 50.2805 237.626 50.3282C237.12 50.3657 236.726 49.9907 237.063 49.636C237.784 48.8791 239.539 47.9277 240.07 47.9277C240.636 47.9277 242.355 48.8791 243.076 49.636C243.413 49.9907 243.076 50.3282 242.562 50.3282C241.996 50.3282 240.811 50.2157 240.062 50.2157Z" fill="#F49824"/>
<path d="M240.473 51.9108C240.473 51.8574 240.514 51.814 240.569 51.814C240.624 51.814 240.662 51.8574 240.662 51.9108C240.662 51.9643 240.621 52.0044 240.569 52.0044C240.517 52.0044 240.473 51.9609 240.473 51.9108Z" fill="#231F20"/>
<path fill-rule="evenodd" clip-rule="evenodd" d="M240.066 52.585C239.767 52.585 239.528 52.6293 239.528 52.6293C239.173 51.6234 239.496 50.6789 240.066 50.6789C240.635 50.6789 240.962 51.6268 240.604 52.6293C240.604 52.6293 240.375 52.585 240.066 52.585ZM240.593 52.6634C240.888 52.7077 241.085 52.793 241.085 52.8884C241.085 53.0317 240.632 53.151 240.069 53.151C239.507 53.151 239.053 53.0317 239.053 52.8884C239.053 52.793 239.246 52.7077 239.542 52.6634C239.542 52.6634 239.862 52.6259 240.069 52.6259C240.277 52.6259 240.597 52.6634 240.597 52.6634M240.639 52.6327C241.011 51.5893 240.649 50.6312 240.069 50.6346C239.489 50.6346 239.127 51.5927 239.5 52.6327C239.211 52.6873 239.021 52.7793 239.021 52.8884C239.021 52.9225 239.043 52.9532 239.078 52.9839C238.593 52.7793 238.547 52.4418 238.814 52.3497C239.043 52.2713 239.324 52.1656 239.324 52.1656C239.176 51.4632 239.405 50.522 240.073 50.522C240.741 50.522 240.969 51.4632 240.818 52.1656C240.818 52.1656 241.096 52.2747 241.328 52.3497C241.588 52.4349 241.549 52.7725 241.068 52.9805C241.103 52.9498 241.12 52.9191 241.12 52.885C241.12 52.7793 240.931 52.6839 240.642 52.6293M241.539 48.4796C241.483 48.2579 241.479 48.1659 241.676 48.1659H242.108C242.393 48.1625 242.277 48.3739 242.253 48.5887C242.239 48.7183 242.228 48.824 242.225 48.9024C241.996 48.7455 241.764 48.6057 241.542 48.4796M241.04 53.0351C242.418 53.2601 243.089 52.1417 242.65 51.4631C242.309 50.9721 242.228 50.5595 242.217 50.3481C241.314 50.3038 240.692 50.2595 240.069 50.2527C239.447 50.2595 238.825 50.3038 237.921 50.3481C237.907 50.5595 237.826 50.9721 237.485 51.4631C237.045 52.1417 237.717 53.2601 239.095 53.0351C238.512 52.8202 238.438 52.4554 238.751 52.3361C238.979 52.2508 239.285 52.1417 239.285 52.1417C239.134 51.4188 239.398 50.4641 240.066 50.4641C240.737 50.4641 241.001 51.4154 240.846 52.1417C240.846 52.1417 241.152 52.2508 241.381 52.3361C241.694 52.452 241.62 52.8202 241.036 53.0351M240.069 50.164C239.292 50.1742 238.557 50.2288 237.692 50.2834C237.154 50.3175 236.852 49.9697 237.19 49.6082C237.689 49.0797 239.394 47.9886 240.069 47.9886C240.744 47.9886 242.446 49.0797 242.949 49.6082C243.286 49.9662 242.984 50.3175 242.45 50.2834C241.585 50.2288 240.846 50.1776 240.073 50.164M241.44 48.4216C241.433 48.4011 241.426 48.3773 241.423 48.3568C241.384 48.2272 241.423 48.084 241.651 48.084H242.154C242.45 48.084 242.418 48.2818 242.365 48.4728C242.33 48.6091 242.302 48.783 242.288 48.9467C242.288 48.9467 242.699 49.24 242.928 49.4275C243.645 50.0174 243.177 50.3993 242.492 50.3686C242.421 50.3652 242.355 50.3618 242.288 50.3584C242.291 50.5527 242.351 50.9142 242.667 51.3268C243.462 52.2508 242.407 53.4101 240.92 53.0828C240.674 53.1612 240.284 53.1987 240.069 53.1987C239.855 53.1987 239.464 53.1612 239.215 53.0828C237.728 53.4101 236.673 52.2508 237.467 51.3268C237.784 50.9176 237.844 50.5561 237.847 50.3584L237.647 50.3686C236.961 50.4027 236.493 50.0174 237.211 49.4275C238.28 48.5546 239.57 47.9067 240.069 47.9033C240.343 47.9033 240.857 48.1045 241.44 48.425" fill="#231F20"/>
<path d="M238.847 51.608H238.154C238.032 51.608 237.934 51.5129 237.934 51.394V50.9421C237.934 50.8266 238.032 50.7314 238.154 50.7314H238.847C238.967 50.7314 239.065 50.8266 239.065 50.9421V51.394C239.065 51.5129 238.967 51.608 238.847 51.608ZM238.158 50.7722C238.06 50.7722 237.979 50.8504 237.979 50.9421V51.394C237.979 51.4891 238.06 51.5672 238.158 51.5672H238.851C238.949 51.5672 239.026 51.4891 239.026 51.394V50.9421C239.026 50.847 238.946 50.7722 238.851 50.7722H238.158Z" fill="#231F20"/>
<path d="M241.981 51.608H241.291C241.172 51.608 241.074 51.5129 241.074 51.394V50.9421C241.074 50.8266 241.172 50.7314 241.291 50.7314H241.981C242.104 50.7314 242.202 50.8266 242.202 50.9421V51.394C242.202 51.5129 242.104 51.608 241.981 51.608ZM241.288 50.7722C241.19 50.7722 241.113 50.8504 241.113 50.9421V51.394C241.113 51.4891 241.193 51.5672 241.288 51.5672H241.978C242.076 51.5672 242.156 51.4891 242.156 51.394V50.9421C242.156 50.847 242.076 50.7722 241.978 50.7722H241.288Z" fill="#231F20"/>
</g>
<defs>
<clipPath id="clip0_10761_21958">
<rect width="361.622" height="63.6886" rx="19.4304" fill="white"/>
</clipPath>
<clipPath id="clip1_10761_21958">
<rect width="18.5753" height="25.6825" fill="white" transform="translate(301.027 21.2568)"/>
</clipPath>
</defs>
</svg>
