<svg width="362" height="64" viewBox="0 0 362 64" fill="none" xmlns="http://www.w3.org/2000/svg">
<g clip-path="url(#clip0_10765_21614)">
<g clip-path="url(#clip1_10765_21614)">
<rect width="375.697" height="124.511" transform="translate(-14.0508 -5.41357)" fill="#F8991D"/>
<g filter="url(#filter0_f_10765_21614)">
<path d="M-16.4389 23.2518C1.74813 7.97462 82.4009 33.8914 102.17 53.017C121.94 72.1427 90.0195 108.767 71.8325 124.044C53.6455 139.321 -6.9758 102.436 -26.7452 83.3101C-46.5147 64.1844 -34.6259 38.5289 -16.4389 23.2518Z" fill="url(#paint0_linear_10765_21614)" fill-opacity="0.87"/>
</g>
<g filter="url(#filter1_f_10765_21614)">
<path d="M267.661 -40.0926C293.166 -51.9231 370.52 -8.74365 384.606 14.8831C398.691 38.5099 350.181 69.2923 324.676 81.1228C299.17 92.9533 247.672 42.7249 233.587 19.0981C219.501 -4.52874 242.155 -28.2621 267.661 -40.0926Z" fill="url(#paint1_linear_10765_21614)" fill-opacity="0.87"/>
</g>
<rect x="3.26953" y="2.16504" width="356.094" height="59.5685" rx="17.9573" fill="black"/>
<path d="M161.846 36.5322C161.798 36.7637 161.751 36.9975 161.703 37.2289C160.512 37.4273 159.317 37.5595 158.121 37.6327C159.39 37.2903 160.634 36.929 161.846 36.5322Z" fill="#ED1C27"/>
<path d="M188.462 13.794C185.056 23.1639 178.043 31.6227 168.578 35.34C168.578 35.34 168.958 33.4826 168.961 33.4826C176.643 29.1068 181.887 21.271 184.006 12.8641C184.754 12.4582 186.797 11.2993 186.797 11.2993C186.797 11.2993 187.876 12.8901 188.462 13.794Z" fill="#ED1C27"/>
<path d="M172.342 17.0121C172.411 16.6722 172.518 16.4598 172.905 16.4315C174.564 16.3017 176.219 16.035 177.873 16.0491C179.916 16.0633 181.268 17.4959 181.534 19.6673C182.586 17.4841 183.413 15.2018 184.004 12.8629C183.976 12.8417 183.947 12.8228 183.919 12.8039C182.287 11.697 180.422 11.3996 178.507 11.3194C174.594 11.1494 170.805 11.9047 167.061 12.9313C166.862 12.988 166.631 13.2901 166.584 13.5143C166.254 15.1145 160.402 43.597 160.402 43.597H164.781C166.014 43.597 167.071 42.653 167.32 41.4398C167.323 41.4446 172.057 18.4117 172.342 17.0121Z" fill="white"/>
<path d="M187.176 16.9204C183.689 24.4706 177.833 31.105 170.23 34.6311C182.543 38.1265 190.647 26.0873 187.176 16.9204Z" fill="white"/>
<path d="M158.879 22.9289C149.937 14.3449 134.692 24.142 137.137 35.8154C138.657 43.0776 146.568 44.6896 152.971 42.9762C157.033 41.8905 156.548 37.975 156.548 37.975C151.453 39.1456 141.755 38.093 142.551 34.2246C146.471 35.3174 152.446 35.577 156.639 33.4364C162.11 30.6419 161.176 25.492 158.879 22.9289ZM155.13 27.8215C153.764 30.623 145.958 30.5994 143.147 29.7804C144.91 25.8059 149.545 23.4316 153.795 25.1522C155.078 25.6738 155.648 26.75 155.13 27.8215Z" fill="white"/>
<path d="M215.18 21.4678C211.393 20.2334 206.851 19.667 203.525 19.667C194.723 19.667 189.183 27.5382 189.442 34.444C189.542 37.0945 190.438 43.1105 198.498 43.8021C200.736 43.9933 202.872 43.7077 204.741 42.3341C204.756 42.3223 204.886 42.2066 204.856 42.3718C204.789 42.7565 204.639 43.6015 204.639 43.6015C204.639 43.6015 208.842 43.6015 210.835 43.6015C211.21 43.6015 211.263 43.3442 211.317 43.0822C212.75 36.1197 214.192 29.1714 215.608 22.2042C215.698 21.7652 215.61 21.6047 215.18 21.4678ZM208.35 25.617C207.595 29.2068 206.863 32.8013 206.1 36.3935C206.034 36.7027 205.872 36.9836 205.635 37.1936C203.824 38.7938 201.715 39.3201 199.358 38.782C194.84 37.7506 195.581 31.3852 197.163 28.3147C198.605 25.5202 201.865 23.9413 205.183 24.3684C208.505 24.7933 208.436 25.1992 208.35 25.617Z" fill="white"/>
<path d="M292.673 28.0668C292.21 22.5724 287.843 19.667 282.603 19.667C271.613 19.667 267.983 28.789 268.318 35.1285C268.639 41.2153 274.057 44.0499 279.517 43.5425C284.589 43.2427 288.399 40.9416 290.756 36.4336C292.12 33.8209 293.003 31.0666 292.673 28.0668ZM277.516 38.3902C272.68 37.4013 274.319 31.0454 275.328 29.1714C277.766 24.6446 281.087 24.4369 282.976 24.7343C285.47 25.1237 286.886 26.8938 286.746 29.8842C286.534 34.411 283.144 39.5396 277.516 38.3902Z" fill="white"/>
<path d="M215.113 54.1947L215.933 50.1611C216.056 49.6891 216.501 49.353 216.988 49.3387C219.444 49.2696 220.285 48.8404 221.513 47.5007C222.452 46.304 223.162 45.3432 223.951 44.2371C224.055 44.0917 224.065 43.8318 224.027 43.6411C222.696 36.8637 219.34 19.6685 219.34 19.6685C219.34 19.6685 225.459 19.6137 225.844 22.0786C226.583 26.7988 228.331 36.3416 228.415 36.7182C228.631 36.344 234.354 26.4841 237.031 21.7568C238.345 19.4373 243.35 19.6685 245.004 19.6685C240.069 27.9431 230.486 43.9892 228.992 46.4828C225.11 52.9527 221.694 54.2448 218.116 54.1995C217.142 54.1876 215.113 54.1947 215.113 54.1947Z" fill="white"/>
<path d="M263.861 37.0023C263.514 38.6851 262.884 41.7462 262.863 41.8548C262.827 42.0342 262.751 42.2324 262.511 42.3221C259.207 43.5494 255.679 44.1277 252.47 42.9971C242.083 39.3436 244.872 22.7634 255.719 20.1247C261.046 18.829 266.358 20.7053 266.617 20.7856C266.918 20.88 267.106 21.1821 267.044 21.4889C266.856 22.4117 266.26 25.3336 266.234 25.4398C263.229 24.4745 260.072 23.7759 257.002 24.8474C250.902 26.981 249.576 37.3799 255.643 38.5978C258.551 39.1831 261.212 38.1588 263.861 37.0023Z" fill="white"/>
<path d="M249.186 52.669C250.026 52.8411 252.101 52.7875 252.148 51.472C252.148 50.9442 251.446 50.4509 250.78 50.3094C249.955 50.1373 249.431 50.1335 248.599 50.3094C248.086 50.5006 247.928 50.0111 248.394 49.8466C249.277 49.533 252.724 49.468 252.885 51.472C252.743 53.453 249.735 53.3115 249.056 53.1776C248.788 53.1279 248.583 53.0055 248.583 52.6766V51.0283C248.583 50.6383 249.182 50.6421 249.182 51.0283V52.669H249.186Z" fill="white"/>
<path d="M255.663 50.3483C254.992 50.3483 253.865 52.3331 253.529 53.0444C253.332 53.4689 252.701 53.1668 252.902 52.7385C253.257 51.9736 254.602 49.6637 255.655 49.6867C256.708 49.6676 258.052 51.9736 258.407 52.7385C258.604 53.1668 257.978 53.4689 257.78 53.0444C257.449 52.3331 256.329 50.3483 255.663 50.3483Z" fill="white"/>
<path d="M260.353 52.5841C261.023 52.5841 262.151 50.5993 262.482 49.888C262.679 49.4635 263.31 49.7656 263.109 50.1901C262.754 50.955 261.41 53.2649 260.357 53.2457C259.304 53.2649 257.959 50.9588 257.604 50.1901C257.407 49.7618 258.034 49.4597 258.235 49.888C258.566 50.5993 259.682 52.5841 260.353 52.5841Z" fill="white"/>
<path d="M264.249 50.0273V52.9185C264.249 53.3506 263.574 53.3353 263.574 52.9032V50.0197C263.574 49.5722 264.249 49.5684 264.249 50.0273Z" fill="white"/>
<path d="M267.47 52.5841C268.14 52.5841 269.268 50.5993 269.599 49.888C269.797 49.4635 270.428 49.7656 270.226 50.1901C269.868 50.955 268.523 53.2649 267.47 53.2457C266.417 53.2649 265.072 50.9588 264.718 50.1901C264.52 49.7618 265.147 49.4597 265.345 49.888C265.676 50.5993 266.792 52.5841 267.462 52.5841" fill="white"/>
<path d="M272.648 51.7657C272.846 52.1711 273.409 52.5 273.954 52.6147C274.774 52.7906 275.298 52.7906 276.13 52.6147C276.627 52.4579 276.801 52.9245 276.331 53.0775C275.409 53.3796 272.025 53.4867 271.828 51.4751C271.939 49.5591 274.64 49.6088 275.673 49.7427C276.178 49.8077 276.075 50.324 275.547 50.2169C274.857 50.1289 272.98 50.0218 272.613 51.2265H274.537C274.837 51.2265 274.837 51.7657 274.537 51.7657H272.648Z" fill="white"/>
<path d="M283.378 52.6719C284.218 52.844 286.292 52.7905 286.339 51.4749C286.339 50.9471 285.637 50.4538 284.967 50.3123C284.147 50.1402 283.622 50.1364 282.79 50.3123C282.278 50.5035 282.12 50.014 282.585 49.8496C283.472 49.536 286.915 49.471 287.077 51.4749C286.935 53.4559 283.926 53.3144 283.252 53.1805C282.983 53.1308 282.778 53.0084 282.778 52.6795V51.0313C282.778 50.6412 283.378 50.645 283.378 51.0313V52.6719Z" fill="white"/>
<path d="M289.857 50.3483C289.186 50.3483 288.055 52.3331 287.723 53.0444C287.526 53.4689 286.899 53.1668 287.096 52.7385C287.455 51.9736 288.8 49.6637 289.849 49.6867C290.902 49.6676 292.247 51.9736 292.601 52.7385C292.799 53.1668 292.172 53.4689 291.974 53.0444C291.643 52.3331 290.527 50.3483 289.857 50.3483Z" fill="white"/>
<path d="M271.362 50.0273V52.9185C271.362 53.3506 270.688 53.3353 270.688 52.9032V50.0197C270.688 49.5722 271.362 49.5684 271.362 50.0273Z" fill="white"/>
<path d="M279.463 52.0559C279.045 51.3178 278.588 50.3388 278.272 50.3158C277.496 50.3158 277.847 51.7997 277.835 52.9584C277.831 53.3676 277.16 53.3676 277.16 52.9125C277.16 51.4363 276.833 49.6733 278.288 49.6733C278.714 49.6733 279.116 50.2929 279.479 50.8742C279.897 51.6161 280.394 52.5951 280.706 52.6181C281.482 52.6181 281.112 51.1648 281.127 50.0061C281.131 49.5969 281.802 49.5968 281.802 50.0519C281.802 51.532 282.149 53.2644 280.694 53.2644C280.264 53.2644 279.826 52.6448 279.463 52.0597" fill="white"/>
<path fill-rule="evenodd" clip-rule="evenodd" d="M239.836 50.3916C239.85 50.501 239.836 50.9696 239.396 51.6125C238.934 52.3205 239.664 53.5038 241.138 53.2029C241.462 53.3157 241.811 53.3328 242.037 53.3294C242.263 53.3294 242.615 53.3157 242.94 53.2063C244.414 53.5072 245.14 52.3205 244.678 51.6125C244.234 50.973 244.223 50.501 244.237 50.3916H239.843H239.836Z" fill="#E5252B"/>
<path fill-rule="evenodd" clip-rule="evenodd" d="M242.031 53.3202C240.595 53.2826 240.334 52.6408 240.728 52.5076C240.961 52.4291 241.264 52.2994 241.264 52.2994C241.109 51.5756 241.362 50.6504 242.034 50.6538C242.707 50.6538 242.95 51.6063 242.798 52.3164C242.798 52.3164 243.105 52.4223 243.33 52.511C243.707 52.651 243.467 53.286 242.031 53.3236" fill="#0682C4"/>
<path fill-rule="evenodd" clip-rule="evenodd" d="M241.495 52.8158C241.112 51.783 241.449 50.8149 242.036 50.8149C242.595 50.8184 242.975 51.7557 242.581 52.8124C242.581 52.8124 242.395 52.7715 242.019 52.7715C241.738 52.7715 241.499 52.8158 241.499 52.8158" fill="#FFE11B"/>
<path fill-rule="evenodd" clip-rule="evenodd" d="M242.029 53.3361C242.609 53.3361 243.063 53.2168 243.063 53.0496C243.063 52.8825 242.609 52.7598 242.029 52.7598C241.449 52.7598 240.996 52.8791 240.996 53.0496C240.996 53.2202 241.449 53.3361 242.029 53.3361Z" fill="#F49824"/>
<path fill-rule="evenodd" clip-rule="evenodd" d="M240.119 50.9043H240.816C240.925 50.9043 241.013 50.9897 241.013 51.0956V51.5499C241.013 51.6592 240.925 51.7446 240.816 51.7446H240.119C240.009 51.7446 239.918 51.6592 239.918 51.5499V51.0956C239.918 50.9897 240.006 50.9043 240.119 50.9043Z" fill="#0682C4"/>
<path d="M240.198 51.0176H240.745C240.829 51.0176 240.896 51.0822 240.896 51.1605V51.4906C240.896 51.5723 240.829 51.637 240.745 51.637H240.198C240.114 51.637 240.047 51.5723 240.047 51.4906V51.1605C240.047 51.0822 240.114 51.0176 240.198 51.0176Z" fill="#231F20"/>
<path fill-rule="evenodd" clip-rule="evenodd" d="M240.894 51.404C240.647 51.3804 240.564 51.1004 240.543 51.0127H240.745C240.828 51.0127 240.894 51.0768 240.894 51.1544V51.4006V51.404Z" fill="#FFE11B"/>
<path fill-rule="evenodd" clip-rule="evenodd" d="M240.401 51.0176C240.388 51.0985 240.308 51.3954 240.047 51.4089V51.1593C240.047 51.0817 240.113 51.0176 240.196 51.0176H240.401Z" fill="#FFE11B"/>
<path fill-rule="evenodd" clip-rule="evenodd" d="M243.256 50.9043H243.949C244.058 50.9043 244.15 50.9897 244.15 51.0956V51.5499C244.15 51.6592 244.062 51.7446 243.949 51.7446H243.256C243.147 51.7446 243.059 51.6592 243.059 51.5499V51.0956C243.059 50.9897 243.147 50.9043 243.256 50.9043Z" fill="#0682C4"/>
<path d="M243.339 51.0176H243.889C243.974 51.0176 244.04 51.0822 244.04 51.1605V51.4906C244.04 51.5723 243.974 51.637 243.889 51.637H243.339C243.258 51.637 243.191 51.5723 243.191 51.4906V51.1605C243.191 51.0822 243.258 51.0176 243.339 51.0176Z" fill="#231F20"/>
<path fill-rule="evenodd" clip-rule="evenodd" d="M244.035 51.404C243.788 51.3804 243.704 51.1004 243.684 51.0127H243.889C243.972 51.0127 244.038 51.0768 244.038 51.1544V51.4006L244.035 51.404Z" fill="#FFE11B"/>
<path fill-rule="evenodd" clip-rule="evenodd" d="M243.538 51.0176C243.521 51.0985 243.444 51.3954 243.184 51.4089V51.1593C243.184 51.0817 243.25 51.0176 243.33 51.0176H243.538Z" fill="#FFE11B"/>
<path fill-rule="evenodd" clip-rule="evenodd" d="M243.478 48.6315C243.404 48.3901 243.39 48.2711 243.618 48.2711H244.119C244.424 48.2643 244.298 48.4955 244.27 48.7199C244.231 49.0156 244.231 49.1074 244.231 49.1074C244.231 49.1074 243.478 48.6383 243.478 48.6349" fill="#E5252B"/>
<path fill-rule="evenodd" clip-rule="evenodd" d="M242.029 50.3671C241.278 50.3671 240.248 50.4321 239.585 50.48C239.077 50.5176 238.682 50.1414 239.021 49.7857C239.744 49.0265 241.503 48.0723 242.036 48.0723C242.604 48.0723 244.328 49.0265 245.051 49.7857C245.39 50.1414 245.051 50.48 244.536 50.48C243.968 50.48 242.78 50.3671 242.029 50.3671Z" fill="#F49824"/>
<path d="M242.441 52.0674C242.441 52.0138 242.483 51.9702 242.538 51.9702C242.593 51.9702 242.631 52.0138 242.631 52.0674C242.631 52.121 242.59 52.1612 242.538 52.1612C242.486 52.1612 242.441 52.1176 242.441 52.0674Z" fill="#231F20"/>
<path fill-rule="evenodd" clip-rule="evenodd" d="M242.032 52.7435C241.733 52.7435 241.493 52.788 241.493 52.788C241.137 51.7791 241.461 50.8317 242.032 50.8317C242.604 50.8317 242.932 51.7825 242.572 52.788C242.572 52.788 242.343 52.7435 242.032 52.7435ZM242.561 52.8222C242.858 52.8666 243.055 52.9521 243.055 53.0479C243.055 53.1915 242.6 53.3112 242.036 53.3112C241.472 53.3112 241.017 53.1915 241.017 53.0479C241.017 52.9521 241.211 52.8666 241.507 52.8222C241.507 52.8222 241.828 52.7846 242.036 52.7846C242.244 52.7846 242.565 52.8222 242.565 52.8222M242.607 52.7914C242.981 51.7449 242.618 50.7839 242.036 50.7873C241.454 50.7873 241.091 51.7483 241.465 52.7914C241.175 52.8461 240.985 52.9385 240.985 53.0479C240.985 53.0821 241.006 53.1129 241.041 53.1437C240.555 52.9385 240.509 52.5999 240.777 52.5075C241.006 52.4289 241.288 52.3229 241.288 52.3229C241.14 51.6183 241.369 50.6744 242.039 50.6744C242.709 50.6744 242.939 51.6183 242.787 52.3229C242.787 52.3229 243.066 52.4323 243.298 52.5075C243.559 52.593 243.521 52.9316 243.037 53.1402C243.073 53.1095 243.09 53.0787 243.09 53.0445C243.09 52.9385 242.9 52.8427 242.611 52.788M243.51 48.6258C243.454 48.4035 243.45 48.3112 243.647 48.3112H244.081C244.367 48.3078 244.251 48.5198 244.226 48.7353C244.212 48.8652 244.201 48.9713 244.198 49.0499C243.968 48.8926 243.736 48.7524 243.513 48.6258M243.009 53.195C244.392 53.4207 245.065 52.2989 244.624 51.6183C244.282 51.1259 244.201 50.712 244.191 50.5C243.284 50.4555 242.66 50.4111 242.036 50.4042C241.412 50.4111 240.787 50.4555 239.881 50.5C239.867 50.712 239.786 51.1259 239.444 51.6183C239.003 52.2989 239.677 53.4207 241.059 53.195C240.474 52.9795 240.4 52.6136 240.713 52.4939C240.943 52.4084 241.249 52.2989 241.249 52.2989C241.098 51.5739 241.362 50.6163 242.032 50.6163C242.706 50.6163 242.97 51.5705 242.815 52.2989C242.815 52.2989 243.122 52.4084 243.351 52.4939C243.665 52.6101 243.591 52.9795 243.006 53.195M242.036 50.3153C241.257 50.3256 240.519 50.3803 239.652 50.435C239.112 50.4692 238.809 50.1204 239.148 49.7579C239.648 49.2278 241.359 48.1334 242.036 48.1334C242.713 48.1334 244.42 49.2278 244.924 49.7579C245.263 50.117 244.959 50.4692 244.423 50.435C243.556 50.3803 242.815 50.329 242.039 50.3153M243.411 48.5677C243.404 48.5472 243.397 48.5232 243.394 48.5027C243.355 48.3727 243.394 48.2291 243.623 48.2291H244.127C244.423 48.2291 244.392 48.4275 244.339 48.619C244.303 48.7558 244.275 48.9302 244.261 49.0944C244.261 49.0944 244.674 49.3885 244.903 49.5766C245.622 50.1683 245.153 50.5513 244.466 50.5205C244.395 50.5171 244.328 50.5137 244.261 50.5103C244.265 50.7052 244.325 51.0677 244.642 51.4815C245.439 52.4084 244.381 53.5712 242.889 53.2428C242.642 53.3215 242.251 53.3591 242.036 53.3591C241.821 53.3591 241.429 53.3215 241.179 53.2428C239.687 53.5712 238.629 52.4084 239.426 51.4815C239.744 51.0711 239.804 50.7086 239.807 50.5103L239.606 50.5205C238.918 50.5547 238.449 50.1683 239.169 49.5766C240.241 48.7011 241.535 48.0513 242.036 48.0479C242.311 48.0479 242.826 48.2496 243.411 48.5711" fill="#231F20"/>
<path d="M240.811 51.7635H240.116C239.993 51.7635 239.895 51.668 239.895 51.5488V51.0955C239.895 50.9797 239.993 50.8843 240.116 50.8843H240.811C240.931 50.8843 241.029 50.9797 241.029 51.0955V51.5488C241.029 51.668 240.931 51.7635 240.811 51.7635ZM240.119 50.9252C240.021 50.9252 239.94 51.0035 239.94 51.0955V51.5488C239.94 51.6442 240.021 51.7226 240.119 51.7226H240.815C240.913 51.7226 240.99 51.6442 240.99 51.5488V51.0955C240.99 51.0001 240.909 50.9252 240.815 50.9252H240.119Z" fill="#231F20"/>
<path d="M243.953 51.7635H243.261C243.141 51.7635 243.043 51.668 243.043 51.5488V51.0955C243.043 50.9797 243.141 50.8843 243.261 50.8843H243.953C244.075 50.8843 244.174 50.9797 244.174 51.0955V51.5488C244.174 51.668 244.075 51.7635 243.953 51.7635ZM243.257 50.9252C243.159 50.9252 243.082 51.0035 243.082 51.0955V51.5488C243.082 51.6442 243.162 51.7226 243.257 51.7226H243.949C244.047 51.7226 244.128 51.6442 244.128 51.5488V51.0955C244.128 51.0001 244.047 50.9252 243.949 50.9252H243.257Z" fill="#231F20"/>
<path d="M34.6604 40.2397V24.8755H40.2846C43.9694 24.8755 45.7795 26.7934 45.7795 29.8748C45.7795 33.3226 43.6247 35.4128 40.1984 35.4128H37.6988V40.2397H34.6604ZM37.6988 32.8916H39.9829C41.6422 32.8916 42.655 31.9219 42.655 30.0472C42.655 28.3018 41.7068 27.526 40.0476 27.526H37.6988V32.8916ZM54.9898 40.2397C54.645 39.6795 54.3217 39.0546 54.0847 38.1926C53.4383 39.7226 52.016 40.4768 50.4861 40.4768C48.7837 40.4768 47.4262 39.5717 47.4262 37.6324C47.4262 34.0553 51.542 34.3569 53.783 33.3011C53.6537 31.7065 52.5117 31.297 51.0894 31.297C50.0982 31.297 49.0208 31.491 47.9433 31.728V29.1206C49.1932 28.8189 50.4214 28.6465 51.5204 28.6465C54.451 28.6465 56.6275 29.8748 56.6275 33.4304V36.361C56.6275 37.4169 56.649 38.5589 56.8645 40.2397H54.9898ZM50.3352 37.1583C50.3352 37.8909 50.7878 38.2573 51.4773 38.2573C52.5117 38.2573 53.783 37.2876 53.783 35.5421V35.0681C52.1022 35.8654 50.3352 35.6068 50.3352 37.1583ZM63.3155 36.792C63.0353 36.792 62.7552 36.7704 62.4751 36.7489C62.1518 36.9212 62.0225 37.2014 62.0225 37.5031C62.0225 38.2788 63.1646 38.3004 64.6515 38.4297C66.8279 38.602 69.2198 38.9899 69.2198 41.5111C69.2198 43.9246 66.6555 45.0882 63.1862 45.0882C60.0401 45.0882 57.8636 44.2263 57.8636 42.1576C57.8636 40.5414 59.5014 39.8303 60.8374 39.9381C60.0832 39.6148 59.5875 39.0546 59.5875 38.3219C59.5875 37.3307 60.4279 36.7273 61.4192 36.5118C59.6953 35.93 58.7902 34.5078 58.7902 32.6977C58.7902 30.3704 60.4926 28.6465 63.4448 28.6465C64.1559 28.6465 64.7808 28.7543 65.3195 28.9051C65.3841 28.9267 65.4919 28.9482 65.5781 28.9482C66.3323 28.9482 66.5047 28.2802 66.5047 27.5045C66.5047 27.1381 66.44 26.7287 66.3754 26.3839H69.069C69.1121 26.6641 69.1552 26.9226 69.1552 27.2028C69.1552 28.9267 67.9053 29.7671 66.7848 29.7671C66.6555 29.7671 66.5262 29.7455 66.4185 29.724C67.4313 30.4566 67.97 31.491 67.97 32.827C67.97 34.9603 66.2676 36.792 63.3155 36.792ZM63.3586 34.7233C64.5222 34.7233 65.1687 34.0553 65.1687 32.7192C65.1687 31.3401 64.5653 30.6937 63.3801 30.6937C62.2165 30.6937 61.5916 31.297 61.5916 32.6762C61.5916 34.0337 62.1949 34.7233 63.3586 34.7233ZM60.6219 41.468C60.6219 42.5886 62.001 42.8687 63.4232 42.8687C64.9316 42.8687 66.203 42.5886 66.203 41.7266C66.203 40.5845 63.9835 40.7354 62.1303 40.4552C61.2899 40.3906 60.6219 40.8 60.6219 41.468ZM77.3381 40.2397C76.9933 39.6795 76.6701 39.0546 76.4331 38.1926C75.7866 39.7226 74.3644 40.4768 72.8344 40.4768C71.1321 40.4768 69.7745 39.5717 69.7745 37.6324C69.7745 34.0553 73.8903 34.3569 76.1314 33.3011C76.0021 31.7065 74.86 31.297 73.4378 31.297C72.4466 31.297 71.3691 31.491 70.2917 31.728V29.1206C71.5415 28.8189 72.7698 28.6465 73.8688 28.6465C76.7994 28.6465 78.9758 29.8748 78.9758 33.4304V36.361C78.9758 37.4169 78.9974 38.5589 79.2129 40.2397H77.3381ZM72.6836 37.1583C72.6836 37.8909 73.1361 38.2573 73.8257 38.2573C74.86 38.2573 76.1314 37.2876 76.1314 35.5421V35.0681C74.4506 35.8654 72.6836 35.6068 72.6836 37.1583ZM88.8315 31.6634C86.7628 31.5772 85.5561 32.0081 85.0605 32.827V40.2397H82.0437V33.1718C82.0437 32.0728 82.0221 30.629 81.8928 28.8836H83.8106C84.2201 29.4223 84.608 30.4135 84.8019 31.3401C85.3406 29.5947 86.5473 28.6465 88.8315 28.6465V31.6634ZM100.34 40.4768C96.9784 40.4768 94.6081 38.6236 94.6081 34.5509C94.6081 30.6721 97.0862 28.6465 100.469 28.6465C101.224 28.6465 102.042 28.7543 102.861 28.9482V31.4694C102.129 31.3186 101.417 31.2324 100.814 31.2324C98.8747 31.2324 97.6033 32.0512 97.6033 34.5724C97.6033 37.0936 98.8532 37.8909 100.771 37.8909C101.417 37.8909 102.129 37.8047 102.861 37.6539V40.1751C101.978 40.3475 101.137 40.4768 100.34 40.4768ZM109.887 40.4768C106.267 40.4768 104.456 37.9125 104.456 34.6802C104.456 31.3186 106.396 28.6465 110.102 28.6465C113.701 28.6465 115.533 31.2108 115.533 34.4431C115.533 37.8047 113.593 40.4768 109.887 40.4768ZM109.995 38.0633C111.718 38.0633 112.537 36.7058 112.537 34.5509C112.537 32.3529 111.74 31.06 109.995 31.06C108.249 31.06 107.43 32.4176 107.43 34.5724C107.43 36.7704 108.249 38.0633 109.995 38.0633ZM125.61 33.4735C125.61 32.0081 124.856 31.3617 123.627 31.3617C122.485 31.3617 121.688 31.9004 121.192 32.6331V40.2397H118.176V33.1718C118.176 32.0728 118.154 30.629 118.025 28.8836H119.943C120.33 29.4007 120.675 30.2842 120.891 31.1246C121.365 29.8533 122.507 28.6465 124.576 28.6465C126.903 28.6465 128.627 29.9395 128.627 32.9994V40.2397H125.61V33.4735Z" fill="white"/>
<g clip-path="url(#clip2_10765_21614)">
<path d="M313.55 21.314C309.396 21.314 306.016 24.6934 306.016 28.8473V33.1508C306.016 33.1992 305.955 33.2828 305.911 33.296C305.502 33.4324 305.172 33.5512 304.868 33.6656C304.507 33.8064 304.234 34.2069 304.234 34.5985V44.4816C304.234 44.8688 304.507 45.2692 304.864 45.4144C307.64 46.5145 310.562 47.0733 313.55 47.0733C316.538 47.0733 319.459 46.5145 322.236 45.4144C322.597 45.2736 322.865 44.8732 322.865 44.4816V34.5985C322.865 34.2069 322.592 33.8064 322.232 33.6656C321.928 33.5468 321.598 33.4324 321.189 33.296C321.14 33.2784 321.083 33.1992 321.083 33.1508V28.8473C321.083 24.6934 317.704 21.314 313.55 21.314ZM311.499 37.6083C311.499 36.473 312.419 35.5577 313.55 35.5577C314.681 35.5577 315.6 36.4774 315.6 37.6083C315.6 38.3607 315.178 38.99 314.575 39.3464V42.739C314.575 43.3067 314.117 43.7643 313.55 43.7643C312.982 43.7643 312.525 43.3067 312.525 42.739V39.3464C311.922 38.99 311.499 38.3607 311.499 37.6083ZM318.491 28.8473V32.5611C316.872 32.2135 315.209 32.0375 313.55 32.0375C311.891 32.0375 310.232 32.2135 308.608 32.5611V28.8517C308.608 26.1279 310.826 23.9101 313.55 23.9101C316.274 23.9057 318.491 26.1191 318.491 28.8473Z" fill="white"/>
</g>
</g>
</g>
<defs>
<filter id="filter0_f_10765_21614" x="-87.503" y="-31.898" width="246.444" height="210.089" filterUnits="userSpaceOnUse" color-interpolation-filters="sRGB">
<feFlood flood-opacity="0" result="BackgroundImageFix"/>
<feBlend mode="normal" in="SourceGraphic" in2="BackgroundImageFix" result="shape"/>
<feGaussianBlur stdDeviation="25.2652" result="effect1_foregroundBlur_10765_21614"/>
</filter>
<filter id="filter1_f_10765_21614" x="178.727" y="-92.6358" width="258.924" height="226.066" filterUnits="userSpaceOnUse" color-interpolation-filters="sRGB">
<feFlood flood-opacity="0" result="BackgroundImageFix"/>
<feBlend mode="normal" in="SourceGraphic" in2="BackgroundImageFix" result="shape"/>
<feGaussianBlur stdDeviation="25.2652" result="effect1_foregroundBlur_10765_21614"/>
</filter>
<linearGradient id="paint0_linear_10765_21614" x1="25.069" y1="60.3658" x2="90.66" y2="88.1198" gradientUnits="userSpaceOnUse">
<stop stop-color="#E51B2D"/>
<stop offset="1" stop-color="#E51B2D"/>
</linearGradient>
<linearGradient id="paint1_linear_10765_21614" x1="298.395" y1="6.40778" x2="352.615" y2="55.169" gradientUnits="userSpaceOnUse">
<stop stop-color="#E51B2D"/>
<stop offset="1" stop-color="#E51B2D"/>
</linearGradient>
<clipPath id="clip0_10765_21614">
<rect width="361.622" height="63.6886" rx="19.4304" fill="white"/>
</clipPath>
<clipPath id="clip1_10765_21614">
<rect y="-0.000488281" width="361.622" height="63.8793" rx="19.4886" fill="white"/>
</clipPath>
<clipPath id="clip2_10765_21614">
<rect width="18.6309" height="25.7594" fill="white" transform="translate(304.223 21.3149)"/>
</clipPath>
</defs>
</svg>
