<svg width="362" height="64" viewBox="0 0 362 64" fill="none" xmlns="http://www.w3.org/2000/svg">
<g clip-path="url(#clip0_10765_21723)">
<g clip-path="url(#clip1_10765_21723)">
<rect width="375.697" height="124.511" transform="translate(-14.082 -5.41357)" fill="#F8991D"/>
<g filter="url(#filter0_f_10765_21723)">
<path d="M-16.4701 23.2518C1.71688 7.97462 82.3697 33.8914 102.139 53.017C121.909 72.1427 89.9882 108.767 71.8012 124.044C53.6142 139.321 -7.00705 102.436 -26.7765 83.3101C-46.5459 64.1844 -34.6571 38.5289 -16.4701 23.2518Z" fill="url(#paint0_linear_10765_21723)" fill-opacity="0.87"/>
</g>
<g filter="url(#filter1_f_10765_21723)">
<path d="M267.633 -40.0926C293.139 -51.9231 370.493 -8.74365 384.578 14.8831C398.664 38.5099 350.154 69.2923 324.648 81.1228C299.143 92.9533 247.645 42.7249 233.559 19.0981C219.474 -4.52874 242.128 -28.2621 267.633 -40.0926Z" fill="url(#paint1_linear_10765_21723)" fill-opacity="0.87"/>
</g>
<rect x="3.26953" y="2.16504" width="356.094" height="59.5685" rx="29.7843" fill="black"/>
<path d="M161.819 35.5322C161.771 35.7637 161.724 35.9975 161.676 36.2289C160.485 36.4273 159.289 36.5595 158.094 36.6327C159.363 36.2903 160.606 35.929 161.819 35.5322Z" fill="#ED1C27"/>
<path d="M188.435 12.794C185.028 22.1639 178.015 30.6227 168.551 34.34C168.551 34.34 168.931 32.4826 168.933 32.4826C176.616 28.1068 181.859 20.271 183.978 11.8641C184.727 11.4582 186.77 10.2993 186.77 10.2993C186.77 10.2993 187.848 11.8901 188.435 12.794Z" fill="#ED1C27"/>
<path d="M172.315 16.0121C172.384 15.6722 172.491 15.4598 172.878 15.4315C174.536 15.3017 176.192 15.035 177.846 15.0491C179.889 15.0633 181.24 16.4959 181.506 18.6673C182.559 16.4841 183.386 14.2018 183.977 11.8629C183.949 11.8417 183.92 11.8228 183.892 11.8039C182.259 10.697 180.395 10.3996 178.48 10.3194C174.567 10.1494 170.778 10.9047 167.034 11.9313C166.834 11.988 166.604 12.2901 166.556 12.5143C166.226 14.1145 160.375 42.597 160.375 42.597H164.753C165.986 42.597 167.043 41.653 167.293 40.4398C167.295 40.4446 172.03 17.4117 172.315 16.0121Z" fill="white"/>
<path d="M187.149 15.9204C183.661 23.4706 177.805 30.105 170.203 33.6311C182.516 37.1265 190.619 25.0873 187.149 15.9204Z" fill="white"/>
<path d="M158.851 21.9289C149.91 13.3449 134.665 23.142 137.11 34.8154C138.63 42.0776 146.541 43.6896 152.943 41.9762C157.006 40.8905 156.521 36.975 156.521 36.975C151.425 38.1456 141.728 37.093 142.524 33.2246C146.443 34.3174 152.418 34.577 156.611 32.4364C162.082 29.6419 161.149 24.492 158.851 21.9289ZM155.103 26.8215C153.737 29.623 145.93 29.5994 143.12 28.7804C144.883 24.8059 149.518 22.4316 153.768 24.1522C155.05 24.6738 155.621 25.75 155.103 26.8215Z" fill="white"/>
<path d="M215.153 20.4678C211.366 19.2334 206.824 18.667 203.498 18.667C194.696 18.667 189.156 26.5382 189.415 33.444C189.515 36.0945 190.41 42.1105 198.471 42.8021C200.709 42.9933 202.844 42.7077 204.714 41.3341C204.728 41.3223 204.859 41.2066 204.828 41.3718C204.762 41.7565 204.612 42.6015 204.612 42.6015C204.612 42.6015 208.814 42.6015 210.808 42.6015C211.183 42.6015 211.235 42.3442 211.29 42.0822C212.722 35.1197 214.164 28.1714 215.58 21.2042C215.671 20.7652 215.583 20.6047 215.153 20.4678ZM208.323 24.617C207.567 28.2068 206.836 31.8013 206.073 35.3935C206.006 35.7027 205.845 35.9836 205.607 36.1936C203.797 37.7938 201.688 38.3201 199.331 37.782C194.812 36.7506 195.554 30.3852 197.136 27.3147C198.578 24.5202 201.837 22.9413 205.156 23.3684C208.477 23.7933 208.408 24.1992 208.323 24.617Z" fill="white"/>
<path d="M292.646 27.0668C292.182 21.5724 287.816 18.667 282.575 18.667C271.586 18.667 267.956 27.789 268.291 34.1285C268.611 40.2153 274.03 43.0499 279.489 42.5425C284.561 42.2427 288.372 39.9416 290.729 35.4336C292.092 32.8209 292.976 30.0666 292.646 27.0668ZM277.489 37.3902C272.652 36.4013 274.291 30.0454 275.301 28.1714C277.738 23.6446 281.06 23.4369 282.948 23.7343C285.443 24.1237 286.859 25.8938 286.718 28.8842C286.507 33.411 283.117 38.5396 277.489 37.3902Z" fill="white"/>
<path d="M215.086 53.1947L215.906 49.1611C216.029 48.6891 216.473 48.353 216.96 48.3387C219.417 48.2696 220.258 47.8404 221.486 46.5007C222.424 45.304 223.135 44.3432 223.923 43.2371C224.028 43.0917 224.037 42.8318 223.999 42.6411C222.669 35.8637 219.312 18.6685 219.312 18.6685C219.312 18.6685 225.432 18.6137 225.817 21.0786C226.556 25.7988 228.304 35.3416 228.387 35.7182C228.603 35.344 234.326 25.4841 237.004 20.7568C238.317 18.4373 243.323 18.6685 244.976 18.6685C240.042 26.9431 230.459 42.9892 228.964 45.4828C225.083 51.9527 221.666 53.2448 218.089 53.1995C217.115 53.1876 215.086 53.1947 215.086 53.1947Z" fill="white"/>
<path d="M263.833 36.0023C263.487 37.6851 262.857 40.7462 262.836 40.8548C262.8 41.0342 262.724 41.2324 262.484 41.3221C259.18 42.5494 255.652 43.1277 252.442 41.9971C242.056 38.3436 244.845 21.7634 255.692 19.1247C261.018 17.829 266.33 19.7053 266.589 19.7856C266.891 19.88 267.079 20.1821 267.017 20.4889C266.829 21.4117 266.233 24.3336 266.207 24.4398C263.201 23.4745 260.044 22.7759 256.975 23.8474C250.874 25.981 249.549 36.3799 255.616 37.5978C258.524 38.1831 261.185 37.1588 263.833 36.0023Z" fill="white"/>
<path d="M249.159 51.669C249.999 51.8411 252.073 51.7875 252.121 50.472C252.121 49.9442 251.419 49.4509 250.752 49.3094C249.928 49.1373 249.404 49.1335 248.572 49.3094C248.059 49.5006 247.901 49.0111 248.366 48.8466C249.25 48.533 252.696 48.468 252.858 50.472C252.716 52.453 249.707 52.3115 249.029 52.1776C248.761 52.1279 248.556 52.0055 248.556 51.6766V50.0283C248.556 49.6383 249.155 49.6421 249.155 50.0283V51.669H249.159Z" fill="white"/>
<path d="M255.635 49.3483C254.965 49.3483 253.837 51.3331 253.502 52.0444C253.305 52.4689 252.674 52.1668 252.875 51.7385C253.23 50.9736 254.575 48.6637 255.628 48.6867C256.68 48.6676 258.025 50.9736 258.38 51.7385C258.577 52.1668 257.95 52.4689 257.753 52.0444C257.422 51.3331 256.302 49.3483 255.635 49.3483Z" fill="white"/>
<path d="M260.325 51.5841C260.996 51.5841 262.124 49.5993 262.455 48.888C262.652 48.4635 263.283 48.7656 263.082 49.1901C262.727 49.955 261.382 52.2649 260.329 52.2457C259.277 52.2649 257.932 49.9588 257.577 49.1901C257.38 48.7618 258.007 48.4597 258.208 48.888C258.539 49.5993 259.655 51.5841 260.325 51.5841Z" fill="white"/>
<path d="M264.221 49.0273V51.9185C264.221 52.3506 263.547 52.3353 263.547 51.9032V49.0197C263.547 48.5722 264.221 48.5684 264.221 49.0273Z" fill="white"/>
<path d="M267.443 51.5841C268.113 51.5841 269.241 49.5993 269.572 48.888C269.769 48.4635 270.4 48.7656 270.199 49.1901C269.84 49.955 268.496 52.2649 267.443 52.2457C266.39 52.2649 265.045 49.9588 264.69 49.1901C264.493 48.7618 265.12 48.4597 265.317 48.888C265.648 49.5993 266.764 51.5841 267.435 51.5841" fill="white"/>
<path d="M272.621 50.7657C272.818 51.1711 273.382 51.5 273.926 51.6147C274.746 51.7906 275.271 51.7906 276.103 51.6147C276.6 51.4579 276.773 51.9245 276.304 52.0775C275.381 52.3796 271.998 52.4867 271.801 50.4751C271.911 48.5591 274.612 48.6088 275.646 48.7427C276.15 48.8077 276.048 49.324 275.519 49.2169C274.829 49.1289 272.952 49.0218 272.586 50.2265H274.51C274.81 50.2265 274.81 50.7657 274.51 50.7657H272.621Z" fill="white"/>
<path d="M283.35 51.6719C284.19 51.844 286.265 51.7905 286.312 50.4749C286.312 49.9471 285.61 49.4538 284.94 49.3123C284.119 49.1402 283.595 49.1364 282.763 49.3123C282.25 49.5035 282.093 49.014 282.558 48.8496C283.445 48.536 286.888 48.471 287.049 50.4749C286.907 52.4559 283.899 52.3144 283.224 52.1805C282.956 52.1308 282.751 52.0084 282.751 51.6795V50.0313C282.751 49.6412 283.35 49.645 283.35 50.0313V51.6719Z" fill="white"/>
<path d="M289.83 49.3483C289.159 49.3483 288.027 51.3331 287.696 52.0444C287.499 52.4689 286.872 52.1668 287.069 51.7385C287.428 50.9736 288.773 48.6637 289.822 48.6867C290.874 48.6676 292.219 50.9736 292.574 51.7385C292.771 52.1668 292.144 52.4689 291.947 52.0444C291.616 51.3331 290.5 49.3483 289.83 49.3483Z" fill="white"/>
<path d="M271.334 49.0273V51.9185C271.334 52.3506 270.66 52.3353 270.66 51.9032V49.0197C270.66 48.5722 271.334 48.5684 271.334 49.0273Z" fill="white"/>
<path d="M279.436 51.0559C279.018 50.3178 278.561 49.3388 278.245 49.3158C277.468 49.3158 277.819 50.7997 277.807 51.9584C277.803 52.3676 277.133 52.3676 277.133 51.9125C277.133 50.4363 276.806 48.6733 278.261 48.6733C278.687 48.6733 279.089 49.2929 279.452 49.8742C279.87 50.6161 280.367 51.5951 280.678 51.6181C281.455 51.6181 281.084 50.1648 281.1 49.0061C281.104 48.5969 281.774 48.5968 281.774 49.0519C281.774 50.532 282.121 52.2644 280.666 52.2644C280.237 52.2644 279.799 51.6448 279.436 51.0597" fill="white"/>
<path fill-rule="evenodd" clip-rule="evenodd" d="M239.809 49.3916C239.823 49.501 239.809 49.9696 239.368 50.6125C238.906 51.3205 239.636 52.5038 241.11 52.2029C241.435 52.3157 241.784 52.3328 242.01 52.3294C242.235 52.3294 242.588 52.3157 242.912 52.2063C244.386 52.5072 245.113 51.3205 244.651 50.6125C244.207 49.973 244.196 49.501 244.21 49.3916H239.816H239.809Z" fill="#E5252B"/>
<path fill-rule="evenodd" clip-rule="evenodd" d="M242.004 52.3202C240.567 52.2826 240.307 51.6408 240.701 51.5076C240.933 51.4291 241.236 51.2994 241.236 51.2994C241.081 50.5756 241.335 49.6504 242.007 49.6538C242.679 49.6538 242.922 50.6063 242.771 51.3164C242.771 51.3164 243.077 51.4223 243.303 51.511C243.679 51.651 243.44 52.286 242.004 52.3236" fill="#0682C4"/>
<path fill-rule="evenodd" clip-rule="evenodd" d="M241.468 51.8158C241.085 50.783 241.422 49.8149 242.009 49.8149C242.568 49.8184 242.947 50.7557 242.554 51.8124C242.554 51.8124 242.367 51.7715 241.991 51.7715C241.71 51.7715 241.471 51.8158 241.471 51.8158" fill="#FFE11B"/>
<path fill-rule="evenodd" clip-rule="evenodd" d="M242.002 52.3361C242.582 52.3361 243.035 52.2168 243.035 52.0496C243.035 51.8825 242.582 51.7598 242.002 51.7598C241.422 51.7598 240.969 51.8791 240.969 52.0496C240.969 52.2202 241.422 52.3361 242.002 52.3361Z" fill="#F49824"/>
<path fill-rule="evenodd" clip-rule="evenodd" d="M240.091 49.9043H240.788C240.897 49.9043 240.985 49.9897 240.985 50.0956V50.5499C240.985 50.6592 240.897 50.7446 240.788 50.7446H240.091C239.982 50.7446 239.891 50.6592 239.891 50.5499V50.0956C239.891 49.9897 239.979 49.9043 240.091 49.9043Z" fill="#0682C4"/>
<path d="M240.17 50.0176H240.717C240.802 50.0176 240.868 50.0822 240.868 50.1605V50.4906C240.868 50.5723 240.802 50.637 240.717 50.637H240.17C240.086 50.637 240.02 50.5723 240.02 50.4906V50.1605C240.02 50.0822 240.086 50.0176 240.17 50.0176Z" fill="#231F20"/>
<path fill-rule="evenodd" clip-rule="evenodd" d="M240.867 50.404C240.62 50.3804 240.536 50.1004 240.516 50.0127H240.717C240.801 50.0127 240.867 50.0768 240.867 50.1544V50.4006V50.404Z" fill="#FFE11B"/>
<path fill-rule="evenodd" clip-rule="evenodd" d="M240.374 50.0176C240.36 50.0985 240.28 50.3954 240.02 50.4089V50.1593C240.02 50.0817 240.086 50.0176 240.169 50.0176H240.374Z" fill="#FFE11B"/>
<path fill-rule="evenodd" clip-rule="evenodd" d="M243.228 49.9043H243.922C244.031 49.9043 244.123 49.9897 244.123 50.0956V50.5499C244.123 50.6592 244.035 50.7446 243.922 50.7446H243.228C243.119 50.7446 243.031 50.6592 243.031 50.5499V50.0956C243.031 49.9897 243.119 49.9043 243.228 49.9043Z" fill="#0682C4"/>
<path d="M243.311 50.0176H243.862C243.946 50.0176 244.013 50.0822 244.013 50.1605V50.4906C244.013 50.5723 243.946 50.637 243.862 50.637H243.311C243.231 50.637 243.164 50.5723 243.164 50.4906V50.1605C243.164 50.0822 243.231 50.0176 243.311 50.0176Z" fill="#231F20"/>
<path fill-rule="evenodd" clip-rule="evenodd" d="M244.007 50.404C243.761 50.3804 243.677 50.1004 243.656 50.0127H243.861C243.945 50.0127 244.011 50.0768 244.011 50.1544V50.4006L244.007 50.404Z" fill="#FFE11B"/>
<path fill-rule="evenodd" clip-rule="evenodd" d="M243.511 50.0176C243.493 50.0985 243.417 50.3954 243.156 50.4089V50.1593C243.156 50.0817 243.222 50.0176 243.302 50.0176H243.511Z" fill="#FFE11B"/>
<path fill-rule="evenodd" clip-rule="evenodd" d="M243.45 47.6315C243.377 47.3901 243.363 47.2711 243.591 47.2711H244.092C244.396 47.2643 244.27 47.4955 244.242 47.7199C244.204 48.0156 244.204 48.1074 244.204 48.1074C244.204 48.1074 243.45 47.6383 243.45 47.6349" fill="#E5252B"/>
<path fill-rule="evenodd" clip-rule="evenodd" d="M242.002 49.3671C241.25 49.3671 240.221 49.4321 239.558 49.48C239.05 49.5176 238.655 49.1414 238.993 48.7857C239.716 48.0265 241.476 47.0723 242.009 47.0723C242.576 47.0723 244.301 48.0265 245.024 48.7857C245.362 49.1414 245.024 49.48 244.509 49.48C243.941 49.48 242.753 49.3671 242.002 49.3671Z" fill="#F49824"/>
<path d="M242.414 51.0674C242.414 51.0138 242.456 50.9702 242.511 50.9702C242.566 50.9702 242.604 51.0138 242.604 51.0674C242.604 51.121 242.563 51.1612 242.511 51.1612C242.459 51.1612 242.414 51.1176 242.414 51.0674Z" fill="#231F20"/>
<path fill-rule="evenodd" clip-rule="evenodd" d="M242.005 51.7435C241.705 51.7435 241.465 51.788 241.465 51.788C241.109 50.7791 241.434 49.8317 242.005 49.8317C242.576 49.8317 242.904 50.7825 242.545 51.788C242.545 51.788 242.315 51.7435 242.005 51.7435ZM242.534 51.8222C242.83 51.8666 243.028 51.9521 243.028 52.0479C243.028 52.1915 242.573 52.3112 242.009 52.3112C241.444 52.3112 240.989 52.1915 240.989 52.0479C240.989 51.9521 241.183 51.8666 241.48 51.8222C241.48 51.8222 241.8 51.7846 242.009 51.7846C242.217 51.7846 242.538 51.8222 242.538 51.8222M242.58 51.7914C242.954 50.7449 242.59 49.7839 242.009 49.7873C241.427 49.7873 241.063 50.7483 241.437 51.7914C241.148 51.8461 240.958 51.9385 240.958 52.0479C240.958 52.0821 240.979 52.1129 241.014 52.1437C240.527 51.9385 240.482 51.5999 240.75 51.5075C240.979 51.4289 241.261 51.3229 241.261 51.3229C241.113 50.6183 241.342 49.6744 242.012 49.6744C242.682 49.6744 242.911 50.6183 242.76 51.3229C242.76 51.3229 243.038 51.4323 243.271 51.5075C243.532 51.593 243.493 51.9316 243.01 52.1402C243.045 52.1095 243.063 52.0787 243.063 52.0445C243.063 51.9385 242.873 51.8427 242.583 51.788M243.483 47.6258C243.426 47.4035 243.423 47.3112 243.62 47.3112H244.054C244.34 47.3078 244.223 47.5198 244.198 47.7353C244.184 47.8652 244.174 47.9713 244.17 48.0499C243.941 47.8926 243.708 47.7524 243.486 47.6258M242.982 52.195C244.364 52.4207 245.038 51.2989 244.597 50.6183C244.255 50.1259 244.174 49.712 244.163 49.5C243.257 49.4555 242.633 49.4111 242.009 49.4042C241.384 49.4111 240.76 49.4555 239.854 49.5C239.84 49.712 239.759 50.1259 239.417 50.6183C238.976 51.2989 239.649 52.4207 241.032 52.195C240.446 51.9795 240.372 51.6136 240.686 51.4939C240.915 51.4084 241.222 51.2989 241.222 51.2989C241.07 50.5739 241.335 49.6163 242.005 49.6163C242.679 49.6163 242.943 50.5705 242.788 51.2989C242.788 51.2989 243.095 51.4084 243.324 51.4939C243.638 51.6101 243.564 51.9795 242.978 52.195M242.009 49.3153C241.229 49.3256 240.492 49.3803 239.625 49.435C239.085 49.4692 238.782 49.1204 239.12 48.7579C239.621 48.2278 241.331 47.1334 242.009 47.1334C242.686 47.1334 244.392 48.2278 244.897 48.7579C245.235 49.117 244.932 49.4692 244.396 49.435C243.528 49.3803 242.788 49.329 242.012 49.3153M243.384 47.5677C243.377 47.5472 243.37 47.5232 243.366 47.5027C243.327 47.3727 243.366 47.2291 243.595 47.2291H244.1C244.396 47.2291 244.364 47.4275 244.311 47.619C244.276 47.7558 244.248 47.9302 244.234 48.0944C244.234 48.0944 244.646 48.3885 244.876 48.5766C245.595 49.1683 245.126 49.5513 244.438 49.5205C244.368 49.5171 244.301 49.5137 244.234 49.5103C244.237 49.7052 244.297 50.0677 244.615 50.4815C245.412 51.4084 244.354 52.5712 242.862 52.2428C242.615 52.3215 242.224 52.3591 242.009 52.3591C241.793 52.3591 241.402 52.3215 241.152 52.2428C239.66 52.5712 238.602 51.4084 239.399 50.4815C239.716 50.0711 239.776 49.7086 239.78 49.5103L239.579 49.5205C238.891 49.5547 238.422 49.1683 239.141 48.5766C240.214 47.7011 241.508 47.0513 242.009 47.0479C242.284 47.0479 242.798 47.2496 243.384 47.5711" fill="#231F20"/>
<path d="M240.784 50.7635H240.088C239.966 50.7635 239.867 50.668 239.867 50.5488V50.0955C239.867 49.9797 239.966 49.8843 240.088 49.8843H240.784C240.903 49.8843 241.002 49.9797 241.002 50.0955V50.5488C241.002 50.668 240.903 50.7635 240.784 50.7635ZM240.092 49.9252C239.994 49.9252 239.913 50.0035 239.913 50.0955V50.5488C239.913 50.6442 239.994 50.7226 240.092 50.7226H240.787C240.886 50.7226 240.963 50.6442 240.963 50.5488V50.0955C240.963 50.0001 240.882 49.9252 240.787 49.9252H240.092Z" fill="#231F20"/>
<path d="M243.925 50.7635H243.233C243.114 50.7635 243.016 50.668 243.016 50.5488V50.0955C243.016 49.9797 243.114 49.8843 243.233 49.8843H243.925C244.048 49.8843 244.146 49.9797 244.146 50.0955V50.5488C244.146 50.668 244.048 50.7635 243.925 50.7635ZM243.23 49.9252C243.132 49.9252 243.054 50.0035 243.054 50.0955V50.5488C243.054 50.6442 243.135 50.7226 243.23 50.7226H243.922C244.02 50.7226 244.101 50.6442 244.101 50.5488V50.0955C244.101 50.0001 244.02 49.9252 243.922 49.9252H243.23Z" fill="#231F20"/>
<path d="M34.637 40.2397V24.8755H40.2612C43.946 24.8755 45.7561 26.7934 45.7561 29.8748C45.7561 33.3226 43.6012 35.4128 40.175 35.4128H37.6753V40.2397H34.637ZM37.6753 32.8916H39.9595C41.6188 32.8916 42.6315 31.9219 42.6315 30.0472C42.6315 28.3018 41.6834 27.526 40.0241 27.526H37.6753V32.8916ZM54.9663 40.2397C54.6215 39.6795 54.2983 39.0546 54.0613 38.1926C53.4148 39.7226 51.9926 40.4768 50.4626 40.4768C48.7603 40.4768 47.4027 39.5717 47.4027 37.6324C47.4027 34.0553 51.5185 34.3569 53.7596 33.3011C53.6303 31.7065 52.4882 31.297 51.066 31.297C50.0748 31.297 48.9973 31.491 47.9199 31.728V29.1206C49.1697 28.8189 50.398 28.6465 51.497 28.6465C54.4276 28.6465 56.604 29.8748 56.604 33.4304V36.361C56.604 37.4169 56.6256 38.5589 56.8411 40.2397H54.9663ZM50.3118 37.1583C50.3118 37.8909 50.7643 38.2573 51.4539 38.2573C52.4882 38.2573 53.7596 37.2876 53.7596 35.5421V35.0681C52.0788 35.8654 50.3118 35.6068 50.3118 37.1583ZM63.292 36.792C63.0119 36.792 62.7318 36.7704 62.4516 36.7489C62.1284 36.9212 61.9991 37.2014 61.9991 37.5031C61.9991 38.2788 63.1412 38.3004 64.6281 38.4297C66.8045 38.602 69.1964 38.9899 69.1964 41.5111C69.1964 43.9246 66.6321 45.0882 63.1627 45.0882C60.0166 45.0882 57.8402 44.2263 57.8402 42.1576C57.8402 40.5414 59.4779 39.8303 60.8139 39.9381C60.0597 39.6148 59.5641 39.0546 59.5641 38.3219C59.5641 37.3307 60.4045 36.7273 61.3957 36.5118C59.6719 35.93 58.7668 34.5078 58.7668 32.6977C58.7668 30.3704 60.4692 28.6465 63.4213 28.6465C64.1324 28.6465 64.7573 28.7543 65.2961 28.9051C65.3607 28.9267 65.4685 28.9482 65.5546 28.9482C66.3089 28.9482 66.4812 28.2802 66.4812 27.5045C66.4812 27.1381 66.4166 26.7287 66.352 26.3839H69.0455C69.0886 26.6641 69.1317 26.9226 69.1317 27.2028C69.1317 28.9267 67.8819 29.7671 66.7614 29.7671C66.6321 29.7671 66.5028 29.7455 66.395 29.724C67.4078 30.4566 67.9466 31.491 67.9466 32.827C67.9466 34.9603 66.2442 36.792 63.292 36.792ZM63.3351 34.7233C64.4988 34.7233 65.1452 34.0553 65.1452 32.7192C65.1452 31.3401 64.5419 30.6937 63.3567 30.6937C62.1931 30.6937 61.5681 31.297 61.5681 32.6762C61.5681 34.0337 62.1715 34.7233 63.3351 34.7233ZM60.5984 41.468C60.5984 42.5886 61.9776 42.8687 63.3998 42.8687C64.9082 42.8687 66.1796 42.5886 66.1796 41.7266C66.1796 40.5845 63.96 40.7354 62.1069 40.4552C61.2665 40.3906 60.5984 40.8 60.5984 41.468ZM77.3147 40.2397C76.9699 39.6795 76.6467 39.0546 76.4096 38.1926C75.7632 39.7226 74.341 40.4768 72.811 40.4768C71.1087 40.4768 69.7511 39.5717 69.7511 37.6324C69.7511 34.0553 73.8669 34.3569 76.108 33.3011C75.9787 31.7065 74.8366 31.297 73.4144 31.297C72.4231 31.297 71.3457 31.491 70.2683 31.728V29.1206C71.5181 28.8189 72.7464 28.6465 73.8453 28.6465C76.776 28.6465 78.9524 29.8748 78.9524 33.4304V36.361C78.9524 37.4169 78.9739 38.5589 79.1894 40.2397H77.3147ZM72.6602 37.1583C72.6602 37.8909 73.1127 38.2573 73.8022 38.2573C74.8366 38.2573 76.108 37.2876 76.108 35.5421V35.0681C74.4272 35.8654 72.6602 35.6068 72.6602 37.1583ZM88.8081 31.6634C86.7394 31.5772 85.5327 32.0081 85.037 32.827V40.2397H82.0202V33.1718C82.0202 32.0728 81.9987 30.629 81.8694 28.8836H83.7872C84.1966 29.4223 84.5845 30.4135 84.7785 31.3401C85.3172 29.5947 86.5239 28.6465 88.8081 28.6465V31.6634ZM100.317 40.4768C96.955 40.4768 94.5846 38.6236 94.5846 34.5509C94.5846 30.6721 97.0627 28.6465 100.446 28.6465C101.2 28.6465 102.019 28.7543 102.838 28.9482V31.4694C102.105 31.3186 101.394 31.2324 100.791 31.2324C98.8513 31.2324 97.5799 32.0512 97.5799 34.5724C97.5799 37.0936 98.8297 37.8909 100.748 37.8909C101.394 37.8909 102.105 37.8047 102.838 37.6539V40.1751C101.954 40.3475 101.114 40.4768 100.317 40.4768ZM109.863 40.4768C106.243 40.4768 104.433 37.9125 104.433 34.6802C104.433 31.3186 106.372 28.6465 110.079 28.6465C113.677 28.6465 115.509 31.2108 115.509 34.4431C115.509 37.8047 113.57 40.4768 109.863 40.4768ZM109.971 38.0633C111.695 38.0633 112.514 36.7058 112.514 34.5509C112.514 32.3529 111.717 31.06 109.971 31.06C108.226 31.06 107.407 32.4176 107.407 34.5724C107.407 36.7704 108.226 38.0633 109.971 38.0633ZM125.586 33.4735C125.586 32.0081 124.832 31.3617 123.604 31.3617C122.462 31.3617 121.665 31.9004 121.169 32.6331V40.2397H118.152V33.1718C118.152 32.0728 118.131 30.629 118.001 28.8836H119.919C120.307 29.4007 120.652 30.2842 120.867 31.1246C121.341 29.8533 122.483 28.6465 124.552 28.6465C126.879 28.6465 128.603 29.9395 128.603 32.9994V40.2397H125.586V33.4735Z" fill="white"/>
<g clip-path="url(#clip2_10765_21723)">
<path d="M313.499 21.314C309.345 21.314 305.966 24.6934 305.966 28.8473V33.1508C305.966 33.1992 305.904 33.2828 305.86 33.296C305.451 33.4324 305.121 33.5512 304.817 33.6656C304.456 33.8064 304.184 34.2069 304.184 34.5985V44.4816C304.184 44.8688 304.456 45.2692 304.813 45.4144C307.589 46.5145 310.511 47.0733 313.499 47.0733C316.487 47.0733 319.409 46.5145 322.185 45.4144C322.546 45.2736 322.814 44.8732 322.814 44.4816V34.5985C322.814 34.2069 322.542 33.8064 322.181 33.6656C321.877 33.5468 321.547 33.4324 321.138 33.296C321.09 33.2784 321.032 33.1992 321.032 33.1508V28.8473C321.032 24.6934 317.653 21.314 313.499 21.314ZM311.448 37.6083C311.448 36.473 312.368 35.5577 313.499 35.5577C314.63 35.5577 315.55 36.4774 315.55 37.6083C315.55 38.3607 315.127 38.99 314.524 39.3464V42.739C314.524 43.3067 314.067 43.7643 313.499 43.7643C312.931 43.7643 312.474 43.3067 312.474 42.739V39.3464C311.871 38.99 311.448 38.3607 311.448 37.6083ZM318.441 28.8473V32.5611C316.821 32.2135 315.158 32.0375 313.499 32.0375C311.84 32.0375 310.181 32.2135 308.557 32.5611V28.8517C308.557 26.1279 310.775 23.9101 313.499 23.9101C316.223 23.9057 318.441 26.1191 318.441 28.8473Z" fill="white"/>
</g>
</g>
</g>
<defs>
<filter id="filter0_f_10765_21723" x="-87.5343" y="-31.898" width="246.444" height="210.089" filterUnits="userSpaceOnUse" color-interpolation-filters="sRGB">
<feFlood flood-opacity="0" result="BackgroundImageFix"/>
<feBlend mode="normal" in="SourceGraphic" in2="BackgroundImageFix" result="shape"/>
<feGaussianBlur stdDeviation="25.2652" result="effect1_foregroundBlur_10765_21723"/>
</filter>
<filter id="filter1_f_10765_21723" x="178.7" y="-92.6358" width="258.924" height="226.066" filterUnits="userSpaceOnUse" color-interpolation-filters="sRGB">
<feFlood flood-opacity="0" result="BackgroundImageFix"/>
<feBlend mode="normal" in="SourceGraphic" in2="BackgroundImageFix" result="shape"/>
<feGaussianBlur stdDeviation="25.2652" result="effect1_foregroundBlur_10765_21723"/>
</filter>
<linearGradient id="paint0_linear_10765_21723" x1="25.0377" y1="60.3658" x2="90.6288" y2="88.1198" gradientUnits="userSpaceOnUse">
<stop stop-color="#E51B2D"/>
<stop offset="1" stop-color="#E51B2D"/>
</linearGradient>
<linearGradient id="paint1_linear_10765_21723" x1="298.368" y1="6.40778" x2="352.588" y2="55.169" gradientUnits="userSpaceOnUse">
<stop stop-color="#E51B2D"/>
<stop offset="1" stop-color="#E51B2D"/>
</linearGradient>
<clipPath id="clip0_10765_21723">
<rect width="361.622" height="63.6886" rx="19.4304" fill="white"/>
</clipPath>
<clipPath id="clip1_10765_21723">
<rect y="-0.000488281" width="361.622" height="63.8793" rx="31.9397" fill="white"/>
</clipPath>
<clipPath id="clip2_10765_21723">
<rect width="18.6309" height="25.7594" fill="white" transform="translate(304.184 21.3149)"/>
</clipPath>
</defs>
</svg>
