<svg width="362" height="64" viewBox="0 0 362 64" fill="none" xmlns="http://www.w3.org/2000/svg">
<g clip-path="url(#clip0_10765_22628)">
<rect width="372.417" height="124.139" transform="translate(-10.8008 -5.39941)" fill="white"/>
<rect x="3.22266" y="2.1582" width="355.031" height="59.3907" rx="5.44611" fill="black"/>
<path d="M32.2832 40.1919V24.8735H37.8906C41.5645 24.8735 43.3691 26.7856 43.3691 29.8579C43.3691 33.2954 41.2207 35.3794 37.8047 35.3794H35.3125V40.1919H32.2832ZM35.3125 32.8657H37.5898C39.2441 32.8657 40.2539 31.8989 40.2539 30.0298C40.2539 28.2895 39.3086 27.5161 37.6543 27.5161H35.3125V32.8657ZM52.5519 40.1919C52.2081 39.6333 51.8859 39.0103 51.6495 38.1509C51.005 39.6763 49.587 40.4282 48.0616 40.4282C46.3644 40.4282 45.0109 39.5259 45.0109 37.5923C45.0109 34.0259 49.1144 34.3267 51.3487 33.2739C51.2198 31.6841 50.0812 31.2759 48.6632 31.2759C47.6749 31.2759 46.6007 31.4692 45.5265 31.7056V29.106C46.7726 28.8052 47.9972 28.6333 49.0929 28.6333C52.0148 28.6333 54.1847 29.8579 54.1847 33.4028V36.3247C54.1847 37.3774 54.2062 38.5161 54.421 40.1919H52.5519ZM47.9112 37.1196C47.9112 37.8501 48.3624 38.2153 49.0499 38.2153C50.0812 38.2153 51.3487 37.2485 51.3487 35.5083V35.0356C49.673 35.8306 47.9112 35.5728 47.9112 37.1196ZM60.8527 36.7544C60.5734 36.7544 60.2941 36.7329 60.0148 36.7114C59.6926 36.8833 59.5637 37.1626 59.5637 37.4634C59.5637 38.2368 60.7023 38.2583 62.1848 38.3872C64.3547 38.5591 66.7394 38.9458 66.7394 41.4595C66.7394 43.8657 64.1828 45.0259 60.7238 45.0259C57.5871 45.0259 55.4172 44.1665 55.4172 42.104C55.4172 40.4927 57.05 39.7837 58.382 39.8911C57.6301 39.5688 57.1359 39.0103 57.1359 38.2798C57.1359 37.2915 57.9738 36.6899 58.9621 36.4751C57.2434 35.895 56.341 34.477 56.341 32.6724C56.341 30.352 58.0383 28.6333 60.9816 28.6333C61.6906 28.6333 62.3137 28.7407 62.8508 28.8911C62.9152 28.9126 63.0226 28.9341 63.1086 28.9341C63.8605 28.9341 64.0324 28.2681 64.0324 27.4946C64.0324 27.1294 63.968 26.7212 63.9035 26.3774H66.5891C66.632 26.6567 66.675 26.9145 66.675 27.1938C66.675 28.9126 65.4289 29.7505 64.3117 29.7505C64.1828 29.7505 64.0539 29.729 63.9465 29.7075C64.9562 30.438 65.4934 31.4692 65.4934 32.8013C65.4934 34.9282 63.7961 36.7544 60.8527 36.7544ZM60.8957 34.6919C62.0559 34.6919 62.7004 34.0259 62.7004 32.6938C62.7004 31.3188 62.0988 30.6743 60.9172 30.6743C59.757 30.6743 59.134 31.2759 59.134 32.6509C59.134 34.0044 59.7355 34.6919 60.8957 34.6919ZM58.1672 41.4165C58.1672 42.5337 59.5422 42.813 60.9601 42.813C62.4641 42.813 63.7316 42.5337 63.7316 41.6743C63.7316 40.5356 61.5187 40.686 59.6711 40.4067C58.8332 40.3423 58.1672 40.7505 58.1672 41.4165ZM74.8335 40.1919C74.4898 39.6333 74.1675 39.0103 73.9312 38.1509C73.2866 39.6763 71.8687 40.4282 70.3433 40.4282C68.646 40.4282 67.2925 39.5259 67.2925 37.5923C67.2925 34.0259 71.396 34.3267 73.6304 33.2739C73.5015 31.6841 72.3628 31.2759 70.9448 31.2759C69.9566 31.2759 68.8823 31.4692 67.8081 31.7056V29.106C69.0542 28.8052 70.2788 28.6333 71.3745 28.6333C74.2964 28.6333 76.4663 29.8579 76.4663 33.4028V36.3247C76.4663 37.3774 76.4878 38.5161 76.7027 40.1919H74.8335ZM70.1929 37.1196C70.1929 37.8501 70.6441 38.2153 71.3316 38.2153C72.3628 38.2153 73.6304 37.2485 73.6304 35.5083V35.0356C71.9546 35.8306 70.1929 35.5728 70.1929 37.1196ZM86.2926 31.6411C84.2301 31.5552 83.027 31.9849 82.5328 32.8013V40.1919H79.525V33.145C79.525 32.0493 79.5035 30.6099 79.3746 28.8696H81.2867C81.6949 29.4067 82.0816 30.395 82.275 31.3188C82.8121 29.5786 84.0152 28.6333 86.2926 28.6333V31.6411ZM97.7668 40.4282C94.4152 40.4282 92.0519 38.5806 92.0519 34.52C92.0519 30.6528 94.5226 28.6333 97.8957 28.6333C98.6476 28.6333 99.464 28.7407 100.28 28.9341V31.4478C99.55 31.2974 98.841 31.2114 98.2394 31.2114C96.3058 31.2114 95.0382 32.0278 95.0382 34.5415C95.0382 37.0552 96.2843 37.8501 98.1964 37.8501C98.841 37.8501 99.55 37.7642 100.28 37.6138V40.1274C99.3996 40.2993 98.5617 40.4282 97.7668 40.4282ZM107.285 40.4282C103.676 40.4282 101.871 37.8716 101.871 34.6489C101.871 31.2974 103.805 28.6333 107.5 28.6333C111.088 28.6333 112.914 31.1899 112.914 34.4126C112.914 37.7642 110.98 40.4282 107.285 40.4282ZM107.392 38.022C109.111 38.022 109.928 36.6685 109.928 34.52C109.928 32.3286 109.133 31.0395 107.392 31.0395C105.652 31.0395 104.836 32.3931 104.836 34.5415C104.836 36.7329 105.652 38.022 107.392 38.022ZM122.961 33.4458C122.961 31.9849 122.209 31.3403 120.985 31.3403C119.846 31.3403 119.051 31.8774 118.557 32.6079V40.1919H115.549V33.145C115.549 32.0493 115.528 30.6099 115.399 28.8696H117.311C117.698 29.3853 118.041 30.2661 118.256 31.104C118.729 29.8364 119.867 28.6333 121.93 28.6333C124.25 28.6333 125.969 29.9224 125.969 32.9731V40.1919H122.961V33.4458Z" fill="white"/>
<g clip-path="url(#clip1_10765_22628)">
<path d="M310.303 21.2549C306.162 21.2549 302.792 24.6242 302.792 28.7657V33.0564C302.792 33.1046 302.731 33.188 302.687 33.2011C302.279 33.3371 301.95 33.4556 301.647 33.5697C301.288 33.71 301.016 34.1093 301.016 34.4997V44.3533C301.016 44.7394 301.288 45.1386 301.643 45.2834C304.411 46.3802 307.324 46.9374 310.303 46.9374C313.282 46.9374 316.195 46.3802 318.964 45.2834C319.323 45.143 319.591 44.7438 319.591 44.3533V34.4997C319.591 34.1093 319.319 33.71 318.959 33.5697C318.656 33.4512 318.327 33.3371 317.919 33.2011C317.871 33.1836 317.814 33.1046 317.814 33.0564V28.7657C317.814 24.6242 314.445 21.2549 310.303 21.2549ZM308.259 37.5006C308.259 36.3687 309.176 35.4561 310.303 35.4561C311.431 35.4561 312.348 36.3731 312.348 37.5006C312.348 38.2508 311.927 38.8781 311.325 39.2335V42.616C311.325 43.1819 310.869 43.6382 310.303 43.6382C309.737 43.6382 309.281 43.1819 309.281 42.616V39.2335C308.68 38.8781 308.259 38.2508 308.259 37.5006ZM315.23 28.7657V32.4685C313.616 32.1219 311.957 31.9464 310.303 31.9464C308.649 31.9464 306.995 32.1219 305.376 32.4685V28.7701C305.376 26.0544 307.588 23.8433 310.303 23.8433C313.019 23.8389 315.23 26.0457 315.23 28.7657Z" fill="white"/>
</g>
<path d="M160.112 36.4214C160.065 36.6521 160.017 36.8852 159.97 37.116C158.783 37.3137 157.591 37.4456 156.398 37.5186C157.664 37.1772 158.903 36.8169 160.112 36.4214Z" fill="#ED1C27"/>
<path d="M186.649 13.7509C183.253 23.0928 176.261 31.5264 166.824 35.2326C166.824 35.2326 167.203 33.3807 167.206 33.3807C174.865 29.018 180.093 21.2056 182.206 12.8238C182.952 12.4191 184.989 11.2637 184.989 11.2637C184.989 11.2637 186.064 12.8497 186.649 13.7509Z" fill="#ED1C27"/>
<path d="M170.576 16.9594C170.645 16.6205 170.752 16.4087 171.138 16.3805C172.791 16.2511 174.442 15.9852 176.09 15.9993C178.127 16.0134 179.475 17.4418 179.74 19.6066C180.789 17.43 181.614 15.1545 182.203 12.8226C182.175 12.8014 182.147 12.7826 182.118 12.7638C180.491 11.6601 178.632 11.3636 176.723 11.2836C172.822 11.1142 169.044 11.8672 165.311 12.8908C165.112 12.9473 164.882 13.2485 164.835 13.472C164.506 15.0675 158.672 43.465 158.672 43.465H163.037C164.266 43.465 165.32 42.5237 165.569 41.3142C165.571 41.3189 170.292 18.3548 170.576 16.9594Z" fill="white"/>
<path d="M185.368 16.8682C181.891 24.3958 176.052 31.0104 168.473 34.526C180.749 38.011 188.828 26.0077 185.368 16.8682Z" fill="white"/>
<path d="M157.153 22.8586C148.238 14.3003 133.039 24.0681 135.476 35.7067C136.992 42.9472 144.879 44.5544 151.262 42.846C155.313 41.7636 154.829 37.8598 154.829 37.8598C149.749 39.0269 140.08 37.9774 140.874 34.1207C144.782 35.2101 150.739 35.469 154.919 33.3347C160.374 30.5486 159.443 25.4141 157.153 22.8586ZM153.415 27.7366C152.053 30.5298 144.27 30.5063 141.468 29.6897C143.226 25.7271 147.847 23.3598 152.084 25.0752C153.363 25.5953 153.932 26.6683 153.415 27.7366Z" fill="white"/>
<path d="M213.287 21.4019C209.511 20.1712 204.983 19.6064 201.667 19.6064C192.891 19.6064 187.368 27.4541 187.626 34.3394C187.725 36.9819 188.618 42.98 196.655 43.6695C198.886 43.8601 201.015 43.5754 202.879 42.2058C202.894 42.1941 203.024 42.0788 202.993 42.2435C202.927 42.6271 202.778 43.4695 202.778 43.4695C202.778 43.4695 206.967 43.4695 208.955 43.4695C209.329 43.4695 209.381 43.213 209.436 42.9518C210.864 36.0101 212.301 29.0825 213.713 22.1361C213.803 21.6984 213.716 21.5384 213.287 21.4019ZM206.477 25.5387C205.724 29.1178 204.994 32.7016 204.234 36.283C204.168 36.5913 204.007 36.8713 203.77 37.0807C201.965 38.6762 199.862 39.2009 197.512 38.6644C193.007 37.6361 193.746 31.2897 195.324 28.2283C196.761 25.4422 200.011 23.868 203.32 24.2939C206.631 24.7174 206.562 25.1222 206.477 25.5387Z" fill="white"/>
<path d="M290.55 27.9812C290.088 22.5031 285.734 19.6064 280.509 19.6064C269.552 19.6064 265.933 28.7013 266.267 35.0218C266.587 41.0905 271.989 43.9166 277.432 43.4106C282.489 43.1118 286.288 40.8175 288.638 36.323C289.998 33.7181 290.879 30.972 290.55 27.9812ZM275.438 38.2738C270.616 37.2878 272.25 30.9509 273.257 29.0825C275.687 24.5692 278.998 24.3621 280.881 24.6586C283.368 25.0469 284.78 26.8117 284.64 29.7931C284.429 34.3064 281.049 39.4197 275.438 38.2738Z" fill="white"/>
<path d="M213.219 54.0311L214.036 50.0095C214.159 49.5389 214.602 49.2038 215.088 49.1896C217.537 49.1206 218.375 48.6928 219.6 47.357C220.535 46.1639 221.243 45.206 222.03 44.1032C222.134 43.9582 222.143 43.6992 222.106 43.509C220.779 36.7518 217.432 19.6079 217.432 19.6079C217.432 19.6079 223.534 19.5533 223.918 22.0109C224.654 26.7169 226.397 36.2313 226.48 36.6068C226.696 36.2336 232.402 26.4032 235.071 21.69C236.381 19.3774 241.371 19.6079 243.02 19.6079C238.1 27.8578 228.546 43.856 227.056 46.3421C223.186 52.7928 219.78 54.081 216.213 54.0358C215.241 54.024 213.219 54.0311 213.219 54.0311Z" fill="white"/>
<path d="M261.819 36.89C261.473 38.5678 260.846 41.6198 260.824 41.728C260.789 41.9069 260.713 42.1045 260.474 42.194C257.179 43.4176 253.662 43.9941 250.462 42.867C240.107 39.2243 242.887 22.6936 253.702 20.0628C259.012 18.771 264.308 20.6417 264.567 20.7217C264.867 20.8158 265.055 21.117 264.993 21.4229C264.806 22.343 264.211 25.2562 264.185 25.3621C261.189 24.3996 258.041 23.7031 254.981 24.7714C248.899 26.8987 247.577 37.2665 253.626 38.4807C256.525 39.0643 259.178 38.0431 261.819 36.89Z" fill="white"/>
<path d="M247.191 52.5097C248.028 52.6812 250.097 52.6279 250.144 51.3162C250.144 50.79 249.444 50.2982 248.779 50.1571C247.958 49.9855 247.435 49.9817 246.605 50.1571C246.094 50.3477 245.937 49.8597 246.401 49.6957C247.281 49.3831 250.718 49.3183 250.879 51.3162C250.737 53.2913 247.738 53.1502 247.061 53.0168C246.794 52.9672 246.59 52.8452 246.59 52.5173V50.8739C246.59 50.485 247.187 50.4888 247.187 50.8739V52.5097H247.191Z" fill="white"/>
<path d="M253.647 50.1959C252.978 50.1959 251.854 52.1748 251.52 52.884C251.323 53.3073 250.694 53.006 250.894 52.579C251.248 51.8164 252.589 49.5134 253.639 49.5363C254.688 49.5172 256.029 51.8164 256.383 52.579C256.58 53.006 255.954 53.3073 255.758 52.884C255.428 52.1748 254.311 50.1959 253.647 50.1959Z" fill="white"/>
<path d="M258.325 52.4251C258.993 52.4251 260.118 50.4462 260.448 49.737C260.645 49.3137 261.274 49.615 261.073 50.0382C260.719 50.8008 259.379 53.1038 258.329 53.0847C257.279 53.1038 255.938 50.8046 255.585 50.0382C255.388 49.6111 256.013 49.3099 256.214 49.737C256.544 50.4462 257.657 52.4251 258.325 52.4251Z" fill="white"/>
<path d="M262.207 49.8759V52.7584C262.207 53.1893 261.535 53.174 261.535 52.7432V49.8683C261.535 49.4222 262.207 49.4183 262.207 49.8759Z" fill="white"/>
<path d="M265.423 52.4251C266.091 52.4251 267.215 50.4462 267.546 49.737C267.742 49.3137 268.371 49.615 268.171 50.0382C267.813 50.8008 266.472 53.1038 265.423 53.0847C264.373 53.1038 263.032 50.8046 262.678 50.0382C262.482 49.6111 263.107 49.3099 263.304 49.737C263.634 50.4462 264.746 52.4251 265.415 52.4251" fill="white"/>
<path d="M270.583 51.6091C270.78 52.0133 271.342 52.3412 271.885 52.4556C272.703 52.631 273.225 52.631 274.055 52.4556C274.55 52.2993 274.723 52.7644 274.256 52.9169C273.336 53.2182 269.962 53.3249 269.766 51.3193C269.876 49.4091 272.569 49.4587 273.599 49.5921C274.102 49.6569 274 50.1717 273.473 50.0649C272.785 49.9772 270.914 49.8704 270.548 51.0715H272.467C272.765 51.0715 272.765 51.6091 272.467 51.6091H270.583Z" fill="white"/>
<path d="M281.281 52.5126C282.118 52.6842 284.186 52.6308 284.234 51.3192C284.234 50.793 283.534 50.3011 282.865 50.16C282.048 49.9885 281.525 49.9846 280.695 50.16C280.184 50.3507 280.027 49.8626 280.491 49.6987C281.375 49.386 284.808 49.3212 284.969 51.3192C284.827 53.2942 281.827 53.1532 281.155 53.0197C280.888 52.9701 280.683 52.8481 280.683 52.5202V50.8769C280.683 50.4879 281.281 50.4918 281.281 50.8769V52.5126Z" fill="white"/>
<path d="M287.739 50.1959C287.071 50.1959 285.942 52.1748 285.612 52.884C285.416 53.3073 284.79 53.006 284.987 52.579C285.345 51.8164 286.685 49.5134 287.731 49.5363C288.781 49.5172 290.122 51.8164 290.476 52.579C290.672 53.006 290.047 53.3073 289.85 52.884C289.52 52.1748 288.407 50.1959 287.739 50.1959Z" fill="white"/>
<path d="M269.301 49.8759V52.7584C269.301 53.1893 268.629 53.174 268.629 52.7432V49.8683C268.629 49.4222 269.301 49.4183 269.301 49.8759Z" fill="white"/>
<path d="M277.378 51.8984C276.962 51.1625 276.505 50.1864 276.191 50.1635C275.416 50.1635 275.766 51.6429 275.755 52.7982C275.751 53.2062 275.082 53.2062 275.082 52.7525C275.082 51.2807 274.756 49.5229 276.207 49.5229C276.631 49.5229 277.032 50.1406 277.394 50.7202C277.811 51.4599 278.306 52.436 278.617 52.4589C279.391 52.4589 279.022 51.01 279.037 49.8547C279.041 49.4467 279.71 49.4467 279.71 49.9004C279.71 51.376 280.056 53.1032 278.605 53.1032C278.176 53.1032 277.74 52.4856 277.378 51.9022" fill="white"/>
<path fill-rule="evenodd" clip-rule="evenodd" d="M237.87 50.2388C237.884 50.3479 237.87 50.815 237.43 51.4561C236.97 52.1619 237.698 53.3417 239.167 53.0416C239.491 53.1541 239.839 53.1712 240.064 53.1678C240.289 53.1678 240.64 53.1542 240.964 53.045C242.434 53.3451 243.158 52.1619 242.697 51.4561C242.254 50.8184 242.244 50.3479 242.258 50.2388H237.877H237.87Z" fill="#E5252B"/>
<path fill-rule="evenodd" clip-rule="evenodd" d="M240.058 53.1594C238.626 53.1219 238.366 52.482 238.759 52.3493C238.991 52.271 239.293 52.1416 239.293 52.1416C239.138 51.42 239.391 50.4976 240.061 50.501C240.732 50.501 240.974 51.4506 240.823 52.1586C240.823 52.1586 241.128 52.2642 241.353 52.3527C241.728 52.4922 241.49 53.1253 240.058 53.1628" fill="#0682C4"/>
<path fill-rule="evenodd" clip-rule="evenodd" d="M239.522 52.656C239.14 51.6263 239.476 50.6611 240.062 50.6611C240.619 50.6645 240.997 51.5991 240.605 52.6526C240.605 52.6526 240.419 52.6118 240.044 52.6118C239.764 52.6118 239.525 52.656 239.525 52.656" fill="#FFE11B"/>
<path fill-rule="evenodd" clip-rule="evenodd" d="M240.054 53.1747C240.632 53.1747 241.084 53.0557 241.084 52.8891C241.084 52.7225 240.632 52.6001 240.054 52.6001C239.475 52.6001 239.023 52.7191 239.023 52.8891C239.023 53.0591 239.475 53.1747 240.054 53.1747Z" fill="#F49824"/>
<path fill-rule="evenodd" clip-rule="evenodd" d="M238.149 50.7505H238.844C238.953 50.7505 239.041 50.8356 239.041 50.9412V51.3941C239.041 51.5031 238.953 51.5883 238.844 51.5883H238.149C238.04 51.5883 237.949 51.5031 237.949 51.3941V50.9412C237.949 50.8356 238.037 50.7505 238.149 50.7505Z" fill="#0682C4"/>
<path d="M238.228 50.8633H238.774C238.858 50.8633 238.924 50.9278 238.924 51.0058V51.3349C238.924 51.4163 238.858 51.4808 238.774 51.4808H238.228C238.145 51.4808 238.078 51.4163 238.078 51.3349V51.0058C238.078 50.9278 238.145 50.8633 238.228 50.8633Z" fill="#231F20"/>
<path fill-rule="evenodd" clip-rule="evenodd" d="M238.924 51.2485C238.678 51.225 238.595 50.9458 238.574 50.8584H238.775C238.858 50.8584 238.924 50.9223 238.924 50.9997V51.2452V51.2485Z" fill="#FFE11B"/>
<path fill-rule="evenodd" clip-rule="evenodd" d="M238.432 50.8633C238.418 50.944 238.338 51.24 238.078 51.2534V51.0045C238.078 50.9272 238.144 50.8633 238.227 50.8633H238.432Z" fill="#FFE11B"/>
<path fill-rule="evenodd" clip-rule="evenodd" d="M241.279 50.7505H241.97C242.079 50.7505 242.17 50.8356 242.17 50.9412V51.3941C242.17 51.5031 242.082 51.5883 241.97 51.5883H241.279C241.17 51.5883 241.082 51.5031 241.082 51.3941V50.9412C241.082 50.8356 241.17 50.7505 241.279 50.7505Z" fill="#0682C4"/>
<path d="M241.358 50.8633H241.907C241.991 50.8633 242.057 50.9278 242.057 51.0058V51.3349C242.057 51.4163 241.991 51.4808 241.907 51.4808H241.358C241.277 51.4808 241.211 51.4163 241.211 51.3349V51.0058C241.211 50.9278 241.277 50.8633 241.358 50.8633Z" fill="#231F20"/>
<path fill-rule="evenodd" clip-rule="evenodd" d="M242.053 51.2485C241.807 51.225 241.724 50.9458 241.703 50.8584H241.908C241.991 50.8584 242.057 50.9223 242.057 50.9997V51.2452L242.053 51.2485Z" fill="#FFE11B"/>
<path fill-rule="evenodd" clip-rule="evenodd" d="M241.561 50.8633C241.543 50.944 241.467 51.24 241.207 51.2534V51.0045C241.207 50.9272 241.273 50.8633 241.353 50.8633H241.561Z" fill="#FFE11B"/>
<path fill-rule="evenodd" clip-rule="evenodd" d="M241.501 48.4844C241.428 48.2438 241.414 48.1251 241.641 48.1251H242.14C242.444 48.1184 242.318 48.3488 242.291 48.5725C242.252 48.8674 242.252 48.9589 242.252 48.9589C242.252 48.9589 241.501 48.4912 241.501 48.4878" fill="#E5252B"/>
<path fill-rule="evenodd" clip-rule="evenodd" d="M240.055 50.2147C239.306 50.2147 238.279 50.2795 237.618 50.3273C237.112 50.3648 236.718 49.9897 237.056 49.6351C237.776 48.8781 239.531 47.9268 240.062 47.9268C240.628 47.9268 242.347 48.8781 243.068 49.6351C243.405 49.9897 243.068 50.3273 242.555 50.3273C241.988 50.3273 240.804 50.2147 240.055 50.2147Z" fill="#F49824"/>
<path d="M240.465 51.9099C240.465 51.8564 240.506 51.813 240.561 51.813C240.616 51.813 240.654 51.8564 240.654 51.9099C240.654 51.9633 240.613 52.0034 240.561 52.0034C240.51 52.0034 240.465 51.96 240.465 51.9099Z" fill="#231F20"/>
<path fill-rule="evenodd" clip-rule="evenodd" d="M240.058 52.584C239.759 52.584 239.52 52.6283 239.52 52.6283C239.165 51.6224 239.488 50.6779 240.058 50.6779C240.627 50.6779 240.954 51.6258 240.596 52.6283C240.596 52.6283 240.367 52.584 240.058 52.584ZM240.585 52.6624C240.881 52.7068 241.077 52.792 241.077 52.8875C241.077 53.0307 240.624 53.15 240.061 53.15C239.499 53.15 239.045 53.0307 239.045 52.8875C239.045 52.792 239.239 52.7068 239.534 52.6624C239.534 52.6624 239.854 52.6249 240.061 52.6249C240.269 52.6249 240.589 52.6624 240.589 52.6624M240.631 52.6317C241.004 51.5883 240.642 50.6302 240.061 50.6336C239.481 50.6336 239.119 51.5917 239.492 52.6317C239.204 52.6863 239.014 52.7784 239.014 52.8875C239.014 52.9216 239.035 52.9523 239.07 52.9829C238.585 52.7784 238.539 52.4408 238.806 52.3487C239.035 52.2703 239.316 52.1646 239.316 52.1646C239.168 51.4622 239.397 50.5211 240.065 50.5211C240.733 50.5211 240.961 51.4622 240.81 52.1646C240.81 52.1646 241.088 52.2737 241.32 52.3487C241.58 52.434 241.542 52.7715 241.06 52.9795C241.095 52.9488 241.113 52.9182 241.113 52.8841C241.113 52.7784 240.923 52.6829 240.635 52.6283M241.531 48.4786C241.475 48.257 241.471 48.1649 241.668 48.1649H242.101C242.385 48.1615 242.269 48.3729 242.245 48.5877C242.231 48.7173 242.22 48.823 242.217 48.9014C241.988 48.7446 241.756 48.6048 241.535 48.4786M241.032 53.0341C242.41 53.2591 243.082 52.1407 242.642 51.4622C242.301 50.9712 242.22 50.5586 242.21 50.3472C241.306 50.3028 240.684 50.2585 240.061 50.2517C239.439 50.2585 238.817 50.3028 237.913 50.3472C237.899 50.5586 237.818 50.9712 237.477 51.4622C237.038 52.1407 237.709 53.2591 239.087 53.0341C238.504 52.8193 238.43 52.4544 238.743 52.3351C238.971 52.2498 239.277 52.1407 239.277 52.1407C239.126 51.4178 239.39 50.4631 240.058 50.4631C240.729 50.4631 240.993 51.4144 240.838 52.1407C240.838 52.1407 241.144 52.2498 241.373 52.3351C241.686 52.451 241.612 52.8193 241.028 53.0341M240.061 50.163C239.284 50.1733 238.55 50.2278 237.685 50.2824C237.147 50.3165 236.844 49.9687 237.182 49.6072C237.681 49.0787 239.386 47.9876 240.061 47.9876C240.736 47.9876 242.438 49.0787 242.941 49.6072C243.279 49.9653 242.976 50.3165 242.442 50.2824C241.577 50.2278 240.838 50.1767 240.065 50.163M241.433 48.4206C241.426 48.4002 241.419 48.3763 241.415 48.3558C241.376 48.2263 241.415 48.0831 241.644 48.0831H242.146C242.442 48.0831 242.41 48.2808 242.357 48.4718C242.322 48.6082 242.294 48.7821 242.28 48.9457C242.28 48.9457 242.691 49.239 242.92 49.4265C243.637 50.0164 243.169 50.3983 242.484 50.3676C242.414 50.3642 242.347 50.3608 242.28 50.3574C242.283 50.5518 242.343 50.9132 242.66 51.3258C243.454 52.2498 242.4 53.4092 240.912 53.0818C240.666 53.1602 240.276 53.1978 240.061 53.1978C239.847 53.1978 239.457 53.1602 239.207 53.0818C237.72 53.4092 236.665 52.2498 237.46 51.3258C237.776 50.9166 237.836 50.5552 237.839 50.3574L237.639 50.3676C236.953 50.4017 236.486 50.0164 237.203 49.4265C238.272 48.5536 239.562 47.9058 240.061 47.9023C240.336 47.9023 240.849 48.1035 241.433 48.424" fill="#231F20"/>
<path d="M238.84 51.607H238.146C238.024 51.607 237.926 51.5119 237.926 51.393V50.9411C237.926 50.8256 238.024 50.7305 238.146 50.7305H238.84C238.959 50.7305 239.057 50.8256 239.057 50.9411V51.393C239.057 51.5119 238.959 51.607 238.84 51.607ZM238.15 50.7712C238.052 50.7712 237.971 50.8494 237.971 50.9411V51.393C237.971 51.4881 238.052 51.5663 238.15 51.5663H238.843C238.941 51.5663 239.018 51.4881 239.018 51.393V50.9411C239.018 50.846 238.938 50.7712 238.843 50.7712H238.15Z" fill="#231F20"/>
<path d="M241.973 51.607H241.283C241.164 51.607 241.066 51.5119 241.066 51.393V50.9411C241.066 50.8256 241.164 50.7305 241.283 50.7305H241.973C242.096 50.7305 242.194 50.8256 242.194 50.9411V51.393C242.194 51.5119 242.096 51.607 241.973 51.607ZM241.28 50.7712C241.182 50.7712 241.105 50.8494 241.105 50.9411V51.393C241.105 51.4881 241.185 51.5663 241.28 51.5663H241.97C242.068 51.5663 242.148 51.4881 242.148 51.393V50.9411C242.148 50.846 242.068 50.7712 241.97 50.7712H241.28Z" fill="#231F20"/>
</g>
<defs>
<clipPath id="clip0_10765_22628">
<rect width="361.622" height="63.6886" rx="5.44611" fill="white"/>
</clipPath>
<clipPath id="clip1_10765_22628">
<rect width="18.5753" height="25.6825" fill="white" transform="translate(301.016 21.2539)"/>
</clipPath>
</defs>
</svg>
