<svg width="362" height="64" viewBox="0 0 362 64" fill="none" xmlns="http://www.w3.org/2000/svg">
<g clip-path="url(#clip0_10764_21231)">
<rect width="372.417" height="124.139" transform="translate(-10.7695 -5.3999)" fill="#9A9A9A"/>
<rect x="3.26953" y="2.15869" width="355.031" height="59.3907" rx="17.9036" fill="black"/>
<path d="M32.2871 40.1914V24.873H37.8945C41.5684 24.873 43.373 26.7852 43.373 29.8574C43.373 33.2949 41.2246 35.3789 37.8086 35.3789H35.3164V40.1914H32.2871ZM35.3164 32.8652H37.5938C39.248 32.8652 40.2578 31.8984 40.2578 30.0293C40.2578 28.2891 39.3125 27.5156 37.6582 27.5156H35.3164V32.8652ZM52.5558 40.1914C52.212 39.6328 51.8898 39.0098 51.6534 38.1504C51.0089 39.6758 49.5909 40.4277 48.0655 40.4277C46.3683 40.4277 45.0148 39.5254 45.0148 37.5918C45.0148 34.0254 49.1183 34.3262 51.3527 33.2734C51.2237 31.6836 50.0851 31.2754 48.6671 31.2754C47.6788 31.2754 46.6046 31.4687 45.5304 31.7051V29.1055C46.7765 28.8047 48.0011 28.6328 49.0968 28.6328C52.0187 28.6328 54.1886 29.8574 54.1886 33.4023V36.3242C54.1886 37.377 54.2101 38.5156 54.4249 40.1914H52.5558ZM47.9151 37.1191C47.9151 37.8496 48.3663 38.2148 49.0538 38.2148C50.0851 38.2148 51.3527 37.248 51.3527 35.5078V35.0352C49.6769 35.8301 47.9151 35.5723 47.9151 37.1191ZM60.8566 36.7539C60.5773 36.7539 60.298 36.7324 60.0187 36.7109C59.6965 36.8828 59.5676 37.1621 59.5676 37.4629C59.5676 38.2363 60.7062 38.2578 62.1887 38.3867C64.3586 38.5586 66.7434 38.9453 66.7434 41.459C66.7434 43.8652 64.1867 45.0254 60.7277 45.0254C57.591 45.0254 55.4211 44.166 55.4211 42.1035C55.4211 40.4922 57.0539 39.7832 58.3859 39.8906C57.634 39.5684 57.1398 39.0098 57.1398 38.2793C57.1398 37.291 57.9777 36.6895 58.966 36.4746C57.2473 35.8945 56.3449 34.4766 56.3449 32.6719C56.3449 30.3516 58.0422 28.6328 60.9855 28.6328C61.6945 28.6328 62.3176 28.7402 62.8547 28.8906C62.9191 28.9121 63.0266 28.9336 63.1125 28.9336C63.8644 28.9336 64.0363 28.2676 64.0363 27.4941C64.0363 27.1289 63.9719 26.7207 63.9074 26.377H66.593C66.6359 26.6562 66.6789 26.9141 66.6789 27.1934C66.6789 28.9121 65.4328 29.75 64.3156 29.75C64.1867 29.75 64.0578 29.7285 63.9504 29.707C64.9602 30.4375 65.4973 31.4687 65.4973 32.8008C65.4973 34.9277 63.8 36.7539 60.8566 36.7539ZM60.8996 34.6914C62.0598 34.6914 62.7043 34.0254 62.7043 32.6934C62.7043 31.3184 62.1027 30.6738 60.9211 30.6738C59.7609 30.6738 59.1379 31.2754 59.1379 32.6504C59.1379 34.0039 59.7394 34.6914 60.8996 34.6914ZM58.1711 41.416C58.1711 42.5332 59.5461 42.8125 60.9641 42.8125C62.468 42.8125 63.7355 42.5332 63.7355 41.6738C63.7355 40.5352 61.5226 40.6855 59.675 40.4063C58.8371 40.3418 58.1711 40.75 58.1711 41.416ZM74.8374 40.1914C74.4937 39.6328 74.1714 39.0098 73.9351 38.1504C73.2906 39.6758 71.8726 40.4277 70.3472 40.4277C68.6499 40.4277 67.2964 39.5254 67.2964 37.5918C67.2964 34.0254 71.3999 34.3262 73.6343 33.2734C73.5054 31.6836 72.3667 31.2754 70.9488 31.2754C69.9605 31.2754 68.8863 31.4687 67.812 31.7051V29.1055C69.0581 28.8047 70.2827 28.6328 71.3784 28.6328C74.3003 28.6328 76.4702 29.8574 76.4702 33.4023V36.3242C76.4702 37.377 76.4917 38.5156 76.7066 40.1914H74.8374ZM70.1968 37.1191C70.1968 37.8496 70.648 38.2148 71.3355 38.2148C72.3667 38.2148 73.6343 37.248 73.6343 35.5078V35.0352C71.9585 35.8301 70.1968 35.5723 70.1968 37.1191ZM86.2965 31.6406C84.234 31.5547 83.0309 31.9844 82.5367 32.8008V40.1914H79.5289V33.1445C79.5289 32.0488 79.5074 30.6094 79.3785 28.8691H81.2906C81.6988 29.4062 82.0855 30.3945 82.2789 31.3184C82.816 29.5781 84.0191 28.6328 86.2965 28.6328V31.6406ZM97.7707 40.4277C94.4191 40.4277 92.0558 38.5801 92.0558 34.5195C92.0558 30.6523 94.5265 28.6328 97.8996 28.6328C98.6515 28.6328 99.4679 28.7402 100.284 28.9336V31.4473C99.5539 31.2969 98.8449 31.2109 98.2433 31.2109C96.3097 31.2109 95.0421 32.0273 95.0421 34.541C95.0421 37.0547 96.2882 37.8496 98.2003 37.8496C98.8449 37.8496 99.5539 37.7637 100.284 37.6133V40.127C99.4035 40.2988 98.5656 40.4277 97.7707 40.4277ZM107.289 40.4277C103.68 40.4277 101.875 37.8711 101.875 34.6484C101.875 31.2969 103.808 28.6328 107.504 28.6328C111.092 28.6328 112.918 31.1895 112.918 34.4121C112.918 37.7637 110.984 40.4277 107.289 40.4277ZM107.396 38.0215C109.115 38.0215 109.931 36.668 109.931 34.5195C109.931 32.3281 109.137 31.0391 107.396 31.0391C105.656 31.0391 104.84 32.3926 104.84 34.541C104.84 36.7324 105.656 38.0215 107.396 38.0215ZM122.965 33.4453C122.965 31.9844 122.213 31.3398 120.989 31.3398C119.85 31.3398 119.055 31.877 118.561 32.6074V40.1914H115.553V33.1445C115.553 32.0488 115.532 30.6094 115.403 28.8691H117.315C117.701 29.3848 118.045 30.2656 118.26 31.1035C118.733 29.8359 119.871 28.6328 121.934 28.6328C124.254 28.6328 125.973 29.9219 125.973 32.9727V40.1914H122.965V33.4453Z" fill="white"/>
<g clip-path="url(#clip1_10764_21231)">
<path d="M310.311 21.2539C306.17 21.2539 302.8 24.6233 302.8 28.7647V33.0554C302.8 33.1036 302.739 33.187 302.695 33.2002C302.287 33.3362 301.958 33.4546 301.655 33.5687C301.295 33.7091 301.023 34.1083 301.023 34.4988V44.3523C301.023 44.7384 301.295 45.1376 301.651 45.2824C304.419 46.3792 307.332 46.9364 310.311 46.9364C313.29 46.9364 316.203 46.3792 318.971 45.2824C319.331 45.142 319.599 44.7428 319.599 44.3523V34.4988C319.599 34.1083 319.327 33.7091 318.967 33.5687C318.664 33.4502 318.335 33.3362 317.927 33.2002C317.879 33.1826 317.822 33.1036 317.822 33.0554V28.7647C317.822 24.6233 314.453 21.2539 310.311 21.2539ZM308.267 37.4996C308.267 36.3677 309.184 35.4552 310.311 35.4552C311.439 35.4552 312.355 36.3721 312.355 37.4996C312.355 38.2498 311.934 38.8772 311.333 39.2325V42.615C311.333 43.181 310.877 43.6372 310.311 43.6372C309.745 43.6372 309.289 43.181 309.289 42.615V39.2325C308.688 38.8772 308.267 38.2498 308.267 37.4996ZM315.238 28.7647V32.4675C313.623 32.1209 311.965 31.9454 310.311 31.9454C308.657 31.9454 307.003 32.1209 305.384 32.4675V28.7691C305.384 26.0535 307.595 23.8423 310.311 23.8423C313.027 23.8379 315.238 26.0447 315.238 28.7647Z" fill="white"/>
</g>
<path d="M160.132 36.4204C160.084 36.6512 160.037 36.8842 159.989 37.115C158.802 37.3128 157.61 37.4446 156.418 37.5176C157.684 37.1762 158.923 36.816 160.132 36.4204Z" fill="#ED1C27"/>
<path d="M186.669 13.7499C183.272 23.0919 176.28 31.5254 166.844 35.2316C166.844 35.2316 167.223 33.3797 167.225 33.3797C174.885 29.017 180.112 21.2046 182.225 12.8228C182.971 12.4181 185.008 11.2627 185.008 11.2627C185.008 11.2627 186.084 12.8487 186.669 13.7499Z" fill="#ED1C27"/>
<path d="M170.596 16.9584C170.664 16.6195 170.771 16.4078 171.157 16.3795C172.81 16.2501 174.461 15.9842 176.11 15.9983C178.147 16.0124 179.494 17.4408 179.76 19.6057C180.809 17.429 181.633 15.1535 182.223 12.8216C182.195 12.8004 182.166 12.7816 182.138 12.7628C180.511 11.6592 178.651 11.3627 176.742 11.2827C172.841 11.1132 169.063 11.8662 165.33 12.8898C165.132 12.9463 164.902 13.2475 164.854 13.4711C164.525 15.0665 158.691 43.464 158.691 43.464H163.057C164.286 43.464 165.34 42.5227 165.589 41.3132C165.591 41.3179 170.312 18.3538 170.596 16.9584Z" fill="white"/>
<path d="M185.387 16.8672C181.91 24.3948 176.072 31.0095 168.492 34.525C180.768 38.01 188.848 26.0067 185.387 16.8672Z" fill="white"/>
<path d="M157.173 22.8576C148.257 14.2993 133.058 24.0671 135.495 35.7057C137.011 42.9462 144.899 44.5534 151.282 42.8451C155.332 41.7626 154.849 37.8588 154.849 37.8588C149.768 39.0259 140.1 37.9764 140.893 34.1197C144.802 35.2092 150.758 35.468 154.939 33.3337C160.394 30.5476 159.463 25.4131 157.173 22.8576ZM153.435 27.7357C152.073 30.5288 144.29 30.5053 141.488 29.6887C143.245 25.7261 147.866 23.3588 152.104 25.0743C153.383 25.5943 153.951 26.6673 153.435 27.7357Z" fill="white"/>
<path d="M213.306 21.4009C209.531 20.1702 205.002 19.6055 201.686 19.6055C192.911 19.6055 187.387 27.4531 187.645 34.3384C187.745 36.9809 188.638 42.979 196.674 43.6685C198.906 43.8591 201.035 43.5744 202.899 42.2049C202.913 42.1931 203.043 42.0778 203.013 42.2425C202.946 42.6261 202.797 43.4685 202.797 43.4685C202.797 43.4685 206.987 43.4685 208.974 43.4685C209.348 43.4685 209.401 43.212 209.455 42.9508C210.883 36.0091 212.321 29.0815 213.733 22.1351C213.823 21.6974 213.735 21.5374 213.306 21.4009ZM206.497 25.5377C205.744 29.1168 205.014 32.7006 204.254 36.2821C204.187 36.5903 204.026 36.8703 203.789 37.0798C201.985 38.6752 199.881 39.1999 197.532 38.6634C193.027 37.6351 193.766 31.2887 195.343 28.2273C196.781 25.4412 200.031 23.867 203.339 24.2929C206.651 24.7165 206.582 25.1212 206.497 25.5377Z" fill="white"/>
<path d="M290.569 27.9802C290.107 22.5022 285.754 19.6055 280.529 19.6055C269.572 19.6055 265.953 28.7003 266.287 35.0208C266.606 41.0895 272.009 43.9156 277.452 43.4097C282.509 43.1108 286.308 40.8165 288.658 36.3221C290.017 33.7172 290.898 30.9711 290.569 27.9802ZM275.458 38.2728C270.635 37.2868 272.27 30.9499 273.276 29.0815C275.706 24.5682 279.018 24.3611 280.901 24.6576C283.388 25.0459 284.799 26.8107 284.659 29.7921C284.449 34.3054 281.069 39.4188 275.458 38.2728Z" fill="white"/>
<path d="M213.238 54.0301L214.055 50.0086C214.179 49.538 214.622 49.2028 215.107 49.1886C217.556 49.1196 218.395 48.6918 219.619 47.3561C220.555 46.1629 221.263 45.2051 222.049 44.1022C222.154 43.9572 222.163 43.6982 222.125 43.508C220.799 36.7508 217.452 19.607 217.452 19.607C217.452 19.607 223.553 19.5523 223.937 22.0099C224.674 26.716 226.417 36.2303 226.5 36.6058C226.715 36.2327 232.421 26.4022 235.091 21.689C236.4 19.3764 241.391 19.607 243.039 19.607C238.12 27.8568 228.565 43.855 227.075 46.3412C223.205 52.7918 219.799 54.08 216.232 54.0349C215.261 54.023 213.238 54.0301 213.238 54.0301Z" fill="white"/>
<path d="M261.839 36.889C261.493 38.5668 260.865 41.6188 260.844 41.7271C260.808 41.9059 260.732 42.1036 260.493 42.193C257.199 43.4166 253.681 43.9931 250.481 42.866C240.126 39.2233 242.907 22.6927 253.722 20.0619C259.032 18.77 264.328 20.6407 264.586 20.7207C264.887 20.8149 265.074 21.1161 265.012 21.422C264.825 22.342 264.231 25.2552 264.205 25.3611C261.209 24.3987 258.061 23.7021 255.001 24.7705C248.918 26.8977 247.596 37.2655 253.646 38.4798C256.545 39.0633 259.198 38.0421 261.839 36.889Z" fill="white"/>
<path d="M247.211 52.5087C248.048 52.6803 250.116 52.6269 250.163 51.3152C250.163 50.7891 249.463 50.2972 248.799 50.1561C247.977 49.9845 247.454 49.9807 246.625 50.1561C246.114 50.3468 245.956 49.8587 246.42 49.6948C247.301 49.3821 250.737 49.3173 250.898 51.3152C250.757 53.2903 247.757 53.1492 247.081 53.0158C246.813 52.9662 246.609 52.8442 246.609 52.5163V50.873C246.609 50.484 247.207 50.4878 247.207 50.873V52.5087H247.211Z" fill="white"/>
<path d="M253.666 50.1949C252.998 50.1949 251.873 52.1738 251.539 52.883C251.343 53.3063 250.713 53.0051 250.914 52.578C251.268 51.8154 252.608 49.5124 253.658 49.5353C254.708 49.5163 256.049 51.8154 256.402 52.578C256.599 53.0051 255.974 53.3063 255.777 52.883C255.447 52.1738 254.331 50.1949 253.666 50.1949Z" fill="white"/>
<path d="M258.344 52.4241C259.013 52.4241 260.137 50.4452 260.468 49.736C260.664 49.3128 261.293 49.614 261.093 50.0372C260.739 50.7998 259.398 53.1028 258.348 53.0837C257.299 53.1028 255.958 50.8036 255.604 50.0372C255.408 49.6102 256.033 49.309 256.233 49.736C256.563 50.4452 257.676 52.4241 258.344 52.4241Z" fill="white"/>
<path d="M262.227 49.8749V52.7575C262.227 53.1883 261.555 53.1731 261.555 52.7422V49.8673C261.555 49.4212 262.227 49.4174 262.227 49.8749Z" fill="white"/>
<path d="M265.442 52.4241C266.111 52.4241 267.235 50.4452 267.565 49.736C267.762 49.3128 268.391 49.614 268.19 50.0372C267.833 50.7998 266.492 53.1028 265.442 53.0837C264.392 53.1028 263.052 50.8036 262.698 50.0372C262.501 49.6102 263.126 49.309 263.323 49.736C263.653 50.4452 264.766 52.4241 265.434 52.4241" fill="white"/>
<path d="M270.603 51.6082C270.8 52.0123 271.362 52.3402 271.904 52.4546C272.722 52.63 273.245 52.63 274.075 52.4546C274.57 52.2983 274.743 52.7635 274.275 52.916C273.355 53.2172 269.982 53.324 269.785 51.3184C269.895 49.4081 272.588 49.4577 273.618 49.5911C274.122 49.6559 274.019 50.1707 273.493 50.0639C272.805 49.9762 270.933 49.8695 270.568 51.0705H272.486C272.785 51.0705 272.785 51.6082 272.486 51.6082H270.603Z" fill="white"/>
<path d="M281.3 52.5116C282.138 52.6832 284.206 52.6298 284.253 51.3182C284.253 50.792 283.553 50.3001 282.885 50.1591C282.067 49.9875 281.544 49.9837 280.715 50.1591C280.203 50.3497 280.046 49.8617 280.51 49.6977C281.395 49.385 284.827 49.3202 284.988 51.3182C284.847 53.2933 281.847 53.1522 281.175 53.0187C280.907 52.9692 280.703 52.8471 280.703 52.5192V50.8759C280.703 50.487 281.3 50.4908 281.3 50.8759V52.5116Z" fill="white"/>
<path d="M287.759 50.1949C287.09 50.1949 285.962 52.1738 285.632 52.883C285.435 53.3063 284.81 53.0051 285.007 52.578C285.364 51.8154 286.705 49.5124 287.751 49.5353C288.801 49.5163 290.141 51.8154 290.495 52.578C290.692 53.0051 290.067 53.3063 289.87 52.883C289.54 52.1738 288.427 50.1949 287.759 50.1949Z" fill="white"/>
<path d="M269.321 49.8749V52.7575C269.321 53.1883 268.648 53.1731 268.648 52.7422V49.8673C268.648 49.4212 269.321 49.4174 269.321 49.8749Z" fill="white"/>
<path d="M277.398 51.8974C276.981 51.1615 276.525 50.1854 276.21 50.1625C275.436 50.1625 275.786 51.6419 275.774 52.7972C275.77 53.2052 275.102 53.2052 275.102 52.7515C275.102 51.2797 274.775 49.522 276.226 49.522C276.651 49.522 277.052 50.1397 277.413 50.7192C277.83 51.4589 278.326 52.435 278.636 52.4579C279.411 52.4579 279.041 51.009 279.057 49.8537C279.061 49.4457 279.729 49.4457 279.729 49.8994C279.729 51.375 280.075 53.1023 278.624 53.1023C278.196 53.1023 277.76 52.4846 277.398 51.9012" fill="white"/>
<path fill-rule="evenodd" clip-rule="evenodd" d="M237.889 50.2378C237.903 50.3469 237.889 50.8141 237.45 51.4551C236.989 52.1609 237.717 53.3407 239.187 53.0406C239.51 53.1532 239.858 53.1702 240.083 53.1668C240.308 53.1668 240.66 53.1532 240.983 53.0441C242.453 53.3441 243.177 52.1609 242.717 51.4551C242.274 50.8175 242.263 50.3469 242.277 50.2378H237.896H237.889Z" fill="#E5252B"/>
<path fill-rule="evenodd" clip-rule="evenodd" d="M240.077 53.1584C238.645 53.1209 238.386 52.481 238.779 52.3483C239.01 52.27 239.312 52.1406 239.312 52.1406C239.158 51.419 239.41 50.4966 240.081 50.5C240.751 50.5 240.993 51.4497 240.842 52.1577C240.842 52.1577 241.148 52.2632 241.372 52.3517C241.748 52.4912 241.509 53.1243 240.077 53.1618" fill="#0682C4"/>
<path fill-rule="evenodd" clip-rule="evenodd" d="M239.541 52.655C239.159 51.6253 239.496 50.6602 240.081 50.6602C240.638 50.6636 241.017 51.5981 240.624 52.6516C240.624 52.6516 240.439 52.6108 240.064 52.6108C239.783 52.6108 239.545 52.655 239.545 52.655" fill="#FFE11B"/>
<path fill-rule="evenodd" clip-rule="evenodd" d="M240.073 53.1738C240.651 53.1738 241.103 53.0547 241.103 52.8881C241.103 52.7215 240.651 52.5991 240.073 52.5991C239.495 52.5991 239.043 52.7181 239.043 52.8881C239.043 53.0581 239.495 53.1738 240.073 53.1738Z" fill="#F49824"/>
<path fill-rule="evenodd" clip-rule="evenodd" d="M238.169 50.7495H238.864C238.973 50.7495 239.06 50.8347 239.06 50.9402V51.3932C239.06 51.5022 238.973 51.5873 238.864 51.5873H238.169C238.06 51.5873 237.969 51.5022 237.969 51.3932V50.9402C237.969 50.8347 238.056 50.7495 238.169 50.7495Z" fill="#0682C4"/>
<path d="M238.248 50.8623H238.794C238.877 50.8623 238.944 50.9268 238.944 51.0048V51.3339C238.944 51.4154 238.877 51.4798 238.794 51.4798H238.248C238.164 51.4798 238.098 51.4154 238.098 51.3339V51.0048C238.098 50.9268 238.164 50.8623 238.248 50.8623Z" fill="#231F20"/>
<path fill-rule="evenodd" clip-rule="evenodd" d="M238.944 51.2476C238.698 51.224 238.615 50.9449 238.594 50.8574H238.795C238.878 50.8574 238.944 50.9213 238.944 50.9987V51.2442V51.2476Z" fill="#FFE11B"/>
<path fill-rule="evenodd" clip-rule="evenodd" d="M238.451 50.8623C238.437 50.943 238.358 51.239 238.098 51.2524V51.0036C238.098 50.9262 238.164 50.8623 238.247 50.8623H238.451Z" fill="#FFE11B"/>
<path fill-rule="evenodd" clip-rule="evenodd" d="M241.298 50.7495H241.99C242.098 50.7495 242.19 50.8347 242.19 50.9402V51.3932C242.19 51.5022 242.102 51.5873 241.99 51.5873H241.298C241.189 51.5873 241.102 51.5022 241.102 51.3932V50.9402C241.102 50.8347 241.189 50.7495 241.298 50.7495Z" fill="#0682C4"/>
<path d="M241.377 50.8623H241.926C242.01 50.8623 242.077 50.9268 242.077 51.0048V51.3339C242.077 51.4154 242.01 51.4798 241.926 51.4798H241.377C241.297 51.4798 241.23 51.4154 241.23 51.3339V51.0048C241.23 50.9268 241.297 50.8623 241.377 50.8623Z" fill="#231F20"/>
<path fill-rule="evenodd" clip-rule="evenodd" d="M242.073 51.2476C241.827 51.224 241.743 50.9449 241.723 50.8574H241.927C242.01 50.8574 242.076 50.9213 242.076 50.9987V51.2442L242.073 51.2476Z" fill="#FFE11B"/>
<path fill-rule="evenodd" clip-rule="evenodd" d="M241.58 50.8623C241.563 50.943 241.487 51.239 241.227 51.2524V51.0036C241.227 50.9262 241.292 50.8623 241.372 50.8623H241.58Z" fill="#FFE11B"/>
<path fill-rule="evenodd" clip-rule="evenodd" d="M241.521 48.4834C241.447 48.2428 241.433 48.1242 241.66 48.1242H242.16C242.464 48.1174 242.338 48.3479 242.31 48.5716C242.272 48.8664 242.272 48.958 242.272 48.958C242.272 48.958 241.521 48.4902 241.521 48.4868" fill="#E5252B"/>
<path fill-rule="evenodd" clip-rule="evenodd" d="M240.074 50.2138C239.325 50.2138 238.299 50.2785 237.638 50.3263C237.131 50.3638 236.738 49.9887 237.075 49.6341C237.796 48.8771 239.55 47.9258 240.081 47.9258C240.647 47.9258 242.367 48.8771 243.087 49.6341C243.425 49.9887 243.087 50.3263 242.574 50.3263C242.008 50.3263 240.823 50.2138 240.074 50.2138Z" fill="#F49824"/>
<path d="M240.484 51.9089C240.484 51.8554 240.526 51.812 240.581 51.812C240.636 51.812 240.674 51.8554 240.674 51.9089C240.674 51.9623 240.632 52.0024 240.581 52.0024C240.529 52.0024 240.484 51.959 240.484 51.9089Z" fill="#231F20"/>
<path fill-rule="evenodd" clip-rule="evenodd" d="M240.077 52.583C239.779 52.583 239.539 52.6273 239.539 52.6273C239.184 51.6215 239.508 50.6769 240.077 50.6769C240.647 50.6769 240.974 51.6249 240.615 52.6273C240.615 52.6273 240.387 52.583 240.077 52.583ZM240.605 52.6614C240.9 52.7058 241.097 52.791 241.097 52.8865C241.097 53.0297 240.643 53.149 240.081 53.149C239.518 53.149 239.065 53.0297 239.065 52.8865C239.065 52.791 239.258 52.7058 239.554 52.6614C239.554 52.6614 239.873 52.6239 240.081 52.6239C240.288 52.6239 240.608 52.6614 240.608 52.6614M240.651 52.6308C241.023 51.5874 240.661 50.6292 240.081 50.6326C239.501 50.6326 239.139 51.5908 239.511 52.6308C239.223 52.6853 239.033 52.7774 239.033 52.8865C239.033 52.9206 239.054 52.9513 239.089 52.982C238.604 52.7774 238.559 52.4398 238.826 52.3477C239.054 52.2693 239.336 52.1636 239.336 52.1636C239.188 51.4612 239.416 50.5201 240.084 50.5201C240.752 50.5201 240.981 51.4612 240.83 52.1636C240.83 52.1636 241.108 52.2727 241.34 52.3477C241.6 52.433 241.561 52.7706 241.079 52.9786C241.115 52.9479 241.132 52.9172 241.132 52.8831C241.132 52.7774 240.942 52.6819 240.654 52.6273M241.551 48.4776C241.494 48.256 241.491 48.1639 241.688 48.1639H242.12C242.405 48.1605 242.289 48.3719 242.264 48.5867C242.25 48.7163 242.24 48.822 242.236 48.9004C242.008 48.7436 241.776 48.6038 241.554 48.4776M241.051 53.0331C242.43 53.2582 243.101 52.1397 242.662 51.4612C242.321 50.9702 242.24 50.5576 242.229 50.3462C241.326 50.3019 240.703 50.2575 240.081 50.2507C239.459 50.2575 238.836 50.3019 237.933 50.3462C237.919 50.5576 237.838 50.9702 237.497 51.4612C237.057 52.1397 237.729 53.2582 239.107 53.0331C238.523 52.8183 238.45 52.4535 238.762 52.3341C238.991 52.2489 239.297 52.1397 239.297 52.1397C239.146 51.4169 239.409 50.4621 240.077 50.4621C240.749 50.4621 241.013 51.4135 240.858 52.1397C240.858 52.1397 241.164 52.2489 241.392 52.3341C241.705 52.45 241.631 52.8183 241.048 53.0331M240.081 50.1621C239.304 50.1723 238.569 50.2268 237.704 50.2814C237.166 50.3155 236.864 49.9677 237.201 49.6063C237.701 49.0777 239.406 47.9866 240.081 47.9866C240.756 47.9866 242.458 49.0777 242.961 49.6063C243.298 49.9643 242.996 50.3155 242.461 50.2814C241.596 50.2268 240.858 50.1757 240.084 50.1621M241.452 48.4197C241.445 48.3992 241.438 48.3753 241.435 48.3549C241.396 48.2253 241.435 48.0821 241.663 48.0821H242.166C242.461 48.0821 242.43 48.2798 242.377 48.4708C242.342 48.6072 242.314 48.7811 242.3 48.9448C242.3 48.9448 242.711 49.238 242.939 49.4255C243.657 50.0154 243.189 50.3973 242.503 50.3666C242.433 50.3632 242.366 50.3598 242.3 50.3564C242.303 50.5508 242.363 50.9122 242.679 51.3248C243.474 52.2489 242.419 53.4082 240.932 53.0808C240.686 53.1593 240.295 53.1968 240.081 53.1968C239.866 53.1968 239.476 53.1593 239.227 53.0808C237.739 53.4082 236.684 52.2489 237.479 51.3248C237.796 50.9156 237.855 50.5542 237.859 50.3564L237.658 50.3666C236.973 50.4007 236.505 50.0154 237.222 49.4255C238.291 48.5526 239.582 47.9048 240.081 47.9014C240.355 47.9014 240.868 48.1025 241.452 48.4231" fill="#231F20"/>
<path d="M238.859 51.606H238.166C238.043 51.606 237.945 51.5109 237.945 51.392V50.9401C237.945 50.8246 238.043 50.7295 238.166 50.7295H238.859C238.978 50.7295 239.076 50.8246 239.076 50.9401V51.392C239.076 51.5109 238.978 51.606 238.859 51.606ZM238.169 50.7703C238.071 50.7703 237.991 50.8484 237.991 50.9401V51.392C237.991 51.4871 238.071 51.5653 238.169 51.5653H238.863C238.961 51.5653 239.038 51.4871 239.038 51.392V50.9401C239.038 50.845 238.957 50.7703 238.863 50.7703H238.169Z" fill="#231F20"/>
<path d="M241.993 51.606H241.303C241.184 51.606 241.086 51.5109 241.086 51.392V50.9401C241.086 50.8246 241.184 50.7295 241.303 50.7295H241.993C242.115 50.7295 242.213 50.8246 242.213 50.9401V51.392C242.213 51.5109 242.115 51.606 241.993 51.606ZM241.3 50.7703C241.201 50.7703 241.124 50.8484 241.124 50.9401V51.392C241.124 51.4871 241.205 51.5653 241.3 51.5653H241.989C242.087 51.5653 242.168 51.4871 242.168 51.392V50.9401C242.168 50.845 242.087 50.7703 241.989 50.7703H241.3Z" fill="#231F20"/>
</g>
<defs>
<clipPath id="clip0_10764_21231">
<rect width="361.622" height="63.6886" rx="19.4304" fill="white"/>
</clipPath>
<clipPath id="clip1_10764_21231">
<rect width="18.5753" height="25.6825" fill="white" transform="translate(301.035 21.2549)"/>
</clipPath>
</defs>
</svg>
