<svg width="362" height="64" viewBox="0 0 362 64" fill="none" xmlns="http://www.w3.org/2000/svg">
<g clip-path="url(#clip0_10761_22020)">
<rect width="372.417" height="124.139" transform="translate(-10.7852 -5.39648)" fill="#9A9A9A"/>
<rect x="3.24609" y="2.15869" width="355.031" height="59.3907" rx="29.6954" fill="white"/>
<path d="M32.2637 40.1919V24.8735H37.8711C41.5449 24.8735 43.3496 26.7856 43.3496 29.8579C43.3496 33.2954 41.2012 35.3794 37.7852 35.3794H35.293V40.1919H32.2637ZM35.293 32.8657H37.5703C39.2246 32.8657 40.2344 31.8989 40.2344 30.0298C40.2344 28.2895 39.2891 27.5161 37.6348 27.5161H35.293V32.8657ZM52.5323 40.1919C52.1886 39.6333 51.8663 39.0103 51.63 38.1509C50.9855 39.6763 49.5675 40.4282 48.0421 40.4282C46.3448 40.4282 44.9913 39.5259 44.9913 37.5923C44.9913 34.0259 49.0948 34.3267 51.3292 33.2739C51.2003 31.6841 50.0616 31.2759 48.6437 31.2759C47.6554 31.2759 46.5812 31.4692 45.5069 31.7056V29.106C46.753 28.8052 47.9776 28.6333 49.0734 28.6333C51.9952 28.6333 54.1652 29.8579 54.1652 33.4028V36.3247C54.1652 37.3774 54.1866 38.5161 54.4015 40.1919H52.5323ZM47.8917 37.1196C47.8917 37.8501 48.3429 38.2153 49.0304 38.2153C50.0616 38.2153 51.3292 37.2485 51.3292 35.5083V35.0356C49.6534 35.8306 47.8917 35.5728 47.8917 37.1196ZM60.8332 36.7544C60.5539 36.7544 60.2746 36.7329 59.9953 36.7114C59.673 36.8833 59.5441 37.1626 59.5441 37.4634C59.5441 38.2368 60.6828 38.2583 62.1652 38.3872C64.3352 38.5591 66.7199 38.9458 66.7199 41.4595C66.7199 43.8657 64.1633 45.0259 60.7043 45.0259C57.5676 45.0259 55.3976 44.1665 55.3976 42.104C55.3976 40.4927 57.0305 39.7837 58.3625 39.8911C57.6105 39.5688 57.1164 39.0103 57.1164 38.2798C57.1164 37.2915 57.9543 36.6899 58.9426 36.4751C57.2238 35.895 56.3215 34.477 56.3215 32.6724C56.3215 30.352 58.0187 28.6333 60.9621 28.6333C61.6711 28.6333 62.2941 28.7407 62.8312 28.8911C62.8957 28.9126 63.0031 28.9341 63.0891 28.9341C63.841 28.9341 64.0129 28.2681 64.0129 27.4946C64.0129 27.1294 63.9484 26.7212 63.884 26.3774H66.5695C66.6125 26.6567 66.6555 26.9145 66.6555 27.1938C66.6555 28.9126 65.4094 29.7505 64.2922 29.7505C64.1633 29.7505 64.0344 29.729 63.9269 29.7075C64.9367 30.438 65.4738 31.4692 65.4738 32.8013C65.4738 34.9282 63.7766 36.7544 60.8332 36.7544ZM60.8762 34.6919C62.0363 34.6919 62.6809 34.0259 62.6809 32.6938C62.6809 31.3188 62.0793 30.6743 60.8976 30.6743C59.7375 30.6743 59.1144 31.2759 59.1144 32.6509C59.1144 34.0044 59.716 34.6919 60.8762 34.6919ZM58.1476 41.4165C58.1476 42.5337 59.5226 42.813 60.9406 42.813C62.4445 42.813 63.7121 42.5337 63.7121 41.6743C63.7121 40.5356 61.4992 40.686 59.6516 40.4067C58.8137 40.3423 58.1476 40.7505 58.1476 41.4165ZM74.814 40.1919C74.4702 39.6333 74.148 39.0103 73.9116 38.1509C73.2671 39.6763 71.8491 40.4282 70.3238 40.4282C68.6265 40.4282 67.273 39.5259 67.273 37.5923C67.273 34.0259 71.3765 34.3267 73.6109 33.2739C73.482 31.6841 72.3433 31.2759 70.9253 31.2759C69.937 31.2759 68.8628 31.4692 67.7886 31.7056V29.106C69.0347 28.8052 70.2593 28.6333 71.355 28.6333C74.2769 28.6333 76.4468 29.8579 76.4468 33.4028V36.3247C76.4468 37.3774 76.4683 38.5161 76.6831 40.1919H74.814ZM70.1734 37.1196C70.1734 37.8501 70.6245 38.2153 71.312 38.2153C72.3433 38.2153 73.6109 37.2485 73.6109 35.5083V35.0356C71.9351 35.8306 70.1734 35.5728 70.1734 37.1196ZM86.2731 31.6411C84.2105 31.5552 83.0074 31.9849 82.5133 32.8013V40.1919H79.5055V33.145C79.5055 32.0493 79.484 30.6099 79.3551 28.8696H81.2672C81.6754 29.4067 82.0621 30.395 82.2555 31.3188C82.7926 29.5786 83.9957 28.6333 86.2731 28.6333V31.6411ZM97.7472 40.4282C94.3957 40.4282 92.0324 38.5806 92.0324 34.52C92.0324 30.6528 94.5031 28.6333 97.8761 28.6333C98.6281 28.6333 99.4445 28.7407 100.261 28.9341V31.4478C99.5304 31.2974 98.8214 31.2114 98.2199 31.2114C96.2863 31.2114 95.0187 32.0278 95.0187 34.5415C95.0187 37.0552 96.2648 37.8501 98.1769 37.8501C98.8214 37.8501 99.5304 37.7642 100.261 37.6138V40.1274C99.38 40.2993 98.5421 40.4282 97.7472 40.4282ZM107.265 40.4282C103.656 40.4282 101.851 37.8716 101.851 34.6489C101.851 31.2974 103.785 28.6333 107.48 28.6333C111.068 28.6333 112.894 31.1899 112.894 34.4126C112.894 37.7642 110.961 40.4282 107.265 40.4282ZM107.373 38.022C109.092 38.022 109.908 36.6685 109.908 34.52C109.908 32.3286 109.113 31.0395 107.373 31.0395C105.633 31.0395 104.816 32.3931 104.816 34.5415C104.816 36.7329 105.633 38.022 107.373 38.022ZM122.942 33.4458C122.942 31.9849 122.19 31.3403 120.965 31.3403C119.826 31.3403 119.032 31.8774 118.537 32.6079V40.1919H115.53V33.145C115.53 32.0493 115.508 30.6099 115.379 28.8696H117.291C117.678 29.3853 118.022 30.2661 118.237 31.104C118.709 29.8364 119.848 28.6333 121.91 28.6333C124.231 28.6333 125.949 29.9224 125.949 32.9731V40.1919H122.942V33.4458Z" fill="#1D1D1D"/>
<g clip-path="url(#clip1_10761_22020)">
<path d="M310.288 21.2539C306.146 21.2539 302.777 24.6233 302.777 28.7647V33.0554C302.777 33.1036 302.715 33.187 302.672 33.2002C302.264 33.3362 301.934 33.4546 301.632 33.5687C301.272 33.7091 301 34.1083 301 34.4988V44.3523C301 44.7384 301.272 45.1376 301.627 45.2824C304.396 46.3792 307.309 46.9364 310.288 46.9364C313.267 46.9364 316.18 46.3792 318.948 45.2824C319.308 45.142 319.575 44.7428 319.575 44.3523V34.4988C319.575 34.1083 319.303 33.7091 318.944 33.5687C318.641 33.4502 318.312 33.3362 317.904 33.2002C317.855 33.1826 317.798 33.1036 317.798 33.0554V28.7647C317.798 24.6233 314.429 21.2539 310.288 21.2539ZM308.243 37.4996C308.243 36.3677 309.16 35.4552 310.288 35.4552C311.415 35.4552 312.332 36.3721 312.332 37.4996C312.332 38.2498 311.911 38.8772 311.31 39.2325V42.615C311.31 43.181 310.854 43.6372 310.288 43.6372C309.722 43.6372 309.265 43.181 309.265 42.615V39.2325C308.664 38.8772 308.243 38.2498 308.243 37.4996ZM315.214 28.7647V32.4675C313.6 32.1209 311.942 31.9454 310.288 31.9454C308.634 31.9454 306.98 32.1209 305.361 32.4675V28.7691C305.361 26.0535 307.572 23.8423 310.288 23.8423C313.003 23.8379 315.214 26.0447 315.214 28.7647Z" fill="#1D1D1D"/>
</g>
<path d="M160.116 36.4243C160.069 36.6551 160.021 36.8882 159.974 37.1189C158.787 37.3167 157.594 37.4485 156.402 37.5215C157.668 37.1801 158.907 36.8199 160.116 36.4243Z" fill="#ED1C27"/>
<path d="M186.653 13.7539C183.256 23.0958 176.264 31.5294 166.828 35.2355C166.828 35.2355 167.207 33.3836 167.209 33.3836C174.869 29.0209 180.097 21.2086 182.21 12.8267C182.956 12.422 184.993 11.2666 184.993 11.2666C184.993 11.2666 186.068 12.8526 186.653 13.7539Z" fill="#ED1C27"/>
<path d="M170.58 16.9623C170.649 16.6235 170.755 16.4117 171.141 16.3834C172.795 16.254 174.446 15.9881 176.094 16.0022C178.131 16.0163 179.479 17.4447 179.744 19.6096C180.793 17.4329 181.618 15.1575 182.207 12.8255C182.179 12.8043 182.151 12.7855 182.122 12.7667C180.495 11.6631 178.636 11.3666 176.727 11.2866C172.826 11.1171 169.048 11.8701 165.315 12.8937C165.116 12.9502 164.886 13.2514 164.839 13.475C164.51 15.0704 158.676 43.4679 158.676 43.4679H163.041C164.27 43.4679 165.324 42.5266 165.573 41.3171C165.575 41.3218 170.296 18.3577 170.58 16.9623Z" fill="#1D1D1D"/>
<path d="M185.371 16.8711C181.894 24.3987 176.056 31.0134 168.477 34.5289C180.753 38.0139 188.832 26.0106 185.371 16.8711Z" fill="#1D1D1D"/>
<path d="M157.157 22.8615C148.242 14.3032 133.043 24.071 135.48 35.7096C136.996 42.9501 144.883 44.5573 151.266 42.849C155.317 41.7665 154.833 37.8627 154.833 37.8627C149.753 39.0298 140.084 37.9804 140.878 34.1236C144.786 35.2131 150.743 35.4719 154.923 33.3376C160.378 30.5515 159.447 25.417 157.157 22.8615ZM153.419 27.7396C152.057 30.5327 144.274 30.5092 141.472 29.6926C143.23 25.73 147.851 23.3627 152.088 25.0782C153.367 25.5982 153.936 26.6712 153.419 27.7396Z" fill="#1D1D1D"/>
<path d="M213.291 21.4048C209.515 20.1741 204.987 19.6094 201.671 19.6094C192.895 19.6094 187.372 27.457 187.63 34.3423C187.729 36.9848 188.622 42.983 196.659 43.6724C198.89 43.863 201.019 43.5783 202.883 42.2088C202.897 42.197 203.028 42.0817 202.997 42.2464C202.931 42.63 202.781 43.4724 202.781 43.4724C202.781 43.4724 206.971 43.4724 208.959 43.4724C209.333 43.4724 209.385 43.2159 209.439 42.9547C210.868 36.013 212.305 29.0854 213.717 22.139C213.807 21.7013 213.719 21.5413 213.291 21.4048ZM206.481 25.5416C205.728 29.1207 204.998 32.7045 204.238 36.286C204.172 36.5942 204.011 36.8742 203.774 37.0837C201.969 38.6791 199.866 39.2038 197.516 38.6673C193.011 37.639 193.75 31.2926 195.328 28.2312C196.765 25.4451 200.015 23.8709 203.324 24.2968C206.635 24.7204 206.566 25.1251 206.481 25.5416Z" fill="#1D1D1D"/>
<path d="M290.553 27.9841C290.092 22.5061 285.738 19.6094 280.513 19.6094C269.556 19.6094 265.937 28.7042 266.271 35.0247C266.591 41.0934 271.993 43.9195 277.436 43.4136C282.493 43.1147 286.292 40.8204 288.642 36.326C290.002 33.7211 290.883 30.975 290.553 27.9841ZM275.442 38.2767C270.62 37.2907 272.254 30.9538 273.261 29.0854C275.691 24.5721 279.002 24.365 280.885 24.6615C283.372 25.0498 284.784 26.8146 284.644 29.796C284.433 34.3093 281.053 39.4227 275.442 38.2767Z" fill="#1D1D1D"/>
<path d="M213.223 54.034L214.04 50.0125C214.163 49.5419 214.606 49.2067 215.091 49.1925C217.541 49.1236 218.379 48.6957 219.604 47.36C220.539 46.1668 221.247 45.209 222.034 44.1061C222.138 43.9612 222.147 43.7021 222.109 43.5119C220.783 36.7547 217.436 19.6109 217.436 19.6109C217.436 19.6109 223.538 19.5562 223.921 22.0138C224.658 26.7199 226.401 36.2342 226.484 36.6097C226.7 36.2366 232.406 26.4061 235.075 21.6929C236.385 19.3803 241.375 19.6109 243.024 19.6109C238.104 27.8607 228.55 43.8589 227.06 46.3451C223.19 52.7957 219.784 54.0839 216.217 54.0388C215.245 54.0269 213.223 54.034 213.223 54.034Z" fill="#1D1D1D"/>
<path d="M261.823 36.893C261.477 38.5707 260.85 41.6227 260.828 41.731C260.793 41.9098 260.717 42.1075 260.478 42.1969C257.183 43.4205 253.666 43.997 250.466 42.8699C240.11 39.2273 242.891 22.6966 253.706 20.0658C259.016 18.7739 264.312 20.6446 264.571 20.7246C264.871 20.8188 265.058 21.12 264.997 21.4259C264.81 22.3459 264.215 25.2591 264.189 25.365C261.193 24.4026 258.045 23.7061 254.985 24.7744C248.902 26.9016 247.581 37.2695 253.63 38.4837C256.529 39.0672 259.182 38.046 261.823 36.893Z" fill="#1D1D1D"/>
<path d="M247.195 52.5126C248.032 52.6842 250.1 52.6308 250.148 51.3192C250.148 50.793 249.448 50.3011 248.783 50.16C247.962 49.9885 247.439 49.9846 246.609 50.16C246.098 50.3507 245.941 49.8626 246.405 49.6987C247.285 49.386 250.722 49.3212 250.883 51.3192C250.741 53.2942 247.741 53.1532 247.065 53.0197C246.798 52.9701 246.593 52.8481 246.593 52.5202V50.8769C246.593 50.4879 247.191 50.4918 247.191 50.8769V52.5126H247.195Z" fill="#ED1C27"/>
<path d="M253.65 50.1989C252.982 50.1989 251.858 52.1778 251.523 52.887C251.327 53.3102 250.698 53.009 250.898 52.5819C251.252 51.8193 252.593 49.5164 253.643 49.5392C254.692 49.5202 256.033 51.8193 256.387 52.5819C256.583 53.009 255.958 53.3102 255.762 52.887C255.431 52.1778 254.315 50.1989 253.65 50.1989Z" fill="#ED1C27"/>
<path d="M258.329 52.428C258.997 52.428 260.122 50.4491 260.452 49.7399C260.649 49.3167 261.278 49.6179 261.077 50.0411C260.723 50.8037 259.383 53.1067 258.333 53.0876C257.283 53.1067 255.942 50.8075 255.589 50.0411C255.392 49.6141 256.017 49.3129 256.218 49.7399C256.548 50.4491 257.66 52.428 258.329 52.428Z" fill="#ED1C27"/>
<path d="M262.211 49.8788V52.7614C262.211 53.1922 261.539 53.177 261.539 52.7461V49.8712C261.539 49.4251 262.211 49.4213 262.211 49.8788Z" fill="#ED1C27"/>
<path d="M265.427 52.428C266.095 52.428 267.219 50.4491 267.55 49.7399C267.746 49.3167 268.375 49.6179 268.175 50.0411C267.817 50.8037 266.476 53.1067 265.427 53.0876C264.377 53.1067 263.036 50.8075 262.682 50.0411C262.486 49.6141 263.111 49.3129 263.307 49.7399C263.638 50.4491 264.75 52.428 265.419 52.428" fill="#ED1C27"/>
<path d="M270.587 51.6121C270.784 52.0162 271.346 52.3441 271.889 52.4585C272.706 52.6339 273.229 52.6339 274.059 52.4585C274.554 52.3022 274.727 52.7674 274.259 52.9199C273.339 53.2211 269.966 53.3279 269.77 51.3223C269.88 49.412 272.573 49.4616 273.603 49.595C274.106 49.6599 274.004 50.1746 273.477 50.0678C272.789 49.9801 270.918 49.8734 270.552 51.0744H272.471C272.769 51.0744 272.769 51.6121 272.471 51.6121H270.587Z" fill="#ED1C27"/>
<path d="M281.285 52.5155C282.122 52.6871 284.19 52.6337 284.237 51.3221C284.237 50.7959 283.538 50.304 282.869 50.163C282.051 49.9914 281.529 49.9876 280.699 50.163C280.188 50.3536 280.031 49.8656 280.495 49.7016C281.379 49.3889 284.811 49.3241 284.973 51.3221C284.831 53.2972 281.831 53.1561 281.159 53.0226C280.892 52.9731 280.687 52.8511 280.687 52.5231V50.8798C280.687 50.4909 281.285 50.4947 281.285 50.8798V52.5155Z" fill="#ED1C27"/>
<path d="M287.743 50.1989C287.075 50.1989 285.946 52.1778 285.616 52.887C285.419 53.3102 284.794 53.009 284.991 52.5819C285.349 51.8193 286.689 49.5164 287.735 49.5392C288.785 49.5202 290.126 51.8193 290.479 52.5819C290.676 53.009 290.051 53.3102 289.854 52.887C289.524 52.1778 288.411 50.1989 287.743 50.1989Z" fill="#ED1C27"/>
<path d="M269.305 49.8788V52.7614C269.305 53.1922 268.633 53.177 268.633 52.7461V49.8712C268.633 49.4251 269.305 49.4213 269.305 49.8788Z" fill="#ED1C27"/>
<path d="M277.382 51.9013C276.965 51.1654 276.509 50.1893 276.195 50.1664C275.42 50.1664 275.77 51.6458 275.758 52.8012C275.754 53.2091 275.086 53.2091 275.086 52.7554C275.086 51.2836 274.76 49.5259 276.211 49.5259C276.635 49.5259 277.036 50.1436 277.398 50.7231C277.815 51.4628 278.31 52.4389 278.621 52.4618C279.395 52.4618 279.026 51.0129 279.041 49.8576C279.045 49.4496 279.714 49.4496 279.714 49.9034C279.714 51.3789 280.06 53.1062 278.609 53.1062C278.18 53.1062 277.744 52.4885 277.382 51.9051" fill="#ED1C27"/>
<path fill-rule="evenodd" clip-rule="evenodd" d="M237.874 50.2417C237.888 50.3508 237.874 50.818 237.434 51.459C236.974 52.1648 237.701 53.3446 239.171 53.0446C239.495 53.1571 239.843 53.1741 240.068 53.1707C240.293 53.1707 240.644 53.1571 240.968 53.048C242.437 53.348 243.162 52.1648 242.701 51.459C242.258 50.8214 242.248 50.3508 242.262 50.2417H237.881H237.874Z" fill="#E5252B"/>
<path fill-rule="evenodd" clip-rule="evenodd" d="M240.062 53.1623C238.63 53.1249 238.37 52.4849 238.763 52.3522C238.995 52.2739 239.297 52.1445 239.297 52.1445C239.142 51.4229 239.395 50.5005 240.065 50.5039C240.736 50.5039 240.978 51.4536 240.827 52.1616C240.827 52.1616 241.132 52.2671 241.357 52.3556C241.732 52.4951 241.494 53.1283 240.062 53.1657" fill="#0682C4"/>
<path fill-rule="evenodd" clip-rule="evenodd" d="M239.526 52.6589C239.144 51.6292 239.48 50.6641 240.065 50.6641C240.623 50.6675 241.001 51.602 240.609 52.6555C240.609 52.6555 240.423 52.6148 240.048 52.6148C239.768 52.6148 239.529 52.6589 239.529 52.6589" fill="#FFE11B"/>
<path fill-rule="evenodd" clip-rule="evenodd" d="M240.058 53.1777C240.636 53.1777 241.088 53.0587 241.088 52.892C241.088 52.7254 240.636 52.603 240.058 52.603C239.479 52.603 239.027 52.722 239.027 52.892C239.027 53.0621 239.479 53.1777 240.058 53.1777Z" fill="#F49824"/>
<path fill-rule="evenodd" clip-rule="evenodd" d="M238.153 50.7534H238.848C238.957 50.7534 239.045 50.8386 239.045 50.9441V51.3971C239.045 51.5061 238.957 51.5912 238.848 51.5912H238.153C238.044 51.5912 237.953 51.5061 237.953 51.3971V50.9441C237.953 50.8386 238.041 50.7534 238.153 50.7534Z" fill="#0682C4"/>
<path d="M238.232 50.8662H238.778C238.862 50.8662 238.928 50.9307 238.928 51.0087V51.3378C238.928 51.4193 238.862 51.4837 238.778 51.4837H238.232C238.148 51.4837 238.082 51.4193 238.082 51.3378V51.0087C238.082 50.9307 238.148 50.8662 238.232 50.8662Z" fill="#231F20"/>
<path fill-rule="evenodd" clip-rule="evenodd" d="M238.928 51.2515C238.682 51.2279 238.599 50.9488 238.578 50.8613H238.779C238.862 50.8613 238.928 50.9252 238.928 51.0026V51.2481V51.2515Z" fill="#FFE11B"/>
<path fill-rule="evenodd" clip-rule="evenodd" d="M238.436 50.8662C238.422 50.9469 238.342 51.2429 238.082 51.2564V51.0075C238.082 50.9301 238.148 50.8662 238.231 50.8662H238.436Z" fill="#FFE11B"/>
<path fill-rule="evenodd" clip-rule="evenodd" d="M241.282 50.7534H241.974C242.083 50.7534 242.174 50.8386 242.174 50.9441V51.3971C242.174 51.5061 242.086 51.5912 241.974 51.5912H241.282C241.174 51.5912 241.086 51.5061 241.086 51.3971V50.9441C241.086 50.8386 241.174 50.7534 241.282 50.7534Z" fill="#0682C4"/>
<path d="M241.362 50.8662H241.911C241.995 50.8662 242.061 50.9307 242.061 51.0087V51.3378C242.061 51.4193 241.995 51.4837 241.911 51.4837H241.362C241.281 51.4837 241.215 51.4193 241.215 51.3378V51.0087C241.215 50.9307 241.281 50.8662 241.362 50.8662Z" fill="#231F20"/>
<path fill-rule="evenodd" clip-rule="evenodd" d="M242.057 51.2515C241.811 51.2279 241.728 50.9488 241.707 50.8613H241.912C241.995 50.8613 242.061 50.9252 242.061 51.0026V51.2481L242.057 51.2515Z" fill="#FFE11B"/>
<path fill-rule="evenodd" clip-rule="evenodd" d="M241.564 50.8662C241.547 50.9469 241.471 51.2429 241.211 51.2564V51.0075C241.211 50.9301 241.277 50.8662 241.357 50.8662H241.564Z" fill="#FFE11B"/>
<path fill-rule="evenodd" clip-rule="evenodd" d="M241.505 48.4874C241.432 48.2467 241.418 48.1281 241.645 48.1281H242.144C242.448 48.1213 242.322 48.3518 242.294 48.5755C242.256 48.8703 242.256 48.9619 242.256 48.9619C242.256 48.9619 241.505 48.4941 241.505 48.4907" fill="#E5252B"/>
<path fill-rule="evenodd" clip-rule="evenodd" d="M240.059 50.2177C239.31 50.2177 238.283 50.2825 237.622 50.3302C237.116 50.3677 236.722 49.9926 237.059 49.638C237.78 48.881 239.535 47.9297 240.066 47.9297C240.632 47.9297 242.351 48.881 243.072 49.638C243.409 49.9926 243.072 50.3302 242.558 50.3302C241.992 50.3302 240.807 50.2177 240.059 50.2177Z" fill="#F49824"/>
<path d="M240.469 51.9128C240.469 51.8593 240.51 51.8159 240.565 51.8159C240.62 51.8159 240.658 51.8593 240.658 51.9128C240.658 51.9662 240.617 52.0063 240.565 52.0063C240.514 52.0063 240.469 51.9629 240.469 51.9128Z" fill="#231F20"/>
<path fill-rule="evenodd" clip-rule="evenodd" d="M240.062 52.5869C239.763 52.5869 239.524 52.6313 239.524 52.6313C239.169 51.6254 239.492 50.6808 240.062 50.6808C240.631 50.6808 240.958 51.6288 240.6 52.6313C240.6 52.6313 240.371 52.5869 240.062 52.5869ZM240.589 52.6654C240.885 52.7097 241.081 52.7949 241.081 52.8904C241.081 53.0336 240.628 53.153 240.065 53.153C239.503 53.153 239.049 53.0336 239.049 52.8904C239.049 52.7949 239.243 52.7097 239.538 52.6654C239.538 52.6654 239.858 52.6278 240.065 52.6278C240.273 52.6278 240.593 52.6654 240.593 52.6654M240.635 52.6347C241.008 51.5913 240.645 50.6331 240.065 50.6365C239.485 50.6365 239.123 51.5947 239.496 52.6347C239.207 52.6892 239.018 52.7813 239.018 52.8904C239.018 52.9245 239.039 52.9552 239.074 52.9859C238.589 52.7813 238.543 52.4437 238.81 52.3516C239.039 52.2732 239.32 52.1675 239.32 52.1675C239.172 51.4651 239.401 50.524 240.069 50.524C240.737 50.524 240.965 51.4651 240.814 52.1675C240.814 52.1675 241.092 52.2766 241.324 52.3516C241.584 52.4369 241.546 52.7745 241.064 52.9825C241.099 52.9518 241.117 52.9211 241.117 52.887C241.117 52.7813 240.927 52.6858 240.638 52.6313M241.535 48.4815C241.479 48.2599 241.475 48.1678 241.672 48.1678H242.105C242.389 48.1644 242.273 48.3758 242.249 48.5906C242.235 48.7202 242.224 48.8259 242.221 48.9043C241.992 48.7475 241.76 48.6077 241.538 48.4815M241.036 53.037C242.414 53.2621 243.086 52.1436 242.646 51.4651C242.305 50.9741 242.224 50.5615 242.214 50.3501C241.31 50.3058 240.688 50.2614 240.065 50.2546C239.443 50.2614 238.821 50.3058 237.917 50.3501C237.903 50.5615 237.822 50.9741 237.481 51.4651C237.042 52.1436 237.713 53.2621 239.091 53.037C238.508 52.8222 238.434 52.4574 238.747 52.338C238.975 52.2528 239.281 52.1437 239.281 52.1437C239.13 51.4208 239.394 50.466 240.062 50.466C240.733 50.466 240.997 51.4174 240.842 52.1437C240.842 52.1437 241.148 52.2528 241.377 52.338C241.69 52.4539 241.616 52.8222 241.032 53.037M240.065 50.166C239.288 50.1762 238.553 50.2308 237.689 50.2853C237.151 50.3194 236.848 49.9716 237.186 49.6102C237.685 49.0817 239.39 47.9905 240.065 47.9905C240.74 47.9905 242.442 49.0817 242.945 49.6102C243.282 49.9682 242.98 50.3194 242.446 50.2853C241.581 50.2308 240.842 50.1796 240.069 50.166M241.437 48.4236C241.429 48.4031 241.422 48.3792 241.419 48.3588C241.38 48.2292 241.419 48.086 241.647 48.086H242.15C242.446 48.086 242.414 48.2838 242.361 48.4747C242.326 48.6111 242.298 48.785 242.284 48.9487C242.284 48.9487 242.695 49.2419 242.924 49.4295C243.641 50.0194 243.173 50.4012 242.488 50.3706C242.417 50.3671 242.351 50.3637 242.284 50.3603C242.287 50.5547 242.347 50.9161 242.664 51.3287C243.458 52.2528 242.403 53.4121 240.916 53.0848C240.67 53.1632 240.28 53.2007 240.065 53.2007C239.851 53.2007 239.461 53.1632 239.211 53.0848C237.724 53.4121 236.669 52.2528 237.463 51.3287C237.78 50.9195 237.84 50.5581 237.843 50.3603L237.643 50.3706C236.957 50.4047 236.49 50.0194 237.207 49.4295C238.276 48.5565 239.566 47.9087 240.065 47.9053C240.34 47.9053 240.853 48.1065 241.437 48.427" fill="#231F20"/>
<path d="M238.844 51.6099H238.15C238.028 51.6099 237.93 51.5148 237.93 51.3959V50.944C237.93 50.8285 238.028 50.7334 238.15 50.7334H238.844C238.963 50.7334 239.061 50.8285 239.061 50.944V51.3959C239.061 51.5148 238.963 51.6099 238.844 51.6099ZM238.154 50.7742C238.056 50.7742 237.975 50.8523 237.975 50.944V51.3959C237.975 51.491 238.056 51.5692 238.154 51.5692H238.847C238.945 51.5692 239.022 51.491 239.022 51.3959V50.944C239.022 50.8489 238.942 50.7742 238.847 50.7742H238.154Z" fill="#231F20"/>
<path d="M241.977 51.6099H241.287C241.168 51.6099 241.07 51.5148 241.07 51.3959V50.944C241.07 50.8285 241.168 50.7334 241.287 50.7334H241.977C242.1 50.7334 242.198 50.8285 242.198 50.944V51.3959C242.198 51.5148 242.1 51.6099 241.977 51.6099ZM241.284 50.7742C241.186 50.7742 241.109 50.8523 241.109 50.944V51.3959C241.109 51.491 241.189 51.5692 241.284 51.5692H241.974C242.072 51.5692 242.152 51.491 242.152 51.3959V50.944C242.152 50.8489 242.072 50.7742 241.974 50.7742H241.284Z" fill="#231F20"/>
</g>
<defs>
<clipPath id="clip0_10761_22020">
<rect width="361.622" height="63.6886" rx="31.8443" fill="white"/>
</clipPath>
<clipPath id="clip1_10761_22020">
<rect width="18.5753" height="25.6825" fill="white" transform="translate(301 21.2539)"/>
</clipPath>
</defs>
</svg>
