<svg width="362" height="64" viewBox="0 0 362 64" fill="none" xmlns="http://www.w3.org/2000/svg">
<g clip-path="url(#clip0_10761_22495)">
<g clip-path="url(#clip1_10761_22495)">
<rect width="375.697" height="124.511" transform="translate(-14.082 -5.41699)" fill="#F8991D"/>
<g filter="url(#filter0_f_10761_22495)">
<path d="M-16.4819 23.2518C1.70517 7.97462 82.358 33.8914 102.127 53.017C121.897 72.1427 89.9765 108.767 71.7895 124.044C53.6025 139.321 -7.01877 102.436 -26.7882 83.3101C-46.5577 64.1844 -34.6689 38.5289 -16.4819 23.2518Z" fill="url(#paint0_linear_10761_22495)" fill-opacity="0.87"/>
</g>
<g filter="url(#filter1_f_10761_22495)">
<path d="M267.633 -40.0955C293.139 -51.926 370.493 -8.74658 384.578 14.8802C398.664 38.507 350.154 69.2894 324.648 81.1198C299.143 92.9503 247.645 42.7219 233.559 19.0951C219.474 -4.53167 242.128 -28.265 267.633 -40.0955Z" fill="url(#paint1_linear_10761_22495)" fill-opacity="0.87"/>
</g>
<rect x="3.24219" y="2.16162" width="356.094" height="59.5685" rx="17.9573" fill="white"/>
<path d="M161.803 36.5288C161.755 36.7602 161.708 36.994 161.66 37.2255C160.469 37.4238 159.274 37.5561 158.078 37.6293C159.347 37.2869 160.591 36.9255 161.803 36.5288Z" fill="#ED1C27"/>
<path d="M188.419 13.7906C185.013 23.1605 178 31.6193 168.535 35.3366C168.535 35.3366 168.915 33.4791 168.918 33.4791C176.6 29.1034 181.844 21.2676 183.963 12.8607C184.711 12.4547 186.754 11.2959 186.754 11.2959C186.754 11.2959 187.833 12.8867 188.419 13.7906Z" fill="#ED1C27"/>
<path d="M172.299 17.0087C172.368 16.6688 172.475 16.4564 172.862 16.4281C174.521 16.2983 176.176 16.0316 177.83 16.0457C179.873 16.0599 181.225 17.4925 181.491 19.6639C182.543 17.4807 183.37 15.1984 183.961 12.8595C183.933 12.8382 183.904 12.8194 183.876 12.8005C182.244 11.6936 180.379 11.3962 178.464 11.3159C174.551 11.146 170.762 11.9013 167.018 12.9279C166.819 12.9846 166.588 13.2867 166.541 13.5109C166.211 15.1111 160.359 43.5936 160.359 43.5936H164.738C165.971 43.5936 167.028 42.6495 167.277 41.4364C167.28 41.4411 172.014 18.4082 172.299 17.0087Z" fill="#1D1D1D"/>
<path d="M187.133 16.917C183.646 24.4672 177.79 31.1016 170.188 34.6277C182.5 38.1231 190.604 26.0839 187.133 16.917Z" fill="#1D1D1D"/>
<path d="M158.836 22.9255C149.894 14.3415 134.649 24.1386 137.094 35.812C138.614 43.0742 146.525 44.6862 152.928 42.9727C156.99 41.8871 156.505 37.9715 156.505 37.9715C151.41 39.1422 141.712 38.0895 142.508 34.2212C146.428 35.314 152.403 35.5736 156.596 33.4329C162.067 30.6385 161.133 25.4886 158.836 22.9255ZM155.087 27.8181C153.721 30.6196 145.915 30.596 143.104 29.777C144.867 25.8025 149.502 23.4282 153.752 25.1487C155.035 25.6703 155.605 26.7466 155.087 27.8181Z" fill="#1D1D1D"/>
<path d="M215.137 21.4644C211.35 20.23 206.808 19.6636 203.482 19.6636C194.68 19.6636 189.14 27.5347 189.399 34.4406C189.499 37.0911 190.395 43.1071 198.455 43.7987C200.693 43.9898 202.829 43.7043 204.699 42.3306C204.713 42.3188 204.843 42.2032 204.813 42.3684C204.746 42.7531 204.596 43.598 204.596 43.598C204.596 43.598 208.799 43.598 210.792 43.598C211.167 43.598 211.22 43.3408 211.274 43.0788C212.707 36.1163 214.149 29.168 215.565 22.2008C215.655 21.7618 215.567 21.6013 215.137 21.4644ZM208.307 25.6136C207.552 29.2034 206.82 32.7979 206.057 36.3901C205.991 36.6993 205.829 36.9801 205.592 37.1902C203.782 38.7904 201.672 39.3167 199.315 38.7786C194.797 37.7472 195.538 31.3818 197.12 28.3112C198.562 25.5168 201.822 23.9378 205.14 24.365C208.462 24.7899 208.393 25.1958 208.307 25.6136Z" fill="#1D1D1D"/>
<path d="M292.63 28.0634C292.167 22.5689 287.8 19.6636 282.56 19.6636C271.57 19.6636 267.94 28.7856 268.275 35.125C268.596 41.2119 274.014 44.0465 279.474 43.539C284.546 43.2393 288.356 40.9381 290.713 36.4302C292.077 33.8175 292.96 31.0632 292.63 28.0634ZM277.473 38.3868C272.637 37.3979 274.276 31.0419 275.285 29.168C277.723 24.6412 281.044 24.4335 282.933 24.7309C285.427 25.1203 286.843 26.8904 286.703 29.8807C286.491 34.4076 283.101 39.5362 277.473 38.3868Z" fill="#1D1D1D"/>
<path d="M215.07 54.1913L215.89 50.1577C216.013 49.6857 216.458 49.3496 216.945 49.3353C219.401 49.2661 220.242 48.837 221.47 47.4973C222.409 46.3005 223.119 45.3398 223.908 44.2337C224.012 44.0883 224.022 43.8284 223.984 43.6377C222.653 36.8602 219.297 19.6651 219.297 19.6651C219.297 19.6651 225.416 19.6103 225.801 22.0752C226.54 26.7954 228.288 36.3382 228.372 36.7148C228.588 36.3406 234.311 26.4807 236.988 21.7534C238.302 19.4338 243.307 19.6651 244.961 19.6651C240.026 27.9396 230.443 43.9858 228.949 46.4793C225.067 52.9493 221.651 54.2414 218.073 54.1961C217.099 54.1842 215.07 54.1913 215.07 54.1913Z" fill="#1D1D1D"/>
<path d="M263.818 36.9989C263.471 38.6817 262.841 41.7428 262.82 41.8514C262.784 42.0308 262.708 42.229 262.468 42.3187C259.164 43.546 255.636 44.1242 252.427 42.9937C242.04 39.3402 244.829 22.76 255.676 20.1213C261.003 18.8256 266.315 20.7019 266.574 20.7822C266.875 20.8766 267.063 21.1787 267.001 21.4855C266.813 22.4083 266.217 25.3302 266.191 25.4364C263.186 24.4711 260.029 23.7725 256.959 24.844C250.859 26.9776 249.533 37.3765 255.6 38.5944C258.508 39.1797 261.169 38.1554 263.818 36.9989Z" fill="#1D1D1D"/>
<path d="M249.143 52.6651C249.983 52.8372 252.058 52.7836 252.105 51.4681C252.105 50.9403 251.403 50.447 250.737 50.3055C249.912 50.1334 249.388 50.1295 248.556 50.3055C248.043 50.4967 247.886 50.0072 248.351 49.8427C249.234 49.5291 252.681 49.4641 252.842 51.4681C252.7 53.449 249.692 53.3075 249.013 53.1737C248.745 53.124 248.54 53.0016 248.54 52.6727V51.0244C248.54 50.6344 249.14 50.6382 249.14 51.0244V52.6651H249.143Z" fill="#ED1C27"/>
<path d="M255.62 50.3444C254.949 50.3444 253.822 52.3292 253.486 53.0405C253.289 53.465 252.658 53.1629 252.859 52.7346C253.214 51.9697 254.559 49.6598 255.612 49.6828C256.665 49.6637 258.009 51.9697 258.364 52.7346C258.562 53.1629 257.935 53.465 257.737 53.0405C257.406 52.3292 256.286 50.3444 255.62 50.3444Z" fill="#ED1C27"/>
<path d="M260.31 52.5802C260.98 52.5802 262.108 50.5954 262.439 49.8841C262.636 49.4596 263.267 49.7617 263.066 50.1862C262.711 50.9511 261.367 53.2609 260.314 53.2418C259.261 53.2609 257.916 50.9549 257.561 50.1862C257.364 49.7579 257.991 49.4558 258.192 49.8841C258.523 50.5954 259.639 52.5802 260.31 52.5802Z" fill="#ED1C27"/>
<path d="M264.206 50.0234V52.9146C264.206 53.3467 263.531 53.3314 263.531 52.8993V50.0158C263.531 49.5683 264.206 49.5645 264.206 50.0234Z" fill="#ED1C27"/>
<path d="M267.427 52.5802C268.097 52.5802 269.225 50.5954 269.557 49.8841C269.754 49.4596 270.385 49.7617 270.184 50.1862C269.825 50.9511 268.48 53.2609 267.427 53.2418C266.374 53.2609 265.03 50.9549 264.675 50.1862C264.477 49.7579 265.104 49.4558 265.302 49.8841C265.633 50.5954 266.749 52.5802 267.419 52.5802" fill="#ED1C27"/>
<path d="M272.605 51.7618C272.803 52.1672 273.366 52.4961 273.911 52.6108C274.731 52.7867 275.255 52.7867 276.087 52.6108C276.584 52.454 276.758 52.9206 276.288 53.0736C275.366 53.3757 271.982 53.4828 271.785 51.4712C271.896 49.5552 274.597 49.6049 275.63 49.7388C276.135 49.8038 276.032 50.32 275.504 50.213C274.814 50.125 272.937 50.0179 272.57 51.2226H274.494C274.794 51.2226 274.794 51.7618 274.494 51.7618H272.605Z" fill="#ED1C27"/>
<path d="M283.335 52.668C284.175 52.8401 286.249 52.7865 286.296 51.471C286.296 50.9432 285.594 50.4499 284.924 50.3084C284.104 50.1363 283.579 50.1325 282.747 50.3084C282.235 50.4996 282.077 50.0101 282.542 49.8457C283.43 49.5321 286.872 49.467 287.034 51.471C286.892 53.452 283.883 53.3105 283.209 53.1766C282.941 53.1269 282.735 53.0045 282.735 52.6756V51.0274C282.735 50.6373 283.335 50.6411 283.335 51.0274V52.668Z" fill="#ED1C27"/>
<path d="M289.814 50.3444C289.144 50.3444 288.012 52.3292 287.68 53.0405C287.483 53.465 286.856 53.1629 287.054 52.7346C287.412 51.9697 288.757 49.6598 289.806 49.6828C290.859 49.6637 292.204 51.9697 292.558 52.7346C292.756 53.1629 292.129 53.465 291.931 53.0405C291.6 52.3292 290.484 50.3444 289.814 50.3444Z" fill="#ED1C27"/>
<path d="M271.319 50.0234V52.9146C271.319 53.3467 270.645 53.3314 270.645 52.8993V50.0158C270.645 49.5683 271.319 49.5645 271.319 50.0234Z" fill="#ED1C27"/>
<path d="M279.42 52.052C279.002 51.3139 278.545 50.3349 278.229 50.3119C277.453 50.3119 277.804 51.7957 277.792 52.9545C277.788 53.3637 277.117 53.3637 277.117 52.9086C277.117 51.4324 276.79 49.6694 278.245 49.6694C278.671 49.6694 279.073 50.289 279.436 50.8703C279.854 51.6122 280.351 52.5912 280.663 52.6141C281.439 52.6141 281.069 51.1609 281.084 50.0021C281.088 49.5929 281.759 49.5929 281.759 50.048C281.759 51.528 282.106 53.2605 280.651 53.2605C280.221 53.2605 279.783 52.6409 279.42 52.0558" fill="#ED1C27"/>
<path fill-rule="evenodd" clip-rule="evenodd" d="M239.793 50.3877C239.807 50.4971 239.793 50.9657 239.353 51.6086C238.891 52.3166 239.621 53.4999 241.095 53.1989C241.419 53.3118 241.768 53.3289 241.994 53.3255C242.22 53.3255 242.572 53.3118 242.897 53.2024C244.371 53.5033 245.097 52.3166 244.635 51.6086C244.191 50.9691 244.18 50.4971 244.194 50.3877H239.8H239.793Z" fill="#E5252B"/>
<path fill-rule="evenodd" clip-rule="evenodd" d="M241.988 53.3163C240.552 53.2787 240.291 52.6369 240.685 52.5037C240.918 52.4252 241.221 52.2955 241.221 52.2955C241.066 51.5717 241.319 50.6465 241.991 50.6499C242.664 50.6499 242.907 51.6024 242.755 52.3125C242.755 52.3125 243.062 52.4184 243.287 52.5071C243.664 52.6471 243.424 53.2821 241.988 53.3197" fill="#0682C4"/>
<path fill-rule="evenodd" clip-rule="evenodd" d="M241.452 52.8119C241.069 51.7791 241.406 50.811 241.993 50.811C242.552 50.8144 242.932 51.7518 242.538 52.8085C242.538 52.8085 242.352 52.7676 241.976 52.7676C241.695 52.7676 241.456 52.8119 241.456 52.8119" fill="#FFE11B"/>
<path fill-rule="evenodd" clip-rule="evenodd" d="M241.986 53.3322C242.566 53.3322 243.02 53.2129 243.02 53.0457C243.02 52.8786 242.566 52.7559 241.986 52.7559C241.407 52.7559 240.953 52.8752 240.953 53.0457C240.953 53.2163 241.407 53.3322 241.986 53.3322Z" fill="#F49824"/>
<path fill-rule="evenodd" clip-rule="evenodd" d="M240.076 50.9004H240.773C240.882 50.9004 240.97 50.9858 240.97 51.0917V51.546C240.97 51.6553 240.882 51.7407 240.773 51.7407H240.076C239.967 51.7407 239.875 51.6553 239.875 51.546V51.0917C239.875 50.9858 239.963 50.9004 240.076 50.9004Z" fill="#0682C4"/>
<path d="M240.155 51.0137H240.702C240.786 51.0137 240.853 51.0783 240.853 51.1566V51.4867C240.853 51.5684 240.786 51.633 240.702 51.633H240.155C240.071 51.633 240.004 51.5684 240.004 51.4867V51.1566C240.004 51.0783 240.071 51.0137 240.155 51.0137Z" fill="#231F20"/>
<path fill-rule="evenodd" clip-rule="evenodd" d="M240.851 51.4001C240.604 51.3765 240.521 51.0965 240.5 51.0088H240.702C240.785 51.0088 240.851 51.0729 240.851 51.1505V51.3967V51.4001Z" fill="#FFE11B"/>
<path fill-rule="evenodd" clip-rule="evenodd" d="M240.359 51.0137C240.345 51.0946 240.265 51.3915 240.004 51.405V51.1554C240.004 51.0778 240.07 51.0137 240.153 51.0137H240.359Z" fill="#FFE11B"/>
<path fill-rule="evenodd" clip-rule="evenodd" d="M243.213 50.9004H243.906C244.015 50.9004 244.107 50.9858 244.107 51.0917V51.546C244.107 51.6553 244.019 51.7407 243.906 51.7407H243.213C243.104 51.7407 243.016 51.6553 243.016 51.546V51.0917C243.016 50.9858 243.104 50.9004 243.213 50.9004Z" fill="#0682C4"/>
<path d="M243.296 51.0137H243.846C243.931 51.0137 243.997 51.0783 243.997 51.1566V51.4867C243.997 51.5684 243.931 51.633 243.846 51.633H243.296C243.215 51.633 243.148 51.5684 243.148 51.4867V51.1566C243.148 51.0783 243.215 51.0137 243.296 51.0137Z" fill="#231F20"/>
<path fill-rule="evenodd" clip-rule="evenodd" d="M243.992 51.4001C243.745 51.3765 243.661 51.0965 243.641 51.0088H243.846C243.929 51.0088 243.995 51.0729 243.995 51.1505V51.3967L243.992 51.4001Z" fill="#FFE11B"/>
<path fill-rule="evenodd" clip-rule="evenodd" d="M243.495 51.0137C243.478 51.0946 243.401 51.3915 243.141 51.405V51.1554C243.141 51.0778 243.207 51.0137 243.287 51.0137H243.495Z" fill="#FFE11B"/>
<path fill-rule="evenodd" clip-rule="evenodd" d="M243.435 48.6276C243.361 48.3862 243.347 48.2672 243.575 48.2672H244.076C244.381 48.2604 244.255 48.4916 244.227 48.716C244.188 49.0117 244.188 49.1035 244.188 49.1035C244.188 49.1035 243.435 48.6344 243.435 48.631" fill="#E5252B"/>
<path fill-rule="evenodd" clip-rule="evenodd" d="M241.986 50.3632C241.235 50.3632 240.205 50.4282 239.542 50.476C239.034 50.5137 238.639 50.1375 238.978 49.7818C239.701 49.0225 241.46 48.0684 241.993 48.0684C242.561 48.0684 244.285 49.0225 245.008 49.7818C245.347 50.1375 245.008 50.476 244.493 50.476C243.925 50.476 242.737 50.3632 241.986 50.3632Z" fill="#F49824"/>
<path d="M242.398 52.0635C242.398 52.0099 242.44 51.9663 242.495 51.9663C242.55 51.9663 242.588 52.0099 242.588 52.0635C242.588 52.1171 242.547 52.1573 242.495 52.1573C242.443 52.1573 242.398 52.1137 242.398 52.0635Z" fill="#231F20"/>
<path fill-rule="evenodd" clip-rule="evenodd" d="M241.989 52.7396C241.69 52.7396 241.45 52.7841 241.45 52.7841C241.094 51.7752 241.418 50.8278 241.989 50.8278C242.561 50.8278 242.889 51.7786 242.529 52.7841C242.529 52.7841 242.3 52.7396 241.989 52.7396ZM242.518 52.8183C242.815 52.8627 243.012 52.9482 243.012 53.044C243.012 53.1876 242.557 53.3073 241.993 53.3073C241.429 53.3073 240.974 53.1876 240.974 53.044C240.974 52.9482 241.168 52.8627 241.464 52.8183C241.464 52.8183 241.785 52.7807 241.993 52.7807C242.201 52.7807 242.522 52.8183 242.522 52.8183M242.564 52.7875C242.938 51.741 242.575 50.7799 241.993 50.7834C241.411 50.7834 241.048 51.7444 241.422 52.7875C241.132 52.8422 240.942 52.9346 240.942 53.044C240.942 53.0782 240.963 53.109 240.998 53.1398C240.512 52.9346 240.466 52.596 240.734 52.5036C240.963 52.425 241.245 52.319 241.245 52.319C241.097 51.6144 241.326 50.6705 241.996 50.6705C242.666 50.6705 242.896 51.6144 242.744 52.319C242.744 52.319 243.023 52.4284 243.255 52.5036C243.516 52.5891 243.478 52.9277 242.994 53.1363C243.03 53.1056 243.047 53.0748 243.047 53.0406C243.047 52.9346 242.857 52.8388 242.568 52.7841M243.467 48.6219C243.411 48.3996 243.407 48.3073 243.604 48.3073H244.038C244.324 48.3039 244.208 48.5159 244.183 48.7314C244.169 48.8613 244.158 48.9673 244.155 49.046C243.925 48.8887 243.693 48.7485 243.471 48.6219M242.966 53.1911C244.349 53.4168 245.022 52.295 244.581 51.6144C244.239 51.1219 244.158 50.7081 244.148 50.4961C243.241 50.4516 242.617 50.4072 241.993 50.4003C241.369 50.4072 240.745 50.4516 239.838 50.4961C239.824 50.7081 239.743 51.1219 239.401 51.6144C238.96 52.295 239.634 53.4168 241.016 53.1911C240.431 52.9756 240.357 52.6097 240.67 52.49C240.9 52.4045 241.206 52.295 241.206 52.295C241.055 51.57 241.319 50.6124 241.989 50.6124C242.663 50.6124 242.927 51.5666 242.772 52.295C242.772 52.295 243.079 52.4045 243.308 52.49C243.622 52.6062 243.548 52.9756 242.963 53.1911M241.993 50.3114C241.214 50.3217 240.477 50.3764 239.609 50.4311C239.069 50.4653 238.766 50.1165 239.105 49.754C239.605 49.2238 241.316 48.1294 241.993 48.1294C242.67 48.1294 244.377 49.2238 244.881 49.754C245.22 50.1131 244.916 50.4653 244.38 50.4311C243.513 50.3764 242.772 50.3251 241.996 50.3114M243.368 48.5638C243.361 48.5433 243.354 48.5193 243.351 48.4988C243.312 48.3688 243.351 48.2252 243.58 48.2252H244.084C244.38 48.2252 244.349 48.4236 244.296 48.6151C244.26 48.7519 244.232 48.9263 244.218 49.0905C244.218 49.0905 244.631 49.3846 244.86 49.5727C245.579 50.1644 245.11 50.5474 244.423 50.5166C244.352 50.5132 244.285 50.5098 244.218 50.5063C244.222 50.7013 244.282 51.0638 244.599 51.4776C245.396 52.4045 244.338 53.5673 242.846 53.2389C242.599 53.3176 242.208 53.3552 241.993 53.3552C241.778 53.3552 241.386 53.3176 241.136 53.2389C239.644 53.5673 238.586 52.4045 239.383 51.4776C239.701 51.0672 239.761 50.7047 239.764 50.5063L239.563 50.5166C238.875 50.5508 238.406 50.1644 239.126 49.5727C240.198 48.6972 241.492 48.0474 241.993 48.0439C242.268 48.0439 242.783 48.2457 243.368 48.5672" fill="#231F20"/>
<path d="M240.768 51.7595H240.073C239.95 51.7595 239.852 51.6641 239.852 51.5449V51.0916C239.852 50.9758 239.95 50.8804 240.073 50.8804H240.768C240.888 50.8804 240.986 50.9758 240.986 51.0916V51.5449C240.986 51.6641 240.888 51.7595 240.768 51.7595ZM240.076 50.9213C239.978 50.9213 239.897 50.9996 239.897 51.0916V51.5449C239.897 51.6403 239.978 51.7187 240.076 51.7187H240.772C240.87 51.7187 240.947 51.6403 240.947 51.5449V51.0916C240.947 50.9962 240.867 50.9213 240.772 50.9213H240.076Z" fill="#231F20"/>
<path d="M243.91 51.7595H243.218C243.098 51.7595 243 51.6641 243 51.5449V51.0916C243 50.9758 243.098 50.8804 243.218 50.8804H243.91C244.033 50.8804 244.131 50.9758 244.131 51.0916V51.5449C244.131 51.6641 244.033 51.7595 243.91 51.7595ZM243.214 50.9213C243.116 50.9213 243.039 50.9996 243.039 51.0916V51.5449C243.039 51.6403 243.119 51.7187 243.214 51.7187H243.906C244.004 51.7187 244.085 51.6403 244.085 51.5449V51.0916C244.085 50.9962 244.004 50.9213 243.906 50.9213H243.214Z" fill="#231F20"/>
<path d="M34.6292 40.2393V24.875H40.2534C43.9382 24.875 45.7483 26.7929 45.7483 29.8743C45.7483 33.3221 43.5934 35.4123 40.1672 35.4123H37.6675V40.2393H34.6292ZM37.6675 32.8911H39.9517C41.6109 32.8911 42.6237 31.9215 42.6237 30.0467C42.6237 28.3013 41.6756 27.5255 40.0163 27.5255H37.6675V32.8911ZM54.9585 40.2393C54.6137 39.679 54.2905 39.0541 54.0535 38.1921C53.407 39.7221 51.9848 40.4763 50.4548 40.4763C48.7525 40.4763 47.3949 39.5712 47.3949 37.6319C47.3949 34.0548 51.5107 34.3565 53.7518 33.3006C53.6225 31.706 52.4804 31.2965 51.0582 31.2965C50.067 31.2965 48.9895 31.4905 47.9121 31.7275V29.1201C49.1619 28.8184 50.3902 28.6461 51.4892 28.6461C54.4198 28.6461 56.5962 29.8743 56.5962 33.4299V36.3605C56.5962 37.4164 56.6178 38.5585 56.8332 40.2393H54.9585ZM50.304 37.1578C50.304 37.8904 50.7565 38.2568 51.4461 38.2568C52.4804 38.2568 53.7518 37.2871 53.7518 35.5416V35.0676C52.071 35.8649 50.304 35.6063 50.304 37.1578ZM63.2842 36.7915C63.0041 36.7915 62.724 36.7699 62.4438 36.7484C62.1206 36.9208 61.9913 37.2009 61.9913 37.5026C61.9913 38.2783 63.1334 38.2999 64.6202 38.4292C66.7967 38.6016 69.1886 38.9894 69.1886 41.5106C69.1886 43.9241 66.6243 45.0877 63.1549 45.0877C60.0088 45.0877 57.8324 44.2258 57.8324 42.1571C57.8324 40.5409 59.4701 39.8298 60.8061 39.9376C60.0519 39.6143 59.5563 39.0541 59.5563 38.3214C59.5563 37.3302 60.3967 36.7268 61.3879 36.5113C59.664 35.9295 58.759 34.5073 58.759 32.6972C58.759 30.37 60.4613 28.6461 63.4135 28.6461C64.1246 28.6461 64.7495 28.7538 65.2883 28.9046C65.3529 28.9262 65.4606 28.9477 65.5468 28.9477C66.301 28.9477 66.4734 28.2797 66.4734 27.504C66.4734 27.1376 66.4088 26.7282 66.3441 26.3834H69.0377C69.0808 26.6636 69.1239 26.9222 69.1239 27.2023C69.1239 28.9262 67.8741 29.7666 66.7536 29.7666C66.6243 29.7666 66.495 29.745 66.3872 29.7235C67.4 30.4561 67.9387 31.4905 67.9387 32.8265C67.9387 34.9598 66.2364 36.7915 63.2842 36.7915ZM63.3273 34.7228C64.4909 34.7228 65.1374 34.0548 65.1374 32.7188C65.1374 31.3396 64.534 30.6932 63.3489 30.6932C62.1852 30.6932 61.5603 31.2965 61.5603 32.6757C61.5603 34.0332 62.1637 34.7228 63.3273 34.7228ZM60.5906 41.4675C60.5906 42.5881 61.9698 42.8682 63.392 42.8682C64.9004 42.8682 66.1717 42.5881 66.1717 41.7261C66.1717 40.584 63.9522 40.7349 62.099 40.4547C61.2586 40.3901 60.5906 40.7995 60.5906 41.4675ZM77.3069 40.2393C76.9621 39.679 76.6389 39.0541 76.4018 38.1921C75.7554 39.7221 74.3332 40.4763 72.8032 40.4763C71.1008 40.4763 69.7433 39.5712 69.7433 37.6319C69.7433 34.0548 73.8591 34.3565 76.1001 33.3006C75.9709 31.706 74.8288 31.2965 73.4066 31.2965C72.4153 31.2965 71.3379 31.4905 70.2604 31.7275V29.1201C71.5103 28.8184 72.7385 28.6461 73.8375 28.6461C76.7682 28.6461 78.9446 29.8743 78.9446 33.4299V36.3605C78.9446 37.4164 78.9661 38.5585 79.1816 40.2393H77.3069ZM72.6524 37.1578C72.6524 37.8904 73.1049 38.2568 73.7944 38.2568C74.8288 38.2568 76.1001 37.2871 76.1001 35.5416V35.0676C74.4193 35.8649 72.6524 35.6063 72.6524 37.1578ZM88.8002 31.6629C86.7316 31.5767 85.5248 32.0077 85.0292 32.8265V40.2393H82.0124V33.1713C82.0124 32.0723 81.9909 30.6285 81.8616 28.8831H83.7794C84.1888 29.4218 84.5767 30.413 84.7706 31.3396C85.3094 29.5942 86.5161 28.6461 88.8002 28.6461V31.6629ZM100.309 40.4763C96.9472 40.4763 94.5768 38.6231 94.5768 34.5504C94.5768 30.6716 97.0549 28.6461 100.438 28.6461C101.192 28.6461 102.011 28.7538 102.83 28.9477V31.4689C102.097 31.3181 101.386 31.2319 100.783 31.2319C98.8435 31.2319 97.5721 32.0507 97.5721 34.5719C97.5721 37.0931 98.8219 37.8904 100.74 37.8904C101.386 37.8904 102.097 37.8043 102.83 37.6534V40.1746C101.946 40.347 101.106 40.4763 100.309 40.4763ZM109.856 40.4763C106.235 40.4763 104.425 37.912 104.425 34.6797C104.425 31.3181 106.365 28.6461 110.071 28.6461C113.67 28.6461 115.501 31.2104 115.501 34.4427C115.501 37.8043 113.562 40.4763 109.856 40.4763ZM109.963 38.0628C111.687 38.0628 112.506 36.7053 112.506 34.5504C112.506 32.3524 111.709 31.0595 109.963 31.0595C108.218 31.0595 107.399 32.4171 107.399 34.5719C107.399 36.7699 108.218 38.0628 109.963 38.0628ZM125.579 33.473C125.579 32.0077 124.824 31.3612 123.596 31.3612C122.454 31.3612 121.657 31.8999 121.161 32.6326V40.2393H118.144V33.1713C118.144 32.0723 118.123 30.6285 117.994 28.8831H119.911C120.299 29.4003 120.644 30.2838 120.86 31.1242C121.334 29.8528 122.476 28.6461 124.544 28.6461C126.872 28.6461 128.595 29.939 128.595 32.9989V40.2393H125.579V33.473Z" fill="#1D1D1D"/>
<g clip-path="url(#clip2_10761_22495)">
<path d="M313.503 21.314C309.349 21.314 305.97 24.6934 305.97 28.8473V33.1508C305.97 33.1992 305.908 33.2828 305.864 33.296C305.455 33.4324 305.125 33.5512 304.821 33.6656C304.46 33.8064 304.188 34.2069 304.188 34.5985V44.4816C304.188 44.8688 304.46 45.2692 304.817 45.4144C307.593 46.5145 310.515 47.0733 313.503 47.0733C316.491 47.0733 319.413 46.5145 322.189 45.4144C322.55 45.2736 322.818 44.8732 322.818 44.4816V34.5985C322.818 34.2069 322.546 33.8064 322.185 33.6656C321.881 33.5468 321.551 33.4324 321.142 33.296C321.093 33.2784 321.036 33.1992 321.036 33.1508V28.8473C321.036 24.6934 317.657 21.314 313.503 21.314ZM311.452 37.6083C311.452 36.473 312.372 35.5577 313.503 35.5577C314.634 35.5577 315.553 36.4774 315.553 37.6083C315.553 38.3607 315.131 38.99 314.528 39.3464V42.739C314.528 43.3067 314.071 43.7643 313.503 43.7643C312.935 43.7643 312.478 43.3067 312.478 42.739V39.3464C311.875 38.99 311.452 38.3607 311.452 37.6083ZM318.444 28.8473V32.5611C316.825 32.2135 315.162 32.0375 313.503 32.0375C311.844 32.0375 310.185 32.2135 308.561 32.5611V28.8517C308.561 26.1279 310.779 23.9101 313.503 23.9101C316.227 23.9057 318.444 26.1191 318.444 28.8473Z" fill="#1D1D1D"/>
</g>
</g>
</g>
<defs>
<filter id="filter0_f_10761_22495" x="-87.546" y="-31.898" width="246.444" height="210.089" filterUnits="userSpaceOnUse" color-interpolation-filters="sRGB">
<feFlood flood-opacity="0" result="BackgroundImageFix"/>
<feBlend mode="normal" in="SourceGraphic" in2="BackgroundImageFix" result="shape"/>
<feGaussianBlur stdDeviation="25.2652" result="effect1_foregroundBlur_10761_22495"/>
</filter>
<filter id="filter1_f_10761_22495" x="178.7" y="-92.6388" width="258.924" height="226.066" filterUnits="userSpaceOnUse" color-interpolation-filters="sRGB">
<feFlood flood-opacity="0" result="BackgroundImageFix"/>
<feBlend mode="normal" in="SourceGraphic" in2="BackgroundImageFix" result="shape"/>
<feGaussianBlur stdDeviation="25.2652" result="effect1_foregroundBlur_10761_22495"/>
</filter>
<linearGradient id="paint0_linear_10761_22495" x1="25.026" y1="60.3658" x2="90.6171" y2="88.1198" gradientUnits="userSpaceOnUse">
<stop stop-color="#E51B2D"/>
<stop offset="1" stop-color="#E51B2D"/>
</linearGradient>
<linearGradient id="paint1_linear_10761_22495" x1="298.368" y1="6.40485" x2="352.588" y2="55.166" gradientUnits="userSpaceOnUse">
<stop stop-color="#E51B2D"/>
<stop offset="1" stop-color="#E51B2D"/>
</linearGradient>
<clipPath id="clip0_10761_22495">
<rect width="361.622" height="63.6886" rx="19.4304" fill="white"/>
</clipPath>
<clipPath id="clip1_10761_22495">
<rect y="-0.000488281" width="361.622" height="63.8793" rx="19.4886" fill="white"/>
</clipPath>
<clipPath id="clip2_10761_22495">
<rect width="18.6309" height="25.7594" fill="white" transform="translate(304.188 21.3149)"/>
</clipPath>
</defs>
</svg>
