<svg width="362" height="64" viewBox="0 0 362 64" fill="none" xmlns="http://www.w3.org/2000/svg">
<g clip-path="url(#clip0_10765_22129)">
<g clip-path="url(#clip1_10765_22129)">
<mask id="mask0_10765_22129" style="mask-type:alpha" maskUnits="userSpaceOnUse" x="0" y="0" width="362" height="65">
<rect x="0.015625" width="361.622" height="64.3984" rx="17.9573" fill="#00126D"/>
</mask>
<g mask="url(#mask0_10765_22129)">
<rect x="0.015625" width="361.622" height="64.3984" rx="10.7331" fill="#00126D"/>
<ellipse cx="27.9383" cy="2.1268" rx="338.598" ry="106.444" fill="url(#paint0_radial_10765_22129)"/>
<ellipse cx="325.716" cy="6.69768" rx="420.126" ry="67.3764" fill="url(#paint1_radial_10765_22129)"/>
<ellipse cx="377.29" cy="37.2531" rx="338.598" ry="21.821" fill="url(#paint2_radial_10765_22129)"/>
<ellipse cx="303.005" cy="60.6733" rx="338.598" ry="33.5298" fill="url(#paint3_radial_10765_22129)"/>
<ellipse cx="23.0359" cy="84.8865" rx="338.598" ry="45.5047" fill="url(#paint4_radial_10765_22129)"/>
<ellipse cx="-7.34689" cy="70.4326" rx="338.598" ry="36.1909" fill="url(#paint5_radial_10765_22129)"/>
<ellipse cx="-7.34689" cy="42.5195" rx="338.598" ry="36.1909" fill="url(#paint6_radial_10765_22129)"/>
<ellipse cx="67.7271" cy="-19.3594" rx="157.547" ry="44.6694" fill="url(#paint7_radial_10765_22129)"/>
</g>
<rect x="3.28125" y="2.17432" width="356.094" height="59.5685" rx="29.7843" fill="black"/>
<path d="M34.6604 40.3369V24.9727H40.2846C43.9694 24.9727 45.7795 26.8905 45.7795 29.972C45.7795 33.4198 43.6247 35.51 40.1984 35.51H37.6988V40.3369H34.6604ZM37.6988 32.9888H39.9829C41.6422 32.9888 42.655 32.0191 42.655 30.1444C42.655 28.3989 41.7068 27.6232 40.0476 27.6232H37.6988V32.9888ZM54.9898 40.3369C54.645 39.7766 54.3217 39.1517 54.0847 38.2898C53.4383 39.8197 52.016 40.5739 50.4861 40.5739C48.7837 40.5739 47.4262 39.6689 47.4262 37.7295C47.4262 34.1524 51.542 34.4541 53.783 33.3982C53.6537 31.8036 52.5117 31.3942 51.0894 31.3942C50.0982 31.3942 49.0208 31.5881 47.9433 31.8252V29.2178C49.1932 28.9161 50.4214 28.7437 51.5204 28.7437C54.451 28.7437 56.6275 29.972 56.6275 33.5275V36.4581C56.6275 37.514 56.649 38.6561 56.8645 40.3369H54.9898ZM50.3352 37.2554C50.3352 37.9881 50.7878 38.3544 51.4773 38.3544C52.5117 38.3544 53.783 37.3847 53.783 35.6393V35.1652C52.1022 35.9625 50.3352 35.7039 50.3352 37.2554ZM63.3155 36.8891C63.0353 36.8891 62.7552 36.8676 62.4751 36.846C62.1518 37.0184 62.0225 37.2985 62.0225 37.6002C62.0225 38.376 63.1646 38.3975 64.6515 38.5268C66.8279 38.6992 69.2198 39.0871 69.2198 41.6083C69.2198 44.0217 66.6555 45.1854 63.1862 45.1854C60.0401 45.1854 57.8636 44.3234 57.8636 42.2547C57.8636 40.6386 59.5014 39.9275 60.8374 40.0352C60.0832 39.712 59.5875 39.1517 59.5875 38.4191C59.5875 37.4278 60.4279 36.8245 61.4192 36.609C59.6953 36.0272 58.7902 34.605 58.7902 32.7949C58.7902 30.4676 60.4926 28.7437 63.4448 28.7437C64.1559 28.7437 64.7808 28.8515 65.3195 29.0023C65.3841 29.0238 65.4919 29.0454 65.5781 29.0454C66.3323 29.0454 66.5047 28.3774 66.5047 27.6016C66.5047 27.2353 66.44 26.8259 66.3754 26.4811H69.069C69.1121 26.7612 69.1552 27.0198 69.1552 27.2999C69.1552 29.0238 67.9053 29.8642 66.7848 29.8642C66.6555 29.8642 66.5262 29.8427 66.4185 29.8211C67.4313 30.5538 67.97 31.5881 67.97 32.9242C67.97 35.0575 66.2676 36.8891 63.3155 36.8891ZM63.3586 34.8204C64.5222 34.8204 65.1687 34.1524 65.1687 32.8164C65.1687 31.4373 64.5653 30.7908 63.3801 30.7908C62.2165 30.7908 61.5916 31.3942 61.5916 32.7733C61.5916 34.1309 62.1949 34.8204 63.3586 34.8204ZM60.6219 41.5652C60.6219 42.6857 62.001 42.9659 63.4232 42.9659C64.9316 42.9659 66.203 42.6857 66.203 41.8238C66.203 40.6817 63.9835 40.8325 62.1303 40.5524C61.2899 40.4878 60.6219 40.8972 60.6219 41.5652ZM77.3381 40.3369C76.9933 39.7766 76.6701 39.1517 76.4331 38.2898C75.7866 39.8197 74.3644 40.5739 72.8344 40.5739C71.1321 40.5739 69.7745 39.6689 69.7745 37.7295C69.7745 34.1524 73.8903 34.4541 76.1314 33.3982C76.0021 31.8036 74.86 31.3942 73.4378 31.3942C72.4466 31.3942 71.3691 31.5881 70.2917 31.8252V29.2178C71.5415 28.9161 72.7698 28.7437 73.8688 28.7437C76.7994 28.7437 78.9758 29.972 78.9758 33.5275V36.4581C78.9758 37.514 78.9974 38.6561 79.2129 40.3369H77.3381ZM72.6836 37.2554C72.6836 37.9881 73.1361 38.3544 73.8257 38.3544C74.86 38.3544 76.1314 37.3847 76.1314 35.6393V35.1652C74.4506 35.9625 72.6836 35.7039 72.6836 37.2554ZM88.8315 31.7605C86.7628 31.6743 85.5561 32.1053 85.0605 32.9242V40.3369H82.0437V33.2689C82.0437 32.17 82.0221 30.7262 81.8928 28.9807H83.8106C84.2201 29.5195 84.608 30.5107 84.8019 31.4373C85.3406 29.6919 86.5473 28.7437 88.8315 28.7437V31.7605ZM100.34 40.5739C96.9784 40.5739 94.6081 38.7208 94.6081 34.6481C94.6081 30.7693 97.0862 28.7437 100.469 28.7437C101.224 28.7437 102.042 28.8515 102.861 29.0454V31.5666C102.129 31.4157 101.417 31.3296 100.814 31.3296C98.8747 31.3296 97.6033 32.1484 97.6033 34.6696C97.6033 37.1908 98.8532 37.9881 100.771 37.9881C101.417 37.9881 102.129 37.9019 102.861 37.7511V40.2723C101.978 40.4447 101.137 40.5739 100.34 40.5739ZM109.887 40.5739C106.267 40.5739 104.456 38.0097 104.456 34.7773C104.456 31.4157 106.396 28.7437 110.102 28.7437C113.701 28.7437 115.533 31.308 115.533 34.5403C115.533 37.9019 113.593 40.5739 109.887 40.5739ZM109.995 38.1605C111.718 38.1605 112.537 36.8029 112.537 34.6481C112.537 32.4501 111.74 31.1572 109.995 31.1572C108.249 31.1572 107.43 32.5147 107.43 34.6696C107.43 36.8676 108.249 38.1605 109.995 38.1605ZM125.61 33.5706C125.61 32.1053 124.856 31.4588 123.627 31.4588C122.485 31.4588 121.688 31.9976 121.192 32.7302V40.3369H118.176V33.2689C118.176 32.17 118.154 30.7262 118.025 28.9807H119.943C120.33 29.4979 120.675 30.3814 120.891 31.2218C121.365 29.9504 122.507 28.7437 124.576 28.7437C126.903 28.7437 128.627 30.0366 128.627 33.0965V40.3369H125.61V33.5706Z" fill="white"/>
<g clip-path="url(#clip2_10765_22129)">
<path d="M313.526 21.4126C309.372 21.4126 305.993 24.792 305.993 28.9459V33.2494C305.993 33.2978 305.931 33.3814 305.887 33.3946C305.478 33.531 305.148 33.6498 304.845 33.7642C304.484 33.9051 304.211 34.3055 304.211 34.6971V44.5802C304.211 44.9674 304.484 45.3678 304.84 45.5131C307.617 46.6131 310.539 47.172 313.526 47.172C316.514 47.172 319.436 46.6131 322.213 45.5131C322.573 45.3722 322.842 44.9718 322.842 44.5802V34.6971C322.842 34.3055 322.569 33.9051 322.208 33.7642C321.905 33.6454 321.575 33.531 321.165 33.3946C321.117 33.377 321.06 33.2978 321.06 33.2494V28.9459C321.06 24.792 317.68 21.4126 313.526 21.4126ZM311.476 37.7069C311.476 36.5716 312.395 35.6564 313.526 35.6564C314.657 35.6564 315.577 36.576 315.577 37.7069C315.577 38.4594 315.154 39.0886 314.552 39.445V42.8377C314.552 43.4053 314.094 43.8629 313.526 43.8629C312.959 43.8629 312.501 43.4053 312.501 42.8377V39.445C311.898 39.0886 311.476 38.4594 311.476 37.7069ZM318.468 28.9459V32.6598C316.849 32.3121 315.185 32.1361 313.526 32.1361C311.867 32.1361 310.209 32.3121 308.585 32.6598V28.9503C308.585 26.2265 310.803 24.0088 313.526 24.0088C316.25 24.0044 318.468 26.2177 318.468 28.9459Z" fill="white"/>
</g>
<path d="M161.815 36.7632C161.767 36.9946 161.72 37.2284 161.672 37.4598C160.481 37.6582 159.285 37.7905 158.09 37.8637C159.359 37.5212 160.602 37.1599 161.815 36.7632Z" fill="#ED1C27"/>
<path d="M188.431 14.025C185.024 23.3948 178.011 31.8537 168.547 35.571C168.547 35.571 168.927 33.7135 168.929 33.7135C176.612 29.3378 181.855 21.502 183.974 13.0951C184.723 12.6891 186.766 11.5303 186.766 11.5303C186.766 11.5303 187.844 13.121 188.431 14.025Z" fill="#ED1C27"/>
<path d="M172.311 17.243C172.38 16.9032 172.487 16.6908 172.874 16.6624C174.532 16.5326 176.188 16.2659 177.842 16.2801C179.885 16.2942 181.236 17.7269 181.502 19.8982C182.555 17.7151 183.382 15.4328 183.973 13.0939C183.945 13.0726 183.916 13.0537 183.888 13.0349C182.256 11.9279 180.391 11.6306 178.476 11.5503C174.563 11.3804 170.774 12.1356 167.03 13.1623C166.83 13.2189 166.6 13.5211 166.553 13.7453C166.222 15.3455 160.371 43.828 160.371 43.828H164.749C165.982 43.828 167.04 42.8839 167.289 41.6708C167.291 41.6755 172.026 18.6426 172.311 17.243Z" fill="white"/>
<path d="M187.145 17.1514C183.657 24.7016 177.801 31.336 170.199 34.8621C182.512 38.3575 190.616 26.3183 187.145 17.1514Z" fill="white"/>
<path d="M158.848 23.1598C149.906 14.5759 134.661 24.373 137.106 36.0464C138.626 43.3086 146.537 44.9206 152.939 43.2071C157.002 42.1214 156.517 38.2059 156.517 38.2059C151.421 39.3766 141.724 38.3239 142.52 34.4556C146.44 35.5484 152.414 35.808 156.607 33.6673C162.078 30.8729 161.145 25.723 158.848 23.1598ZM155.099 28.0525C153.733 30.854 145.926 30.8304 143.116 30.0114C144.879 26.0369 149.514 23.6626 153.764 25.3831C155.047 25.9047 155.617 26.9809 155.099 28.0525Z" fill="white"/>
<path d="M215.149 21.6988C211.362 20.4644 206.82 19.8979 203.494 19.8979C194.692 19.8979 189.152 27.7691 189.411 34.675C189.511 37.3254 190.406 43.3415 198.467 44.033C200.705 44.2242 202.841 43.9386 204.71 42.565C204.724 42.5532 204.855 42.4376 204.824 42.6028C204.758 42.9875 204.608 43.8324 204.608 43.8324C204.608 43.8324 208.811 43.8324 210.804 43.8324C211.179 43.8324 211.231 43.5752 211.286 43.3132C212.719 36.3507 214.161 29.4023 215.576 22.4351C215.667 21.9961 215.579 21.8356 215.149 21.6988ZM208.319 25.8479C207.563 29.4378 206.832 33.0323 206.069 36.6245C206.003 36.9336 205.841 37.2145 205.603 37.4246C203.793 39.0248 201.684 39.5511 199.327 39.013C194.809 37.9816 195.55 31.6162 197.132 28.5456C198.574 25.7512 201.833 24.1722 205.152 24.5994C208.473 25.0242 208.404 25.4302 208.319 25.8479Z" fill="white"/>
<path d="M292.642 28.2978C292.179 22.8033 287.812 19.8979 282.571 19.8979C271.582 19.8979 267.952 29.02 268.287 35.3594C268.607 41.4463 274.026 44.2809 279.485 43.7734C284.557 43.4737 288.368 41.1725 290.725 36.6646C292.088 34.0519 292.972 31.2976 292.642 28.2978ZM277.485 38.6212C272.648 37.6323 274.288 31.2763 275.297 29.4023C277.735 24.8755 281.056 24.6679 282.944 24.9652C285.439 25.3547 286.855 27.1248 286.715 30.1151C286.503 34.6419 283.113 39.7706 277.485 38.6212Z" fill="white"/>
<path d="M215.082 54.4257L215.902 50.3921C216.025 49.9201 216.469 49.5839 216.956 49.5696C219.413 49.5005 220.254 49.0714 221.482 47.7316C222.42 46.5349 223.131 45.5742 223.919 44.4681C224.024 44.3226 224.033 44.0628 223.995 43.8721C222.665 37.0946 219.308 19.8995 219.308 19.8995C219.308 19.8995 225.428 19.8446 225.813 22.3096C226.552 27.0297 228.3 36.5725 228.383 36.9492C228.599 36.5749 234.322 26.7151 237 21.9878C238.313 19.6682 243.319 19.8995 244.972 19.8995C240.038 28.174 230.455 44.2201 228.961 46.7137C225.079 53.1837 221.663 54.4757 218.085 54.4304C217.111 54.4185 215.082 54.4257 215.082 54.4257Z" fill="white"/>
<path d="M263.83 37.2333C263.483 38.9161 262.853 41.9772 262.832 42.0858C262.796 42.2651 262.72 42.4634 262.48 42.5531C259.176 43.7804 255.648 44.3586 252.438 43.2281C242.052 39.5746 244.841 22.9944 255.688 20.3557C261.014 19.06 266.326 20.9363 266.585 21.0165C266.887 21.111 267.075 21.4131 267.013 21.7199C266.825 22.6427 266.229 25.5646 266.203 25.6708C263.198 24.7055 260.04 24.0069 256.971 25.0784C250.87 27.212 249.545 37.6109 255.612 38.8287C258.52 39.4141 261.181 38.3897 263.83 37.2333Z" fill="white"/>
<path d="M249.155 52.8994C249.995 53.0715 252.069 53.018 252.117 51.7024C252.117 51.1747 251.415 50.6813 250.748 50.5398C249.924 50.3677 249.4 50.3639 248.568 50.5398C248.055 50.7311 247.897 50.2415 248.363 50.0771C249.246 49.7635 252.692 49.6985 252.854 51.7024C252.712 53.6834 249.703 53.5419 249.025 53.4081C248.757 53.3584 248.552 53.236 248.552 52.9071V51.2588C248.552 50.8687 249.151 50.8726 249.151 51.2588V52.8994H249.155Z" fill="white"/>
<path d="M255.631 50.5788C254.961 50.5788 253.833 52.5636 253.498 53.2749C253.301 53.6994 252.67 53.3973 252.871 52.969C253.226 52.2041 254.571 49.8942 255.624 49.9172C256.676 49.898 258.021 52.2041 258.376 52.969C258.573 53.3973 257.946 53.6994 257.749 53.2749C257.418 52.5636 256.298 50.5788 255.631 50.5788Z" fill="white"/>
<path d="M260.322 52.8146C260.992 52.8146 262.12 50.8298 262.451 50.1185C262.648 49.694 263.279 49.9961 263.078 50.4206C262.723 51.1854 261.378 53.4953 260.326 53.4762C259.273 53.4953 257.928 51.1893 257.573 50.4206C257.376 49.9922 258.003 49.6901 258.204 50.1185C258.535 50.8298 259.651 52.8146 260.322 52.8146Z" fill="white"/>
<path d="M264.217 50.2578V53.1489C264.217 53.5811 263.543 53.5658 263.543 53.1337V50.2501C263.543 49.8027 264.217 49.7989 264.217 50.2578Z" fill="white"/>
<path d="M267.439 52.8146C268.109 52.8146 269.237 50.8298 269.568 50.1185C269.765 49.694 270.396 49.9961 270.195 50.4206C269.836 51.1854 268.492 53.4953 267.439 53.4762C266.386 53.4953 265.041 51.1893 264.686 50.4206C264.489 49.9922 265.116 49.6901 265.313 50.1185C265.645 50.8298 266.761 52.8146 267.431 52.8146" fill="white"/>
<path d="M272.617 51.9962C272.814 52.4016 273.378 52.7305 273.922 52.8452C274.743 53.0211 275.267 53.0211 276.099 52.8452C276.596 52.6884 276.769 53.155 276.3 53.3079C275.377 53.6101 271.994 53.7171 271.797 51.7055C271.907 49.7896 274.609 49.8393 275.642 49.9731C276.146 50.0381 276.044 50.5544 275.515 50.4473C274.825 50.3594 272.948 50.2523 272.582 51.457H274.506C274.806 51.457 274.806 51.9962 274.506 51.9962H272.617Z" fill="white"/>
<path d="M283.347 52.9024C284.186 53.0745 286.261 53.0209 286.308 51.7054C286.308 51.1776 285.606 50.6843 284.936 50.5428C284.116 50.3707 283.591 50.3669 282.759 50.5428C282.246 50.734 282.089 50.2445 282.554 50.08C283.441 49.7664 286.884 49.7014 287.045 51.7054C286.903 53.6864 283.895 53.5449 283.22 53.411C282.952 53.3613 282.747 53.2389 282.747 52.91V51.2617C282.747 50.8717 283.347 50.8755 283.347 51.2617V52.9024Z" fill="white"/>
<path d="M289.826 50.5788C289.155 50.5788 288.023 52.5636 287.692 53.2749C287.495 53.6994 286.868 53.3973 287.065 52.969C287.424 52.2041 288.769 49.8942 289.818 49.9172C290.871 49.898 292.215 52.2041 292.57 52.969C292.767 53.3973 292.14 53.6994 291.943 53.2749C291.612 52.5636 290.496 50.5788 289.826 50.5788Z" fill="white"/>
<path d="M271.331 50.2578V53.1489C271.331 53.5811 270.656 53.5658 270.656 53.1337V50.2501C270.656 49.8027 271.331 49.7989 271.331 50.2578Z" fill="white"/>
<path d="M279.432 52.2863C279.014 51.5483 278.557 50.5692 278.241 50.5463C277.464 50.5463 277.815 52.0301 277.803 53.1889C277.8 53.5981 277.129 53.5981 277.129 53.143C277.129 51.6668 276.802 49.9038 278.257 49.9038C278.683 49.9038 279.085 50.5233 279.448 51.1046C279.866 51.8466 280.363 52.8256 280.674 52.8485C281.451 52.8485 281.08 51.3953 281.096 50.2365C281.1 49.8273 281.771 49.8273 281.771 50.2824C281.771 51.7624 282.118 53.4948 280.662 53.4948C280.233 53.4948 279.795 52.8753 279.432 52.2902" fill="white"/>
<path fill-rule="evenodd" clip-rule="evenodd" d="M239.805 50.6221C239.819 50.7315 239.805 51.2001 239.364 51.843C238.902 52.551 239.632 53.7343 241.106 53.4333C241.431 53.5462 241.78 53.5633 242.006 53.5599C242.231 53.5599 242.584 53.5462 242.908 53.4367C244.383 53.7377 245.109 52.551 244.647 51.843C244.203 51.2035 244.192 50.7315 244.206 50.6221H239.812H239.805Z" fill="#E5252B"/>
<path fill-rule="evenodd" clip-rule="evenodd" d="M242 53.5506C240.563 53.5131 240.303 52.8712 240.697 52.7381C240.93 52.6596 241.232 52.5298 241.232 52.5298C241.077 51.8061 241.331 50.8809 242.003 50.8843C242.676 50.8843 242.918 51.8368 242.767 52.5469C242.767 52.5469 243.073 52.6527 243.299 52.7415C243.675 52.8815 243.436 53.5165 242 53.554" fill="#0682C4"/>
<path fill-rule="evenodd" clip-rule="evenodd" d="M241.464 53.0463C241.081 52.0135 241.418 51.0454 242.005 51.0454C242.564 51.0488 242.944 51.9862 242.55 53.0428C242.55 53.0428 242.364 53.0019 241.988 53.0019C241.706 53.0019 241.467 53.0463 241.467 53.0463" fill="#FFE11B"/>
<path fill-rule="evenodd" clip-rule="evenodd" d="M241.998 53.5666C242.578 53.5666 243.032 53.4472 243.032 53.2801C243.032 53.113 242.578 52.9902 241.998 52.9902C241.418 52.9902 240.965 53.1096 240.965 53.2801C240.965 53.4506 241.418 53.5666 241.998 53.5666Z" fill="#F49824"/>
<path fill-rule="evenodd" clip-rule="evenodd" d="M240.087 51.1348H240.784C240.894 51.1348 240.982 51.2202 240.982 51.326V51.7804C240.982 51.8897 240.894 51.9751 240.784 51.9751H240.087C239.978 51.9751 239.887 51.8897 239.887 51.7804V51.326C239.887 51.2202 239.975 51.1348 240.087 51.1348Z" fill="#0682C4"/>
<path d="M240.166 51.248H240.714C240.798 51.248 240.864 51.3127 240.864 51.391V51.7211C240.864 51.8028 240.798 51.8674 240.714 51.8674H240.166C240.082 51.8674 240.016 51.8028 240.016 51.7211V51.391C240.016 51.3127 240.082 51.248 240.166 51.248Z" fill="#231F20"/>
<path fill-rule="evenodd" clip-rule="evenodd" d="M240.863 51.6345C240.616 51.6109 240.533 51.3309 240.512 51.2432H240.713C240.797 51.2432 240.863 51.3073 240.863 51.3848V51.6311V51.6345Z" fill="#FFE11B"/>
<path fill-rule="evenodd" clip-rule="evenodd" d="M240.37 51.248C240.356 51.329 240.276 51.6259 240.016 51.6394V51.3897C240.016 51.3121 240.082 51.248 240.165 51.248H240.37Z" fill="#FFE11B"/>
<path fill-rule="evenodd" clip-rule="evenodd" d="M243.224 51.1348H243.918C244.027 51.1348 244.119 51.2202 244.119 51.326V51.7804C244.119 51.8897 244.031 51.9751 243.918 51.9751H243.224C243.115 51.9751 243.027 51.8897 243.027 51.7804V51.326C243.027 51.2202 243.115 51.1348 243.224 51.1348Z" fill="#0682C4"/>
<path d="M243.307 51.248H243.858C243.942 51.248 244.009 51.3127 244.009 51.391V51.7211C244.009 51.8028 243.942 51.8674 243.858 51.8674H243.307C243.227 51.8674 243.16 51.8028 243.16 51.7211V51.391C243.16 51.3127 243.227 51.248 243.307 51.248Z" fill="#231F20"/>
<path fill-rule="evenodd" clip-rule="evenodd" d="M244.003 51.6345C243.757 51.6109 243.673 51.3309 243.652 51.2432H243.857C243.941 51.2432 244.007 51.3073 244.007 51.3848V51.6311L244.003 51.6345Z" fill="#FFE11B"/>
<path fill-rule="evenodd" clip-rule="evenodd" d="M243.507 51.248C243.49 51.329 243.413 51.6259 243.152 51.6394V51.3897C243.152 51.3121 243.218 51.248 243.298 51.248H243.507Z" fill="#FFE11B"/>
<path fill-rule="evenodd" clip-rule="evenodd" d="M243.447 48.862C243.373 48.6206 243.359 48.5016 243.587 48.5016H244.088C244.392 48.4948 244.266 48.726 244.238 48.9503C244.2 49.2461 244.2 49.3379 244.2 49.3379C244.2 49.3379 243.447 48.8688 243.447 48.8654" fill="#E5252B"/>
<path fill-rule="evenodd" clip-rule="evenodd" d="M241.998 50.5976C241.246 50.5976 240.217 50.6625 239.554 50.7104C239.046 50.748 238.651 50.3718 238.989 50.0162C239.712 49.2569 241.472 48.3027 242.005 48.3027C242.572 48.3027 244.297 49.2569 245.02 50.0162C245.358 50.3718 245.02 50.7104 244.505 50.7104C243.937 50.7104 242.749 50.5976 241.998 50.5976Z" fill="#F49824"/>
<path d="M242.41 52.2978C242.41 52.2442 242.452 52.2007 242.507 52.2007C242.562 52.2007 242.6 52.2442 242.6 52.2978C242.6 52.3515 242.559 52.3917 242.507 52.3917C242.455 52.3917 242.41 52.3481 242.41 52.2978Z" fill="#231F20"/>
<path fill-rule="evenodd" clip-rule="evenodd" d="M242.001 52.974C241.701 52.974 241.462 53.0184 241.462 53.0184C241.105 52.0095 241.43 51.0622 242.001 51.0622C242.572 51.0622 242.9 52.013 242.541 53.0184C242.541 53.0184 242.311 52.974 242.001 52.974ZM242.53 53.0527C242.826 53.0971 243.024 53.1826 243.024 53.2784C243.024 53.422 242.569 53.5417 242.005 53.5417C241.44 53.5417 240.985 53.422 240.985 53.2784C240.985 53.1826 241.179 53.0971 241.476 53.0527C241.476 53.0527 241.797 53.015 242.005 53.015C242.213 53.015 242.534 53.0527 242.534 53.0527M242.576 53.0219C242.95 51.9753 242.586 51.0143 242.005 51.0177C241.423 51.0177 241.06 51.9788 241.433 53.0219C241.144 53.0766 240.954 53.1689 240.954 53.2784C240.954 53.3126 240.975 53.3434 241.01 53.3741C240.523 53.1689 240.478 52.8303 240.746 52.738C240.975 52.6593 241.257 52.5533 241.257 52.5533C241.109 51.8488 241.338 50.9049 242.008 50.9049C242.678 50.9049 242.907 51.8488 242.756 52.5533C242.756 52.5533 243.034 52.6628 243.267 52.738C243.528 52.8235 243.489 53.1621 243.006 53.3707C243.041 53.3399 243.059 53.3091 243.059 53.2749C243.059 53.1689 242.869 53.0732 242.579 53.0184M243.479 48.8563C243.422 48.634 243.419 48.5417 243.616 48.5417H244.05C244.336 48.5382 244.219 48.7503 244.195 48.9657C244.18 49.0957 244.17 49.2017 244.166 49.2804C243.937 49.1231 243.704 48.9828 243.482 48.8563M242.978 53.4254C244.36 53.6512 245.034 52.5294 244.593 51.8488C244.251 51.3563 244.17 50.9425 244.159 50.7305C243.253 50.686 242.629 50.6415 242.005 50.6347C241.38 50.6415 240.756 50.686 239.85 50.7305C239.836 50.9425 239.755 51.3563 239.413 51.8488C238.972 52.5294 239.645 53.6512 241.028 53.4254C240.442 53.21 240.368 52.844 240.682 52.7243C240.911 52.6388 241.218 52.5294 241.218 52.5294C241.067 51.8043 241.331 50.8467 242.001 50.8467C242.675 50.8467 242.939 51.8009 242.784 52.5294C242.784 52.5294 243.091 52.6388 243.32 52.7243C243.634 52.8406 243.56 53.21 242.974 53.4254M242.005 50.5458C241.225 50.556 240.488 50.6108 239.621 50.6655C239.081 50.6997 238.778 50.3508 239.116 49.9883C239.617 49.4582 241.328 48.3638 242.005 48.3638C242.682 48.3638 244.389 49.4582 244.893 49.9883C245.231 50.3474 244.928 50.6997 244.392 50.6655C243.525 50.6108 242.784 50.5595 242.008 50.5458M243.38 48.7982C243.373 48.7776 243.366 48.7537 243.362 48.7332C243.324 48.6032 243.362 48.4596 243.592 48.4596H244.096C244.392 48.4596 244.36 48.6579 244.307 48.8495C244.272 48.9863 244.244 49.1607 244.23 49.3248C244.23 49.3248 244.642 49.619 244.872 49.8071C245.591 50.3987 245.122 50.7818 244.434 50.751C244.364 50.7476 244.297 50.7441 244.23 50.7407C244.233 50.9357 244.293 51.2982 244.611 51.712C245.408 52.6388 244.35 53.8016 242.858 53.4733C242.611 53.552 242.22 53.5896 242.005 53.5896C241.79 53.5896 241.398 53.552 241.148 53.4733C239.656 53.8016 238.598 52.6388 239.395 51.712C239.712 51.3016 239.772 50.9391 239.776 50.7407L239.575 50.751C238.887 50.7852 238.418 50.3987 239.138 49.8071C240.21 48.9315 241.504 48.2817 242.005 48.2783C242.28 48.2783 242.795 48.4801 243.38 48.8016" fill="#231F20"/>
<path d="M240.78 51.9939H240.085C239.962 51.9939 239.863 51.8985 239.863 51.7792V51.326C239.863 51.2102 239.962 51.1147 240.085 51.1147H240.78C240.899 51.1147 240.998 51.2102 240.998 51.326V51.7792C240.998 51.8985 240.899 51.9939 240.78 51.9939ZM240.088 51.1556C239.99 51.1556 239.909 51.234 239.909 51.326V51.7792C239.909 51.8747 239.99 51.953 240.088 51.953H240.783C240.882 51.953 240.959 51.8747 240.959 51.7792V51.326C240.959 51.2306 240.878 51.1556 240.783 51.1556H240.088Z" fill="#231F20"/>
<path d="M243.921 51.9939H243.229C243.11 51.9939 243.012 51.8985 243.012 51.7792V51.326C243.012 51.2102 243.11 51.1147 243.229 51.1147H243.921C244.044 51.1147 244.143 51.2102 244.143 51.326V51.7792C244.143 51.8985 244.044 51.9939 243.921 51.9939ZM243.226 51.1556C243.128 51.1556 243.05 51.234 243.05 51.326V51.7792C243.05 51.8747 243.131 51.953 243.226 51.953H243.918C244.016 51.953 244.097 51.8747 244.097 51.7792V51.326C244.097 51.2306 244.016 51.1556 243.918 51.1556H243.226Z" fill="#231F20"/>
</g>
</g>
<defs>
<radialGradient id="paint0_radial_10765_22129" cx="0" cy="0" r="1" gradientUnits="userSpaceOnUse" gradientTransform="translate(27.9383 2.1268) rotate(90) scale(106.444 338.598)">
<stop stop-color="#F8991D"/>
<stop offset="0.93" stop-color="#F8991D" stop-opacity="0"/>
</radialGradient>
<radialGradient id="paint1_radial_10765_22129" cx="0" cy="0" r="1" gradientUnits="userSpaceOnUse" gradientTransform="translate(325.716 6.69768) rotate(90) scale(67.3764 420.126)">
<stop stop-color="#BCBABA"/>
<stop offset="1" stop-color="#959595" stop-opacity="0"/>
</radialGradient>
<radialGradient id="paint2_radial_10765_22129" cx="0" cy="0" r="1" gradientUnits="userSpaceOnUse" gradientTransform="translate(377.29 37.2531) rotate(90) scale(21.821 338.598)">
<stop stop-color="#959595"/>
<stop offset="1" stop-color="#959595" stop-opacity="0"/>
</radialGradient>
<radialGradient id="paint3_radial_10765_22129" cx="0" cy="0" r="1" gradientUnits="userSpaceOnUse" gradientTransform="translate(303.005 60.6733) rotate(90) scale(33.5298 338.598)">
<stop stop-color="#1D1D1D"/>
<stop offset="1" stop-color="#1D1D1D" stop-opacity="0"/>
</radialGradient>
<radialGradient id="paint4_radial_10765_22129" cx="0" cy="0" r="1" gradientUnits="userSpaceOnUse" gradientTransform="translate(23.0359 84.8865) rotate(90) scale(45.5047 338.598)">
<stop stop-color="#FFBB00"/>
<stop offset="0.93" stop-color="#FFBB00" stop-opacity="0"/>
</radialGradient>
<radialGradient id="paint5_radial_10765_22129" cx="0" cy="0" r="1" gradientUnits="userSpaceOnUse" gradientTransform="translate(-7.34689 70.4326) rotate(90) scale(36.1909 338.598)">
<stop stop-color="#ED1C27"/>
<stop offset="1" stop-color="#ED1C27" stop-opacity="0"/>
</radialGradient>
<radialGradient id="paint6_radial_10765_22129" cx="0" cy="0" r="1" gradientUnits="userSpaceOnUse" gradientTransform="translate(-7.34689 42.5195) rotate(90) scale(36.1909 338.598)">
<stop stop-color="#ED1C27"/>
<stop offset="1" stop-color="#ED1C27" stop-opacity="0"/>
</radialGradient>
<radialGradient id="paint7_radial_10765_22129" cx="0" cy="0" r="1" gradientUnits="userSpaceOnUse" gradientTransform="translate(67.7271 -19.3594) rotate(90) scale(44.6694 157.547)">
<stop stop-color="#ED1C27"/>
<stop offset="1" stop-color="#ED1C27" stop-opacity="0"/>
</radialGradient>
<clipPath id="clip0_10765_22129">
<rect width="361.622" height="63.6886" rx="19.4304" fill="white"/>
</clipPath>
<clipPath id="clip1_10765_22129">
<rect width="361.622" height="63.8793" rx="31.9397" fill="white"/>
</clipPath>
<clipPath id="clip2_10765_22129">
<rect width="18.6309" height="25.7594" fill="white" transform="translate(304.195 21.4126)"/>
</clipPath>
</defs>
</svg>
