<svg width="380" height="75" viewBox="0 0 380 75" fill="none" xmlns="http://www.w3.org/2000/svg">
<g clip-path="url(#clip0_10764_21446)">
<rect width="372.417" height="124.139" transform="translate(-2.10938 0.0483398)" fill="#9A9A9A"/>
<rect x="11.9141" y="7.60596" width="355.031" height="59.3907" rx="5.44611" fill="black"/>
<path d="M40.9746 45.6396V30.3213H46.582C50.2559 30.3213 52.0605 32.2334 52.0605 35.3057C52.0605 38.7432 49.9121 40.8271 46.4961 40.8271H44.0039V45.6396H40.9746ZM44.0039 38.3135H46.2813C47.9355 38.3135 48.9453 37.3467 48.9453 35.4775C48.9453 33.7373 48 32.9639 46.3457 32.9639H44.0039V38.3135ZM61.2433 45.6396C60.8995 45.0811 60.5773 44.458 60.3409 43.5986C59.6964 45.124 58.2784 45.876 56.753 45.876C55.0558 45.876 53.7023 44.9736 53.7023 43.04C53.7023 39.4736 57.8058 39.7744 60.0402 38.7217C59.9112 37.1318 58.7726 36.7236 57.3546 36.7236C56.3663 36.7236 55.2921 36.917 54.2179 37.1533V34.5537C55.464 34.2529 56.6886 34.0811 57.7843 34.0811C60.7062 34.0811 62.8761 35.3057 62.8761 38.8506V41.7725C62.8761 42.8252 62.8976 43.9639 63.1124 45.6396H61.2433ZM56.6026 42.5674C56.6026 43.2979 57.0538 43.6631 57.7413 43.6631C58.7726 43.6631 60.0402 42.6963 60.0402 40.9561V40.4834C58.3644 41.2783 56.6026 41.0205 56.6026 42.5674ZM69.5441 42.2021C69.2648 42.2021 68.9855 42.1807 68.7062 42.1592C68.384 42.3311 68.2551 42.6104 68.2551 42.9111C68.2551 43.6846 69.3937 43.7061 70.8762 43.835C73.0461 44.0068 75.4309 44.3936 75.4309 46.9072C75.4309 49.3135 72.8742 50.4736 69.4152 50.4736C66.2785 50.4736 64.1086 49.6143 64.1086 47.5518C64.1086 45.9404 65.7414 45.2314 67.0734 45.3389C66.3215 45.0166 65.8273 44.458 65.8273 43.7275C65.8273 42.7393 66.6652 42.1377 67.6535 41.9229C65.9348 41.3428 65.0324 39.9248 65.0324 38.1201C65.0324 35.7998 66.7297 34.0811 69.673 34.0811C70.382 34.0811 71.0051 34.1885 71.5422 34.3389C71.6066 34.3603 71.7141 34.3818 71.8 34.3818C72.5519 34.3818 72.7238 33.7158 72.7238 32.9424C72.7238 32.5771 72.6594 32.1689 72.5949 31.8252H75.2805C75.3234 32.1045 75.3664 32.3623 75.3664 32.6416C75.3664 34.3603 74.1203 35.1982 73.0031 35.1982C72.8742 35.1982 72.7453 35.1768 72.6379 35.1553C73.6477 35.8857 74.1848 36.917 74.1848 38.249C74.1848 40.376 72.4875 42.2021 69.5441 42.2021ZM69.5871 40.1396C70.7473 40.1396 71.3918 39.4736 71.3918 38.1416C71.3918 36.7666 70.7902 36.1221 69.6086 36.1221C68.4484 36.1221 67.8254 36.7236 67.8254 38.0986C67.8254 39.4521 68.4269 40.1396 69.5871 40.1396ZM66.8586 46.8643C66.8586 47.9814 68.2336 48.2607 69.6516 48.2607C71.1555 48.2607 72.423 47.9814 72.423 47.1221C72.423 45.9834 70.2101 46.1338 68.3625 45.8545C67.5246 45.79 66.8586 46.1982 66.8586 46.8643ZM83.5249 45.6396C83.1812 45.0811 82.8589 44.458 82.6226 43.5986C81.9781 45.124 80.5601 45.876 79.0347 45.876C77.3374 45.876 75.9839 44.9736 75.9839 43.04C75.9839 39.4736 80.0874 39.7744 82.3218 38.7217C82.1929 37.1318 81.0542 36.7236 79.6363 36.7236C78.648 36.7236 77.5738 36.917 76.4995 37.1533V34.5537C77.7456 34.2529 78.9702 34.0811 80.0659 34.0811C82.9878 34.0811 85.1577 35.3057 85.1577 38.8506V41.7725C85.1577 42.8252 85.1792 43.9639 85.3941 45.6396H83.5249ZM78.8843 42.5674C78.8843 43.2979 79.3355 43.6631 80.023 43.6631C81.0542 43.6631 82.3218 42.6963 82.3218 40.9561V40.4834C80.646 41.2783 78.8843 41.0205 78.8843 42.5674ZM94.984 37.0889C92.9215 37.0029 91.7184 37.4326 91.2242 38.249V45.6396H88.2164V38.5928C88.2164 37.4971 88.1949 36.0576 88.066 34.3174H89.9781C90.3863 34.8545 90.773 35.8428 90.9664 36.7666C91.5035 35.0264 92.7066 34.0811 94.984 34.0811V37.0889ZM106.458 45.876C103.107 45.876 100.743 44.0283 100.743 39.9678C100.743 36.1006 103.214 34.0811 106.587 34.0811C107.339 34.0811 108.155 34.1885 108.972 34.3818V36.8955C108.241 36.7451 107.532 36.6592 106.931 36.6592C104.997 36.6592 103.73 37.4756 103.73 39.9893C103.73 42.5029 104.976 43.2979 106.888 43.2979C107.532 43.2979 108.241 43.2119 108.972 43.0615V45.5752C108.091 45.7471 107.253 45.876 106.458 45.876ZM115.976 45.876C112.367 45.876 110.562 43.3193 110.562 40.0967C110.562 36.7451 112.496 34.0811 116.191 34.0811C119.779 34.0811 121.605 36.6377 121.605 39.8604C121.605 43.2119 119.672 45.876 115.976 45.876ZM116.084 43.4697C117.803 43.4697 118.619 42.1162 118.619 39.9678C118.619 37.7764 117.824 36.4873 116.084 36.4873C114.344 36.4873 113.527 37.8408 113.527 39.9893C113.527 42.1807 114.344 43.4697 116.084 43.4697ZM131.653 38.8936C131.653 37.4326 130.901 36.7881 129.676 36.7881C128.537 36.7881 127.742 37.3252 127.248 38.0557V45.6396H124.241V38.5928C124.241 37.4971 124.219 36.0576 124.09 34.3174H126.002C126.389 34.833 126.733 35.7139 126.948 36.5518C127.42 35.2842 128.559 34.0811 130.621 34.0811C132.942 34.0811 134.66 35.3701 134.66 38.4209V45.6396H131.653V38.8936Z" fill="white"/>
<g clip-path="url(#clip1_10764_21446)">
<path d="M318.995 26.7021C314.853 26.7021 311.484 30.0715 311.484 34.213V38.5036C311.484 38.5519 311.422 38.6352 311.379 38.6484C310.971 38.7844 310.641 38.9029 310.339 39.0169C309.979 39.1573 309.707 39.5565 309.707 39.947V49.8006C309.707 50.1867 309.979 50.5859 310.334 50.7307C313.103 51.8275 316.016 52.3846 318.995 52.3846C321.974 52.3846 324.887 51.8275 327.655 50.7307C328.015 50.5903 328.282 50.191 328.282 49.8006V39.947C328.282 39.5565 328.01 39.1573 327.651 39.0169C327.348 38.8985 327.019 38.7844 326.611 38.6484C326.563 38.6309 326.505 38.5519 326.505 38.5036V34.213C326.505 30.0715 323.136 26.7021 318.995 26.7021ZM316.95 42.9478C316.95 41.8159 317.867 40.9034 318.995 40.9034C320.122 40.9034 321.039 41.8203 321.039 42.9478C321.039 43.698 320.618 44.3254 320.017 44.6808V48.0633C320.017 48.6292 319.561 49.0855 318.995 49.0855C318.429 49.0855 317.972 48.6292 317.972 48.0633V44.6808C317.371 44.3254 316.95 43.698 316.95 42.9478ZM323.921 34.213V37.9157C322.307 37.5692 320.649 37.3937 318.995 37.3937C317.341 37.3937 315.687 37.5692 314.068 37.9157V34.2174C314.068 31.5017 316.279 29.2906 318.995 29.2906C321.71 29.2862 323.921 31.4929 323.921 34.213Z" fill="white"/>
</g>
<path d="M168.804 41.8691C168.756 42.0999 168.709 42.333 168.661 42.5637C167.474 42.7615 166.282 42.8933 165.09 42.9663C166.355 42.6249 167.595 42.2647 168.804 41.8691Z" fill="#ED1C27"/>
<path d="M195.34 19.1987C191.944 28.5406 184.952 36.9742 175.516 40.6804C175.516 40.6804 175.895 38.8284 175.897 38.8284C183.557 34.4657 188.784 26.6534 190.897 18.2715C191.643 17.8668 193.68 16.7114 193.68 16.7114C193.68 16.7114 194.755 18.2974 195.34 19.1987Z" fill="#ED1C27"/>
<path d="M179.268 22.4071C179.336 22.0683 179.443 21.8565 179.829 21.8283C181.482 21.6988 183.133 21.4329 184.782 21.4471C186.819 21.4612 188.166 22.8895 188.432 25.0544C189.481 22.8777 190.305 20.6023 190.895 18.2703C190.866 18.2492 190.838 18.2303 190.81 18.2115C189.182 17.1079 187.323 16.8114 185.414 16.7314C181.513 16.562 177.735 17.315 174.002 18.3386C173.803 18.395 173.574 18.6962 173.526 18.9198C173.197 20.5152 167.363 48.9127 167.363 48.9127H171.729C172.958 48.9127 174.012 47.9715 174.261 46.762C174.263 46.7667 178.983 23.8025 179.268 22.4071Z" fill="white"/>
<path d="M194.059 22.3159C190.582 29.8436 184.743 36.4582 177.164 39.9738C189.44 43.4587 197.519 31.4555 194.059 22.3159Z" fill="white"/>
<path d="M165.844 28.3064C156.929 19.748 141.73 29.5159 144.167 41.1544C145.683 48.395 153.571 50.0022 159.954 48.2938C164.004 47.2114 163.521 43.3075 163.521 43.3075C158.44 44.4747 148.772 43.4252 149.565 39.5684C153.473 40.6579 159.43 40.9167 163.611 38.7825C169.066 35.9964 168.135 30.8618 165.844 28.3064ZM162.107 33.1844C160.745 35.9775 152.962 35.954 150.16 35.1375C151.917 31.1748 156.538 28.8076 160.776 30.523C162.055 31.043 162.623 32.1161 162.107 33.1844Z" fill="white"/>
<path d="M221.978 26.8496C218.203 25.6189 213.674 25.0542 210.358 25.0542C201.583 25.0542 196.059 32.9019 196.317 39.7871C196.417 42.4297 197.31 48.4278 205.346 49.1172C207.577 49.3078 209.707 49.0231 211.571 47.6536C211.585 47.6418 211.715 47.5265 211.684 47.6912C211.618 48.0748 211.469 48.9172 211.469 48.9172C211.469 48.9172 215.659 48.9172 217.646 48.9172C218.02 48.9172 218.072 48.6607 218.127 48.3995C219.555 41.4578 220.993 34.5302 222.405 27.5838C222.495 27.1461 222.407 26.9861 221.978 26.8496ZM215.169 30.9864C214.415 34.5655 213.686 38.1493 212.926 41.7308C212.859 42.039 212.698 42.3191 212.461 42.5285C210.657 44.1239 208.553 44.6487 206.204 44.1121C201.699 43.0838 202.438 36.7375 204.015 33.676C205.453 30.8899 208.702 29.3157 212.011 29.7416C215.323 30.1652 215.254 30.5699 215.169 30.9864Z" fill="white"/>
<path d="M299.241 33.429C298.779 27.9509 294.426 25.0542 289.201 25.0542C278.244 25.0542 274.624 34.149 274.958 40.4695C275.278 46.5382 280.681 49.3643 286.124 48.8584C291.181 48.5596 294.98 46.2653 297.329 41.7708C298.689 39.1659 299.57 36.4198 299.241 33.429ZM284.129 43.7215C279.307 42.7356 280.941 36.3986 281.948 34.5302C284.378 30.0169 287.689 29.8099 289.572 30.1064C292.059 30.4946 293.471 32.2595 293.331 35.2409C293.121 39.7542 289.741 44.8675 284.129 43.7215Z" fill="white"/>
<path d="M221.91 59.4788L222.727 55.4573C222.85 54.9867 223.293 54.6516 223.779 54.6373C226.228 54.5684 227.067 54.1406 228.291 52.8048C229.227 51.6116 229.935 50.6538 230.721 49.551C230.825 49.406 230.835 49.1469 230.797 48.9568C229.471 42.1995 226.124 25.0557 226.124 25.0557C226.124 25.0557 232.225 25.001 232.609 27.4586C233.346 32.1647 235.089 41.679 235.172 42.0545C235.387 41.6814 241.093 31.851 243.762 27.1378C245.072 24.8251 250.063 25.0557 251.711 25.0557C246.792 33.3056 237.237 49.3038 235.747 51.7899C231.877 58.2405 228.471 59.5288 224.904 59.4836C223.933 59.4717 221.91 59.4788 221.91 59.4788Z" fill="white"/>
<path d="M270.51 42.3378C270.165 44.0156 269.537 47.0676 269.516 47.1758C269.48 47.3546 269.404 47.5523 269.165 47.6417C265.87 48.8653 262.353 49.4419 259.153 48.3147C248.798 44.6721 251.579 28.1414 262.393 25.5106C267.704 24.2187 273 26.0895 273.258 26.1695C273.559 26.2636 273.746 26.5648 273.684 26.8707C273.497 27.7908 272.903 30.7039 272.877 30.8098C269.88 29.8474 266.733 29.1509 263.672 30.2192C257.59 32.3464 256.268 42.7143 262.318 43.9285C265.217 44.5121 267.87 43.4908 270.51 42.3378Z" fill="white"/>
<path d="M255.882 57.9574C256.72 58.129 258.788 58.0756 258.835 56.764C258.835 56.2378 258.135 55.7459 257.471 55.6049C256.649 55.4333 256.126 55.4295 255.297 55.6049C254.786 55.7955 254.628 55.3075 255.092 55.1435C255.973 54.8308 259.409 54.766 259.57 56.764C259.429 58.7391 256.429 58.598 255.753 58.4645C255.485 58.415 255.281 58.2929 255.281 57.965V56.3217C255.281 55.9328 255.879 55.9366 255.879 56.3217V57.9574H255.882Z" fill="white"/>
<path d="M262.338 55.6437C261.67 55.6437 260.545 57.6226 260.211 58.3318C260.014 58.755 259.385 58.4538 259.586 58.0267C259.94 57.2642 261.28 54.9612 262.33 54.9841C263.38 54.965 264.721 57.2642 265.074 58.0267C265.271 58.4538 264.646 58.755 264.449 58.3318C264.119 57.6226 263.002 55.6437 262.338 55.6437Z" fill="white"/>
<path d="M267.016 57.8728C267.685 57.8728 268.809 55.8939 269.139 55.1847C269.336 54.7615 269.965 55.0627 269.765 55.4859C269.411 56.2485 268.07 58.5515 267.02 58.5325C265.971 58.5515 264.63 56.2523 264.276 55.4859C264.079 55.0589 264.705 54.7577 264.905 55.1847C265.235 55.8939 266.348 57.8728 267.016 57.8728Z" fill="white"/>
<path d="M270.899 55.3236V58.2062C270.899 58.637 270.227 58.6218 270.227 58.1909V55.316C270.227 54.8699 270.899 54.8661 270.899 55.3236Z" fill="white"/>
<path d="M274.114 57.8728C274.782 57.8728 275.907 55.8939 276.237 55.1847C276.434 54.7615 277.063 55.0627 276.862 55.4859C276.504 56.2485 275.164 58.5515 274.114 58.5325C273.064 58.5515 271.724 56.2523 271.37 55.4859C271.173 55.0589 271.798 54.7577 271.995 55.1847C272.325 55.8939 273.438 57.8728 274.106 57.8728" fill="white"/>
<path d="M279.275 57.0569C279.471 57.4611 280.034 57.789 280.576 57.9033C281.394 58.0787 281.917 58.0787 282.746 57.9033C283.242 57.747 283.415 58.2122 282.947 58.3647C282.027 58.6659 278.654 58.7727 278.457 56.7671C278.567 54.8568 281.26 54.9064 282.29 55.0399C282.794 55.1047 282.691 55.6194 282.165 55.5127C281.477 55.425 279.605 55.3182 279.239 56.5193H281.158C281.457 56.5193 281.457 57.0569 281.158 57.0569H279.275Z" fill="white"/>
<path d="M289.972 57.9603C290.81 58.1319 292.878 58.0785 292.925 56.7669C292.925 56.2407 292.225 55.7489 291.557 55.6078C290.739 55.4362 290.216 55.4324 289.386 55.6078C288.875 55.7984 288.718 55.3104 289.182 55.1464C290.067 54.8338 293.499 54.769 293.66 56.7669C293.519 58.742 290.519 58.6009 289.846 58.4675C289.579 58.4179 289.375 58.2959 289.375 57.968V56.3246C289.375 55.9357 289.972 55.9395 289.972 56.3246V57.9603Z" fill="white"/>
<path d="M296.431 55.6437C295.762 55.6437 294.634 57.6226 294.304 58.3318C294.107 58.755 293.482 58.4538 293.678 58.0267C294.036 57.2642 295.377 54.9612 296.423 54.9841C297.472 54.965 298.813 57.2642 299.167 58.0267C299.363 58.4538 298.738 58.755 298.542 58.3318C298.212 57.6226 297.099 55.6437 296.431 55.6437Z" fill="white"/>
<path d="M277.993 55.3236V58.2062C277.993 58.637 277.32 58.6218 277.32 58.1909V55.316C277.32 54.8699 277.993 54.8661 277.993 55.3236Z" fill="white"/>
<path d="M286.07 57.3461C285.653 56.6102 285.197 55.6341 284.882 55.6113C284.108 55.6113 284.458 57.0907 284.446 58.246C284.442 58.654 283.774 58.654 283.774 58.2002C283.774 56.7284 283.447 54.9707 284.898 54.9707C285.323 54.9707 285.724 55.5884 286.085 56.1679C286.502 56.9076 286.998 57.8837 287.308 57.9066C288.083 57.9066 287.713 56.4577 287.729 55.3024C287.733 54.8944 288.401 54.8944 288.401 55.3482C288.401 56.8238 288.747 58.551 287.296 58.551C286.868 58.551 286.431 57.9333 286.07 57.3499" fill="white"/>
<path fill-rule="evenodd" clip-rule="evenodd" d="M246.561 55.6865C246.575 55.7956 246.561 56.2628 246.122 56.9038C245.661 57.6097 246.389 58.7894 247.859 58.4894C248.182 58.6019 248.53 58.619 248.755 58.6155C248.98 58.6155 249.332 58.6019 249.655 58.4928C251.125 58.7929 251.849 57.6097 251.389 56.9038C250.946 56.2662 250.935 55.7956 250.949 55.6865H246.568H246.561Z" fill="#E5252B"/>
<path fill-rule="evenodd" clip-rule="evenodd" d="M248.749 58.6071C247.317 58.5697 247.057 57.9298 247.451 57.797C247.682 57.7187 247.984 57.5894 247.984 57.5894C247.83 56.8678 248.082 55.9453 248.753 55.9487C249.423 55.9487 249.665 56.8984 249.514 57.6064C249.514 57.6064 249.82 57.7119 250.044 57.8004C250.42 57.94 250.181 58.5731 248.749 58.6105" fill="#0682C4"/>
<path fill-rule="evenodd" clip-rule="evenodd" d="M248.213 58.1038C247.831 57.074 248.168 56.1089 248.753 56.1089C249.31 56.1123 249.689 57.0468 249.296 58.1004C249.296 58.1004 249.11 58.0596 248.735 58.0596C248.455 58.0596 248.217 58.1038 248.217 58.1038" fill="#FFE11B"/>
<path fill-rule="evenodd" clip-rule="evenodd" d="M248.745 58.6225C249.323 58.6225 249.775 58.5035 249.775 58.3369C249.775 58.1703 249.323 58.0479 248.745 58.0479C248.167 58.0479 247.715 58.1669 247.715 58.3369C247.715 58.5069 248.167 58.6225 248.745 58.6225Z" fill="#F49824"/>
<path fill-rule="evenodd" clip-rule="evenodd" d="M246.841 56.1982H247.536C247.644 56.1982 247.732 56.2834 247.732 56.389V56.8419C247.732 56.9509 247.644 57.036 247.536 57.036H246.841C246.732 57.036 246.641 56.9509 246.641 56.8419V56.389C246.641 56.2834 246.728 56.1982 246.841 56.1982Z" fill="#0682C4"/>
<path d="M246.92 56.311H247.465C247.549 56.311 247.616 56.3755 247.616 56.4535V56.7827C247.616 56.8641 247.549 56.9286 247.465 56.9286H246.92C246.836 56.9286 246.77 56.8641 246.77 56.7827V56.4535C246.77 56.3755 246.836 56.311 246.92 56.311Z" fill="#231F20"/>
<path fill-rule="evenodd" clip-rule="evenodd" d="M247.616 56.6963C247.37 56.6727 247.286 56.3936 247.266 56.3062H247.467C247.55 56.3062 247.616 56.3701 247.616 56.4474V56.6929V56.6963Z" fill="#FFE11B"/>
<path fill-rule="evenodd" clip-rule="evenodd" d="M247.123 56.311C247.109 56.3918 247.029 56.6877 246.77 56.7012V56.4523C246.77 56.3749 246.835 56.311 246.919 56.311H247.123Z" fill="#FFE11B"/>
<path fill-rule="evenodd" clip-rule="evenodd" d="M249.97 56.1982H250.661C250.77 56.1982 250.861 56.2834 250.861 56.389V56.8419C250.861 56.9509 250.774 57.036 250.661 57.036H249.97C249.861 57.036 249.773 56.9509 249.773 56.8419V56.389C249.773 56.2834 249.861 56.1982 249.97 56.1982Z" fill="#0682C4"/>
<path d="M250.049 56.311H250.598C250.682 56.311 250.749 56.3755 250.749 56.4535V56.7827C250.749 56.8641 250.682 56.9286 250.598 56.9286H250.049C249.969 56.9286 249.902 56.8641 249.902 56.7827V56.4535C249.902 56.3755 249.969 56.311 250.049 56.311Z" fill="#231F20"/>
<path fill-rule="evenodd" clip-rule="evenodd" d="M250.745 56.6963C250.499 56.6727 250.415 56.3936 250.395 56.3062H250.599C250.682 56.3062 250.748 56.3701 250.748 56.4474V56.6929L250.745 56.6963Z" fill="#FFE11B"/>
<path fill-rule="evenodd" clip-rule="evenodd" d="M250.252 56.311C250.235 56.3918 250.158 56.6877 249.898 56.7012V56.4523C249.898 56.3749 249.964 56.311 250.044 56.311H250.252Z" fill="#FFE11B"/>
<path fill-rule="evenodd" clip-rule="evenodd" d="M250.192 53.9322C250.119 53.6915 250.105 53.5729 250.332 53.5729H250.832C251.136 53.5661 251.01 53.7966 250.982 54.0203C250.943 54.3152 250.943 54.4067 250.943 54.4067C250.943 54.4067 250.192 53.939 250.192 53.9356" fill="#E5252B"/>
<path fill-rule="evenodd" clip-rule="evenodd" d="M248.746 55.6625C247.997 55.6625 246.971 55.7273 246.309 55.775C245.803 55.8125 245.409 55.4374 245.747 55.0828C246.468 54.3258 248.222 53.3745 248.753 53.3745C249.319 53.3745 251.038 54.3258 251.759 55.0828C252.097 55.4374 251.759 55.775 251.246 55.775C250.68 55.775 249.495 55.6625 248.746 55.6625Z" fill="#F49824"/>
<path d="M249.156 57.3576C249.156 57.3042 249.198 57.2607 249.253 57.2607C249.308 57.2607 249.346 57.3042 249.346 57.3576C249.346 57.4111 249.304 57.4512 249.253 57.4512C249.201 57.4512 249.156 57.4077 249.156 57.3576Z" fill="#231F20"/>
<path fill-rule="evenodd" clip-rule="evenodd" d="M248.749 58.0317C248.45 58.0317 248.211 58.0761 248.211 58.0761C247.856 57.0702 248.18 56.1257 248.749 56.1257C249.319 56.1257 249.646 57.0736 249.287 58.0761C249.287 58.0761 249.059 58.0317 248.749 58.0317ZM249.277 58.1102C249.572 58.1545 249.769 58.2398 249.769 58.3352C249.769 58.4784 249.315 58.5978 248.753 58.5978C248.19 58.5978 247.737 58.4784 247.737 58.3352C247.737 58.2398 247.93 58.1545 248.225 58.1102C248.225 58.1102 248.545 58.0727 248.753 58.0727C248.96 58.0727 249.28 58.1102 249.28 58.1102M249.322 58.0795C249.695 57.0361 249.333 56.0779 248.753 56.0813C248.173 56.0813 247.811 57.0395 248.183 58.0795C247.895 58.134 247.705 58.2261 247.705 58.3352C247.705 58.3693 247.726 58.4 247.761 58.4307C247.276 58.2261 247.23 57.8885 247.498 57.7965C247.726 57.718 248.007 57.6123 248.007 57.6123C247.86 56.9099 248.088 55.9688 248.756 55.9688C249.424 55.9688 249.653 56.9099 249.502 57.6123C249.502 57.6123 249.779 57.7215 250.012 57.7965C250.272 57.8817 250.233 58.2193 249.751 58.4273C249.786 58.3966 249.804 58.3659 249.804 58.3318C249.804 58.2261 249.614 58.1306 249.326 58.0761M250.222 53.9263C250.166 53.7047 250.163 53.6126 250.36 53.6126H250.792C251.077 53.6092 250.961 53.8206 250.936 54.0355C250.922 54.165 250.912 54.2707 250.908 54.3492C250.68 54.1923 250.448 54.0525 250.226 53.9263M249.723 58.4818C251.101 58.7069 251.773 57.5885 251.334 56.9099C250.992 56.4189 250.912 56.0063 250.901 55.7949C249.997 55.7506 249.375 55.7063 248.753 55.6994C248.13 55.7063 247.508 55.7506 246.605 55.7949C246.59 56.0063 246.51 56.4189 246.169 56.9099C245.729 57.5885 246.401 58.7069 247.779 58.4818C247.195 58.267 247.121 57.9022 247.434 57.7828C247.663 57.6976 247.969 57.5885 247.969 57.5885C247.818 56.8656 248.081 55.9109 248.749 55.9109C249.421 55.9109 249.685 56.8622 249.53 57.5885C249.53 57.5885 249.836 57.6976 250.064 57.7828C250.377 57.8988 250.303 58.267 249.72 58.4818M248.753 55.6108C247.976 55.621 247.241 55.6756 246.376 55.7301C245.838 55.7642 245.536 55.4164 245.873 55.055C246.372 54.5265 248.078 53.4353 248.753 53.4353C249.428 53.4353 251.13 54.5265 251.632 55.055C251.97 55.413 251.668 55.7642 251.133 55.7301C250.268 55.6756 249.53 55.6244 248.756 55.6108M250.124 53.8684C250.117 53.8479 250.11 53.8241 250.106 53.8036C250.068 53.674 250.106 53.5308 250.335 53.5308H250.838C251.133 53.5308 251.101 53.7286 251.049 53.9195C251.014 54.0559 250.985 54.2298 250.971 54.3935C250.971 54.3935 251.383 54.6867 251.611 54.8743C252.329 55.4642 251.861 55.8461 251.175 55.8154C251.105 55.812 251.038 55.8086 250.971 55.8051C250.975 55.9995 251.035 56.3609 251.351 56.7735C252.146 57.6976 251.091 58.8569 249.604 58.5296C249.358 58.608 248.967 58.6455 248.753 58.6455C248.538 58.6455 248.148 58.608 247.898 58.5296C246.411 58.8569 245.356 57.6976 246.151 56.7735C246.467 56.3644 246.527 56.0029 246.531 55.8051L246.33 55.8154C245.645 55.8495 245.177 55.4642 245.894 54.8743C246.963 54.0014 248.254 53.3535 248.753 53.3501C249.027 53.3501 249.54 53.5513 250.124 53.8718" fill="#231F20"/>
<path d="M247.531 57.0548H246.838C246.715 57.0548 246.617 56.9596 246.617 56.8407V56.3889C246.617 56.2733 246.715 56.1782 246.838 56.1782H247.531C247.65 56.1782 247.748 56.2733 247.748 56.3889V56.8407C247.748 56.9596 247.65 57.0548 247.531 57.0548ZM246.841 56.219C246.743 56.219 246.663 56.2971 246.663 56.3889V56.8407C246.663 56.9359 246.743 57.014 246.841 57.014H247.535C247.633 57.014 247.71 56.9359 247.71 56.8407V56.3889C247.71 56.2937 247.629 56.219 247.535 56.219H246.841Z" fill="#231F20"/>
<path d="M250.665 57.0548H249.975C249.856 57.0548 249.758 56.9596 249.758 56.8407V56.3889C249.758 56.2733 249.856 56.1782 249.975 56.1782H250.665C250.787 56.1782 250.885 56.2733 250.885 56.3889V56.8407C250.885 56.9596 250.787 57.0548 250.665 57.0548ZM249.971 56.219C249.873 56.219 249.796 56.2971 249.796 56.3889V56.8407C249.796 56.9359 249.877 57.014 249.971 57.014H250.661C250.759 57.014 250.84 56.9359 250.84 56.8407V56.3889C250.84 56.2937 250.759 56.219 250.661 56.219H249.971Z" fill="#231F20"/>
</g>
<defs>
<clipPath id="clip0_10764_21446">
<rect x="8.69141" y="5.44434" width="361.622" height="63.6886" rx="5.44611" fill="white"/>
</clipPath>
<clipPath id="clip1_10764_21446">
<rect width="18.5753" height="25.6825" fill="white" transform="translate(309.707 26.7017)"/>
</clipPath>
</defs>
</svg>
