<svg width="362" height="75" viewBox="0 0 362 75" fill="none" xmlns="http://www.w3.org/2000/svg">
<g clip-path="url(#clip0_10764_21338)">
<g clip-path="url(#clip1_10764_21338)">
<rect width="372.417" height="124.139" transform="translate(-10.7852 0.0517578)" fill="#9A9A9A"/>
<rect x="3.25781" y="7.60596" width="355.031" height="59.3907" rx="29.6954" fill="black"/>
<path d="M32.2871 45.6406V30.3223H37.8945C41.5684 30.3223 43.373 32.2344 43.373 35.3066C43.373 38.7441 41.2246 40.8281 37.8086 40.8281H35.3164V45.6406H32.2871ZM35.3164 38.3145H37.5938C39.248 38.3145 40.2578 37.3477 40.2578 35.4785C40.2578 33.7383 39.3125 32.9648 37.6582 32.9648H35.3164V38.3145ZM52.5558 45.6406C52.212 45.082 51.8898 44.459 51.6534 43.5996C51.0089 45.125 49.5909 45.877 48.0655 45.877C46.3683 45.877 45.0148 44.9746 45.0148 43.041C45.0148 39.4746 49.1183 39.7754 51.3527 38.7227C51.2237 37.1328 50.0851 36.7246 48.6671 36.7246C47.6788 36.7246 46.6046 36.918 45.5304 37.1543V34.5547C46.7765 34.2539 48.0011 34.082 49.0968 34.082C52.0187 34.082 54.1886 35.3066 54.1886 38.8516V41.7734C54.1886 42.8262 54.2101 43.9648 54.4249 45.6406H52.5558ZM47.9151 42.5684C47.9151 43.2988 48.3663 43.6641 49.0538 43.6641C50.0851 43.6641 51.3527 42.6973 51.3527 40.957V40.4844C49.6769 41.2793 47.9151 41.0215 47.9151 42.5684ZM60.8566 42.2031C60.5773 42.2031 60.298 42.1816 60.0187 42.1602C59.6965 42.332 59.5676 42.6113 59.5676 42.9121C59.5676 43.6855 60.7062 43.707 62.1887 43.8359C64.3586 44.0078 66.7434 44.3945 66.7434 46.9082C66.7434 49.3145 64.1867 50.4746 60.7277 50.4746C57.591 50.4746 55.4211 49.6152 55.4211 47.5527C55.4211 45.9414 57.0539 45.2324 58.3859 45.3398C57.634 45.0176 57.1398 44.459 57.1398 43.7285C57.1398 42.7402 57.9777 42.1387 58.966 41.9238C57.2473 41.3437 56.3449 39.9258 56.3449 38.1211C56.3449 35.8008 58.0422 34.082 60.9855 34.082C61.6945 34.082 62.3176 34.1894 62.8547 34.3398C62.9191 34.3613 63.0266 34.3828 63.1125 34.3828C63.8644 34.3828 64.0363 33.7168 64.0363 32.9434C64.0363 32.5781 63.9719 32.1699 63.9074 31.8262H66.593C66.6359 32.1055 66.6789 32.3633 66.6789 32.6426C66.6789 34.3613 65.4328 35.1992 64.3156 35.1992C64.1867 35.1992 64.0578 35.1777 63.9504 35.1562C64.9602 35.8867 65.4973 36.918 65.4973 38.25C65.4973 40.377 63.8 42.2031 60.8566 42.2031ZM60.8996 40.1406C62.0598 40.1406 62.7043 39.4746 62.7043 38.1426C62.7043 36.7676 62.1027 36.123 60.9211 36.123C59.7609 36.123 59.1379 36.7246 59.1379 38.0996C59.1379 39.4531 59.7394 40.1406 60.8996 40.1406ZM58.1711 46.8652C58.1711 47.9824 59.5461 48.2617 60.9641 48.2617C62.468 48.2617 63.7355 47.9824 63.7355 47.123C63.7355 45.9844 61.5226 46.1348 59.675 45.8555C58.8371 45.791 58.1711 46.1992 58.1711 46.8652ZM74.8374 45.6406C74.4937 45.082 74.1714 44.459 73.9351 43.5996C73.2906 45.125 71.8726 45.877 70.3472 45.877C68.6499 45.877 67.2964 44.9746 67.2964 43.041C67.2964 39.4746 71.3999 39.7754 73.6343 38.7227C73.5054 37.1328 72.3667 36.7246 70.9488 36.7246C69.9605 36.7246 68.8863 36.918 67.812 37.1543V34.5547C69.0581 34.2539 70.2827 34.082 71.3784 34.082C74.3003 34.082 76.4702 35.3066 76.4702 38.8516V41.7734C76.4702 42.8262 76.4917 43.9648 76.7066 45.6406H74.8374ZM70.1968 42.5684C70.1968 43.2988 70.648 43.6641 71.3355 43.6641C72.3667 43.6641 73.6343 42.6973 73.6343 40.957V40.4844C71.9585 41.2793 70.1968 41.0215 70.1968 42.5684ZM86.2965 37.0898C84.234 37.0039 83.0309 37.4336 82.5367 38.25V45.6406H79.5289V38.5937C79.5289 37.498 79.5074 36.0586 79.3785 34.3184H81.2906C81.6988 34.8555 82.0855 35.8437 82.2789 36.7676C82.816 35.0273 84.0191 34.082 86.2965 34.082V37.0898ZM97.7707 45.877C94.4191 45.877 92.0558 44.0293 92.0558 39.9687C92.0558 36.1016 94.5265 34.082 97.8996 34.082C98.6515 34.082 99.4679 34.1894 100.284 34.3828V36.8965C99.5539 36.7461 98.8449 36.6602 98.2433 36.6602C96.3097 36.6602 95.0421 37.4766 95.0421 39.9902C95.0421 42.5039 96.2882 43.2988 98.2003 43.2988C98.8449 43.2988 99.5539 43.2129 100.284 43.0625V45.5762C99.4035 45.748 98.5656 45.877 97.7707 45.877ZM107.289 45.877C103.68 45.877 101.875 43.3203 101.875 40.0977C101.875 36.7461 103.808 34.082 107.504 34.082C111.092 34.082 112.918 36.6387 112.918 39.8613C112.918 43.2129 110.984 45.877 107.289 45.877ZM107.396 43.4707C109.115 43.4707 109.931 42.1172 109.931 39.9687C109.931 37.7773 109.137 36.4883 107.396 36.4883C105.656 36.4883 104.84 37.8418 104.84 39.9902C104.84 42.1816 105.656 43.4707 107.396 43.4707ZM122.965 38.8945C122.965 37.4336 122.213 36.7891 120.989 36.7891C119.85 36.7891 119.055 37.3262 118.561 38.0566V45.6406H115.553V38.5937C115.553 37.498 115.532 36.0586 115.403 34.3184H117.315C117.701 34.834 118.045 35.7148 118.26 36.5527C118.733 35.2852 119.871 34.082 121.934 34.082C124.254 34.082 125.973 35.3711 125.973 38.4219V45.6406H122.965V38.8945Z" fill="white"/>
<g clip-path="url(#clip2_10764_21338)">
<path d="M310.327 26.6982C306.185 26.6982 302.816 30.0676 302.816 34.2091V38.4997C302.816 38.548 302.754 38.6313 302.711 38.6445C302.303 38.7805 301.974 38.899 301.671 39.013C301.311 39.1534 301.039 39.5526 301.039 39.9431V49.7967C301.039 50.1827 301.311 50.582 301.666 50.7268C304.435 51.8235 307.348 52.3807 310.327 52.3807C313.306 52.3807 316.219 51.8235 318.987 50.7268C319.347 50.5864 319.614 50.1871 319.614 49.7967V39.9431C319.614 39.5526 319.342 39.1534 318.983 39.013C318.68 38.8946 318.351 38.7805 317.943 38.6445C317.895 38.6269 317.838 38.548 317.838 38.4997V34.2091C317.838 30.0676 314.468 26.6982 310.327 26.6982ZM308.282 42.9439C308.282 41.812 309.199 40.8995 310.327 40.8995C311.454 40.8995 312.371 41.8164 312.371 42.9439C312.371 43.6941 311.95 44.3215 311.349 44.6769V48.0594C311.349 48.6253 310.893 49.0816 310.327 49.0816C309.761 49.0816 309.304 48.6253 309.304 48.0594V44.6769C308.703 44.3215 308.282 43.6941 308.282 42.9439ZM315.253 34.2091V37.9118C313.639 37.5653 311.981 37.3898 310.327 37.3898C308.673 37.3898 307.019 37.5653 305.4 37.9118V34.2135C305.4 31.4978 307.611 29.2867 310.327 29.2867C313.042 29.2823 315.253 31.489 315.253 34.2091Z" fill="white"/>
</g>
<path d="M160.132 41.8726C160.084 42.1033 160.037 42.3364 159.989 42.5671C158.802 42.7649 157.61 42.8968 156.418 42.9698C157.684 42.6284 158.923 42.2681 160.132 41.8726Z" fill="#ED1C27"/>
<path d="M186.669 19.2021C183.272 28.544 176.28 36.9776 166.844 40.6838C166.844 40.6838 167.223 38.8319 167.225 38.8319C174.885 34.4692 180.112 26.6568 182.225 18.275C182.971 17.8702 185.008 16.7148 185.008 16.7148C185.008 16.7148 186.084 18.3008 186.669 19.2021Z" fill="#ED1C27"/>
<path d="M170.596 22.4105C170.664 22.0717 170.771 21.8599 171.157 21.8317C172.81 21.7023 174.461 21.4363 176.11 21.4505C178.147 21.4646 179.494 22.8929 179.76 25.0578C180.809 22.8812 181.633 20.6057 182.223 18.2738C182.195 18.2526 182.166 18.2337 182.138 18.2149C180.511 17.1113 178.651 16.8148 176.742 16.7348C172.841 16.5654 169.063 17.3184 165.33 18.342C165.132 18.3985 164.902 18.6997 164.854 18.9232C164.525 20.5186 158.691 48.9161 158.691 48.9161H163.057C164.286 48.9161 165.34 47.9749 165.589 46.7654C165.591 46.7701 170.312 23.8059 170.596 22.4105Z" fill="white"/>
<path d="M185.387 22.3193C181.91 29.847 176.072 36.4616 168.492 39.9772C180.768 43.4622 188.848 31.4589 185.387 22.3193Z" fill="white"/>
<path d="M157.173 28.3098C148.257 19.7515 133.058 29.5193 135.495 41.1578C137.011 48.3984 144.899 50.0056 151.282 48.2972C155.332 47.2148 154.849 43.3109 154.849 43.3109C149.768 44.4781 140.1 43.4286 140.893 39.5718C144.802 40.6613 150.758 40.9202 154.939 38.7859C160.394 35.9998 159.463 30.8653 157.173 28.3098ZM153.435 33.1878C152.073 35.981 144.29 35.9574 141.488 35.1409C143.245 31.1782 147.866 28.811 152.104 30.5264C153.383 31.0465 153.951 32.1195 153.435 33.1878Z" fill="white"/>
<path d="M213.306 26.853C209.531 25.6224 205.002 25.0576 201.686 25.0576C192.911 25.0576 187.387 32.9053 187.645 39.7905C187.745 42.4331 188.638 48.4312 196.674 49.1207C198.906 49.3113 201.035 49.0265 202.899 47.657C202.913 47.6452 203.043 47.5299 203.013 47.6947C202.946 48.0782 202.797 48.9206 202.797 48.9206C202.797 48.9206 206.987 48.9206 208.974 48.9206C209.348 48.9206 209.401 48.6642 209.455 48.403C210.883 41.4612 212.321 34.5336 213.733 27.5872C213.823 27.1495 213.735 26.9895 213.306 26.853ZM206.497 30.9898C205.744 34.5689 205.014 38.1527 204.254 41.7342C204.187 42.0425 204.026 42.3225 203.789 42.5319C201.985 44.1273 199.881 44.6521 197.532 44.1156C193.027 43.0872 193.766 36.7409 195.343 33.6795C196.781 30.8934 200.031 29.3191 203.339 29.745C206.651 30.1686 206.582 30.5733 206.497 30.9898Z" fill="white"/>
<path d="M290.569 33.4324C290.107 27.9543 285.754 25.0576 280.529 25.0576C269.572 25.0576 265.953 34.1524 266.287 40.4729C266.606 46.5416 272.009 49.3677 277.452 48.8618C282.509 48.563 286.308 46.2687 288.658 41.7742C290.017 39.1693 290.898 36.4232 290.569 33.4324ZM275.458 43.7249C270.635 42.739 272.27 36.402 273.276 34.5336C275.706 30.0204 279.018 29.8133 280.901 30.1098C283.388 30.498 284.799 32.2629 284.659 35.2443C284.449 39.7576 281.069 44.8709 275.458 43.7249Z" fill="white"/>
<path d="M213.238 59.4823L214.055 55.4607C214.179 54.9901 214.622 54.655 215.107 54.6407C217.556 54.5718 218.395 54.144 219.619 52.8082C220.555 51.6151 221.263 50.6572 222.049 49.5544C222.154 49.4094 222.163 49.1503 222.125 48.9602C220.799 42.2029 217.452 25.0591 217.452 25.0591C217.452 25.0591 223.553 25.0044 223.937 27.462C224.674 32.1681 226.417 41.6824 226.5 42.058C226.715 41.6848 232.421 31.8544 235.091 27.1412C236.4 24.8286 241.391 25.0591 243.039 25.0591C238.12 33.309 228.565 49.3072 227.075 51.7933C223.205 58.2439 219.799 59.5322 216.232 59.487C215.261 59.4751 213.238 59.4823 213.238 59.4823Z" fill="white"/>
<path d="M261.839 42.3412C261.493 44.019 260.865 47.071 260.844 47.1792C260.808 47.3581 260.732 47.5557 260.493 47.6451C257.199 48.8688 253.681 49.4453 250.481 48.3181C240.126 44.6755 242.907 28.1448 253.722 25.514C259.032 24.2221 264.328 26.0929 264.586 26.1729C264.887 26.267 265.074 26.5682 265.012 26.8741C264.825 27.7942 264.231 30.7074 264.205 30.8132C261.209 29.8508 258.061 29.1543 255.001 30.2226C248.918 32.3498 247.596 42.7177 253.646 43.9319C256.545 44.5155 259.198 43.4942 261.839 42.3412Z" fill="white"/>
<path d="M247.211 57.9608C248.048 58.1324 250.116 58.079 250.163 56.7674C250.163 56.2412 249.463 55.7494 248.799 55.6083C247.977 55.4367 247.454 55.4329 246.625 55.6083C246.114 55.7989 245.956 55.3109 246.42 55.1469C247.301 54.8343 250.737 54.7694 250.898 56.7674C250.757 58.7425 247.757 58.6014 247.081 58.4679C246.813 58.4184 246.609 58.2964 246.609 57.9685V56.3251C246.609 55.9362 247.207 55.94 247.207 56.3251V57.9608H247.211Z" fill="white"/>
<path d="M253.666 55.6471C252.998 55.6471 251.873 57.626 251.539 58.3352C251.343 58.7584 250.713 58.4572 250.914 58.0302C251.268 57.2676 252.608 54.9646 253.658 54.9875C254.708 54.9684 256.049 57.2676 256.402 58.0302C256.599 58.4572 255.974 58.7584 255.777 58.3352C255.447 57.626 254.331 55.6471 253.666 55.6471Z" fill="white"/>
<path d="M258.344 57.8762C259.013 57.8762 260.137 55.8974 260.468 55.1882C260.664 54.7649 261.293 55.0661 261.093 55.4894C260.739 56.2519 259.398 58.5549 258.348 58.5359C257.299 58.5549 255.958 56.2558 255.604 55.4894C255.408 55.0623 256.033 54.7611 256.233 55.1882C256.563 55.8974 257.676 57.8762 258.344 57.8762Z" fill="white"/>
<path d="M262.227 55.3271V58.2096C262.227 58.6405 261.555 58.6252 261.555 58.1944V55.3194C261.555 54.8733 262.227 54.8695 262.227 55.3271Z" fill="white"/>
<path d="M265.442 57.8762C266.111 57.8762 267.235 55.8974 267.565 55.1882C267.762 54.7649 268.391 55.0661 268.19 55.4894C267.833 56.2519 266.492 58.5549 265.442 58.5359C264.392 58.5549 263.052 56.2558 262.698 55.4894C262.501 55.0623 263.126 54.7611 263.323 55.1882C263.653 55.8974 264.766 57.8762 265.434 57.8762" fill="white"/>
<path d="M270.603 57.0603C270.8 57.4645 271.362 57.7924 271.904 57.9068C272.722 58.0822 273.245 58.0822 274.075 57.9068C274.57 57.7504 274.743 58.2156 274.275 58.3681C273.355 58.6693 269.982 58.7761 269.785 56.7705C269.895 54.8603 272.588 54.9098 273.618 55.0433C274.122 55.1081 274.019 55.6228 273.493 55.5161C272.805 55.4284 270.933 55.3216 270.568 56.5227H272.486C272.785 56.5227 272.785 57.0603 272.486 57.0603H270.603Z" fill="white"/>
<path d="M281.3 57.9638C282.138 58.1353 284.206 58.082 284.253 56.7703C284.253 56.2441 283.553 55.7523 282.885 55.6112C282.067 55.4396 281.544 55.4358 280.715 55.6112C280.203 55.8018 280.046 55.3138 280.51 55.1498C281.395 54.8372 284.827 54.7724 284.988 56.7703C284.847 58.7454 281.847 58.6043 281.175 58.4709C280.907 58.4213 280.703 58.2993 280.703 57.9714V56.328C280.703 55.9391 281.3 55.9429 281.3 56.328V57.9638Z" fill="white"/>
<path d="M287.759 55.6471C287.09 55.6471 285.962 57.626 285.632 58.3352C285.435 58.7584 284.81 58.4572 285.007 58.0302C285.364 57.2676 286.705 54.9646 287.751 54.9875C288.801 54.9684 290.141 57.2676 290.495 58.0302C290.692 58.4572 290.067 58.7584 289.87 58.3352C289.54 57.626 288.427 55.6471 287.759 55.6471Z" fill="white"/>
<path d="M269.321 55.3271V58.2096C269.321 58.6405 268.648 58.6252 268.648 58.1944V55.3194C268.648 54.8733 269.321 54.8695 269.321 55.3271Z" fill="white"/>
<path d="M277.398 57.3495C276.981 56.6137 276.525 55.6376 276.21 55.6147C275.436 55.6147 275.786 57.0941 275.774 58.2494C275.77 58.6574 275.102 58.6574 275.102 58.2036C275.102 56.7319 274.775 54.9741 276.226 54.9741C276.651 54.9741 277.052 55.5918 277.413 56.1714C277.83 56.9111 278.326 57.8872 278.636 57.91C279.411 57.91 279.041 56.4611 279.057 55.3058C279.061 54.8979 279.729 54.8979 279.729 55.3516C279.729 56.8272 280.075 58.5544 278.624 58.5544C278.196 58.5544 277.76 57.9367 277.398 57.3534" fill="white"/>
<path fill-rule="evenodd" clip-rule="evenodd" d="M237.889 55.6899C237.903 55.7991 237.889 56.2662 237.45 56.9072C236.989 57.6131 237.717 58.7929 239.187 58.4928C239.51 58.6053 239.858 58.6224 240.083 58.619C240.308 58.619 240.66 58.6053 240.983 58.4962C242.453 58.7963 243.177 57.6131 242.717 56.9072C242.274 56.2696 242.263 55.7991 242.277 55.6899H237.896H237.889Z" fill="#E5252B"/>
<path fill-rule="evenodd" clip-rule="evenodd" d="M240.077 58.6105C238.645 58.5731 238.386 57.9332 238.779 57.8004C239.01 57.7221 239.312 57.5928 239.312 57.5928C239.158 56.8712 239.41 55.9488 240.081 55.9522C240.751 55.9522 240.993 56.9018 240.842 57.6098C240.842 57.6098 241.148 57.7153 241.372 57.8038C241.748 57.9434 241.509 58.5765 240.077 58.6139" fill="#0682C4"/>
<path fill-rule="evenodd" clip-rule="evenodd" d="M239.541 58.1072C239.159 57.0775 239.496 56.1123 240.081 56.1123C240.638 56.1157 241.017 57.0503 240.624 58.1038C240.624 58.1038 240.439 58.063 240.064 58.063C239.783 58.063 239.545 58.1072 239.545 58.1072" fill="#FFE11B"/>
<path fill-rule="evenodd" clip-rule="evenodd" d="M240.073 58.6259C240.651 58.6259 241.103 58.5069 241.103 58.3403C241.103 58.1737 240.651 58.0513 240.073 58.0513C239.495 58.0513 239.043 58.1703 239.043 58.3403C239.043 58.5103 239.495 58.6259 240.073 58.6259Z" fill="#F49824"/>
<path fill-rule="evenodd" clip-rule="evenodd" d="M238.169 56.2017H238.864C238.973 56.2017 239.06 56.2868 239.06 56.3924V56.8453C239.06 56.9543 238.973 57.0394 238.864 57.0394H238.169C238.06 57.0394 237.969 56.9543 237.969 56.8453V56.3924C237.969 56.2868 238.056 56.2017 238.169 56.2017Z" fill="#0682C4"/>
<path d="M238.248 56.3145H238.794C238.877 56.3145 238.944 56.3789 238.944 56.457V56.7861C238.944 56.8675 238.877 56.932 238.794 56.932H238.248C238.164 56.932 238.098 56.8675 238.098 56.7861V56.457C238.098 56.3789 238.164 56.3145 238.248 56.3145Z" fill="#231F20"/>
<path fill-rule="evenodd" clip-rule="evenodd" d="M238.944 56.6997C238.698 56.6762 238.615 56.397 238.594 56.3096H238.795C238.878 56.3096 238.944 56.3735 238.944 56.4508V56.6964V56.6997Z" fill="#FFE11B"/>
<path fill-rule="evenodd" clip-rule="evenodd" d="M238.451 56.3145C238.437 56.3952 238.358 56.6911 238.098 56.7046V56.4557C238.098 56.3784 238.164 56.3145 238.247 56.3145H238.451Z" fill="#FFE11B"/>
<path fill-rule="evenodd" clip-rule="evenodd" d="M241.298 56.2017H241.99C242.098 56.2017 242.19 56.2868 242.19 56.3924V56.8453C242.19 56.9543 242.102 57.0394 241.99 57.0394H241.298C241.189 57.0394 241.102 56.9543 241.102 56.8453V56.3924C241.102 56.2868 241.189 56.2017 241.298 56.2017Z" fill="#0682C4"/>
<path d="M241.377 56.3145H241.926C242.01 56.3145 242.077 56.3789 242.077 56.457V56.7861C242.077 56.8675 242.01 56.932 241.926 56.932H241.377C241.297 56.932 241.23 56.8675 241.23 56.7861V56.457C241.23 56.3789 241.297 56.3145 241.377 56.3145Z" fill="#231F20"/>
<path fill-rule="evenodd" clip-rule="evenodd" d="M242.073 56.6997C241.827 56.6762 241.743 56.397 241.723 56.3096H241.927C242.01 56.3096 242.076 56.3735 242.076 56.4508V56.6964L242.073 56.6997Z" fill="#FFE11B"/>
<path fill-rule="evenodd" clip-rule="evenodd" d="M241.58 56.3145C241.563 56.3952 241.487 56.6911 241.227 56.7046V56.4557C241.227 56.3784 241.292 56.3145 241.372 56.3145H241.58Z" fill="#FFE11B"/>
<path fill-rule="evenodd" clip-rule="evenodd" d="M241.521 53.9356C241.447 53.695 241.433 53.5763 241.66 53.5763H242.16C242.464 53.5695 242.338 53.8 242.31 54.0237C242.272 54.3186 242.272 54.4101 242.272 54.4101C242.272 54.4101 241.521 53.9424 241.521 53.939" fill="#E5252B"/>
<path fill-rule="evenodd" clip-rule="evenodd" d="M240.074 55.6659C239.325 55.6659 238.299 55.7307 237.638 55.7784C237.131 55.8159 236.738 55.4409 237.075 55.0862C237.796 54.3293 239.55 53.3779 240.081 53.3779C240.647 53.3779 242.367 54.3293 243.087 55.0862C243.425 55.4409 243.087 55.7784 242.574 55.7784C242.008 55.7784 240.823 55.6659 240.074 55.6659Z" fill="#F49824"/>
<path d="M240.484 57.361C240.484 57.3076 240.526 57.2642 240.581 57.2642C240.636 57.2642 240.674 57.3076 240.674 57.361C240.674 57.4145 240.632 57.4546 240.581 57.4546C240.529 57.4546 240.484 57.4111 240.484 57.361Z" fill="#231F20"/>
<path fill-rule="evenodd" clip-rule="evenodd" d="M240.077 58.0352C239.779 58.0352 239.539 58.0795 239.539 58.0795C239.184 57.0736 239.508 56.1291 240.077 56.1291C240.647 56.1291 240.974 57.077 240.615 58.0795C240.615 58.0795 240.387 58.0352 240.077 58.0352ZM240.605 58.1136C240.9 58.1579 241.097 58.2432 241.097 58.3386C241.097 58.4819 240.643 58.6012 240.081 58.6012C239.518 58.6012 239.065 58.4819 239.065 58.3386C239.065 58.2432 239.258 58.1579 239.554 58.1136C239.554 58.1136 239.873 58.0761 240.081 58.0761C240.288 58.0761 240.608 58.1136 240.608 58.1136M240.651 58.0829C241.023 57.0395 240.661 56.0813 240.081 56.0848C239.501 56.0848 239.139 57.0429 239.511 58.0829C239.223 58.1375 239.033 58.2295 239.033 58.3386C239.033 58.3727 239.054 58.4034 239.089 58.4341C238.604 58.2295 238.559 57.892 238.826 57.7999C239.054 57.7215 239.336 57.6158 239.336 57.6158C239.188 56.9133 239.416 55.9722 240.084 55.9722C240.752 55.9722 240.981 56.9133 240.83 57.6158C240.83 57.6158 241.108 57.7249 241.34 57.7999C241.6 57.8851 241.561 58.2227 241.079 58.4307C241.115 58.4 241.132 58.3693 241.132 58.3352C241.132 58.2295 240.942 58.1341 240.654 58.0795M241.551 53.9298C241.494 53.7081 241.491 53.6161 241.688 53.6161H242.12C242.405 53.6127 242.289 53.8241 242.264 54.0389C242.25 54.1685 242.24 54.2742 242.236 54.3526C242.008 54.1957 241.776 54.0559 241.554 53.9298M241.051 58.4853C242.43 58.7103 243.101 57.5919 242.662 56.9133C242.321 56.4223 242.24 56.0097 242.229 55.7983C241.326 55.754 240.703 55.7097 240.081 55.7029C239.459 55.7097 238.836 55.754 237.933 55.7983C237.919 56.0097 237.838 56.4223 237.497 56.9133C237.057 57.5919 237.729 58.7103 239.107 58.4853C238.523 58.2704 238.45 57.9056 238.762 57.7863C238.991 57.701 239.297 57.5919 239.297 57.5919C239.146 56.869 239.409 55.9143 240.077 55.9143C240.749 55.9143 241.013 56.8656 240.858 57.5919C240.858 57.5919 241.164 57.701 241.392 57.7863C241.705 57.9022 241.631 58.2704 241.048 58.4853M240.081 55.6142C239.304 55.6244 238.569 55.679 237.704 55.7335C237.166 55.7676 236.864 55.4199 237.201 55.0584C237.701 54.5299 239.406 53.4388 240.081 53.4388C240.756 53.4388 242.458 54.5299 242.961 55.0584C243.298 55.4164 242.996 55.7676 242.461 55.7335C241.596 55.679 240.858 55.6278 240.084 55.6142M241.452 53.8718C241.445 53.8513 241.438 53.8275 241.435 53.807C241.396 53.6774 241.435 53.5342 241.663 53.5342H242.166C242.461 53.5342 242.43 53.732 242.377 53.9229C242.342 54.0593 242.314 54.2332 242.3 54.3969C242.3 54.3969 242.711 54.6902 242.939 54.8777C243.657 55.4676 243.189 55.8495 242.503 55.8188C242.433 55.8154 242.366 55.812 242.3 55.8086C242.303 56.0029 242.363 56.3644 242.679 56.7769C243.474 57.701 242.419 58.8603 240.932 58.533C240.686 58.6114 240.295 58.6489 240.081 58.6489C239.866 58.6489 239.476 58.6114 239.227 58.533C237.739 58.8603 236.684 57.701 237.479 56.7769C237.796 56.3678 237.855 56.0063 237.859 55.8086L237.658 55.8188C236.973 55.8529 236.505 55.4676 237.222 54.8777C238.291 54.0048 239.582 53.3569 240.081 53.3535C240.355 53.3535 240.868 53.5547 241.452 53.8752" fill="#231F20"/>
<path d="M238.859 57.0582H238.166C238.043 57.0582 237.945 56.9631 237.945 56.8442V56.3923C237.945 56.2768 238.043 56.1816 238.166 56.1816H238.859C238.978 56.1816 239.076 56.2768 239.076 56.3923V56.8442C239.076 56.9631 238.978 57.0582 238.859 57.0582ZM238.169 56.2224C238.071 56.2224 237.991 56.3006 237.991 56.3923V56.8442C237.991 56.9393 238.071 57.0174 238.169 57.0174H238.863C238.961 57.0174 239.038 56.9393 239.038 56.8442V56.3923C239.038 56.2972 238.957 56.2224 238.863 56.2224H238.169Z" fill="#231F20"/>
<path d="M241.993 57.0582H241.303C241.184 57.0582 241.086 56.9631 241.086 56.8442V56.3923C241.086 56.2768 241.184 56.1816 241.303 56.1816H241.993C242.115 56.1816 242.213 56.2768 242.213 56.3923V56.8442C242.213 56.9631 242.115 57.0582 241.993 57.0582ZM241.3 56.2224C241.201 56.2224 241.124 56.3006 241.124 56.3923V56.8442C241.124 56.9393 241.205 57.0174 241.3 57.0174H241.989C242.087 57.0174 242.168 56.9393 242.168 56.8442V56.3923C242.168 56.2972 242.087 56.2224 241.989 56.2224H241.3Z" fill="#231F20"/>
</g>
</g>
<defs>
<clipPath id="clip0_10764_21338">
<rect width="361.622" height="74.0671" rx="19.4304" fill="white"/>
</clipPath>
<clipPath id="clip1_10764_21338">
<rect y="5.44434" width="361.622" height="63.6886" rx="31.8443" fill="white"/>
</clipPath>
<clipPath id="clip2_10764_21338">
<rect width="18.5753" height="25.6825" fill="white" transform="translate(301.023 26.6992)"/>
</clipPath>
</defs>
</svg>
