<svg width="362" height="64" viewBox="0 0 362 64" fill="none" xmlns="http://www.w3.org/2000/svg">
<g clip-path="url(#clip0_10761_23531)">
<g clip-path="url(#clip1_10761_23531)">
<rect width="372.417" height="124.139" transform="translate(-10.7539 -5.396)" fill="#5F6062"/>
<g filter="url(#filter0_f_10761_23531)">
<path d="M371.364 50.7688C361.478 68.5085 279.737 68.2966 254.532 57.4877C229.327 46.6789 242.708 7.28118 252.593 -10.4584C262.479 -28.1981 330.961 -13.3804 356.166 -2.57159C381.371 8.23722 381.249 33.0292 371.364 50.7688Z" fill="#1E1F20"/>
</g>
<g filter="url(#filter1_f_10761_23531)">
<path d="M-43.0056 18.5212C-39.6534 -9.5717 37.5409 -52.993 64.9623 -52.5686C92.3837 -52.1442 93.029 5.6636 89.6768 33.7565C86.3246 61.8494 16.7204 79.4043 -10.701 78.9799C-38.1223 78.5554 -46.3578 46.6141 -43.0056 18.5212Z" fill="#1E1F20"/>
</g>
<rect x="3.26953" y="2.1582" width="355.031" height="59.3907" rx="17.9036" fill="white"/>
<path d="M32.3027 40.188V24.8696H37.9102C41.584 24.8696 43.3887 26.7817 43.3887 29.854C43.3887 33.2915 41.2402 35.3755 37.8242 35.3755H35.332V40.188H32.3027ZM35.332 32.8618H37.6094C39.2637 32.8618 40.2734 31.895 40.2734 30.0259C40.2734 28.2856 39.3281 27.5122 37.6738 27.5122H35.332V32.8618ZM52.5714 40.188C52.2277 39.6294 51.9054 39.0063 51.6691 38.147C51.0245 39.6724 49.6066 40.4243 48.0812 40.4243C46.3839 40.4243 45.0304 39.522 45.0304 37.5884C45.0304 34.022 49.1339 34.3228 51.3683 33.27C51.2394 31.6802 50.1007 31.272 48.6827 31.272C47.6944 31.272 46.6202 31.4653 45.546 31.7017V29.102C46.7921 28.8013 48.0167 28.6294 49.1124 28.6294C52.0343 28.6294 54.2042 29.854 54.2042 33.3989V36.3208C54.2042 37.3735 54.2257 38.5122 54.4405 40.188H52.5714ZM47.9308 37.1157C47.9308 37.8462 48.3819 38.2114 49.0694 38.2114C50.1007 38.2114 51.3683 37.2446 51.3683 35.5044V35.0317C49.6925 35.8267 47.9308 35.5688 47.9308 37.1157ZM60.8723 36.7505C60.593 36.7505 60.3137 36.729 60.0344 36.7075C59.7121 36.8794 59.5832 37.1587 59.5832 37.4595C59.5832 38.2329 60.7219 38.2544 62.2043 38.3833C64.3742 38.5552 66.759 38.9419 66.759 41.4556C66.759 43.8618 64.2023 45.022 60.7434 45.022C57.6066 45.022 55.4367 44.1626 55.4367 42.1001C55.4367 40.4888 57.0695 39.7798 58.4016 39.8872C57.6496 39.5649 57.1555 39.0063 57.1555 38.2759C57.1555 37.2876 57.9934 36.686 58.9816 36.4712C57.2629 35.8911 56.3605 34.4731 56.3605 32.6685C56.3605 30.3481 58.0578 28.6294 61.0012 28.6294C61.7101 28.6294 62.3332 28.7368 62.8703 28.8872C62.9348 28.9087 63.0422 28.9302 63.1281 28.9302C63.8801 28.9302 64.0519 28.2642 64.0519 27.4907C64.0519 27.1255 63.9875 26.7173 63.923 26.3735H66.6086C66.6516 26.6528 66.6945 26.9106 66.6945 27.1899C66.6945 28.9087 65.4484 29.7466 64.3312 29.7466C64.2023 29.7466 64.0734 29.7251 63.966 29.7036C64.9758 30.4341 65.5129 31.4653 65.5129 32.7974C65.5129 34.9243 63.8156 36.7505 60.8723 36.7505ZM60.9152 34.688C62.0754 34.688 62.7199 34.022 62.7199 32.6899C62.7199 31.3149 62.1184 30.6704 60.9367 30.6704C59.7766 30.6704 59.1535 31.272 59.1535 32.647C59.1535 34.0005 59.7551 34.688 60.9152 34.688ZM58.1867 41.4126C58.1867 42.5298 59.5617 42.8091 60.9797 42.8091C62.4836 42.8091 63.7512 42.5298 63.7512 41.6704C63.7512 40.5317 61.5383 40.6821 59.6906 40.4028C58.8527 40.3384 58.1867 40.7466 58.1867 41.4126ZM74.8531 40.188C74.5093 39.6294 74.187 39.0063 73.9507 38.147C73.3062 39.6724 71.8882 40.4243 70.3628 40.4243C68.6656 40.4243 67.312 39.522 67.312 37.5884C67.312 34.022 71.4156 34.3228 73.6499 33.27C73.521 31.6802 72.3823 31.272 70.9644 31.272C69.9761 31.272 68.9019 31.4653 67.8277 31.7017V29.102C69.0738 28.8013 70.2984 28.6294 71.3941 28.6294C74.3159 28.6294 76.4859 29.854 76.4859 33.3989V36.3208C76.4859 37.3735 76.5073 38.5122 76.7222 40.188H74.8531ZM70.2124 37.1157C70.2124 37.8462 70.6636 38.2114 71.3511 38.2114C72.3823 38.2114 73.6499 37.2446 73.6499 35.5044V35.0317C71.9741 35.8267 70.2124 35.5688 70.2124 37.1157ZM86.3121 31.6372C84.2496 31.5513 83.0465 31.981 82.5523 32.7974V40.188H79.5445V33.1411C79.5445 32.0454 79.523 30.606 79.3941 28.8657H81.3063C81.7145 29.4028 82.1012 30.3911 82.2945 31.3149C82.8316 29.5747 84.0348 28.6294 86.3121 28.6294V31.6372ZM97.7863 40.4243C94.4347 40.4243 92.0714 38.5767 92.0714 34.5161C92.0714 30.6489 94.5421 28.6294 97.9152 28.6294C98.6671 28.6294 99.4835 28.7368 100.3 28.9302V31.4438C99.5695 31.2935 98.8605 31.2075 98.2589 31.2075C96.3253 31.2075 95.0578 32.0239 95.0578 34.5376C95.0578 37.0513 96.3039 37.8462 98.216 37.8462C98.8605 37.8462 99.5695 37.7603 100.3 37.6099V40.1235C99.4191 40.2954 98.5812 40.4243 97.7863 40.4243ZM107.305 40.4243C103.695 40.4243 101.89 37.8677 101.89 34.645C101.89 31.2935 103.824 28.6294 107.519 28.6294C111.107 28.6294 112.933 31.186 112.933 34.4087C112.933 37.7603 111 40.4243 107.305 40.4243ZM107.412 38.0181C109.131 38.0181 109.947 36.6646 109.947 34.5161C109.947 32.3247 109.152 31.0356 107.412 31.0356C105.672 31.0356 104.855 32.3892 104.855 34.5376C104.855 36.729 105.672 38.0181 107.412 38.0181ZM122.981 33.4419C122.981 31.981 122.229 31.3364 121.004 31.3364C119.866 31.3364 119.071 31.8735 118.576 32.604V40.188H115.569V33.1411C115.569 32.0454 115.547 30.606 115.418 28.8657H117.33C117.717 29.3813 118.061 30.2622 118.276 31.1001C118.748 29.8325 119.887 28.6294 121.949 28.6294C124.27 28.6294 125.989 29.9185 125.989 32.9692V40.188H122.981V33.4419Z" fill="#1D1D1D"/>
<g clip-path="url(#clip2_10761_23531)">
<path d="M310.315 21.2534C306.173 21.2534 302.804 24.6228 302.804 28.7642V33.0549C302.804 33.1032 302.743 33.1865 302.699 33.1997C302.291 33.3357 301.962 33.4541 301.659 33.5682C301.299 33.7086 301.027 34.1078 301.027 34.4983V44.3519C301.027 44.7379 301.299 45.1372 301.655 45.2819C304.423 46.3787 307.336 46.9359 310.315 46.9359C313.294 46.9359 316.207 46.3787 318.975 45.2819C319.335 45.1415 319.603 44.7423 319.603 44.3519V34.4983C319.603 34.1078 319.331 33.7086 318.971 33.5682C318.668 33.4497 318.339 33.3357 317.931 33.1997C317.883 33.1821 317.826 33.1032 317.826 33.0549V28.7642C317.826 24.6228 314.456 21.2534 310.315 21.2534ZM308.271 37.4991C308.271 36.3672 309.187 35.4547 310.315 35.4547C311.442 35.4547 312.359 36.3716 312.359 37.4991C312.359 38.2493 311.938 38.8767 311.337 39.232V42.6145C311.337 43.1805 310.881 43.6367 310.315 43.6367C309.749 43.6367 309.293 43.1805 309.293 42.6145V39.232C308.692 38.8767 308.271 38.2493 308.271 37.4991ZM315.242 28.7642V32.467C313.627 32.1204 311.969 31.9449 310.315 31.9449C308.661 31.9449 307.007 32.1204 305.388 32.467V28.7686C305.388 26.053 307.599 23.8418 310.315 23.8418C313.031 23.8375 315.242 26.0442 315.242 28.7642Z" fill="#1D1D1D"/>
</g>
<path d="M160.143 36.4248C160.096 36.6555 160.049 36.8886 160.001 37.1194C158.814 37.3172 157.622 37.449 156.43 37.522C157.695 37.1806 158.935 36.8204 160.143 36.4248Z" fill="#ED1C27"/>
<path d="M186.68 13.7543C183.284 23.0962 176.292 31.5298 166.855 35.236C166.855 35.236 167.234 33.3841 167.237 33.3841C174.897 29.0214 180.124 21.209 182.237 12.8272C182.983 12.4225 185.02 11.2671 185.02 11.2671C185.02 11.2671 186.095 12.8531 186.68 13.7543Z" fill="#ED1C27"/>
<path d="M170.607 16.9628C170.676 16.6239 170.783 16.4122 171.169 16.3839C172.822 16.2545 174.473 15.9886 176.121 16.0027C178.158 16.0168 179.506 17.4452 179.771 19.6101C180.821 17.4334 181.645 15.1579 182.235 12.826C182.206 12.8048 182.178 12.786 182.149 12.7672C180.522 11.6636 178.663 11.3671 176.754 11.2871C172.853 11.1176 169.075 11.8706 165.342 12.8942C165.143 12.9507 164.913 13.2519 164.866 13.4755C164.537 15.0709 158.703 43.4684 158.703 43.4684H163.068C164.298 43.4684 165.352 42.5271 165.6 41.3176C165.603 41.3223 170.323 18.3582 170.607 16.9628Z" fill="#1D1D1D"/>
<path d="M185.399 16.8716C181.922 24.3992 176.083 31.0139 168.504 34.5294C180.78 38.0144 188.859 26.0111 185.399 16.8716Z" fill="#1D1D1D"/>
<path d="M157.184 22.862C148.269 14.3037 133.07 24.0715 135.507 35.7101C137.023 42.9506 144.91 44.5578 151.294 42.8495C155.344 41.767 154.861 37.8632 154.861 37.8632C149.78 39.0303 140.112 37.9808 140.905 34.1241C144.813 35.2136 150.77 35.4724 154.951 33.3381C160.405 30.552 159.475 25.4175 157.184 22.862ZM153.447 27.74C152.085 30.5332 144.302 30.5097 141.5 29.6931C143.257 25.7305 147.878 23.3632 152.116 25.0787C153.395 25.5987 153.963 26.6717 153.447 27.74Z" fill="#1D1D1D"/>
<path d="M213.318 21.4053C209.543 20.1746 205.014 19.6099 201.698 19.6099C192.922 19.6099 187.399 27.4575 187.657 34.3428C187.757 36.9853 188.65 42.9834 196.686 43.6729C198.917 43.8635 201.047 43.5788 202.911 42.2093C202.925 42.1975 203.055 42.0822 203.024 42.2469C202.958 42.6305 202.809 43.4729 202.809 43.4729C202.809 43.4729 206.999 43.4729 208.986 43.4729C209.36 43.4729 209.412 43.2164 209.467 42.9552C210.895 36.0135 212.333 29.0859 213.744 22.1395C213.834 21.7018 213.747 21.5418 213.318 21.4053ZM206.508 25.5421C205.755 29.1212 205.026 32.705 204.265 36.2864C204.199 36.5947 204.038 36.8747 203.801 37.0842C201.996 38.6796 199.893 39.2043 197.543 38.6678C193.038 37.6395 193.777 31.2931 195.355 28.2317C196.793 25.4456 200.042 23.8714 203.351 24.2973C206.662 24.7208 206.594 25.1256 206.508 25.5421Z" fill="#1D1D1D"/>
<path d="M290.581 27.9846C290.119 22.5066 285.765 19.6099 280.54 19.6099C269.583 19.6099 265.964 28.7047 266.298 35.0252C266.618 41.0939 272.021 43.92 277.464 43.4141C282.521 43.1152 286.32 40.8209 288.669 36.3265C290.029 33.7215 290.91 30.9754 290.581 27.9846ZM275.469 38.2772C270.647 37.2912 272.281 30.9543 273.288 29.0859C275.718 24.5726 279.029 24.3655 280.912 24.662C283.399 25.0503 284.811 26.8151 284.671 29.7965C284.46 34.3098 281.08 39.4232 275.469 38.2772Z" fill="#1D1D1D"/>
<path d="M213.25 54.0345L214.067 50.013C214.19 49.5424 214.633 49.2072 215.119 49.193C217.568 49.124 218.406 48.6962 219.631 47.3605C220.566 46.1673 221.275 45.2095 222.061 44.1066C222.165 43.9616 222.175 43.7026 222.137 43.5124C220.81 36.7552 217.464 19.6114 217.464 19.6114C217.464 19.6114 223.565 19.5567 223.949 22.0143C224.685 26.7204 226.429 36.2347 226.512 36.6102C226.727 36.237 232.433 26.4066 235.102 21.6934C236.412 19.3808 241.403 19.6114 243.051 19.6114C238.132 27.8612 228.577 43.8594 227.087 46.3456C223.217 52.7962 219.811 54.0844 216.244 54.0393C215.273 54.0274 213.25 54.0345 213.25 54.0345Z" fill="#1D1D1D"/>
<path d="M261.85 36.8934C261.505 38.5712 260.877 41.6232 260.856 41.7315C260.82 41.9103 260.744 42.108 260.505 42.1974C257.21 43.421 253.693 43.9975 250.493 42.8704C240.138 39.2277 242.918 22.6971 253.733 20.0663C259.044 18.7744 264.34 20.6451 264.598 20.7251C264.899 20.8193 265.086 21.1205 265.024 21.4264C264.837 22.3464 264.243 25.2596 264.217 25.3655C261.22 24.4031 258.072 23.7065 255.012 24.7749C248.93 26.9021 247.608 37.2699 253.657 38.4842C256.557 39.0677 259.209 38.0465 261.85 36.8934Z" fill="#1D1D1D"/>
<path d="M247.222 52.5131C248.06 52.6847 250.128 52.6313 250.175 51.3196C250.175 50.7935 249.475 50.3016 248.811 50.1605C247.989 49.9889 247.466 49.9851 246.636 50.1605C246.125 50.3512 245.968 49.8631 246.432 49.6992C247.313 49.3865 250.749 49.3217 250.91 51.3196C250.769 53.2947 247.769 53.1536 247.093 53.0202C246.825 52.9706 246.621 52.8486 246.621 52.5207V50.8773C246.621 50.4884 247.218 50.4922 247.218 50.8773V52.5131H247.222Z" fill="#ED1C27"/>
<path d="M253.678 50.1993C253.009 50.1993 251.885 52.1782 251.551 52.8874C251.354 53.3107 250.725 53.0094 250.926 52.5824C251.28 51.8198 252.62 49.5168 253.67 49.5397C254.72 49.5207 256.06 51.8198 256.414 52.5824C256.611 53.0094 255.986 53.3107 255.789 52.8874C255.459 52.1782 254.342 50.1993 253.678 50.1993Z" fill="#ED1C27"/>
<path d="M258.356 52.4285C259.025 52.4285 260.149 50.4496 260.479 49.7404C260.676 49.3172 261.305 49.6184 261.104 50.0416C260.751 50.8042 259.41 53.1072 258.36 53.0881C257.31 53.1072 255.97 50.808 255.616 50.0416C255.419 49.6146 256.044 49.3134 256.245 49.7404C256.575 50.4496 257.688 52.4285 258.356 52.4285Z" fill="#ED1C27"/>
<path d="M262.239 49.8793V52.7619C262.239 53.1927 261.566 53.1775 261.566 52.7466V49.8717C261.566 49.4256 262.239 49.4218 262.239 49.8793Z" fill="#ED1C27"/>
<path d="M265.454 52.4285C266.122 52.4285 267.247 50.4496 267.577 49.7404C267.774 49.3172 268.403 49.6184 268.202 50.0416C267.844 50.8042 266.504 53.1072 265.454 53.0881C264.404 53.1072 263.063 50.808 262.71 50.0416C262.513 49.6146 263.138 49.3134 263.335 49.7404C263.665 50.4496 264.778 52.4285 265.446 52.4285" fill="#ED1C27"/>
<path d="M270.615 51.6125C270.811 52.0167 271.373 52.3446 271.916 52.459C272.734 52.6344 273.257 52.6344 274.086 52.459C274.582 52.3027 274.755 52.7679 274.287 52.9204C273.367 53.2216 269.993 53.3283 269.797 51.3228C269.907 49.4125 272.6 49.4621 273.63 49.5955C274.133 49.6603 274.031 50.1751 273.504 50.0683C272.816 49.9806 270.945 49.8739 270.579 51.0749H272.498C272.797 51.0749 272.797 51.6125 272.498 51.6125H270.615Z" fill="#ED1C27"/>
<path d="M281.312 52.516C282.15 52.6876 284.218 52.6342 284.265 51.3226C284.265 50.7964 283.565 50.3045 282.897 50.1635C282.079 49.9919 281.556 49.9881 280.726 50.1635C280.215 50.3541 280.058 49.866 280.522 49.7021C281.407 49.3894 284.839 49.3246 285 51.3226C284.858 53.2977 281.859 53.1566 281.186 53.0231C280.919 52.9736 280.715 52.8515 280.715 52.5236V50.8803C280.715 50.4914 281.312 50.4952 281.312 50.8803V52.516Z" fill="#ED1C27"/>
<path d="M287.77 50.1993C287.102 50.1993 285.974 52.1782 285.643 52.8874C285.447 53.3107 284.822 53.0094 285.018 52.5824C285.376 51.8198 286.717 49.5168 287.762 49.5397C288.812 49.5207 290.153 51.8198 290.507 52.5824C290.703 53.0094 290.078 53.3107 289.882 52.8874C289.551 52.1782 288.439 50.1993 287.77 50.1993Z" fill="#ED1C27"/>
<path d="M269.332 49.8793V52.7619C269.332 53.1927 268.66 53.1775 268.66 52.7466V49.8717C268.66 49.4256 269.332 49.4218 269.332 49.8793Z" fill="#ED1C27"/>
<path d="M277.41 51.9018C276.993 51.1659 276.537 50.1898 276.222 50.1669C275.448 50.1669 275.798 51.6463 275.786 52.8016C275.782 53.2096 275.113 53.2096 275.113 52.7559C275.113 51.2841 274.787 49.5264 276.238 49.5264C276.663 49.5264 277.063 50.144 277.425 50.7236C277.842 51.4633 278.337 52.4394 278.648 52.4623C279.423 52.4623 279.053 51.0134 279.069 49.8581C279.073 49.4501 279.741 49.4501 279.741 49.9038C279.741 51.3794 280.087 53.1067 278.636 53.1067C278.208 53.1067 277.771 52.489 277.41 51.9056" fill="#ED1C27"/>
<path fill-rule="evenodd" clip-rule="evenodd" d="M237.901 50.2422C237.915 50.3513 237.901 50.8184 237.462 51.4595C237.001 52.1653 237.729 53.3451 239.198 53.045C239.522 53.1576 239.87 53.1746 240.095 53.1712C240.32 53.1712 240.672 53.1576 240.995 53.0485C242.465 53.3485 243.189 52.1653 242.728 51.4595C242.285 50.8219 242.275 50.3513 242.289 50.2422H237.908H237.901Z" fill="#E5252B"/>
<path fill-rule="evenodd" clip-rule="evenodd" d="M240.089 53.1628C238.657 53.1253 238.397 52.4854 238.79 52.3527C239.022 52.2744 239.324 52.145 239.324 52.145C239.169 51.4234 239.422 50.501 240.093 50.5044C240.763 50.5044 241.005 51.4541 240.854 52.1621C240.854 52.1621 241.16 52.2676 241.384 52.3561C241.76 52.4956 241.521 53.1287 240.089 53.1662" fill="#0682C4"/>
<path fill-rule="evenodd" clip-rule="evenodd" d="M239.553 52.6594C239.171 51.6297 239.508 50.6646 240.093 50.6646C240.65 50.6679 241.028 51.6025 240.636 52.656C240.636 52.656 240.45 52.6152 240.075 52.6152C239.795 52.6152 239.557 52.6594 239.557 52.6594" fill="#FFE11B"/>
<path fill-rule="evenodd" clip-rule="evenodd" d="M240.085 53.1781C240.663 53.1781 241.115 53.0591 241.115 52.8925C241.115 52.7259 240.663 52.6035 240.085 52.6035C239.507 52.6035 239.055 52.7225 239.055 52.8925C239.055 53.0625 239.507 53.1781 240.085 53.1781Z" fill="#F49824"/>
<path fill-rule="evenodd" clip-rule="evenodd" d="M238.181 50.7539H238.875C238.984 50.7539 239.072 50.839 239.072 50.9446V51.3976C239.072 51.5065 238.984 51.5917 238.875 51.5917H238.181C238.072 51.5917 237.98 51.5065 237.98 51.3976V50.9446C237.98 50.839 238.068 50.7539 238.181 50.7539Z" fill="#0682C4"/>
<path d="M238.26 50.8667H238.805C238.889 50.8667 238.956 50.9312 238.956 51.0092V51.3383C238.956 51.4198 238.889 51.4842 238.805 51.4842H238.26C238.176 51.4842 238.109 51.4198 238.109 51.3383V51.0092C238.109 50.9312 238.176 50.8667 238.26 50.8667Z" fill="#231F20"/>
<path fill-rule="evenodd" clip-rule="evenodd" d="M238.956 51.252C238.709 51.2284 238.626 50.9493 238.605 50.8618H238.807C238.89 50.8618 238.956 50.9257 238.956 51.0031V51.2486V51.252Z" fill="#FFE11B"/>
<path fill-rule="evenodd" clip-rule="evenodd" d="M238.463 50.8667C238.449 50.9474 238.369 51.2434 238.109 51.2568V51.008C238.109 50.9306 238.175 50.8667 238.258 50.8667H238.463Z" fill="#FFE11B"/>
<path fill-rule="evenodd" clip-rule="evenodd" d="M241.31 50.7539H242.001C242.11 50.7539 242.201 50.839 242.201 50.9446V51.3976C242.201 51.5065 242.114 51.5917 242.001 51.5917H241.31C241.201 51.5917 241.113 51.5065 241.113 51.3976V50.9446C241.113 50.839 241.201 50.7539 241.31 50.7539Z" fill="#0682C4"/>
<path d="M241.389 50.8667H241.938C242.022 50.8667 242.088 50.9312 242.088 51.0092V51.3383C242.088 51.4198 242.022 51.4842 241.938 51.4842H241.389C241.309 51.4842 241.242 51.4198 241.242 51.3383V51.0092C241.242 50.9312 241.309 50.8667 241.389 50.8667Z" fill="#231F20"/>
<path fill-rule="evenodd" clip-rule="evenodd" d="M242.084 51.252C241.838 51.2284 241.755 50.9493 241.734 50.8618H241.939C242.022 50.8618 242.088 50.9257 242.088 51.0031V51.2486L242.084 51.252Z" fill="#FFE11B"/>
<path fill-rule="evenodd" clip-rule="evenodd" d="M241.592 50.8667C241.574 50.9474 241.498 51.2434 241.238 51.2568V51.008C241.238 50.9306 241.304 50.8667 241.384 50.8667H241.592Z" fill="#FFE11B"/>
<path fill-rule="evenodd" clip-rule="evenodd" d="M241.532 48.4878C241.459 48.2472 241.445 48.1286 241.672 48.1286H242.172C242.475 48.1218 242.35 48.3523 242.322 48.576C242.283 48.8708 242.283 48.9623 242.283 48.9623C242.283 48.9623 241.532 48.4946 241.532 48.4912" fill="#E5252B"/>
<path fill-rule="evenodd" clip-rule="evenodd" d="M240.086 50.2182C239.337 50.2182 238.31 50.2829 237.649 50.3307C237.143 50.3682 236.749 49.9931 237.087 49.6385C237.808 48.8815 239.562 47.9302 240.093 47.9302C240.659 47.9302 242.378 48.8815 243.099 49.6385C243.437 49.9931 243.099 50.3307 242.586 50.3307C242.02 50.3307 240.835 50.2182 240.086 50.2182Z" fill="#F49824"/>
<path d="M240.496 51.9133C240.496 51.8598 240.537 51.8164 240.592 51.8164C240.648 51.8164 240.685 51.8598 240.685 51.9133C240.685 51.9667 240.644 52.0068 240.592 52.0068C240.541 52.0068 240.496 51.9634 240.496 51.9133Z" fill="#231F20"/>
<path fill-rule="evenodd" clip-rule="evenodd" d="M240.089 52.5874C239.79 52.5874 239.551 52.6317 239.551 52.6317C239.196 51.6258 239.52 50.6813 240.089 50.6813C240.659 50.6813 240.986 51.6293 240.627 52.6317C240.627 52.6317 240.399 52.5874 240.089 52.5874ZM240.617 52.6658C240.912 52.7102 241.109 52.7954 241.109 52.8909C241.109 53.0341 240.655 53.1534 240.093 53.1534C239.53 53.1534 239.077 53.0341 239.077 52.8909C239.077 52.7954 239.27 52.7102 239.565 52.6658C239.565 52.6658 239.885 52.6283 240.093 52.6283C240.3 52.6283 240.62 52.6658 240.62 52.6658M240.662 52.6352C241.035 51.5918 240.673 50.6336 240.093 50.637C239.513 50.637 239.15 51.5952 239.523 52.6352C239.235 52.6897 239.045 52.7818 239.045 52.8909C239.045 52.925 239.066 52.9557 239.101 52.9864C238.616 52.7818 238.57 52.4442 238.837 52.3521C239.066 52.2737 239.347 52.168 239.347 52.168C239.2 51.4656 239.428 50.5245 240.096 50.5245C240.764 50.5245 240.993 51.4656 240.842 52.168C240.842 52.168 241.119 52.2771 241.351 52.3521C241.612 52.4374 241.573 52.775 241.091 52.9829C241.126 52.9523 241.144 52.9216 241.144 52.8875C241.144 52.7818 240.954 52.6863 240.666 52.6317M241.562 48.482C241.506 48.2604 241.503 48.1683 241.699 48.1683H242.132C242.417 48.1649 242.301 48.3763 242.276 48.5911C242.262 48.7207 242.251 48.8264 242.248 48.9048C242.019 48.748 241.787 48.6082 241.566 48.482M241.063 53.0375C242.441 53.2626 243.113 52.1441 242.673 51.4656C242.332 50.9746 242.251 50.562 242.241 50.3506C241.337 50.3063 240.715 50.2619 240.093 50.2551C239.47 50.2619 238.848 50.3063 237.944 50.3506C237.93 50.562 237.849 50.9746 237.508 51.4656C237.069 52.1441 237.74 53.2626 239.119 53.0375C238.535 52.8227 238.461 52.4578 238.774 52.3385C239.003 52.2533 239.309 52.1441 239.309 52.1441C239.157 51.4213 239.421 50.4665 240.089 50.4665C240.761 50.4665 241.024 51.4179 240.87 52.1441C240.87 52.1441 241.176 52.2533 241.404 52.3385C241.717 52.4544 241.643 52.8227 241.06 53.0375M240.093 50.1665C239.316 50.1767 238.581 50.2312 237.716 50.2858C237.178 50.3199 236.876 49.9721 237.213 49.6107C237.712 49.0821 239.418 47.991 240.093 47.991C240.768 47.991 242.469 49.0821 242.972 49.6107C243.31 49.9687 243.007 50.3199 242.473 50.2858C241.608 50.2312 240.87 50.1801 240.096 50.1665M241.464 48.424C241.457 48.4036 241.45 48.3797 241.446 48.3593C241.408 48.2297 241.446 48.0865 241.675 48.0865H242.178C242.473 48.0865 242.441 48.2842 242.389 48.4752C242.353 48.6116 242.325 48.7855 242.311 48.9492C242.311 48.9492 242.723 49.2424 242.951 49.4299C243.668 50.0198 243.201 50.4017 242.515 50.371C242.445 50.3676 242.378 50.3642 242.311 50.3608C242.315 50.5552 242.374 50.9166 242.691 51.3292C243.486 52.2533 242.431 53.4126 240.944 53.0852C240.697 53.1637 240.307 53.2012 240.093 53.2012C239.878 53.2012 239.488 53.1637 239.238 53.0852C237.751 53.4126 236.696 52.2533 237.491 51.3292C237.807 50.92 237.867 50.5586 237.871 50.3608L237.67 50.371C236.985 50.4051 236.517 50.0198 237.234 49.4299C238.303 48.557 239.593 47.9092 240.093 47.9058C240.367 47.9058 240.88 48.1069 241.464 48.4275" fill="#231F20"/>
<path d="M238.871 51.6104H238.178C238.055 51.6104 237.957 51.5153 237.957 51.3964V50.9445C237.957 50.829 238.055 50.7339 238.178 50.7339H238.871C238.99 50.7339 239.088 50.829 239.088 50.9445V51.3964C239.088 51.5153 238.99 51.6104 238.871 51.6104ZM238.181 50.7747C238.083 50.7747 238.003 50.8528 238.003 50.9445V51.3964C238.003 51.4915 238.083 51.5697 238.181 51.5697H238.874C238.972 51.5697 239.049 51.4915 239.049 51.3964V50.9445C239.049 50.8494 238.969 50.7747 238.874 50.7747H238.181Z" fill="#231F20"/>
<path d="M242.005 51.6104H241.315C241.196 51.6104 241.098 51.5153 241.098 51.3964V50.9445C241.098 50.829 241.196 50.7339 241.315 50.7339H242.005C242.127 50.7339 242.225 50.829 242.225 50.9445V51.3964C242.225 51.5153 242.127 51.6104 242.005 51.6104ZM241.311 50.7747C241.213 50.7747 241.136 50.8528 241.136 50.9445V51.3964C241.136 51.4915 241.217 51.5697 241.311 51.5697H242.001C242.099 51.5697 242.18 51.4915 242.18 51.3964V50.9445C242.18 50.8494 242.099 50.7747 242.001 50.7747H241.311Z" fill="#231F20"/>
</g>
</g>
<defs>
<filter id="filter0_f_10761_23531" x="189.695" y="-69.0797" width="238.236" height="184.434" filterUnits="userSpaceOnUse" color-interpolation-filters="sRGB">
<feFlood flood-opacity="0" result="BackgroundImageFix"/>
<feBlend mode="normal" in="SourceGraphic" in2="BackgroundImageFix" result="shape"/>
<feGaussianBlur stdDeviation="25.1898" result="effect1_foregroundBlur_10761_23531"/>
</filter>
<filter id="filter1_f_10761_23531" x="-94.0905" y="-102.951" width="235.556" height="232.318" filterUnits="userSpaceOnUse" color-interpolation-filters="sRGB">
<feFlood flood-opacity="0" result="BackgroundImageFix"/>
<feBlend mode="normal" in="SourceGraphic" in2="BackgroundImageFix" result="shape"/>
<feGaussianBlur stdDeviation="25.1898" result="effect1_foregroundBlur_10761_23531"/>
</filter>
<clipPath id="clip0_10761_23531">
<rect width="361.622" height="63.6886" rx="19.4304" fill="white"/>
</clipPath>
<clipPath id="clip1_10761_23531">
<rect width="361.622" height="63.6886" rx="19.4304" fill="white"/>
</clipPath>
<clipPath id="clip2_10761_23531">
<rect width="18.5753" height="25.6825" fill="white" transform="translate(301.039 21.2544)"/>
</clipPath>
</defs>
</svg>
