<svg width="380" height="75" viewBox="0 0 380 75" fill="none" xmlns="http://www.w3.org/2000/svg">
<g clip-path="url(#clip0_10765_22245)">
<rect width="375.697" height="124.511" transform="translate(-5.37891 0.0371094)" fill="#F8991D"/>
<mask id="mask0_10765_22245" style="mask-type:alpha" maskUnits="userSpaceOnUse" x="-2" y="3" width="382" height="69">
<rect x="-1.10547" y="3.79883" width="380.139" height="67.6959" rx="18.8767" fill="#00126D"/>
</mask>
<g mask="url(#mask0_10765_22245)">
<rect x="-1.10547" y="3.79883" width="380.139" height="67.6959" rx="11.2827" fill="#00126D"/>
<ellipse cx="28.2605" cy="6.03571" rx="355.936" ry="111.894" fill="url(#paint0_radial_10765_22245)"/>
<ellipse cx="341.276" cy="10.8391" rx="441.639" ry="70.8264" fill="url(#paint1_radial_10765_22245)"/>
<ellipse cx="395.507" cy="42.9632" rx="355.936" ry="22.9383" fill="url(#paint2_radial_10765_22245)"/>
<ellipse cx="317.413" cy="67.5782" rx="355.936" ry="35.2466" fill="url(#paint3_radial_10765_22245)"/>
<ellipse cx="23.116" cy="93.0349" rx="355.936" ry="47.8347" fill="url(#paint4_radial_10765_22245)"/>
<ellipse cx="-8.83322" cy="77.8414" rx="355.936" ry="38.044" fill="url(#paint5_radial_10765_22245)"/>
<ellipse cx="-8.83322" cy="48.4986" rx="355.936" ry="38.044" fill="url(#paint6_radial_10765_22245)"/>
<ellipse cx="70.0872" cy="-16.5501" rx="165.615" ry="46.9567" fill="url(#paint7_radial_10765_22245)"/>
</g>
<rect x="11.9805" y="7.62549" width="356.094" height="59.5685" rx="5.44611" fill="black"/>
<path d="M42.344 45.7881V30.4239H47.9682C51.653 30.4239 53.4631 32.3417 53.4631 35.4232C53.4631 38.871 51.3083 40.9612 47.882 40.9612H45.3824V45.7881H42.344ZM45.3824 38.44H47.6665C49.3258 38.44 50.3386 37.4703 50.3386 35.5955C50.3386 33.8501 49.3904 33.0743 47.7312 33.0743H45.3824V38.44ZM62.6734 45.7881C62.3286 45.2278 62.0053 44.6029 61.7683 43.741C61.1218 45.2709 59.6996 46.0251 58.1697 46.0251C56.4673 46.0251 55.1098 45.1201 55.1098 43.1807C55.1098 39.6036 59.2256 39.9053 61.4666 38.8494C61.3373 37.2548 60.1953 36.8454 58.773 36.8454C57.7818 36.8454 56.7044 37.0393 55.6269 37.2763V34.669C56.8768 34.3673 58.105 34.1949 59.204 34.1949C62.1346 34.1949 64.3111 35.4232 64.3111 38.9787V41.9093C64.3111 42.9652 64.3326 44.1073 64.5481 45.7881H62.6734ZM58.0188 42.7066C58.0188 43.4393 58.4714 43.8056 59.1609 43.8056C60.1953 43.8056 61.4666 42.8359 61.4666 41.0905V40.6164C59.7858 41.4137 58.0188 41.1551 58.0188 42.7066ZM70.9991 42.3403C70.7189 42.3403 70.4388 42.3187 70.1587 42.2972C69.8354 42.4696 69.7061 42.7497 69.7061 43.0514C69.7061 43.8272 70.8482 43.8487 72.3351 43.978C74.5115 44.1504 76.9034 44.5383 76.9034 47.0595C76.9034 49.4729 74.3391 50.6365 70.8698 50.6365C67.7237 50.6365 65.5472 49.7746 65.5472 47.7059C65.5472 46.0898 67.1849 45.3787 68.521 45.4864C67.7668 45.1632 67.2711 44.6029 67.2711 43.8703C67.2711 42.879 68.1115 42.2756 69.1028 42.0602C67.3789 41.4783 66.4738 40.0561 66.4738 38.246C66.4738 35.9188 68.1762 34.1949 71.1284 34.1949C71.8395 34.1949 72.4644 34.3026 73.0031 34.4535C73.0677 34.475 73.1755 34.4966 73.2617 34.4966C74.0159 34.4966 74.1883 33.8286 74.1883 33.0528C74.1883 32.6865 74.1236 32.277 74.059 31.9323H76.7526C76.7957 32.2124 76.8388 32.471 76.8388 32.7511C76.8388 34.475 75.5889 35.3154 74.4684 35.3154C74.3391 35.3154 74.2098 35.2939 74.1021 35.2723C75.1149 36.005 75.6536 37.0393 75.6536 38.3753C75.6536 40.5087 73.9512 42.3403 70.9991 42.3403ZM71.0422 40.2716C72.2058 40.2716 72.8523 39.6036 72.8523 38.2676C72.8523 36.8885 72.2489 36.242 71.0637 36.242C69.9001 36.242 69.2752 36.8454 69.2752 38.2245C69.2752 39.5821 69.8785 40.2716 71.0422 40.2716ZM68.3055 47.0164C68.3055 48.1369 69.6846 48.417 71.1068 48.417C72.6152 48.417 73.8866 48.1369 73.8866 47.2749C73.8866 46.1329 71.6671 46.2837 69.8139 46.0036C68.9735 45.9389 68.3055 46.3484 68.3055 47.0164ZM85.0217 45.7881C84.6769 45.2278 84.3537 44.6029 84.1167 43.741C83.4702 45.2709 82.048 46.0251 80.518 46.0251C78.8157 46.0251 77.4581 45.1201 77.4581 43.1807C77.4581 39.6036 81.5739 39.9053 83.815 38.8494C83.6857 37.2548 82.5436 36.8454 81.1214 36.8454C80.1302 36.8454 79.0527 37.0393 77.9753 37.2763V34.669C79.2251 34.3673 80.4534 34.1949 81.5524 34.1949C84.483 34.1949 86.6594 35.4232 86.6594 38.9787V41.9093C86.6594 42.9652 86.681 44.1073 86.8965 45.7881H85.0217ZM80.3672 42.7066C80.3672 43.4393 80.8197 43.8056 81.5093 43.8056C82.5436 43.8056 83.815 42.8359 83.815 41.0905V40.6164C82.1342 41.4137 80.3672 41.1551 80.3672 42.7066ZM96.5151 37.2117C94.4464 37.1255 93.2397 37.5565 92.7441 38.3753V45.7881H89.7272V38.7201C89.7272 37.6211 89.7057 36.1774 89.5764 34.4319H91.4942C91.9037 34.9706 92.2915 35.9619 92.4855 36.8885C93.0242 35.143 94.2309 34.1949 96.5151 34.1949V37.2117ZM108.024 46.0251C104.662 46.0251 102.292 44.1719 102.292 40.0992C102.292 36.2205 104.77 34.1949 108.153 34.1949C108.907 34.1949 109.726 34.3026 110.545 34.4966V37.0178C109.812 36.8669 109.101 36.7807 108.498 36.7807C106.558 36.7807 105.287 37.5996 105.287 40.1208C105.287 42.642 106.537 43.4393 108.455 43.4393C109.101 43.4393 109.812 43.3531 110.545 43.2022V45.7234C109.661 45.8958 108.821 46.0251 108.024 46.0251ZM117.57 46.0251C113.95 46.0251 112.14 43.4608 112.14 40.2285C112.14 36.8669 114.079 34.1949 117.786 34.1949C121.384 34.1949 123.216 36.7592 123.216 39.9915C123.216 43.3531 121.277 46.0251 117.57 46.0251ZM117.678 43.6117C119.402 43.6117 120.221 42.2541 120.221 40.0992C120.221 37.9013 119.424 36.6083 117.678 36.6083C115.933 36.6083 115.114 37.9659 115.114 40.1208C115.114 42.3187 115.933 43.6117 117.678 43.6117ZM133.294 39.0218C133.294 37.5565 132.539 36.91 131.311 36.91C130.169 36.91 129.372 37.4487 128.876 38.1814V45.7881H125.859V38.7201C125.859 37.6211 125.838 36.1774 125.708 34.4319H127.626C128.014 34.9491 128.359 35.8326 128.574 36.673C129.048 35.4016 130.19 34.1949 132.259 34.1949C134.586 34.1949 136.31 35.4878 136.31 38.5477V45.7881H133.294V39.0218Z" fill="white"/>
<g clip-path="url(#clip1_10765_22245)">
<path d="M321.194 26.8628C317.04 26.8628 313.661 30.2422 313.661 34.3961V38.6996C313.661 38.748 313.599 38.8316 313.555 38.8448C313.146 38.9812 312.816 39.1 312.513 39.2144C312.152 39.3553 311.879 39.7557 311.879 40.1473V50.0304C311.879 50.4176 312.152 50.818 312.508 50.9632C315.285 52.0633 318.207 52.6222 321.194 52.6222C324.182 52.6222 327.104 52.0633 329.881 50.9632C330.241 50.8224 330.51 50.422 330.51 50.0304V40.1473C330.51 39.7557 330.237 39.3553 329.876 39.2144C329.573 39.0956 329.242 38.9812 328.833 38.8448C328.785 38.8272 328.728 38.748 328.728 38.6996V34.3961C328.728 30.2422 325.348 26.8628 321.194 26.8628ZM319.144 43.1571C319.144 42.0218 320.063 41.1066 321.194 41.1066C322.325 41.1066 323.245 42.0262 323.245 43.1571C323.245 43.9096 322.822 44.5388 322.22 44.8952V48.2879C322.22 48.8555 321.762 49.3131 321.194 49.3131C320.627 49.3131 320.169 48.8555 320.169 48.2879V44.8952C319.566 44.5388 319.144 43.9096 319.144 43.1571ZM326.136 34.3961V38.11C324.517 37.7623 322.853 37.5863 321.194 37.5863C319.535 37.5863 317.877 37.7623 316.253 38.11V34.4005C316.253 31.6767 318.471 29.459 321.194 29.459C323.918 29.4546 326.136 31.6679 326.136 34.3961Z" fill="white"/>
</g>
<path d="M170.022 42.125C169.974 42.3564 169.927 42.5902 169.879 42.8217C168.688 43.02 167.493 43.1523 166.297 43.2255C167.566 42.8831 168.809 42.5217 170.022 42.125Z" fill="#ED1C27"/>
<path d="M196.638 19.3868C193.231 28.7567 186.219 37.2155 176.754 40.9328C176.754 40.9328 177.134 39.0753 177.136 39.0753C184.819 34.6996 190.062 26.8638 192.181 18.4569C192.93 18.0509 194.973 16.8921 194.973 16.8921C194.973 16.8921 196.051 18.4828 196.638 19.3868Z" fill="#ED1C27"/>
<path d="M180.518 22.6049C180.587 22.265 180.694 22.0526 181.081 22.0243C182.739 21.8944 184.395 21.6277 186.049 21.6419C188.092 21.6561 189.443 23.0887 189.71 25.26C190.762 23.0769 191.589 20.7946 192.18 18.4557C192.152 18.4344 192.123 18.4156 192.095 18.3967C190.463 17.2898 188.598 16.9924 186.683 16.9121C182.77 16.7422 178.981 17.4974 175.237 18.5241C175.038 18.5808 174.807 18.8829 174.76 19.1071C174.429 20.7073 168.578 49.1898 168.578 49.1898H172.956C174.189 49.1898 175.247 48.2457 175.496 47.0326C175.498 47.0373 180.233 24.0044 180.518 22.6049Z" fill="white"/>
<path d="M195.352 22.5132C191.864 30.0634 186.008 36.6978 178.406 40.2239C190.719 43.7193 198.823 31.6801 195.352 22.5132Z" fill="white"/>
<path d="M167.055 28.5217C158.113 19.9377 142.868 29.7348 145.313 41.4082C146.833 48.6704 154.744 50.2824 161.146 48.5689C165.209 47.4832 164.724 43.5677 164.724 43.5677C159.628 44.7384 149.931 43.6857 150.727 39.8174C154.647 40.9102 160.621 41.1698 164.814 39.0291C170.286 36.2347 169.352 31.0848 167.055 28.5217ZM163.306 33.4143C161.94 36.2158 154.133 36.1922 151.323 35.3732C153.086 31.3987 157.721 29.0244 161.971 30.7449C163.254 31.2665 163.824 32.3428 163.306 33.4143Z" fill="white"/>
<path d="M223.356 27.0606C219.569 25.8262 215.027 25.2598 211.701 25.2598C202.899 25.2598 197.359 33.1309 197.618 40.0368C197.718 42.6873 198.613 48.7033 206.674 49.3949C208.912 49.586 211.048 49.3004 212.917 47.9268C212.932 47.915 213.062 47.7994 213.031 47.9646C212.965 48.3493 212.815 49.1942 212.815 49.1942C212.815 49.1942 217.018 49.1942 219.011 49.1942C219.386 49.1942 219.438 48.937 219.493 48.675C220.926 41.7125 222.368 34.7642 223.783 27.7969C223.874 27.358 223.786 27.1975 223.356 27.0606ZM216.526 31.2098C215.77 34.7996 215.039 38.3941 214.276 41.9863C214.21 42.2955 214.048 42.5763 213.81 42.7864C212 44.3866 209.891 44.9129 207.534 44.3748C203.016 43.3434 203.757 36.978 205.339 33.9074C206.781 31.113 210.04 29.534 213.359 29.9612C216.68 30.3861 216.611 30.792 216.526 31.2098Z" fill="white"/>
<path d="M300.849 33.6596C300.386 28.1651 296.019 25.2598 290.778 25.2598C279.789 25.2598 276.159 34.3818 276.494 40.7212C276.814 46.8081 282.233 49.6427 287.692 49.1352C292.764 48.8355 296.575 46.5343 298.932 42.0264C300.295 39.4137 301.179 36.6594 300.849 33.6596ZM285.692 43.983C280.855 42.9941 282.495 36.6381 283.504 34.7642C285.942 30.2374 289.263 30.0297 291.151 30.327C293.646 30.7165 295.062 32.4866 294.922 35.4769C294.71 40.0037 291.32 45.1324 285.692 43.983Z" fill="white"/>
<path d="M223.289 59.7875L224.109 55.7539C224.232 55.2819 224.676 54.9458 225.163 54.9315C227.62 54.8623 228.461 54.4332 229.689 53.0935C230.627 51.8967 231.338 50.936 232.126 49.8299C232.231 49.6845 232.24 49.4246 232.202 49.2339C230.872 42.4564 227.515 25.2613 227.515 25.2613C227.515 25.2613 233.635 25.2064 234.02 27.6714C234.759 32.3916 236.507 41.9344 236.59 42.311C236.806 41.9367 242.529 32.0769 245.207 27.3496C246.521 25.03 251.526 25.2613 253.179 25.2613C248.245 33.5358 238.662 49.582 237.168 52.0755C233.286 58.5455 229.87 59.8376 226.292 59.7923C225.318 59.7803 223.289 59.7875 223.289 59.7875Z" fill="white"/>
<path d="M272.037 42.5951C271.69 44.2779 271.06 47.339 271.039 47.4476C271.003 47.627 270.927 47.8252 270.687 47.9149C267.383 49.1422 263.855 49.7204 260.645 48.5899C250.259 44.9364 253.048 28.3562 263.895 25.7175C269.221 24.4218 274.533 26.2981 274.792 26.3784C275.094 26.4728 275.282 26.7749 275.22 27.0817C275.032 28.0045 274.436 30.9264 274.41 31.0326C271.405 30.0673 268.247 29.3687 265.178 30.4402C259.077 32.5738 257.752 42.9727 263.819 44.1906C266.727 44.7759 269.388 43.7516 272.037 42.5951Z" fill="white"/>
<path d="M257.362 58.2617C258.202 58.4338 260.276 58.3803 260.324 57.0647C260.324 56.537 259.622 56.0436 258.955 55.9021C258.131 55.73 257.607 55.7262 256.775 55.9021C256.262 56.0934 256.104 55.6039 256.57 55.4394C257.453 55.1258 260.899 55.0608 261.061 57.0647C260.919 59.0457 257.91 58.9042 257.232 58.7704C256.964 58.7207 256.759 58.5983 256.759 58.2694V56.6211C256.759 56.231 257.358 56.2349 257.358 56.6211V58.2617H257.362Z" fill="white"/>
<path d="M263.839 55.9411C263.168 55.9411 262.04 57.9259 261.705 58.6372C261.508 59.0617 260.877 58.7596 261.078 58.3313C261.433 57.5664 262.778 55.2565 263.831 55.2795C264.884 55.2603 266.228 57.5664 266.583 58.3313C266.78 58.7596 266.153 59.0617 265.956 58.6372C265.625 57.9259 264.505 55.9411 263.839 55.9411Z" fill="white"/>
<path d="M268.529 58.1769C269.199 58.1769 270.327 56.1921 270.658 55.4808C270.855 55.0563 271.486 55.3584 271.285 55.7829C270.93 56.5477 269.585 58.8576 268.533 58.8385C267.48 58.8576 266.135 56.5516 265.78 55.7829C265.583 55.3546 266.21 55.0524 266.411 55.4808C266.742 56.1921 267.858 58.1769 268.529 58.1769Z" fill="white"/>
<path d="M272.424 55.6201V58.5113C272.424 58.9434 271.75 58.9281 271.75 58.496V55.6124C271.75 55.165 272.424 55.1612 272.424 55.6201Z" fill="white"/>
<path d="M275.646 58.1769C276.316 58.1769 277.444 56.1921 277.775 55.4808C277.972 55.0563 278.603 55.3584 278.402 55.7829C278.043 56.5477 276.699 58.8576 275.646 58.8385C274.593 58.8576 273.248 56.5516 272.893 55.7829C272.696 55.3546 273.323 55.0524 273.52 55.4808C273.852 56.1921 274.968 58.1769 275.638 58.1769" fill="white"/>
<path d="M280.824 57.3585C281.021 57.7639 281.585 58.0928 282.129 58.2075C282.95 58.3834 283.474 58.3834 284.306 58.2075C284.803 58.0507 284.977 58.5173 284.507 58.6702C283.584 58.9724 280.201 59.0794 280.004 57.0678C280.114 55.1519 282.816 55.2016 283.849 55.3354C284.353 55.4005 284.251 55.9167 283.723 55.8096C283.032 55.7217 281.155 55.6146 280.789 56.8193H282.713C283.013 56.8193 283.013 57.3585 282.713 57.3585H280.824Z" fill="white"/>
<path d="M291.554 58.2647C292.394 58.4368 294.468 58.3832 294.515 57.0677C294.515 56.5399 293.813 56.0466 293.143 55.9051C292.323 55.733 291.798 55.7292 290.966 55.9051C290.453 56.0963 290.296 55.6068 290.761 55.4423C291.648 55.1287 295.091 55.0637 295.252 57.0677C295.111 59.0487 292.102 58.9072 291.427 58.7733C291.159 58.7236 290.954 58.6012 290.954 58.2723V56.624C290.954 56.234 291.554 56.2378 291.554 56.624V58.2647Z" fill="white"/>
<path d="M298.033 55.9411C297.362 55.9411 296.23 57.9259 295.899 58.6372C295.702 59.0617 295.075 58.7596 295.272 58.3313C295.631 57.5664 296.976 55.2565 298.025 55.2795C299.078 55.2603 300.422 57.5664 300.777 58.3313C300.974 58.7596 300.347 59.0617 300.15 58.6372C299.819 57.9259 298.703 55.9411 298.033 55.9411Z" fill="white"/>
<path d="M279.538 55.6201V58.5113C279.538 58.9434 278.863 58.9281 278.863 58.496V55.6124C278.863 55.165 279.538 55.1612 279.538 55.6201Z" fill="white"/>
<path d="M287.639 57.6487C287.221 56.9106 286.764 55.9315 286.448 55.9086C285.671 55.9086 286.022 57.3924 286.011 58.5512C286.007 58.9604 285.336 58.9604 285.336 58.5053C285.336 57.0291 285.009 55.2661 286.464 55.2661C286.89 55.2661 287.292 55.8856 287.655 56.4669C288.073 57.2089 288.57 58.1879 288.881 58.2108C289.658 58.2108 289.287 56.7576 289.303 55.5988C289.307 55.1896 289.978 55.1896 289.978 55.6447C289.978 57.1247 290.325 58.8571 288.869 58.8571C288.44 58.8571 288.002 58.2376 287.639 57.6525" fill="white"/>
<path fill-rule="evenodd" clip-rule="evenodd" d="M248.012 55.9844C248.026 56.0938 248.012 56.5624 247.571 57.2053C247.109 57.9133 247.839 59.0966 249.313 58.7956C249.638 58.9085 249.987 58.9256 250.213 58.9222C250.438 58.9222 250.791 58.9085 251.115 58.799C252.59 59.1 253.316 57.9133 252.854 57.2053C252.41 56.5658 252.399 56.0938 252.413 55.9844H248.019H248.012Z" fill="#E5252B"/>
<path fill-rule="evenodd" clip-rule="evenodd" d="M250.207 58.9129C248.77 58.8754 248.51 58.2335 248.904 58.1004C249.137 58.0219 249.439 57.8921 249.439 57.8921C249.284 57.1684 249.538 56.2432 250.21 56.2466C250.883 56.2466 251.126 57.1991 250.974 57.9092C250.974 57.9092 251.28 58.015 251.506 58.1038C251.882 58.2438 251.643 58.8788 250.207 58.9163" fill="#0682C4"/>
<path fill-rule="evenodd" clip-rule="evenodd" d="M249.671 58.4086C249.288 57.3758 249.625 56.4077 250.212 56.4077C250.771 56.4111 251.151 57.3485 250.757 58.4052C250.757 58.4052 250.571 58.3642 250.195 58.3642C249.913 58.3642 249.674 58.4086 249.674 58.4086" fill="#FFE11B"/>
<path fill-rule="evenodd" clip-rule="evenodd" d="M250.205 58.9289C250.785 58.9289 251.239 58.8095 251.239 58.6424C251.239 58.4753 250.785 58.3525 250.205 58.3525C249.625 58.3525 249.172 58.4719 249.172 58.6424C249.172 58.8129 249.625 58.9289 250.205 58.9289Z" fill="#F49824"/>
<path fill-rule="evenodd" clip-rule="evenodd" d="M248.294 56.4971H248.991C249.101 56.4971 249.189 56.5825 249.189 56.6884V57.1427C249.189 57.252 249.101 57.3374 248.991 57.3374H248.294C248.185 57.3374 248.094 57.252 248.094 57.1427V56.6884C248.094 56.5825 248.182 56.4971 248.294 56.4971Z" fill="#0682C4"/>
<path d="M248.373 56.6104H248.921C249.005 56.6104 249.071 56.675 249.071 56.7533V57.0834C249.071 57.1651 249.005 57.2297 248.921 57.2297H248.373C248.289 57.2297 248.223 57.1651 248.223 57.0834V56.7533C248.223 56.675 248.289 56.6104 248.373 56.6104Z" fill="#231F20"/>
<path fill-rule="evenodd" clip-rule="evenodd" d="M249.07 56.9968C248.823 56.9732 248.74 56.6932 248.719 56.6055H248.92C249.004 56.6055 249.07 56.6696 249.07 56.7472V56.9934V56.9968Z" fill="#FFE11B"/>
<path fill-rule="evenodd" clip-rule="evenodd" d="M248.577 56.6104C248.563 56.6913 248.483 56.9882 248.223 57.0017V56.752C248.223 56.6744 248.289 56.6104 248.372 56.6104H248.577Z" fill="#FFE11B"/>
<path fill-rule="evenodd" clip-rule="evenodd" d="M251.432 56.4971H252.125C252.234 56.4971 252.326 56.5825 252.326 56.6884V57.1427C252.326 57.252 252.238 57.3374 252.125 57.3374H251.432C251.322 57.3374 251.234 57.252 251.234 57.1427V56.6884C251.234 56.5825 251.322 56.4971 251.432 56.4971Z" fill="#0682C4"/>
<path d="M251.515 56.6104H252.065C252.149 56.6104 252.216 56.675 252.216 56.7533V57.0834C252.216 57.1651 252.149 57.2297 252.065 57.2297H251.515C251.434 57.2297 251.367 57.1651 251.367 57.0834V56.7533C251.367 56.675 251.434 56.6104 251.515 56.6104Z" fill="#231F20"/>
<path fill-rule="evenodd" clip-rule="evenodd" d="M252.211 56.9968C251.964 56.9732 251.88 56.6932 251.859 56.6055H252.065C252.148 56.6055 252.214 56.6696 252.214 56.7472V56.9934L252.211 56.9968Z" fill="#FFE11B"/>
<path fill-rule="evenodd" clip-rule="evenodd" d="M251.714 56.6104C251.697 56.6913 251.62 56.9882 251.359 57.0017V56.752C251.359 56.6744 251.425 56.6104 251.505 56.6104H251.714Z" fill="#FFE11B"/>
<path fill-rule="evenodd" clip-rule="evenodd" d="M251.654 54.2243C251.58 53.9829 251.566 53.8639 251.794 53.8639H252.295C252.6 53.8571 252.473 54.0883 252.445 54.3127C252.407 54.6084 252.407 54.7002 252.407 54.7002C252.407 54.7002 251.654 54.2311 251.654 54.2277" fill="#E5252B"/>
<path fill-rule="evenodd" clip-rule="evenodd" d="M250.205 55.9599C249.453 55.9599 248.424 56.0248 247.761 56.0727C247.253 56.1103 246.858 55.7341 247.197 55.3785C247.919 54.6192 249.679 53.665 250.212 53.665C250.779 53.665 252.504 54.6192 253.227 55.3785C253.565 55.7341 253.227 56.0727 252.712 56.0727C252.144 56.0727 250.956 55.9599 250.205 55.9599Z" fill="#F49824"/>
<path d="M250.617 57.6602C250.617 57.6065 250.659 57.563 250.714 57.563C250.769 57.563 250.807 57.6065 250.807 57.6602C250.807 57.7138 250.766 57.754 250.714 57.754C250.662 57.754 250.617 57.7104 250.617 57.6602Z" fill="#231F20"/>
<path fill-rule="evenodd" clip-rule="evenodd" d="M250.208 58.3363C249.908 58.3363 249.669 58.3808 249.669 58.3808C249.312 57.3719 249.637 56.4245 250.208 56.4245C250.779 56.4245 251.107 57.3753 250.748 58.3808C250.748 58.3808 250.518 58.3363 250.208 58.3363ZM250.737 58.415C251.033 58.4594 251.231 58.5449 251.231 58.6407C251.231 58.7843 250.776 58.904 250.212 58.904C249.647 58.904 249.192 58.7843 249.192 58.6407C249.192 58.5449 249.386 58.4594 249.683 58.415C249.683 58.415 250.004 58.3773 250.212 58.3773C250.42 58.3773 250.741 58.415 250.741 58.415M250.783 58.3842C251.157 57.3377 250.794 56.3766 250.212 56.38C249.63 56.38 249.267 57.3411 249.64 58.3842C249.351 58.4389 249.161 58.5312 249.161 58.6407C249.161 58.6749 249.182 58.7057 249.217 58.7364C248.731 58.5312 248.685 58.1927 248.953 58.1003C249.182 58.0217 249.464 57.9156 249.464 57.9156C249.316 57.2111 249.545 56.2672 250.215 56.2672C250.885 56.2672 251.114 57.2111 250.963 57.9156C250.963 57.9156 251.241 58.0251 251.474 58.1003C251.735 58.1858 251.696 58.5244 251.213 58.733C251.248 58.7022 251.266 58.6715 251.266 58.6373C251.266 58.5312 251.076 58.4355 250.786 58.3808M251.686 54.2186C251.629 53.9963 251.626 53.904 251.823 53.904H252.257C252.543 53.9005 252.426 54.1126 252.402 54.328C252.387 54.458 252.377 54.564 252.373 54.6427C252.144 54.4854 251.911 54.3451 251.689 54.2186M251.185 58.7877C252.567 59.0135 253.241 57.8917 252.8 57.2111C252.458 56.7186 252.377 56.3048 252.366 56.0928C251.46 56.0483 250.836 56.0038 250.212 55.997C249.587 56.0038 248.963 56.0483 248.057 56.0928C248.043 56.3048 247.962 56.7186 247.62 57.2111C247.179 57.8917 247.852 59.0135 249.235 58.7877C248.649 58.5723 248.575 58.2063 248.889 58.0866C249.118 58.0011 249.425 57.8917 249.425 57.8917C249.274 57.1667 249.538 56.209 250.208 56.209C250.882 56.209 251.146 57.1632 250.991 57.8917C250.991 57.8917 251.298 58.0011 251.527 58.0866C251.841 58.2029 251.767 58.5723 251.181 58.7877M250.212 55.9081C249.432 55.9183 248.695 55.9731 247.828 56.0278C247.288 56.062 246.985 55.7132 247.323 55.3506C247.824 54.8205 249.535 53.7261 250.212 53.7261C250.889 53.7261 252.596 54.8205 253.1 55.3506C253.438 55.7097 253.135 56.062 252.599 56.0278C251.732 55.9731 250.991 55.9218 250.215 55.9081M251.587 54.1605C251.58 54.1399 251.573 54.116 251.569 54.0955C251.531 53.9655 251.569 53.8219 251.799 53.8219H252.303C252.599 53.8219 252.567 54.0202 252.514 54.2118C252.479 54.3486 252.451 54.523 252.437 54.6871C252.437 54.6871 252.849 54.9813 253.079 55.1694C253.798 55.761 253.329 56.1441 252.641 56.1133C252.571 56.1099 252.504 56.1064 252.437 56.103C252.44 56.298 252.5 56.6605 252.818 57.0743C253.615 58.0011 252.557 59.1639 251.065 58.8356C250.818 58.9143 250.427 58.9519 250.212 58.9519C249.997 58.9519 249.605 58.9143 249.355 58.8356C247.863 59.1639 246.805 58.0011 247.602 57.0743C247.919 56.6639 247.979 56.3014 247.983 56.103L247.782 56.1133C247.094 56.1475 246.625 55.761 247.345 55.1694C248.417 54.2938 249.711 53.644 250.212 53.6406C250.487 53.6406 251.002 53.8424 251.587 54.1639" fill="#231F20"/>
<path d="M248.987 57.3562H248.292C248.169 57.3562 248.07 57.2608 248.07 57.1415V56.6883C248.07 56.5725 248.169 56.4771 248.292 56.4771H248.987C249.106 56.4771 249.205 56.5725 249.205 56.6883V57.1415C249.205 57.2608 249.106 57.3562 248.987 57.3562ZM248.295 56.5179C248.197 56.5179 248.116 56.5963 248.116 56.6883V57.1415C248.116 57.237 248.197 57.3153 248.295 57.3153H248.99C249.089 57.3153 249.166 57.237 249.166 57.1415V56.6883C249.166 56.5929 249.085 56.5179 248.99 56.5179H248.295Z" fill="#231F20"/>
<path d="M252.128 57.3562H251.436C251.317 57.3562 251.219 57.2608 251.219 57.1415V56.6883C251.219 56.5725 251.317 56.4771 251.436 56.4771H252.128C252.251 56.4771 252.35 56.5725 252.35 56.6883V57.1415C252.35 57.2608 252.251 57.3562 252.128 57.3562ZM251.433 56.5179C251.335 56.5179 251.257 56.5963 251.257 56.6883V57.1415C251.257 57.237 251.338 57.3153 251.433 57.3153H252.125C252.223 57.3153 252.304 57.237 252.304 57.1415V56.6883C252.304 56.5929 252.223 56.5179 252.125 56.5179H251.433Z" fill="#231F20"/>
</g>
<defs>
<radialGradient id="paint0_radial_10765_22245" cx="0" cy="0" r="1" gradientUnits="userSpaceOnUse" gradientTransform="translate(28.2605 6.03571) rotate(90) scale(111.894 355.936)">
<stop stop-color="#F8991D"/>
<stop offset="0.93" stop-color="#F8991D" stop-opacity="0"/>
</radialGradient>
<radialGradient id="paint1_radial_10765_22245" cx="0" cy="0" r="1" gradientUnits="userSpaceOnUse" gradientTransform="translate(341.276 10.8391) rotate(90) scale(70.8264 441.639)">
<stop stop-color="#BCBABA"/>
<stop offset="1" stop-color="#959595" stop-opacity="0"/>
</radialGradient>
<radialGradient id="paint2_radial_10765_22245" cx="0" cy="0" r="1" gradientUnits="userSpaceOnUse" gradientTransform="translate(395.507 42.9632) rotate(90) scale(22.9383 355.936)">
<stop stop-color="#959595"/>
<stop offset="1" stop-color="#959595" stop-opacity="0"/>
</radialGradient>
<radialGradient id="paint3_radial_10765_22245" cx="0" cy="0" r="1" gradientUnits="userSpaceOnUse" gradientTransform="translate(317.413 67.5782) rotate(90) scale(35.2466 355.936)">
<stop stop-color="#1D1D1D"/>
<stop offset="1" stop-color="#1D1D1D" stop-opacity="0"/>
</radialGradient>
<radialGradient id="paint4_radial_10765_22245" cx="0" cy="0" r="1" gradientUnits="userSpaceOnUse" gradientTransform="translate(23.116 93.0349) rotate(90) scale(47.8347 355.936)">
<stop stop-color="#FFBB00"/>
<stop offset="0.93" stop-color="#FFBB00" stop-opacity="0"/>
</radialGradient>
<radialGradient id="paint5_radial_10765_22245" cx="0" cy="0" r="1" gradientUnits="userSpaceOnUse" gradientTransform="translate(-8.83322 77.8414) rotate(90) scale(38.044 355.936)">
<stop stop-color="#ED1C27"/>
<stop offset="1" stop-color="#ED1C27" stop-opacity="0"/>
</radialGradient>
<radialGradient id="paint6_radial_10765_22245" cx="0" cy="0" r="1" gradientUnits="userSpaceOnUse" gradientTransform="translate(-8.83322 48.4986) rotate(90) scale(38.044 355.936)">
<stop stop-color="#ED1C27"/>
<stop offset="1" stop-color="#ED1C27" stop-opacity="0"/>
</radialGradient>
<radialGradient id="paint7_radial_10765_22245" cx="0" cy="0" r="1" gradientUnits="userSpaceOnUse" gradientTransform="translate(70.0872 -16.5501) rotate(90) scale(46.9567 165.615)">
<stop stop-color="#ED1C27"/>
<stop offset="1" stop-color="#ED1C27" stop-opacity="0"/>
</radialGradient>
<clipPath id="clip0_10765_22245">
<rect x="8.70312" y="5.45117" width="361.622" height="63.8793" rx="5.44611" fill="white"/>
</clipPath>
<clipPath id="clip1_10765_22245">
<rect width="18.6309" height="25.7594" fill="white" transform="translate(311.879 26.8638)"/>
</clipPath>
</defs>
</svg>
