<svg width="362" height="64" viewBox="0 0 362 64" fill="none" xmlns="http://www.w3.org/2000/svg">
<g clip-path="url(#clip0_10765_22013)">
<g clip-path="url(#clip1_10765_22013)">
<mask id="mask0_10765_22013" style="mask-type:alpha" maskUnits="userSpaceOnUse" x="0" y="-1" width="362" height="66">
<rect y="-0.00146484" width="361.622" height="64.3984" rx="17.9573" fill="#00126D"/>
</mask>
<g mask="url(#mask0_10765_22013)">
<rect y="-0.00146484" width="361.622" height="64.3984" rx="10.7331" fill="#00126D"/>
<ellipse cx="27.9344" cy="2.1268" rx="338.598" ry="106.444" fill="url(#paint0_radial_10765_22013)"/>
<ellipse cx="325.716" cy="6.7011" rx="420.126" ry="67.3764" fill="url(#paint1_radial_10765_22013)"/>
<ellipse cx="377.286" cy="37.2516" rx="338.598" ry="21.821" fill="url(#paint2_radial_10765_22013)"/>
<ellipse cx="303.005" cy="60.6723" rx="338.598" ry="33.5298" fill="url(#paint3_radial_10765_22013)"/>
<ellipse cx="23.032" cy="84.8904" rx="338.598" ry="45.5047" fill="url(#paint4_radial_10765_22013)"/>
<ellipse cx="-7.35861" cy="70.435" rx="338.598" ry="36.1909" fill="url(#paint5_radial_10765_22013)"/>
<ellipse cx="-7.35861" cy="42.5185" rx="338.598" ry="36.1909" fill="url(#paint6_radial_10765_22013)"/>
<ellipse cx="67.7271" cy="-19.356" rx="157.547" ry="44.6694" fill="url(#paint7_radial_10765_22013)"/>
</g>
<rect x="3.28516" y="2.17529" width="356.094" height="59.5685" rx="17.9573" fill="black"/>
<path d="M34.6643 40.3384V24.9742H40.2885C43.9734 24.9742 45.7834 26.892 45.7834 29.9735C45.7834 33.4212 43.6286 35.5115 40.2023 35.5115H37.7027V40.3384H34.6643ZM37.7027 32.9903H39.9868C41.6461 32.9903 42.6589 32.0206 42.6589 30.1458C42.6589 28.4004 41.7107 27.6246 40.0515 27.6246H37.7027V32.9903ZM54.9937 40.3384C54.6489 39.7781 54.3257 39.1532 54.0886 38.2913C53.4422 39.8212 52.0199 40.5754 50.49 40.5754C48.7876 40.5754 47.4301 39.6704 47.4301 37.731C47.4301 34.1539 51.5459 34.4556 53.7869 33.3997C53.6576 31.8051 52.5156 31.3957 51.0933 31.3957C50.1021 31.3957 49.0247 31.5896 47.9472 31.8266V29.2192C49.1971 28.9176 50.4253 28.7452 51.5243 28.7452C54.4549 28.7452 56.6314 29.9735 56.6314 33.529V36.4596C56.6314 37.5155 56.6529 38.6576 56.8684 40.3384H54.9937ZM50.3391 37.2569C50.3391 37.9896 50.7917 38.3559 51.4812 38.3559C52.5156 38.3559 53.7869 37.3862 53.7869 35.6408V35.1667C52.1061 35.964 50.3391 35.7054 50.3391 37.2569ZM63.3194 36.8906C63.0392 36.8906 62.7591 36.869 62.479 36.8475C62.1557 37.0199 62.0265 37.3 62.0265 37.6017C62.0265 38.3774 63.1685 38.399 64.6554 38.5283C66.8318 38.7007 69.2237 39.0886 69.2237 41.6098C69.2237 44.0232 66.6594 45.1868 63.1901 45.1868C60.044 45.1868 57.8676 44.3249 57.8676 42.2562C57.8676 40.6401 59.5053 39.929 60.8413 40.0367C60.0871 39.7135 59.5915 39.1532 59.5915 38.4205C59.5915 37.4293 60.4319 36.8259 61.4231 36.6105C59.6992 36.0286 58.7942 34.6064 58.7942 32.7963C58.7942 30.4691 60.4965 28.7452 63.4487 28.7452C64.1598 28.7452 64.7847 28.8529 65.3234 29.0038C65.3881 29.0253 65.4958 29.0469 65.582 29.0469C66.3362 29.0469 66.5086 28.3788 66.5086 27.6031C66.5086 27.2368 66.4439 26.8273 66.3793 26.4826H69.0729C69.116 26.7627 69.1591 27.0213 69.1591 27.3014C69.1591 29.0253 67.9093 29.8657 66.7887 29.8657C66.6594 29.8657 66.5301 29.8442 66.4224 29.8226C67.4352 30.5553 67.9739 31.5896 67.9739 32.9256C67.9739 35.0589 66.2716 36.8906 63.3194 36.8906ZM63.3625 34.8219C64.5261 34.8219 65.1726 34.1539 65.1726 32.8179C65.1726 31.4388 64.5692 30.7923 63.384 30.7923C62.2204 30.7923 61.5955 31.3957 61.5955 32.7748C61.5955 34.1324 62.1988 34.8219 63.3625 34.8219ZM60.6258 41.5667C60.6258 42.6872 62.0049 42.9673 63.4271 42.9673C64.9355 42.9673 66.2069 42.6872 66.2069 41.8252C66.2069 40.6832 63.9874 40.834 62.1342 40.5539C61.2938 40.4892 60.6258 40.8986 60.6258 41.5667ZM77.342 40.3384C76.9973 39.7781 76.674 39.1532 76.437 38.2913C75.7905 39.8212 74.3683 40.5754 72.8384 40.5754C71.136 40.5754 69.7784 39.6704 69.7784 37.731C69.7784 34.1539 73.8942 34.4556 76.1353 33.3997C76.006 31.8051 74.8639 31.3957 73.4417 31.3957C72.4505 31.3957 71.373 31.5896 70.2956 31.8266V29.2192C71.5454 28.9176 72.7737 28.7452 73.8727 28.7452C76.8033 28.7452 78.9797 29.9735 78.9797 33.529V36.4596C78.9797 37.5155 79.0013 38.6576 79.2168 40.3384H77.342ZM72.6875 37.2569C72.6875 37.9896 73.14 38.3559 73.8296 38.3559C74.8639 38.3559 76.1353 37.3862 76.1353 35.6408V35.1667C74.4545 35.964 72.6875 35.7054 72.6875 37.2569ZM88.8354 31.762C86.7667 31.6758 85.56 32.1068 85.0644 32.9256V40.3384H82.0476V33.2704C82.0476 32.1714 82.026 30.7277 81.8967 28.9822H83.8146C84.224 29.5209 84.6119 30.5122 84.8058 31.4388C85.3445 29.6933 86.5512 28.7452 88.8354 28.7452V31.762ZM100.344 40.5754C96.9823 40.5754 94.612 38.7222 94.612 34.6495C94.612 30.7708 97.0901 28.7452 100.473 28.7452C101.227 28.7452 102.046 28.8529 102.865 29.0469V31.5681C102.132 31.4172 101.421 31.331 100.818 31.331C98.8786 31.331 97.6072 32.1499 97.6072 34.6711C97.6072 37.1923 98.8571 37.9896 100.775 37.9896C101.421 37.9896 102.132 37.9034 102.865 37.7525V40.2737C101.982 40.4461 101.141 40.5754 100.344 40.5754ZM109.891 40.5754C106.27 40.5754 104.46 38.0111 104.46 34.7788C104.46 31.4172 106.4 28.7452 110.106 28.7452C113.705 28.7452 115.536 31.3095 115.536 34.5418C115.536 37.9034 113.597 40.5754 109.891 40.5754ZM109.998 38.162C111.722 38.162 112.541 36.8044 112.541 34.6495C112.541 32.4516 111.744 31.1586 109.998 31.1586C108.253 31.1586 107.434 32.5162 107.434 34.6711C107.434 36.869 108.253 38.162 109.998 38.162ZM125.614 33.5721C125.614 32.1068 124.86 31.4603 123.631 31.4603C122.489 31.4603 121.692 31.999 121.196 32.7317V40.3384H118.18V33.2704C118.18 32.1714 118.158 30.7277 118.029 28.9822H119.947C120.334 29.4994 120.679 30.3829 120.895 31.2233C121.369 29.9519 122.511 28.7452 124.579 28.7452C126.907 28.7452 128.631 30.0381 128.631 33.098V40.3384H125.614V33.5721Z" fill="white"/>
<g clip-path="url(#clip2_10765_22013)">
<path d="M313.526 21.4214C309.372 21.4214 305.993 24.8008 305.993 28.9547V33.2582C305.993 33.3066 305.931 33.3902 305.887 33.4034C305.478 33.5398 305.148 33.6586 304.845 33.773C304.484 33.9138 304.211 34.3143 304.211 34.7059V44.589C304.211 44.9762 304.484 45.3766 304.84 45.5218C307.617 46.6219 310.539 47.1808 313.526 47.1808C316.514 47.1808 319.436 46.6219 322.213 45.5218C322.573 45.381 322.842 44.9806 322.842 44.589V34.7059C322.842 34.3143 322.569 33.9138 322.208 33.773C321.905 33.6542 321.575 33.5398 321.165 33.4034C321.117 33.3858 321.06 33.3066 321.06 33.2582V28.9547C321.06 24.8008 317.68 21.4214 313.526 21.4214ZM311.476 37.7157C311.476 36.5804 312.395 35.6652 313.526 35.6652C314.657 35.6652 315.577 36.5848 315.577 37.7157C315.577 38.4682 315.154 39.0974 314.552 39.4538V42.8465C314.552 43.4141 314.094 43.8717 313.526 43.8717C312.959 43.8717 312.501 43.4141 312.501 42.8465V39.4538C311.898 39.0974 311.476 38.4682 311.476 37.7157ZM318.468 28.9547V32.6686C316.849 32.3209 315.185 32.1449 313.526 32.1449C311.867 32.1449 310.209 32.3209 308.585 32.6686V28.9591C308.585 26.2353 310.803 24.0176 313.526 24.0176C316.25 24.0132 318.468 26.2265 318.468 28.9547Z" fill="white"/>
</g>
<path d="M161.819 36.7671C161.771 36.9985 161.724 37.2323 161.676 37.4637C160.485 37.6621 159.289 37.7944 158.094 37.8676C159.363 37.5251 160.606 37.1638 161.819 36.7671Z" fill="#ED1C27"/>
<path d="M188.435 14.0289C185.028 23.3988 178.015 31.8576 168.551 35.5749C168.551 35.5749 168.931 33.7174 168.933 33.7174C176.616 29.3417 181.859 21.5059 183.978 13.099C184.727 12.693 186.77 11.5342 186.77 11.5342C186.77 11.5342 187.848 13.1249 188.435 14.0289Z" fill="#ED1C27"/>
<path d="M172.315 17.2469C172.384 16.9071 172.491 16.6947 172.878 16.6663C174.536 16.5365 176.192 16.2698 177.846 16.284C179.889 16.2982 181.24 17.7308 181.506 19.9021C182.559 17.719 183.386 15.4367 183.977 13.0978C183.949 13.0765 183.92 13.0576 183.892 13.0388C182.259 11.9318 180.395 11.6345 178.48 11.5542C174.567 11.3843 170.778 12.1395 167.034 13.1662C166.834 13.2229 166.604 13.525 166.556 13.7492C166.226 15.3494 160.375 43.8319 160.375 43.8319H164.753C165.986 43.8319 167.043 42.8878 167.293 41.6747C167.295 41.6794 172.03 18.6465 172.315 17.2469Z" fill="white"/>
<path d="M187.149 17.1553C183.661 24.7055 177.805 31.3399 170.203 34.866C182.516 38.3614 190.619 26.3222 187.149 17.1553Z" fill="white"/>
<path d="M158.851 23.1637C149.91 14.5798 134.665 24.3769 137.11 36.0503C138.63 43.3125 146.541 44.9245 152.943 43.211C157.006 42.1253 156.521 38.2098 156.521 38.2098C151.425 39.3805 141.728 38.3278 142.524 34.4595C146.443 35.5523 152.418 35.8119 156.611 33.6712C162.082 30.8768 161.149 25.7269 158.851 23.1637ZM155.103 28.0564C153.737 30.8579 145.93 30.8343 143.12 30.0153C144.883 26.0408 149.518 23.6665 153.768 25.387C155.05 25.9086 155.621 26.9849 155.103 28.0564Z" fill="white"/>
<path d="M215.153 21.7027C211.366 20.4683 206.824 19.9019 203.498 19.9019C194.696 19.9019 189.156 27.773 189.415 34.6789C189.515 37.3293 190.41 43.3454 198.471 44.0369C200.709 44.2281 202.844 43.9425 204.714 42.5689C204.728 42.5571 204.859 42.4415 204.828 42.6067C204.762 42.9914 204.612 43.8363 204.612 43.8363C204.612 43.8363 208.814 43.8363 210.808 43.8363C211.183 43.8363 211.235 43.5791 211.29 43.3171C212.722 36.3546 214.164 29.4063 215.58 22.439C215.671 22 215.583 21.8396 215.153 21.7027ZM208.323 25.8518C207.567 29.4417 206.836 33.0362 206.073 36.6284C206.006 36.9376 205.845 37.2184 205.607 37.4285C203.797 39.0287 201.688 39.555 199.331 39.0169C194.812 37.9855 195.554 31.6201 197.136 28.5495C198.578 25.7551 201.837 24.1761 205.156 24.6033C208.477 25.0281 208.408 25.4341 208.323 25.8518Z" fill="white"/>
<path d="M292.646 28.3017C292.182 22.8072 287.816 19.9019 282.575 19.9019C271.586 19.9019 267.956 29.0239 268.291 35.3633C268.611 41.4502 274.03 44.2848 279.489 43.7773C284.561 43.4776 288.372 41.1764 290.729 36.6685C292.092 34.0558 292.976 31.3015 292.646 28.3017ZM277.489 38.6251C272.652 37.6362 274.291 31.2802 275.301 29.4063C277.738 24.8795 281.06 24.6718 282.948 24.9691C285.443 25.3586 286.859 27.1287 286.718 30.119C286.507 34.6458 283.117 39.7745 277.489 38.6251Z" fill="white"/>
<path d="M215.086 54.4296L215.906 50.396C216.029 49.924 216.473 49.5879 216.96 49.5735C219.417 49.5044 220.258 49.0753 221.486 47.7356C222.424 46.5388 223.135 45.5781 223.923 44.472C224.028 44.3266 224.037 44.0667 223.999 43.876C222.669 37.0985 219.312 19.9034 219.312 19.9034C219.312 19.9034 225.432 19.8485 225.817 22.3135C226.556 27.0336 228.304 36.5765 228.387 36.9531C228.603 36.5788 234.326 26.719 237.004 21.9917C238.317 19.6721 243.323 19.9034 244.976 19.9034C240.042 28.1779 230.459 44.224 228.964 46.7176C225.083 53.1876 221.666 54.4796 218.089 54.4343C217.115 54.4224 215.086 54.4296 215.086 54.4296Z" fill="white"/>
<path d="M263.833 37.2372C263.487 38.92 262.857 41.9811 262.836 42.0897C262.8 42.2691 262.724 42.4673 262.484 42.557C259.18 43.7843 255.652 44.3625 252.442 43.232C242.056 39.5785 244.845 22.9983 255.692 20.3596C261.018 19.0639 266.33 20.9402 266.589 21.0205C266.891 21.1149 267.079 21.417 267.017 21.7238C266.829 22.6466 266.233 25.5685 266.207 25.6747C263.201 24.7094 260.044 24.0108 256.975 25.0823C250.874 27.2159 249.549 37.6148 255.616 38.8326C258.524 39.418 261.185 38.3937 263.833 37.2372Z" fill="white"/>
<path d="M249.159 52.9038C249.999 53.0759 252.073 53.0224 252.121 51.7068C252.121 51.1791 251.419 50.6857 250.752 50.5442C249.928 50.3721 249.404 50.3683 248.572 50.5442C248.059 50.7354 247.901 50.2459 248.366 50.0815C249.25 49.7679 252.696 49.7029 252.858 51.7068C252.716 53.6878 249.707 53.5463 249.029 53.4125C248.761 53.3627 248.556 53.2404 248.556 52.9115V51.2632C248.556 50.8731 249.155 50.877 249.155 51.2632V52.9038H249.159Z" fill="white"/>
<path d="M255.635 50.5832C254.965 50.5832 253.837 52.568 253.502 53.2793C253.305 53.7038 252.674 53.4017 252.875 52.9733C253.23 52.2085 254.575 49.8986 255.628 49.9216C256.68 49.9024 258.025 52.2085 258.38 52.9733C258.577 53.4017 257.95 53.7038 257.753 53.2793C257.422 52.568 256.302 50.5832 255.635 50.5832Z" fill="white"/>
<path d="M260.325 52.819C260.996 52.819 262.124 50.8342 262.455 50.1229C262.652 49.6984 263.283 50.0005 263.082 50.425C262.727 51.1898 261.382 53.4997 260.329 53.4806C259.277 53.4997 257.932 51.1937 257.577 50.425C257.38 49.9966 258.007 49.6945 258.208 50.1229C258.539 50.8342 259.655 52.819 260.325 52.819Z" fill="white"/>
<path d="M264.221 50.2622V53.1533C264.221 53.5855 263.547 53.5702 263.547 53.1381V50.2545C263.547 49.8071 264.221 49.8032 264.221 50.2622Z" fill="white"/>
<path d="M267.443 52.819C268.113 52.819 269.241 50.8342 269.572 50.1229C269.769 49.6984 270.4 50.0005 270.199 50.425C269.84 51.1898 268.496 53.4997 267.443 53.4806C266.39 53.4997 265.045 51.1937 264.69 50.425C264.493 49.9966 265.12 49.6945 265.317 50.1229C265.648 50.8342 266.764 52.819 267.435 52.819" fill="white"/>
<path d="M272.621 52.0006C272.818 52.406 273.382 52.7349 273.926 52.8496C274.746 53.0255 275.271 53.0255 276.103 52.8496C276.6 52.6928 276.773 53.1594 276.304 53.3123C275.381 53.6144 271.998 53.7215 271.801 51.7099C271.911 49.794 274.612 49.8437 275.646 49.9775C276.15 50.0425 276.048 50.5588 275.519 50.4517C274.829 50.3638 272.952 50.2567 272.586 51.4614H274.51C274.81 51.4614 274.81 52.0006 274.51 52.0006H272.621Z" fill="white"/>
<path d="M283.35 52.9068C284.19 53.0789 286.265 53.0253 286.312 51.7098C286.312 51.182 285.61 50.6887 284.94 50.5472C284.119 50.3751 283.595 50.3712 282.763 50.5472C282.25 50.7384 282.093 50.2489 282.558 50.0844C283.445 49.7708 286.888 49.7058 287.049 51.7098C286.907 53.6907 283.899 53.5492 283.224 53.4154C282.956 53.3657 282.751 53.2433 282.751 52.9144V51.2661C282.751 50.8761 283.35 50.8799 283.35 51.2661V52.9068Z" fill="white"/>
<path d="M289.83 50.5832C289.159 50.5832 288.027 52.568 287.696 53.2793C287.499 53.7038 286.872 53.4017 287.069 52.9733C287.428 52.2085 288.773 49.8986 289.822 49.9216C290.874 49.9024 292.219 52.2085 292.574 52.9733C292.771 53.4017 292.144 53.7038 291.947 53.2793C291.616 52.568 290.5 50.5832 289.83 50.5832Z" fill="white"/>
<path d="M271.334 50.2622V53.1533C271.334 53.5855 270.66 53.5702 270.66 53.1381V50.2545C270.66 49.8071 271.334 49.8032 271.334 50.2622Z" fill="white"/>
<path d="M279.436 52.2907C279.018 51.5526 278.561 50.5736 278.245 50.5507C277.468 50.5507 277.819 52.0345 277.807 53.1933C277.803 53.6025 277.133 53.6025 277.133 53.1474C277.133 51.6712 276.806 49.9082 278.261 49.9082C278.687 49.9082 279.089 50.5277 279.452 51.109C279.87 51.8509 280.367 52.83 280.678 52.8529C281.455 52.8529 281.084 51.3997 281.1 50.2409C281.104 49.8317 281.774 49.8317 281.774 50.2868C281.774 51.7668 282.121 53.4992 280.666 53.4992C280.237 53.4992 279.799 52.8797 279.436 52.2946" fill="white"/>
<path fill-rule="evenodd" clip-rule="evenodd" d="M239.809 50.6265C239.823 50.7359 239.809 51.2044 239.368 51.8474C238.906 52.5554 239.636 53.7387 241.11 53.4377C241.435 53.5506 241.784 53.5677 242.01 53.5643C242.235 53.5643 242.588 53.5506 242.912 53.4411C244.386 53.7421 245.113 52.5554 244.651 51.8474C244.207 51.2079 244.196 50.7359 244.21 50.6265H239.816H239.809Z" fill="#E5252B"/>
<path fill-rule="evenodd" clip-rule="evenodd" d="M242.004 53.555C240.567 53.5175 240.307 52.8756 240.701 52.7425C240.933 52.664 241.236 52.5342 241.236 52.5342C241.081 51.8105 241.335 50.8853 242.007 50.8887C242.679 50.8887 242.922 51.8412 242.771 52.5513C242.771 52.5513 243.077 52.6571 243.303 52.7459C243.679 52.8859 243.44 53.5209 242.004 53.5584" fill="#0682C4"/>
<path fill-rule="evenodd" clip-rule="evenodd" d="M241.468 53.0507C241.085 52.0178 241.422 51.0498 242.009 51.0498C242.568 51.0532 242.947 51.9906 242.554 53.0472C242.554 53.0472 242.367 53.0063 241.991 53.0063C241.71 53.0063 241.471 53.0507 241.471 53.0507" fill="#FFE11B"/>
<path fill-rule="evenodd" clip-rule="evenodd" d="M242.002 53.571C242.582 53.571 243.035 53.4516 243.035 53.2845C243.035 53.1174 242.582 52.9946 242.002 52.9946C241.422 52.9946 240.969 53.114 240.969 53.2845C240.969 53.455 241.422 53.571 242.002 53.571Z" fill="#F49824"/>
<path fill-rule="evenodd" clip-rule="evenodd" d="M240.091 51.1392H240.788C240.897 51.1392 240.985 51.2246 240.985 51.3304V51.7847C240.985 51.8941 240.897 51.9795 240.788 51.9795H240.091C239.982 51.9795 239.891 51.8941 239.891 51.7847V51.3304C239.891 51.2246 239.979 51.1392 240.091 51.1392Z" fill="#0682C4"/>
<path d="M240.17 51.2524H240.717C240.802 51.2524 240.868 51.3171 240.868 51.3954V51.7255C240.868 51.8072 240.802 51.8718 240.717 51.8718H240.17C240.086 51.8718 240.02 51.8072 240.02 51.7255V51.3954C240.02 51.3171 240.086 51.2524 240.17 51.2524Z" fill="#231F20"/>
<path fill-rule="evenodd" clip-rule="evenodd" d="M240.867 51.6389C240.62 51.6153 240.536 51.3353 240.516 51.2476H240.717C240.801 51.2476 240.867 51.3117 240.867 51.3892V51.6355V51.6389Z" fill="#FFE11B"/>
<path fill-rule="evenodd" clip-rule="evenodd" d="M240.374 51.2524C240.36 51.3334 240.28 51.6303 240.02 51.6437V51.3941C240.02 51.3165 240.086 51.2524 240.169 51.2524H240.374Z" fill="#FFE11B"/>
<path fill-rule="evenodd" clip-rule="evenodd" d="M243.228 51.1392H243.922C244.031 51.1392 244.123 51.2246 244.123 51.3304V51.7847C244.123 51.8941 244.035 51.9795 243.922 51.9795H243.228C243.119 51.9795 243.031 51.8941 243.031 51.7847V51.3304C243.031 51.2246 243.119 51.1392 243.228 51.1392Z" fill="#0682C4"/>
<path d="M243.311 51.2524H243.862C243.946 51.2524 244.013 51.3171 244.013 51.3954V51.7255C244.013 51.8072 243.946 51.8718 243.862 51.8718H243.311C243.231 51.8718 243.164 51.8072 243.164 51.7255V51.3954C243.164 51.3171 243.231 51.2524 243.311 51.2524Z" fill="#231F20"/>
<path fill-rule="evenodd" clip-rule="evenodd" d="M244.007 51.6389C243.761 51.6153 243.677 51.3353 243.656 51.2476H243.861C243.945 51.2476 244.011 51.3117 244.011 51.3892V51.6355L244.007 51.6389Z" fill="#FFE11B"/>
<path fill-rule="evenodd" clip-rule="evenodd" d="M243.511 51.2524C243.493 51.3334 243.417 51.6303 243.156 51.6437V51.3941C243.156 51.3165 243.222 51.2524 243.302 51.2524H243.511Z" fill="#FFE11B"/>
<path fill-rule="evenodd" clip-rule="evenodd" d="M243.45 48.8664C243.377 48.625 243.363 48.506 243.591 48.506H244.092C244.396 48.4992 244.27 48.7304 244.242 48.9547C244.204 49.2505 244.204 49.3423 244.204 49.3423C244.204 49.3423 243.45 48.8732 243.45 48.8698" fill="#E5252B"/>
<path fill-rule="evenodd" clip-rule="evenodd" d="M242.002 50.602C241.25 50.602 240.221 50.6669 239.558 50.7148C239.05 50.7524 238.655 50.3762 238.993 50.0206C239.716 49.2613 241.476 48.3071 242.009 48.3071C242.576 48.3071 244.301 49.2613 245.024 50.0206C245.362 50.3762 245.024 50.7148 244.509 50.7148C243.941 50.7148 242.753 50.602 242.002 50.602Z" fill="#F49824"/>
<path d="M242.414 52.3022C242.414 52.2486 242.456 52.2051 242.511 52.2051C242.566 52.2051 242.604 52.2486 242.604 52.3022C242.604 52.3559 242.563 52.3961 242.511 52.3961C242.459 52.3961 242.414 52.3525 242.414 52.3022Z" fill="#231F20"/>
<path fill-rule="evenodd" clip-rule="evenodd" d="M242.005 52.9784C241.705 52.9784 241.465 53.0228 241.465 53.0228C241.109 52.0139 241.434 51.0666 242.005 51.0666C242.576 51.0666 242.904 52.0174 242.545 53.0228C242.545 53.0228 242.315 52.9784 242.005 52.9784ZM242.534 53.057C242.83 53.1015 243.028 53.187 243.028 53.2828C243.028 53.4264 242.573 53.5461 242.009 53.5461C241.444 53.5461 240.989 53.4264 240.989 53.2828C240.989 53.187 241.183 53.1015 241.48 53.057C241.48 53.057 241.8 53.0194 242.009 53.0194C242.217 53.0194 242.538 53.057 242.538 53.057M242.58 53.0263C242.954 51.9797 242.59 51.0187 242.009 51.0221C241.427 51.0221 241.063 51.9832 241.437 53.0263C241.148 53.081 240.958 53.1733 240.958 53.2828C240.958 53.317 240.979 53.3477 241.014 53.3785C240.527 53.1733 240.482 52.8347 240.75 52.7424C240.979 52.6637 241.261 52.5577 241.261 52.5577C241.113 51.8532 241.342 50.9093 242.012 50.9093C242.682 50.9093 242.911 51.8532 242.76 52.5577C242.76 52.5577 243.038 52.6672 243.271 52.7424C243.532 52.8279 243.493 53.1665 243.01 53.3751C243.045 53.3443 243.063 53.3135 243.063 53.2793C243.063 53.1733 242.873 53.0776 242.583 53.0228M243.483 48.8607C243.426 48.6384 243.423 48.5461 243.62 48.5461H244.054C244.34 48.5426 244.223 48.7547 244.198 48.9701C244.184 49.1001 244.174 49.2061 244.17 49.2848C243.941 49.1275 243.708 48.9872 243.486 48.8607M242.982 53.4298C244.364 53.6555 245.038 52.5338 244.597 51.8532C244.255 51.3607 244.174 50.9469 244.163 50.7349C243.257 50.6904 242.633 50.6459 242.009 50.6391C241.384 50.6459 240.76 50.6904 239.854 50.7349C239.84 50.9469 239.759 51.3607 239.417 51.8532C238.976 52.5338 239.649 53.6555 241.032 53.4298C240.446 53.2144 240.372 52.8484 240.686 52.7287C240.915 52.6432 241.222 52.5338 241.222 52.5338C241.07 51.8087 241.335 50.8511 242.005 50.8511C242.679 50.8511 242.943 51.8053 242.788 52.5338C242.788 52.5338 243.095 52.6432 243.324 52.7287C243.638 52.845 243.564 53.2144 242.978 53.4298M242.009 50.5502C241.229 50.5604 240.492 50.6152 239.625 50.6699C239.085 50.7041 238.782 50.3552 239.12 49.9927C239.621 49.4626 241.331 48.3682 242.009 48.3682C242.686 48.3682 244.392 49.4626 244.897 49.9927C245.235 50.3518 244.932 50.7041 244.396 50.6699C243.528 50.6152 242.788 50.5639 242.012 50.5502M243.384 48.8026C243.377 48.782 243.37 48.7581 243.366 48.7376C243.327 48.6076 243.366 48.464 243.595 48.464H244.1C244.396 48.464 244.364 48.6623 244.311 48.8539C244.276 48.9907 244.248 49.1651 244.234 49.3292C244.234 49.3292 244.646 49.6234 244.876 49.8115C245.595 50.4031 245.126 50.7862 244.438 50.7554C244.368 50.752 244.301 50.7485 244.234 50.7451C244.237 50.9401 244.297 51.3026 244.615 51.7164C245.412 52.6432 244.354 53.806 242.862 53.4777C242.615 53.5564 242.224 53.594 242.009 53.594C241.793 53.594 241.402 53.5564 241.152 53.4777C239.66 53.806 238.602 52.6432 239.399 51.7164C239.716 51.306 239.776 50.9435 239.78 50.7451L239.579 50.7554C238.891 50.7896 238.422 50.4031 239.141 49.8115C240.214 48.9359 241.508 48.2861 242.009 48.2827C242.284 48.2827 242.798 48.4845 243.384 48.806" fill="#231F20"/>
<path d="M240.784 51.9983H240.088C239.966 51.9983 239.867 51.9029 239.867 51.7836V51.3304C239.867 51.2146 239.966 51.1191 240.088 51.1191H240.784C240.903 51.1191 241.002 51.2146 241.002 51.3304V51.7836C241.002 51.9029 240.903 51.9983 240.784 51.9983ZM240.092 51.16C239.994 51.16 239.913 51.2384 239.913 51.3304V51.7836C239.913 51.879 239.994 51.9574 240.092 51.9574H240.787C240.886 51.9574 240.963 51.879 240.963 51.7836V51.3304C240.963 51.235 240.882 51.16 240.787 51.16H240.092Z" fill="#231F20"/>
<path d="M243.925 51.9983H243.233C243.114 51.9983 243.016 51.9029 243.016 51.7836V51.3304C243.016 51.2146 243.114 51.1191 243.233 51.1191H243.925C244.048 51.1191 244.146 51.2146 244.146 51.3304V51.7836C244.146 51.9029 244.048 51.9983 243.925 51.9983ZM243.23 51.16C243.132 51.16 243.054 51.2384 243.054 51.3304V51.7836C243.054 51.879 243.135 51.9574 243.23 51.9574H243.922C244.02 51.9574 244.101 51.879 244.101 51.7836V51.3304C244.101 51.235 244.02 51.16 243.922 51.16H243.23Z" fill="#231F20"/>
</g>
</g>
<defs>
<radialGradient id="paint0_radial_10765_22013" cx="0" cy="0" r="1" gradientUnits="userSpaceOnUse" gradientTransform="translate(27.9344 2.1268) rotate(90) scale(106.444 338.598)">
<stop stop-color="#F8991D"/>
<stop offset="0.93" stop-color="#F8991D" stop-opacity="0"/>
</radialGradient>
<radialGradient id="paint1_radial_10765_22013" cx="0" cy="0" r="1" gradientUnits="userSpaceOnUse" gradientTransform="translate(325.716 6.7011) rotate(90) scale(67.3764 420.126)">
<stop stop-color="#BCBABA"/>
<stop offset="1" stop-color="#959595" stop-opacity="0"/>
</radialGradient>
<radialGradient id="paint2_radial_10765_22013" cx="0" cy="0" r="1" gradientUnits="userSpaceOnUse" gradientTransform="translate(377.286 37.2516) rotate(90) scale(21.821 338.598)">
<stop stop-color="#959595"/>
<stop offset="1" stop-color="#959595" stop-opacity="0"/>
</radialGradient>
<radialGradient id="paint3_radial_10765_22013" cx="0" cy="0" r="1" gradientUnits="userSpaceOnUse" gradientTransform="translate(303.005 60.6723) rotate(90) scale(33.5298 338.598)">
<stop stop-color="#1D1D1D"/>
<stop offset="1" stop-color="#1D1D1D" stop-opacity="0"/>
</radialGradient>
<radialGradient id="paint4_radial_10765_22013" cx="0" cy="0" r="1" gradientUnits="userSpaceOnUse" gradientTransform="translate(23.032 84.8904) rotate(90) scale(45.5047 338.598)">
<stop stop-color="#FFBB00"/>
<stop offset="0.93" stop-color="#FFBB00" stop-opacity="0"/>
</radialGradient>
<radialGradient id="paint5_radial_10765_22013" cx="0" cy="0" r="1" gradientUnits="userSpaceOnUse" gradientTransform="translate(-7.35861 70.435) rotate(90) scale(36.1909 338.598)">
<stop stop-color="#ED1C27"/>
<stop offset="1" stop-color="#ED1C27" stop-opacity="0"/>
</radialGradient>
<radialGradient id="paint6_radial_10765_22013" cx="0" cy="0" r="1" gradientUnits="userSpaceOnUse" gradientTransform="translate(-7.35861 42.5185) rotate(90) scale(36.1909 338.598)">
<stop stop-color="#ED1C27"/>
<stop offset="1" stop-color="#ED1C27" stop-opacity="0"/>
</radialGradient>
<radialGradient id="paint7_radial_10765_22013" cx="0" cy="0" r="1" gradientUnits="userSpaceOnUse" gradientTransform="translate(67.7271 -19.356) rotate(90) scale(44.6694 157.547)">
<stop stop-color="#ED1C27"/>
<stop offset="1" stop-color="#ED1C27" stop-opacity="0"/>
</radialGradient>
<clipPath id="clip0_10765_22013">
<rect width="361.622" height="63.6886" rx="19.4304" fill="white"/>
</clipPath>
<clipPath id="clip1_10765_22013">
<rect y="-0.000488281" width="361.622" height="63.8793" rx="19.4886" fill="white"/>
</clipPath>
<clipPath id="clip2_10765_22013">
<rect width="18.6309" height="25.7594" fill="white" transform="translate(304.211 21.4214)"/>
</clipPath>
</defs>
</svg>
