<svg width="362" height="64" viewBox="0 0 362 64" fill="none" xmlns="http://www.w3.org/2000/svg">
<g clip-path="url(#clip0_10761_23223)">
<mask id="mask0_10761_23223" style="mask-type:alpha" maskUnits="userSpaceOnUse" x="0" y="0" width="362" height="65">
<rect x="0.015625" width="361.622" height="64.3984" rx="17.9573" fill="#00126D"/>
</mask>
<g mask="url(#mask0_10761_23223)">
<rect x="0.015625" width="361.622" height="64.3984" rx="10.7331" fill="#00126D"/>
<ellipse cx="27.9383" cy="2.13168" rx="338.598" ry="106.444" fill="url(#paint0_radial_10761_23223)"/>
<ellipse cx="325.716" cy="6.70256" rx="420.126" ry="67.3764" fill="url(#paint1_radial_10761_23223)"/>
<ellipse cx="377.29" cy="37.2541" rx="338.598" ry="21.821" fill="url(#paint2_radial_10761_23223)"/>
<ellipse cx="303.005" cy="60.6738" rx="338.598" ry="33.5298" fill="url(#paint3_radial_10761_23223)"/>
<ellipse cx="23.0359" cy="84.8885" rx="338.598" ry="45.5047" fill="url(#paint4_radial_10761_23223)"/>
<ellipse cx="-7.34689" cy="70.4365" rx="338.598" ry="36.1909" fill="url(#paint5_radial_10761_23223)"/>
<ellipse cx="-7.34689" cy="42.5131" rx="338.598" ry="36.1909" fill="url(#paint6_radial_10761_23223)"/>
<ellipse cx="67.7271" cy="-19.3574" rx="157.547" ry="44.6694" fill="url(#paint7_radial_10761_23223)"/>
</g>
<rect x="3.28125" y="2.17578" width="356.094" height="59.5685" rx="29.7843" fill="white"/>
<path d="M34.6604 40.3384V24.9742H40.2846C43.9694 24.9742 45.7795 26.892 45.7795 29.9735C45.7795 33.4212 43.6247 35.5115 40.1984 35.5115H37.6988V40.3384H34.6604ZM37.6988 32.9903H39.9829C41.6422 32.9903 42.655 32.0206 42.655 30.1458C42.655 28.4004 41.7068 27.6246 40.0476 27.6246H37.6988V32.9903ZM54.9898 40.3384C54.645 39.7781 54.3217 39.1532 54.0847 38.2913C53.4383 39.8212 52.016 40.5754 50.4861 40.5754C48.7837 40.5754 47.4262 39.6704 47.4262 37.731C47.4262 34.1539 51.542 34.4556 53.783 33.3997C53.6537 31.8051 52.5117 31.3957 51.0894 31.3957C50.0982 31.3957 49.0208 31.5896 47.9433 31.8266V29.2192C49.1932 28.9176 50.4214 28.7452 51.5204 28.7452C54.451 28.7452 56.6275 29.9735 56.6275 33.529V36.4596C56.6275 37.5155 56.649 38.6576 56.8645 40.3384H54.9898ZM50.3352 37.2569C50.3352 37.9896 50.7878 38.3559 51.4773 38.3559C52.5117 38.3559 53.783 37.3862 53.783 35.6408V35.1667C52.1022 35.964 50.3352 35.7054 50.3352 37.2569ZM63.3155 36.8906C63.0353 36.8906 62.7552 36.869 62.4751 36.8475C62.1518 37.0199 62.0225 37.3 62.0225 37.6017C62.0225 38.3774 63.1646 38.399 64.6515 38.5283C66.8279 38.7007 69.2198 39.0886 69.2198 41.6098C69.2198 44.0232 66.6555 45.1868 63.1862 45.1868C60.0401 45.1868 57.8636 44.3249 57.8636 42.2562C57.8636 40.6401 59.5014 39.929 60.8374 40.0367C60.0832 39.7135 59.5875 39.1532 59.5875 38.4205C59.5875 37.4293 60.4279 36.8259 61.4192 36.6105C59.6953 36.0286 58.7902 34.6064 58.7902 32.7963C58.7902 30.4691 60.4926 28.7452 63.4448 28.7452C64.1559 28.7452 64.7808 28.8529 65.3195 29.0038C65.3841 29.0253 65.4919 29.0469 65.5781 29.0469C66.3323 29.0469 66.5047 28.3788 66.5047 27.6031C66.5047 27.2368 66.44 26.8273 66.3754 26.4826H69.069C69.1121 26.7627 69.1552 27.0213 69.1552 27.3014C69.1552 29.0253 67.9053 29.8657 66.7848 29.8657C66.6555 29.8657 66.5262 29.8442 66.4185 29.8226C67.4313 30.5553 67.97 31.5896 67.97 32.9256C67.97 35.0589 66.2676 36.8906 63.3155 36.8906ZM63.3586 34.8219C64.5222 34.8219 65.1687 34.1539 65.1687 32.8179C65.1687 31.4388 64.5653 30.7923 63.3801 30.7923C62.2165 30.7923 61.5916 31.3957 61.5916 32.7748C61.5916 34.1324 62.1949 34.8219 63.3586 34.8219ZM60.6219 41.5667C60.6219 42.6872 62.001 42.9673 63.4232 42.9673C64.9316 42.9673 66.203 42.6872 66.203 41.8252C66.203 40.6832 63.9835 40.834 62.1303 40.5539C61.2899 40.4892 60.6219 40.8986 60.6219 41.5667ZM77.3381 40.3384C76.9933 39.7781 76.6701 39.1532 76.4331 38.2913C75.7866 39.8212 74.3644 40.5754 72.8344 40.5754C71.1321 40.5754 69.7745 39.6704 69.7745 37.731C69.7745 34.1539 73.8903 34.4556 76.1314 33.3997C76.0021 31.8051 74.86 31.3957 73.4378 31.3957C72.4466 31.3957 71.3691 31.5896 70.2917 31.8266V29.2192C71.5415 28.9176 72.7698 28.7452 73.8688 28.7452C76.7994 28.7452 78.9758 29.9735 78.9758 33.529V36.4596C78.9758 37.5155 78.9974 38.6576 79.2129 40.3384H77.3381ZM72.6836 37.2569C72.6836 37.9896 73.1361 38.3559 73.8257 38.3559C74.86 38.3559 76.1314 37.3862 76.1314 35.6408V35.1667C74.4506 35.964 72.6836 35.7054 72.6836 37.2569ZM88.8315 31.762C86.7628 31.6758 85.5561 32.1068 85.0605 32.9256V40.3384H82.0437V33.2704C82.0437 32.1714 82.0221 30.7277 81.8928 28.9822H83.8106C84.2201 29.5209 84.608 30.5122 84.8019 31.4388C85.3406 29.6933 86.5473 28.7452 88.8315 28.7452V31.762ZM100.34 40.5754C96.9784 40.5754 94.6081 38.7222 94.6081 34.6495C94.6081 30.7708 97.0862 28.7452 100.469 28.7452C101.224 28.7452 102.042 28.8529 102.861 29.0469V31.5681C102.129 31.4172 101.417 31.331 100.814 31.331C98.8747 31.331 97.6033 32.1499 97.6033 34.6711C97.6033 37.1923 98.8532 37.9896 100.771 37.9896C101.417 37.9896 102.129 37.9034 102.861 37.7525V40.2737C101.978 40.4461 101.137 40.5754 100.34 40.5754ZM109.887 40.5754C106.267 40.5754 104.456 38.0111 104.456 34.7788C104.456 31.4172 106.396 28.7452 110.102 28.7452C113.701 28.7452 115.533 31.3095 115.533 34.5418C115.533 37.9034 113.593 40.5754 109.887 40.5754ZM109.995 38.162C111.718 38.162 112.537 36.8044 112.537 34.6495C112.537 32.4516 111.74 31.1586 109.995 31.1586C108.249 31.1586 107.43 32.5162 107.43 34.6711C107.43 36.869 108.249 38.162 109.995 38.162ZM125.61 33.5721C125.61 32.1068 124.856 31.4603 123.627 31.4603C122.485 31.4603 121.688 31.999 121.192 32.7317V40.3384H118.176V33.2704C118.176 32.1714 118.154 30.7277 118.025 28.9822H119.943C120.33 29.4994 120.675 30.3829 120.891 31.2233C121.365 29.9519 122.507 28.7452 124.576 28.7452C126.903 28.7452 128.627 30.0381 128.627 33.098V40.3384H125.61V33.5721Z" fill="#1D1D1D"/>
<g clip-path="url(#clip1_10761_23223)">
<path d="M313.526 21.417C309.372 21.417 305.993 24.7964 305.993 28.9503V33.2538C305.993 33.3022 305.931 33.3858 305.887 33.399C305.478 33.5354 305.148 33.6542 304.845 33.7686C304.484 33.9095 304.211 34.3099 304.211 34.7015V44.5846C304.211 44.9718 304.484 45.3722 304.84 45.5174C307.617 46.6175 310.539 47.1764 313.526 47.1764C316.514 47.1764 319.436 46.6175 322.213 45.5174C322.573 45.3766 322.842 44.9762 322.842 44.5846V34.7015C322.842 34.3099 322.569 33.9095 322.208 33.7686C321.905 33.6498 321.575 33.5354 321.165 33.399C321.117 33.3814 321.06 33.3022 321.06 33.2538V28.9503C321.06 24.7964 317.68 21.417 313.526 21.417ZM311.476 37.7113C311.476 36.576 312.395 35.6608 313.526 35.6608C314.657 35.6608 315.577 36.5804 315.577 37.7113C315.577 38.4638 315.154 39.093 314.552 39.4494V42.8421C314.552 43.4097 314.094 43.8673 313.526 43.8673C312.959 43.8673 312.501 43.4097 312.501 42.8421V39.4494C311.898 39.093 311.476 38.4638 311.476 37.7113ZM318.468 28.9503V32.6642C316.849 32.3165 315.185 32.1405 313.526 32.1405C311.867 32.1405 310.209 32.3165 308.585 32.6642V28.9547C308.585 26.2309 310.803 24.0132 313.526 24.0132C316.25 24.0088 318.468 26.2221 318.468 28.9503Z" fill="#1D1D1D"/>
</g>
<path d="M161.815 39.7681C161.767 39.9995 161.72 40.2333 161.672 40.4647C160.481 40.6631 159.285 40.7953 158.09 40.8685C159.359 40.5261 160.602 40.1648 161.815 39.7681Z" fill="#ED1C27"/>
<path d="M188.431 17.0299C185.024 26.3997 178.011 34.8586 168.547 38.5758C168.547 38.5758 168.927 36.7184 168.929 36.7184C176.612 32.3426 181.855 24.5069 183.974 16.0999C184.723 15.694 186.766 14.5352 186.766 14.5352C186.766 14.5352 187.844 16.1259 188.431 17.0299Z" fill="#ED1C27"/>
<path d="M172.311 20.2479C172.38 19.9081 172.487 19.6956 172.874 19.6673C174.532 19.5375 176.188 19.2708 177.842 19.285C179.885 19.2991 181.236 20.7318 181.502 22.9031C182.555 20.72 183.382 18.4377 183.973 16.0987C183.945 16.0775 183.916 16.0586 183.888 16.0397C182.256 14.9328 180.391 14.6354 178.476 14.5552C174.563 14.3853 170.774 15.1405 167.03 16.1672C166.83 16.2238 166.6 16.5259 166.553 16.7501C166.222 18.3503 160.371 46.8329 160.371 46.8329H164.749C165.982 46.8329 167.04 45.8888 167.289 44.6757C167.291 44.6804 172.026 21.6475 172.311 20.2479Z" fill="#1D1D1D"/>
<path d="M187.145 20.1562C183.657 27.7064 177.801 34.3409 170.199 37.867C182.512 41.3624 190.616 29.3231 187.145 20.1562Z" fill="#1D1D1D"/>
<path d="M158.848 26.1647C149.906 17.5808 134.661 27.3778 137.106 39.0512C138.626 46.3135 146.537 47.9255 152.939 46.212C157.002 45.1263 156.517 41.2108 156.517 41.2108C151.421 42.3814 141.724 41.3288 142.52 37.4605C146.44 38.5532 152.414 38.8129 156.607 36.6722C162.078 33.8778 161.145 28.7279 158.848 26.1647ZM155.099 31.0573C153.733 33.8589 145.926 33.8353 143.116 33.0163C144.879 29.0418 149.514 26.6674 153.764 28.388C155.047 28.9096 155.617 29.9858 155.099 31.0573Z" fill="#1D1D1D"/>
<path d="M215.149 24.7036C211.362 23.4693 206.82 22.9028 203.494 22.9028C194.692 22.9028 189.152 30.774 189.411 37.6798C189.511 40.3303 190.406 46.3464 198.467 47.0379C200.705 47.2291 202.841 46.9435 204.71 45.5699C204.724 45.5581 204.855 45.4424 204.824 45.6077C204.758 45.9924 204.608 46.8373 204.608 46.8373C204.608 46.8373 208.811 46.8373 210.804 46.8373C211.179 46.8373 211.231 46.58 211.286 46.3181C212.719 39.3556 214.161 32.4072 215.576 25.44C215.667 25.001 215.579 24.8405 215.149 24.7036ZM208.319 28.8528C207.563 32.4426 206.832 36.0372 206.069 39.6293C206.003 39.9385 205.841 40.2194 205.603 40.4294C203.793 42.0296 201.684 42.556 199.327 42.0178C194.809 40.9864 195.55 34.6211 197.132 31.5505C198.574 28.7561 201.833 27.1771 205.152 27.6043C208.473 28.0291 208.404 28.4351 208.319 28.8528Z" fill="#1D1D1D"/>
<path d="M292.642 31.3027C292.179 25.8082 287.812 22.9028 282.571 22.9028C271.582 22.9028 267.952 32.0249 268.287 38.3643C268.607 44.4512 274.026 47.2857 279.485 46.7783C284.557 46.4786 288.368 44.1774 290.725 39.6695C292.088 37.0568 292.972 34.3024 292.642 31.3027ZM277.485 41.6261C272.648 40.6371 274.288 34.2812 275.297 32.4072C277.735 27.8804 281.056 27.6727 282.944 27.9701C285.439 28.3595 286.855 30.1297 286.715 33.12C286.503 37.6468 283.113 42.7755 277.485 41.6261Z" fill="#1D1D1D"/>
<path d="M215.082 57.4306L215.902 53.397C216.025 52.925 216.469 52.5888 216.956 52.5745C219.413 52.5054 220.254 52.0763 221.482 50.7365C222.42 49.5398 223.131 48.5791 223.919 47.473C224.024 47.3275 224.033 47.0677 223.995 46.877C222.665 40.0995 219.308 22.9043 219.308 22.9043C219.308 22.9043 225.428 22.8495 225.813 25.3145C226.552 30.0346 228.3 39.5774 228.383 39.9541C228.599 39.5798 234.322 29.7199 237 24.9926C238.313 22.6731 243.319 22.9043 244.972 22.9043C240.038 31.1789 230.455 47.225 228.961 49.7186C225.079 56.1885 221.663 57.4806 218.085 57.4353C217.111 57.4234 215.082 57.4306 215.082 57.4306Z" fill="#1D1D1D"/>
<path d="M263.83 40.2381C263.483 41.9209 262.853 44.9821 262.832 45.0907C262.796 45.27 262.72 45.4683 262.48 45.558C259.176 46.7853 255.648 47.3635 252.438 46.233C242.052 42.5794 244.841 25.9993 255.688 23.3606C261.014 22.0649 266.326 23.9412 266.585 24.0214C266.887 24.1158 267.075 24.4179 267.013 24.7248C266.825 25.6476 266.229 28.5695 266.203 28.6757C263.198 27.7104 260.04 27.0118 256.971 28.0833C250.87 30.2169 249.545 40.6158 255.612 41.8336C258.52 42.4189 261.181 41.3946 263.83 40.2381Z" fill="#1D1D1D"/>
<path d="M249.155 55.9048C249.995 56.0769 252.069 56.0234 252.117 54.7078C252.117 54.18 251.415 53.6867 250.748 53.5452C249.924 53.3731 249.4 53.3693 248.568 53.5452C248.055 53.7364 247.897 53.2469 248.363 53.0825C249.246 52.7689 252.692 52.7039 252.854 54.7078C252.712 56.6888 249.703 56.5473 249.025 56.4134C248.757 56.3637 248.552 56.2413 248.552 55.9125V54.2642C248.552 53.8741 249.151 53.8779 249.151 54.2642V55.9048H249.155Z" fill="#ED1C27"/>
<path d="M255.631 53.5841C254.961 53.5841 253.833 55.569 253.498 56.2803C253.301 56.7048 252.67 56.4026 252.871 55.9743C253.226 55.2095 254.571 52.8996 255.624 52.9225C256.676 52.9034 258.021 55.2095 258.376 55.9743C258.573 56.4026 257.946 56.7048 257.749 56.2803C257.418 55.569 256.298 53.5841 255.631 53.5841Z" fill="#ED1C27"/>
<path d="M260.322 55.82C260.992 55.82 262.12 53.8352 262.451 53.1238C262.648 52.6993 263.279 53.0014 263.078 53.4259C262.723 54.1908 261.378 56.5007 260.326 56.4816C259.273 56.5007 257.928 54.1946 257.573 53.4259C257.376 52.9976 258.003 52.6955 258.204 53.1238C258.535 53.8352 259.651 55.82 260.322 55.82Z" fill="#ED1C27"/>
<path d="M264.217 53.2631V56.1543C264.217 56.5865 263.543 56.5712 263.543 56.139V53.2555C263.543 52.8081 264.217 52.8042 264.217 53.2631Z" fill="#ED1C27"/>
<path d="M267.439 55.82C268.109 55.82 269.237 53.8352 269.568 53.1238C269.765 52.6993 270.396 53.0014 270.195 53.4259C269.836 54.1908 268.492 56.5007 267.439 56.4816C266.386 56.5007 265.041 54.1946 264.686 53.4259C264.489 52.9976 265.116 52.6955 265.313 53.1238C265.645 53.8352 266.761 55.82 267.431 55.82" fill="#ED1C27"/>
<path d="M272.617 55.0016C272.814 55.4069 273.378 55.7358 273.922 55.8506C274.743 56.0265 275.267 56.0265 276.099 55.8506C276.596 55.6938 276.769 56.1603 276.3 56.3133C275.377 56.6154 271.994 56.7225 271.797 54.7109C271.907 52.7949 274.609 52.8447 275.642 52.9785C276.146 53.0435 276.044 53.5598 275.515 53.4527C274.825 53.3648 272.948 53.2577 272.582 54.4623H274.506C274.806 54.4623 274.806 55.0016 274.506 55.0016H272.617Z" fill="#ED1C27"/>
<path d="M283.347 55.9077C284.186 56.0798 286.261 56.0263 286.308 54.7107C286.308 54.183 285.606 53.6896 284.936 53.5481C284.116 53.376 283.591 53.3722 282.759 53.5481C282.246 53.7394 282.089 53.2498 282.554 53.0854C283.441 52.7718 286.884 52.7068 287.045 54.7107C286.903 56.6917 283.895 56.5502 283.22 56.4164C282.952 56.3667 282.747 56.2443 282.747 55.9154V54.2671C282.747 53.877 283.347 53.8809 283.347 54.2671V55.9077Z" fill="#ED1C27"/>
<path d="M289.826 53.5841C289.155 53.5841 288.023 55.569 287.692 56.2803C287.495 56.7048 286.868 56.4026 287.065 55.9743C287.424 55.2095 288.769 52.8996 289.818 52.9225C290.871 52.9034 292.215 55.2095 292.57 55.9743C292.767 56.4026 292.14 56.7048 291.943 56.2803C291.612 55.569 290.496 53.5841 289.826 53.5841Z" fill="#ED1C27"/>
<path d="M271.331 53.2631V56.1543C271.331 56.5865 270.656 56.5712 270.656 56.139V53.2555C270.656 52.8081 271.331 52.8042 271.331 53.2631Z" fill="#ED1C27"/>
<path d="M279.432 55.2917C279.014 54.5536 278.557 53.5746 278.241 53.5517C277.464 53.5517 277.815 55.0355 277.803 56.1943C277.8 56.6035 277.129 56.6035 277.129 56.1484C277.129 54.6722 276.802 52.9092 278.257 52.9092C278.683 52.9092 279.085 53.5287 279.448 54.11C279.866 54.8519 280.363 55.8309 280.674 55.8539C281.451 55.8539 281.08 54.4007 281.096 53.2419C281.1 52.8327 281.771 52.8327 281.771 53.2878C281.771 54.7678 282.118 56.5002 280.662 56.5002C280.233 56.5002 279.795 55.8807 279.432 55.2955" fill="#ED1C27"/>
<path fill-rule="evenodd" clip-rule="evenodd" d="M239.805 53.6274C239.819 53.7369 239.805 54.2054 239.364 54.8484C238.902 55.5563 239.632 56.7397 241.106 56.4387C241.431 56.5516 241.78 56.5686 242.006 56.5652C242.231 56.5652 242.584 56.5516 242.908 56.4421C244.383 56.7431 245.109 55.5563 244.647 54.8484C244.203 54.2088 244.192 53.7369 244.206 53.6274H239.812H239.805Z" fill="#E5252B"/>
<path fill-rule="evenodd" clip-rule="evenodd" d="M242 56.556C240.563 56.5184 240.303 55.8766 240.697 55.7435C240.93 55.6649 241.232 55.5352 241.232 55.5352C241.077 54.8114 241.331 53.8862 242.003 53.8897C242.676 53.8897 242.918 54.8422 242.767 55.5523C242.767 55.5523 243.073 55.6581 243.299 55.7469C243.675 55.8869 243.436 56.5219 242 56.5594" fill="#0682C4"/>
<path fill-rule="evenodd" clip-rule="evenodd" d="M241.464 56.0516C241.081 55.0188 241.418 54.0508 242.005 54.0508C242.564 54.0542 242.944 54.9916 242.55 56.0482C242.55 56.0482 242.364 56.0073 241.988 56.0073C241.706 56.0073 241.467 56.0516 241.467 56.0516" fill="#FFE11B"/>
<path fill-rule="evenodd" clip-rule="evenodd" d="M241.998 56.572C242.578 56.572 243.032 56.4526 243.032 56.2855C243.032 56.1184 242.578 55.9956 241.998 55.9956C241.418 55.9956 240.965 56.115 240.965 56.2855C240.965 56.456 241.418 56.572 241.998 56.572Z" fill="#F49824"/>
<path fill-rule="evenodd" clip-rule="evenodd" d="M240.087 54.1401H240.784C240.894 54.1401 240.982 54.2255 240.982 54.3314V54.7857C240.982 54.895 240.894 54.9804 240.784 54.9804H240.087C239.978 54.9804 239.887 54.895 239.887 54.7857V54.3314C239.887 54.2255 239.975 54.1401 240.087 54.1401Z" fill="#0682C4"/>
<path d="M240.166 54.2534H240.714C240.798 54.2534 240.864 54.3181 240.864 54.3964V54.7265C240.864 54.8081 240.798 54.8728 240.714 54.8728H240.166C240.082 54.8728 240.016 54.8081 240.016 54.7265V54.3964C240.016 54.3181 240.082 54.2534 240.166 54.2534Z" fill="#231F20"/>
<path fill-rule="evenodd" clip-rule="evenodd" d="M240.863 54.6398C240.616 54.6162 240.533 54.3362 240.512 54.2485H240.713C240.797 54.2485 240.863 54.3126 240.863 54.3902V54.6365V54.6398Z" fill="#FFE11B"/>
<path fill-rule="evenodd" clip-rule="evenodd" d="M240.37 54.2534C240.356 54.3344 240.276 54.6312 240.016 54.6447V54.3951C240.016 54.3175 240.082 54.2534 240.165 54.2534H240.37Z" fill="#FFE11B"/>
<path fill-rule="evenodd" clip-rule="evenodd" d="M243.224 54.1401H243.918C244.027 54.1401 244.119 54.2255 244.119 54.3314V54.7857C244.119 54.895 244.031 54.9804 243.918 54.9804H243.224C243.115 54.9804 243.027 54.895 243.027 54.7857V54.3314C243.027 54.2255 243.115 54.1401 243.224 54.1401Z" fill="#0682C4"/>
<path d="M243.307 54.2534H243.858C243.942 54.2534 244.009 54.3181 244.009 54.3964V54.7265C244.009 54.8081 243.942 54.8728 243.858 54.8728H243.307C243.227 54.8728 243.16 54.8081 243.16 54.7265V54.3964C243.16 54.3181 243.227 54.2534 243.307 54.2534Z" fill="#231F20"/>
<path fill-rule="evenodd" clip-rule="evenodd" d="M244.003 54.6398C243.757 54.6162 243.673 54.3362 243.652 54.2485H243.857C243.941 54.2485 244.007 54.3126 244.007 54.3902V54.6365L244.003 54.6398Z" fill="#FFE11B"/>
<path fill-rule="evenodd" clip-rule="evenodd" d="M243.507 54.2534C243.49 54.3344 243.413 54.6312 243.152 54.6447V54.3951C243.152 54.3175 243.218 54.2534 243.298 54.2534H243.507Z" fill="#FFE11B"/>
<path fill-rule="evenodd" clip-rule="evenodd" d="M243.447 51.8673C243.373 51.626 243.359 51.507 243.587 51.507H244.088C244.392 51.5002 244.266 51.7314 244.238 51.9557C244.2 52.2515 244.2 52.3433 244.2 52.3433C244.2 52.3433 243.447 51.8741 243.447 51.8707" fill="#E5252B"/>
<path fill-rule="evenodd" clip-rule="evenodd" d="M241.998 53.6029C241.246 53.6029 240.217 53.6679 239.554 53.7158C239.046 53.7534 238.651 53.3772 238.989 53.0215C239.712 52.2623 241.472 51.3081 242.005 51.3081C242.572 51.3081 244.297 52.2623 245.02 53.0215C245.358 53.3772 245.02 53.7158 244.505 53.7158C243.937 53.7158 242.749 53.6029 241.998 53.6029Z" fill="#F49824"/>
<path d="M242.41 55.3032C242.41 55.2496 242.452 55.2061 242.507 55.2061C242.562 55.2061 242.6 55.2496 242.6 55.3032C242.6 55.3568 242.559 55.397 242.507 55.397C242.455 55.397 242.41 55.3535 242.41 55.3032Z" fill="#231F20"/>
<path fill-rule="evenodd" clip-rule="evenodd" d="M242.001 55.9794C241.701 55.9794 241.462 56.0238 241.462 56.0238C241.105 55.0149 241.43 54.0676 242.001 54.0676C242.572 54.0676 242.9 55.0183 242.541 56.0238C242.541 56.0238 242.311 55.9794 242.001 55.9794ZM242.53 56.058C242.826 56.1025 243.024 56.188 243.024 56.2837C243.024 56.4274 242.569 56.5471 242.005 56.5471C241.44 56.5471 240.985 56.4274 240.985 56.2837C240.985 56.188 241.179 56.1025 241.476 56.058C241.476 56.058 241.797 56.0204 242.005 56.0204C242.213 56.0204 242.534 56.058 242.534 56.058M242.576 56.0272C242.95 54.9807 242.586 54.0197 242.005 54.0231C241.423 54.0231 241.06 54.9841 241.433 56.0272C241.144 56.082 240.954 56.1743 240.954 56.2837C240.954 56.3179 240.975 56.3487 241.01 56.3795C240.523 56.1743 240.478 55.8357 240.746 55.7434C240.975 55.6647 241.257 55.5587 241.257 55.5587C241.109 54.8542 241.338 53.9103 242.008 53.9103C242.678 53.9103 242.907 54.8542 242.756 55.5587C242.756 55.5587 243.034 55.6681 243.267 55.7434C243.528 55.8289 243.489 56.1675 243.006 56.3761C243.041 56.3453 243.059 56.3145 243.059 56.2803C243.059 56.1743 242.869 56.0785 242.579 56.0238M243.479 51.8617C243.422 51.6394 243.419 51.547 243.616 51.547H244.05C244.336 51.5436 244.219 51.7556 244.195 51.9711C244.18 52.1011 244.17 52.2071 244.166 52.2858C243.937 52.1284 243.704 51.9882 243.482 51.8617M242.978 56.4308C244.36 56.6565 245.034 55.5348 244.593 54.8542C244.251 54.3617 244.17 53.9479 244.159 53.7358C243.253 53.6914 242.629 53.6469 242.005 53.6401C241.38 53.6469 240.756 53.6914 239.85 53.7358C239.836 53.9479 239.755 54.3617 239.413 54.8542C238.972 55.5348 239.645 56.6565 241.028 56.4308C240.442 56.2153 240.368 55.8494 240.682 55.7297C240.911 55.6442 241.218 55.5348 241.218 55.5348C241.067 54.8097 241.331 53.8521 242.001 53.8521C242.675 53.8521 242.939 54.8063 242.784 55.5348C242.784 55.5348 243.091 55.6442 243.32 55.7297C243.634 55.846 243.56 56.2153 242.974 56.4308M242.005 53.5511C241.225 53.5614 240.488 53.6161 239.621 53.6709C239.081 53.7051 238.778 53.3562 239.116 52.9937C239.617 52.4636 241.328 51.3692 242.005 51.3692C242.682 51.3692 244.389 52.4636 244.893 52.9937C245.231 53.3528 244.928 53.7051 244.392 53.6709C243.525 53.6161 242.784 53.5648 242.008 53.5511M243.38 51.8035C243.373 51.783 243.366 51.7591 243.362 51.7385C243.324 51.6086 243.362 51.465 243.592 51.465H244.096C244.392 51.465 244.36 51.6633 244.307 51.8548C244.272 51.9916 244.244 52.1661 244.23 52.3302C244.23 52.3302 244.642 52.6243 244.872 52.8124C245.591 53.4041 245.122 53.7871 244.434 53.7564C244.364 53.7529 244.297 53.7495 244.23 53.7461C244.233 53.941 244.293 54.3036 244.611 54.7174C245.408 55.6442 244.35 56.807 242.858 56.4787C242.611 56.5573 242.22 56.595 242.005 56.595C241.79 56.595 241.398 56.5573 241.148 56.4787C239.656 56.807 238.598 55.6442 239.395 54.7174C239.712 54.307 239.772 53.9445 239.776 53.7461L239.575 53.7564C238.887 53.7906 238.418 53.4041 239.138 52.8124C240.21 51.9369 241.504 51.2871 242.005 51.2837C242.28 51.2837 242.795 51.4855 243.38 51.807" fill="#231F20"/>
<path d="M240.78 54.9993H240.085C239.962 54.9993 239.863 54.9039 239.863 54.7846V54.3314C239.863 54.2155 239.962 54.1201 240.085 54.1201H240.78C240.899 54.1201 240.998 54.2155 240.998 54.3314V54.7846C240.998 54.9039 240.899 54.9993 240.78 54.9993ZM240.088 54.161C239.99 54.161 239.909 54.2394 239.909 54.3314V54.7846C239.909 54.88 239.99 54.9584 240.088 54.9584H240.783C240.882 54.9584 240.959 54.88 240.959 54.7846V54.3314C240.959 54.236 240.878 54.161 240.783 54.161H240.088Z" fill="#231F20"/>
<path d="M243.921 54.9993H243.229C243.11 54.9993 243.012 54.9039 243.012 54.7846V54.3314C243.012 54.2155 243.11 54.1201 243.229 54.1201H243.921C244.044 54.1201 244.143 54.2155 244.143 54.3314V54.7846C244.143 54.9039 244.044 54.9993 243.921 54.9993ZM243.226 54.161C243.128 54.161 243.05 54.2394 243.05 54.3314V54.7846C243.05 54.88 243.131 54.9584 243.226 54.9584H243.918C244.016 54.9584 244.097 54.88 244.097 54.7846V54.3314C244.097 54.236 244.016 54.161 243.918 54.161H243.226Z" fill="#231F20"/>
</g>
<defs>
<radialGradient id="paint0_radial_10761_23223" cx="0" cy="0" r="1" gradientUnits="userSpaceOnUse" gradientTransform="translate(27.9383 2.13168) rotate(90) scale(106.444 338.598)">
<stop stop-color="#F8991D"/>
<stop offset="0.93" stop-color="#F8991D" stop-opacity="0"/>
</radialGradient>
<radialGradient id="paint1_radial_10761_23223" cx="0" cy="0" r="1" gradientUnits="userSpaceOnUse" gradientTransform="translate(325.716 6.70256) rotate(90) scale(67.3764 420.126)">
<stop stop-color="#BCBABA"/>
<stop offset="1" stop-color="#959595" stop-opacity="0"/>
</radialGradient>
<radialGradient id="paint2_radial_10761_23223" cx="0" cy="0" r="1" gradientUnits="userSpaceOnUse" gradientTransform="translate(377.29 37.2541) rotate(90) scale(21.821 338.598)">
<stop stop-color="#959595"/>
<stop offset="1" stop-color="#959595" stop-opacity="0"/>
</radialGradient>
<radialGradient id="paint3_radial_10761_23223" cx="0" cy="0" r="1" gradientUnits="userSpaceOnUse" gradientTransform="translate(303.005 60.6738) rotate(90) scale(33.5298 338.598)">
<stop stop-color="#1D1D1D"/>
<stop offset="1" stop-color="#1D1D1D" stop-opacity="0"/>
</radialGradient>
<radialGradient id="paint4_radial_10761_23223" cx="0" cy="0" r="1" gradientUnits="userSpaceOnUse" gradientTransform="translate(23.0359 84.8885) rotate(90) scale(45.5047 338.598)">
<stop stop-color="#FFBB00"/>
<stop offset="0.93" stop-color="#FFBB00" stop-opacity="0"/>
</radialGradient>
<radialGradient id="paint5_radial_10761_23223" cx="0" cy="0" r="1" gradientUnits="userSpaceOnUse" gradientTransform="translate(-7.34689 70.4365) rotate(90) scale(36.1909 338.598)">
<stop stop-color="#ED1C27"/>
<stop offset="1" stop-color="#ED1C27" stop-opacity="0"/>
</radialGradient>
<radialGradient id="paint6_radial_10761_23223" cx="0" cy="0" r="1" gradientUnits="userSpaceOnUse" gradientTransform="translate(-7.34689 42.5131) rotate(90) scale(36.1909 338.598)">
<stop stop-color="#ED1C27"/>
<stop offset="1" stop-color="#ED1C27" stop-opacity="0"/>
</radialGradient>
<radialGradient id="paint7_radial_10761_23223" cx="0" cy="0" r="1" gradientUnits="userSpaceOnUse" gradientTransform="translate(67.7271 -19.3574) rotate(90) scale(44.6694 157.547)">
<stop stop-color="#ED1C27"/>
<stop offset="1" stop-color="#ED1C27" stop-opacity="0"/>
</radialGradient>
<clipPath id="clip0_10761_23223">
<rect width="361.622" height="63.8793" rx="31.9397" fill="white"/>
</clipPath>
<clipPath id="clip1_10761_23223">
<rect width="18.6309" height="25.7594" fill="white" transform="translate(304.195 21.418)"/>
</clipPath>
</defs>
</svg>
