<svg width="380" height="75" viewBox="0 0 380 75" fill="none" xmlns="http://www.w3.org/2000/svg">
<g clip-path="url(#clip0_10765_21904)">
<rect width="375.697" height="124.511" transform="translate(-5.375 0.0307617)" fill="#F8991D"/>
<g filter="url(#filter0_f_10765_21904)">
<path d="M-7.77091 28.6995C10.4161 13.4224 91.0689 39.3391 110.838 58.4648C130.608 77.5905 98.6875 114.215 80.5004 129.492C62.3134 144.769 1.69217 107.884 -18.0773 88.7579C-37.8467 69.6322 -25.9579 43.9766 -7.77091 28.6995Z" fill="url(#paint0_linear_10765_21904)" fill-opacity="0.87"/>
</g>
<g filter="url(#filter1_f_10765_21904)">
<path d="M276.317 -34.6448C301.822 -46.4753 379.177 -3.2959 393.262 20.3309C407.347 43.9577 358.837 74.74 333.332 86.5705C307.826 98.401 256.328 48.1726 242.243 24.5458C228.158 0.919014 250.811 -22.8143 276.317 -34.6448Z" fill="url(#paint1_linear_10765_21904)" fill-opacity="0.87"/>
</g>
<rect x="11.9453" y="7.60938" width="356.094" height="59.5685" rx="5.44611" fill="black"/>
<path d="M170.518 41.9766C170.47 42.208 170.423 42.4418 170.375 42.6732C169.184 42.8716 167.989 43.0038 166.793 43.077C168.062 42.7346 169.306 42.3733 170.518 41.9766Z" fill="#ED1C27"/>
<path d="M197.134 19.2384C193.728 28.6082 186.715 37.0671 177.25 40.7843C177.25 40.7843 177.63 38.9269 177.632 38.9269C185.315 34.5511 190.558 26.7154 192.677 18.3084C193.426 17.9025 195.469 16.7437 195.469 16.7437C195.469 16.7437 196.547 18.3344 197.134 19.2384Z" fill="#ED1C27"/>
<path d="M181.014 22.4564C181.083 22.1166 181.19 21.9041 181.577 21.8758C183.235 21.746 184.891 21.4793 186.545 21.4935C188.588 21.5076 189.94 22.9403 190.206 25.1116C191.258 22.9285 192.085 20.6462 192.676 18.3072C192.648 18.286 192.619 18.2671 192.591 18.2482C190.959 17.1413 189.094 16.8439 187.179 16.7637C183.266 16.5938 179.477 17.349 175.733 18.3757C175.534 18.4323 175.303 18.7344 175.256 18.9586C174.925 20.5588 169.074 49.0414 169.074 49.0414H173.453C174.685 49.0414 175.743 48.0973 175.992 46.8842C175.994 46.8889 180.729 23.856 181.014 22.4564Z" fill="white"/>
<path d="M195.848 22.3647C192.36 29.9149 186.504 36.5494 178.902 40.0755C191.215 43.5709 199.319 31.5316 195.848 22.3647Z" fill="white"/>
<path d="M167.551 28.3732C158.609 19.7893 143.364 29.5863 145.809 41.2597C147.329 48.522 155.24 50.134 161.642 48.4205C165.705 47.3348 165.22 43.4193 165.22 43.4193C160.124 44.5899 150.427 43.5373 151.223 39.669C155.143 40.7617 161.117 41.0214 165.31 38.8807C170.782 36.0862 169.848 30.9364 167.551 28.3732ZM163.802 33.2658C162.436 36.0674 154.63 36.0438 151.819 35.2248C153.582 31.2503 158.217 28.8759 162.467 30.5965C163.75 31.1181 164.32 32.1943 163.802 33.2658Z" fill="white"/>
<path d="M223.852 26.9121C220.065 25.6778 215.523 25.1113 212.197 25.1113C203.395 25.1113 197.855 32.9825 198.114 39.8883C198.214 42.5388 199.11 48.5549 207.17 49.2464C209.408 49.4376 211.544 49.152 213.413 47.7784C213.428 47.7666 213.558 47.6509 213.527 47.8162C213.461 48.2009 213.311 49.0458 213.311 49.0458C213.311 49.0458 217.514 49.0458 219.507 49.0458C219.882 49.0458 219.935 48.7885 219.989 48.5266C221.422 41.5641 222.864 34.6157 224.28 27.6485C224.37 27.2095 224.282 27.049 223.852 26.9121ZM217.022 31.0613C216.267 34.6511 215.535 38.2457 214.772 41.8378C214.706 42.147 214.544 42.4279 214.307 42.6379C212.496 44.2381 210.387 44.7645 208.03 44.2263C203.512 43.1949 204.253 36.8296 205.835 33.759C207.277 30.9645 210.536 29.3856 213.855 29.8128C217.176 30.2376 217.107 30.6436 217.022 31.0613Z" fill="white"/>
<path d="M301.345 33.5112C300.882 28.0167 296.515 25.1113 291.275 25.1113C280.285 25.1113 276.655 34.2334 276.99 40.5728C277.31 46.6597 282.729 49.4942 288.189 48.9868C293.261 48.6871 297.071 46.3859 299.428 41.878C300.791 39.2653 301.675 36.5109 301.345 33.5112ZM286.188 43.8346C281.351 42.8456 282.991 36.4897 284 34.6157C286.438 30.0889 289.759 29.8812 291.648 30.1786C294.142 30.568 295.558 32.3382 295.418 35.3285C295.206 39.8553 291.816 44.984 286.188 43.8346Z" fill="white"/>
<path d="M223.785 59.6391L224.605 55.6055C224.728 55.1335 225.173 54.7973 225.66 54.783C228.116 54.7139 228.957 54.2848 230.185 52.945C231.124 51.7483 231.834 50.7876 232.623 49.6814C232.727 49.536 232.737 49.2762 232.699 49.0855C231.368 42.308 228.011 25.1128 228.011 25.1128C228.011 25.1128 234.131 25.058 234.516 27.523C235.255 32.2431 237.003 41.7859 237.086 42.1626C237.303 41.7883 243.026 31.9284 245.703 27.2011C247.017 24.8816 252.022 25.1128 253.676 25.1128C248.741 33.3874 239.158 49.4335 237.664 51.9271C233.782 58.397 230.366 59.6891 226.788 59.6438C225.814 59.6319 223.785 59.6391 223.785 59.6391Z" fill="white"/>
<path d="M272.533 42.4466C272.186 44.1294 271.556 47.1906 271.535 47.2992C271.499 47.4785 271.423 47.6768 271.183 47.7665C267.879 48.9938 264.351 49.572 261.141 48.4415C250.755 44.7879 253.544 28.2078 264.391 25.5691C269.717 24.2733 275.029 26.1497 275.288 26.2299C275.59 26.3243 275.778 26.6264 275.716 26.9333C275.528 27.8561 274.932 30.778 274.906 30.8842C271.901 29.9189 268.743 29.2203 265.674 30.2918C259.573 32.4254 258.248 42.8243 264.315 44.0421C267.223 44.6274 269.884 43.6031 272.533 42.4466Z" fill="white"/>
<path d="M257.858 58.1128C258.698 58.2849 260.772 58.2314 260.82 56.9158C260.82 56.3881 260.118 55.8947 259.451 55.7532C258.627 55.5811 258.103 55.5773 257.271 55.7532C256.758 55.9444 256.6 55.4549 257.066 55.2905C257.949 54.9769 261.396 54.9119 261.557 56.9158C261.415 58.8968 258.406 58.7553 257.728 58.6214C257.46 58.5717 257.255 58.4494 257.255 58.1205V56.4722C257.255 56.0821 257.854 56.0859 257.854 56.4722V58.1128H257.858Z" fill="white"/>
<path d="M264.335 55.7921C263.664 55.7921 262.536 57.777 262.201 58.4883C262.004 58.9128 261.373 58.6107 261.574 58.1823C261.929 57.4175 263.274 55.1076 264.327 55.1305C265.38 55.1114 266.724 57.4175 267.079 58.1823C267.276 58.6107 266.649 58.9128 266.452 58.4883C266.121 57.777 265.001 55.7921 264.335 55.7921Z" fill="white"/>
<path d="M269.025 58.028C269.695 58.028 270.823 56.0432 271.154 55.3318C271.351 54.9073 271.982 55.2095 271.781 55.6339C271.426 56.3988 270.082 58.7087 269.029 58.6896C267.976 58.7087 266.631 56.4026 266.276 55.6339C266.079 55.2056 266.706 54.9035 266.907 55.3318C267.238 56.0432 268.354 58.028 269.025 58.028Z" fill="white"/>
<path d="M272.92 55.4712V58.3623C272.92 58.7945 272.246 58.7792 272.246 58.347V55.4635C272.246 55.0161 272.92 55.0122 272.92 55.4712Z" fill="white"/>
<path d="M276.142 58.028C276.812 58.028 277.94 56.0432 278.271 55.3318C278.469 54.9073 279.099 55.2095 278.898 55.6339C278.54 56.3988 277.195 58.7087 276.142 58.6896C275.089 58.7087 273.744 56.4026 273.389 55.6339C273.192 55.2056 273.819 54.9035 274.016 55.3318C274.348 56.0432 275.464 58.028 276.134 58.028" fill="white"/>
<path d="M281.32 57.2096C281.517 57.615 282.081 57.9438 282.625 58.0586C283.446 58.2345 283.97 58.2345 284.802 58.0586C285.299 57.9018 285.473 58.3683 285.003 58.5213C284.081 58.8234 280.697 58.9305 280.5 56.9189C280.61 55.0029 283.312 55.0527 284.345 55.1865C284.85 55.2515 284.747 55.7678 284.219 55.6607C283.529 55.5728 281.651 55.4657 281.285 56.6703H283.209C283.509 56.6703 283.509 57.2096 283.209 57.2096H281.32Z" fill="white"/>
<path d="M292.05 58.1158C292.89 58.2878 294.964 58.2343 295.011 56.9187C295.011 56.391 294.309 55.8976 293.639 55.7561C292.819 55.5841 292.294 55.5802 291.462 55.7561C290.949 55.9474 290.792 55.4579 291.257 55.2934C292.144 54.9798 295.587 54.9148 295.749 56.9187C295.607 58.8997 292.598 58.7582 291.924 58.6244C291.655 58.5747 291.45 58.4523 291.45 58.1234V56.4751C291.45 56.085 292.05 56.0889 292.05 56.4751V58.1158Z" fill="white"/>
<path d="M298.529 55.7921C297.858 55.7921 296.727 57.777 296.395 58.4883C296.198 58.9128 295.571 58.6107 295.768 58.1823C296.127 57.4175 297.472 55.1076 298.521 55.1305C299.574 55.1114 300.918 57.4175 301.273 58.1823C301.47 58.6107 300.843 58.9128 300.646 58.4883C300.315 57.777 299.199 55.7921 298.529 55.7921Z" fill="white"/>
<path d="M280.034 55.4712V58.3623C280.034 58.7945 279.359 58.7792 279.359 58.347V55.4635C279.359 55.0161 280.034 55.0122 280.034 55.4712Z" fill="white"/>
<path d="M288.135 57.4997C287.717 56.7616 287.26 55.7826 286.944 55.7597C286.167 55.7597 286.518 57.2435 286.507 58.4023C286.503 58.8115 285.832 58.8115 285.832 58.3564C285.832 56.8802 285.505 55.1172 286.96 55.1172C287.386 55.1172 287.788 55.7367 288.151 56.318C288.569 57.0599 289.066 58.039 289.377 58.0619C290.154 58.0619 289.784 56.6087 289.799 55.4499C289.803 55.0407 290.474 55.0407 290.474 55.4958C290.474 56.9758 290.821 58.7082 289.366 58.7082C288.936 58.7082 288.498 58.0887 288.135 57.5036" fill="white"/>
<path fill-rule="evenodd" clip-rule="evenodd" d="M248.508 55.8354C248.522 55.9449 248.508 56.4134 248.067 57.0564C247.605 57.7643 248.335 58.9477 249.81 58.6467C250.134 58.7596 250.483 58.7767 250.709 58.7732C250.934 58.7732 251.287 58.7596 251.612 58.6501C253.086 58.9511 253.812 57.7643 253.35 57.0564C252.906 56.4169 252.895 55.9449 252.909 55.8354H248.515H248.508Z" fill="#E5252B"/>
<path fill-rule="evenodd" clip-rule="evenodd" d="M250.703 58.764C249.267 58.7265 249.006 58.0846 249.4 57.9515C249.633 57.8729 249.935 57.7432 249.935 57.7432C249.78 57.0194 250.034 56.0943 250.706 56.0977C251.379 56.0977 251.622 57.0502 251.47 57.7603C251.47 57.7603 251.776 57.8661 252.002 57.9549C252.378 58.0949 252.139 58.7299 250.703 58.7674" fill="#0682C4"/>
<path fill-rule="evenodd" clip-rule="evenodd" d="M250.167 58.2596C249.784 57.2268 250.121 56.2588 250.708 56.2588C251.267 56.2622 251.647 57.1996 251.253 58.2562C251.253 58.2562 251.067 58.2153 250.691 58.2153C250.409 58.2153 250.17 58.2596 250.17 58.2596" fill="#FFE11B"/>
<path fill-rule="evenodd" clip-rule="evenodd" d="M250.701 58.78C251.281 58.78 251.735 58.6606 251.735 58.4935C251.735 58.3264 251.281 58.2036 250.701 58.2036C250.121 58.2036 249.668 58.323 249.668 58.4935C249.668 58.664 250.121 58.78 250.701 58.78Z" fill="#F49824"/>
<path fill-rule="evenodd" clip-rule="evenodd" d="M248.791 56.3481H249.488C249.597 56.3481 249.685 56.4335 249.685 56.5394V56.9937C249.685 57.103 249.597 57.1884 249.488 57.1884H248.791C248.681 57.1884 248.59 57.103 248.59 56.9937V56.5394C248.59 56.4335 248.678 56.3481 248.791 56.3481Z" fill="#0682C4"/>
<path d="M248.87 56.4614H249.417C249.501 56.4614 249.568 56.5261 249.568 56.6044V56.9345C249.568 57.0161 249.501 57.0808 249.417 57.0808H248.87C248.785 57.0808 248.719 57.0161 248.719 56.9345V56.6044C248.719 56.5261 248.785 56.4614 248.87 56.4614Z" fill="#231F20"/>
<path fill-rule="evenodd" clip-rule="evenodd" d="M249.566 56.8479C249.319 56.8242 249.236 56.5442 249.215 56.4565H249.416C249.5 56.4565 249.566 56.5206 249.566 56.5982V56.8445V56.8479Z" fill="#FFE11B"/>
<path fill-rule="evenodd" clip-rule="evenodd" d="M249.073 56.4614C249.059 56.5424 248.979 56.8392 248.719 56.8527V56.6031C248.719 56.5255 248.785 56.4614 248.868 56.4614H249.073Z" fill="#FFE11B"/>
<path fill-rule="evenodd" clip-rule="evenodd" d="M251.928 56.3481H252.621C252.73 56.3481 252.822 56.4335 252.822 56.5394V56.9937C252.822 57.103 252.734 57.1884 252.621 57.1884H251.928C251.818 57.1884 251.73 57.103 251.73 56.9937V56.5394C251.73 56.4335 251.818 56.3481 251.928 56.3481Z" fill="#0682C4"/>
<path d="M252.011 56.4614H252.561C252.645 56.4614 252.712 56.5261 252.712 56.6044V56.9345C252.712 57.0161 252.645 57.0808 252.561 57.0808H252.011C251.93 57.0808 251.863 57.0161 251.863 56.9345V56.6044C251.863 56.5261 251.93 56.4614 252.011 56.4614Z" fill="#231F20"/>
<path fill-rule="evenodd" clip-rule="evenodd" d="M252.707 56.8479C252.46 56.8242 252.376 56.5442 252.355 56.4565H252.561C252.644 56.4565 252.71 56.5206 252.71 56.5982V56.8445L252.707 56.8479Z" fill="#FFE11B"/>
<path fill-rule="evenodd" clip-rule="evenodd" d="M252.21 56.4614C252.193 56.5424 252.116 56.8392 251.855 56.8527V56.6031C251.855 56.5255 251.922 56.4614 252.001 56.4614H252.21Z" fill="#FFE11B"/>
<path fill-rule="evenodd" clip-rule="evenodd" d="M252.15 54.0753C252.076 53.834 252.062 53.715 252.29 53.715H252.791C253.096 53.7082 252.969 53.9394 252.941 54.1637C252.903 54.4595 252.903 54.5513 252.903 54.5513C252.903 54.5513 252.15 54.0821 252.15 54.0787" fill="#E5252B"/>
<path fill-rule="evenodd" clip-rule="evenodd" d="M250.701 55.8109C249.95 55.8109 248.92 55.8759 248.257 55.9238C247.749 55.9614 247.354 55.5852 247.693 55.2295C248.416 54.4703 250.175 53.5161 250.708 53.5161C251.276 53.5161 253 54.4703 253.723 55.2295C254.061 55.5852 253.723 55.9238 253.208 55.9238C252.64 55.9238 251.452 55.8109 250.701 55.8109Z" fill="#F49824"/>
<path d="M251.113 57.5112C251.113 57.4576 251.155 57.4141 251.21 57.4141C251.265 57.4141 251.303 57.4576 251.303 57.5112C251.303 57.5648 251.262 57.605 251.21 57.605C251.158 57.605 251.113 57.5615 251.113 57.5112Z" fill="#231F20"/>
<path fill-rule="evenodd" clip-rule="evenodd" d="M250.704 58.1874C250.404 58.1874 250.165 58.2318 250.165 58.2318C249.808 57.2229 250.133 56.2756 250.704 56.2756C251.276 56.2756 251.603 57.2263 251.244 58.2318C251.244 58.2318 251.015 58.1874 250.704 58.1874ZM251.233 58.266C251.529 58.3105 251.727 58.396 251.727 58.4918C251.727 58.6354 251.272 58.7551 250.708 58.7551C250.144 58.7551 249.689 58.6354 249.689 58.4918C249.689 58.396 249.883 58.3105 250.179 58.266C250.179 58.266 250.5 58.2284 250.708 58.2284C250.916 58.2284 251.237 58.266 251.237 58.266M251.279 58.2353C251.653 57.1887 251.29 56.2277 250.708 56.2311C250.126 56.2311 249.763 57.1921 250.136 58.2353C249.847 58.29 249.657 58.3823 249.657 58.4918C249.657 58.526 249.678 58.5567 249.713 58.5875C249.227 58.3823 249.181 58.0437 249.449 57.9514C249.678 57.8727 249.96 57.7667 249.96 57.7667C249.812 57.0622 250.041 56.1183 250.711 56.1183C251.381 56.1183 251.611 57.0622 251.459 57.7667C251.459 57.7667 251.737 57.8761 251.97 57.9514C252.231 58.0369 252.192 58.3755 251.709 58.5841C251.745 58.5533 251.762 58.5225 251.762 58.4883C251.762 58.3823 251.572 58.2865 251.283 58.2318M252.182 54.0697C252.125 53.8474 252.122 53.755 252.319 53.755H252.753C253.039 53.7516 252.922 53.9637 252.898 54.1791C252.884 54.3091 252.873 54.4151 252.869 54.4938C252.64 54.3364 252.408 54.1962 252.185 54.0697M251.681 58.6388C253.063 58.8645 253.737 57.7428 253.296 57.0622C252.954 56.5697 252.873 56.1559 252.862 55.9438C251.956 55.8994 251.332 55.8549 250.708 55.8481C250.084 55.8549 249.459 55.8994 248.553 55.9438C248.539 56.1559 248.458 56.5697 248.116 57.0622C247.675 57.7428 248.349 58.8645 249.731 58.6388C249.146 58.4233 249.071 58.0574 249.385 57.9377C249.615 57.8522 249.921 57.7428 249.921 57.7428C249.77 57.0177 250.034 56.0601 250.704 56.0601C251.378 56.0601 251.642 57.0143 251.487 57.7428C251.487 57.7428 251.794 57.8522 252.023 57.9377C252.337 58.054 252.263 58.4233 251.678 58.6388M250.708 55.7592C249.928 55.7694 249.191 55.8241 248.324 55.8789C247.784 55.9131 247.481 55.5642 247.82 55.2017C248.32 54.6716 250.031 53.5772 250.708 53.5772C251.385 53.5772 253.092 54.6716 253.596 55.2017C253.934 55.5608 253.631 55.9131 253.095 55.8789C252.228 55.8241 251.487 55.7728 250.711 55.7592M252.083 54.0115C252.076 53.991 252.069 53.9671 252.065 53.9466C252.027 53.8166 252.065 53.673 252.295 53.673H252.799C253.095 53.673 253.063 53.8713 253.011 54.0628C252.975 54.1996 252.947 54.3741 252.933 54.5382C252.933 54.5382 253.346 54.8323 253.575 55.0204C254.294 55.6121 253.825 55.9951 253.137 55.9644C253.067 55.9609 253 55.9575 252.933 55.9541C252.936 56.149 252.996 56.5116 253.314 56.9254C254.111 57.8522 253.053 59.015 251.561 58.6867C251.314 58.7653 250.923 58.803 250.708 58.803C250.493 58.803 250.101 58.7653 249.851 58.6867C248.359 59.015 247.301 57.8522 248.098 56.9254C248.416 56.515 248.475 56.1525 248.479 55.9541L248.278 55.9644C247.59 55.9986 247.121 55.6121 247.841 55.0204C248.913 54.1449 250.207 53.4951 250.708 53.4917C250.983 53.4917 251.498 53.6935 252.083 54.015" fill="#231F20"/>
<path d="M249.483 57.2073H248.788C248.665 57.2073 248.566 57.1119 248.566 56.9926V56.5394C248.566 56.4235 248.665 56.3281 248.788 56.3281H249.483C249.602 56.3281 249.701 56.4235 249.701 56.5394V56.9926C249.701 57.1119 249.602 57.2073 249.483 57.2073ZM248.791 56.369C248.693 56.369 248.612 56.4474 248.612 56.5394V56.9926C248.612 57.088 248.693 57.1664 248.791 57.1664H249.487C249.585 57.1664 249.662 57.088 249.662 56.9926V56.5394C249.662 56.444 249.581 56.369 249.487 56.369H248.791Z" fill="#231F20"/>
<path d="M252.624 57.2073H251.933C251.813 57.2073 251.715 57.1119 251.715 56.9926V56.5394C251.715 56.4235 251.813 56.3281 251.933 56.3281H252.624C252.747 56.3281 252.846 56.4235 252.846 56.5394V56.9926C252.846 57.1119 252.747 57.2073 252.624 57.2073ZM251.929 56.369C251.831 56.369 251.753 56.4474 251.753 56.5394V56.9926C251.753 57.088 251.834 57.1664 251.929 57.1664H252.621C252.719 57.1664 252.8 57.088 252.8 56.9926V56.5394C252.8 56.444 252.719 56.369 252.621 56.369H251.929Z" fill="#231F20"/>
<path d="M43.3635 45.6807V30.3164H48.9877C52.6726 30.3164 54.4827 32.2343 54.4827 35.3157C54.4827 38.7635 52.3278 40.8538 48.9016 40.8538H46.4019V45.6807H43.3635ZM46.4019 38.3326H48.6861C50.3453 38.3326 51.3581 37.3629 51.3581 35.4881C51.3581 33.7427 50.41 32.9669 48.7507 32.9669H46.4019V38.3326ZM63.6929 45.6807C63.3481 45.1204 63.0249 44.4955 62.7878 43.6335C62.1414 45.1635 60.7192 45.9177 59.1892 45.9177C57.4869 45.9177 56.1293 45.0127 56.1293 43.0733C56.1293 39.4962 60.2451 39.7979 62.4862 38.742C62.3569 37.1474 61.2148 36.738 59.7926 36.738C58.8013 36.738 57.7239 36.9319 56.6465 37.1689V34.5615C57.8963 34.2599 59.1246 34.0875 60.2235 34.0875C63.1542 34.0875 65.3306 35.3157 65.3306 38.8713V41.8019C65.3306 42.8578 65.3521 43.9999 65.5676 45.6807H63.6929ZM59.0384 42.5992C59.0384 43.3319 59.4909 43.6982 60.1804 43.6982C61.2148 43.6982 62.4862 42.7285 62.4862 40.983V40.509C60.8054 41.3063 59.0384 41.0477 59.0384 42.5992ZM72.0186 42.2329C71.7385 42.2329 71.4583 42.2113 71.1782 42.1898C70.855 42.3622 70.7257 42.6423 70.7257 42.944C70.7257 43.7197 71.8678 43.7413 73.3546 43.8706C75.531 44.043 77.9229 44.4308 77.9229 46.952C77.9229 49.3655 75.3586 50.5291 71.8893 50.5291C68.7432 50.5291 66.5668 49.6672 66.5668 47.5985C66.5668 45.9823 68.2045 45.2712 69.5405 45.379C68.7863 45.0558 68.2907 44.4955 68.2907 43.7628C68.2907 42.7716 69.1311 42.1682 70.1223 41.9527C68.3984 41.3709 67.4934 39.9487 67.4934 38.1386C67.4934 35.8114 69.1957 34.0875 72.1479 34.0875C72.859 34.0875 73.4839 34.1952 74.0226 34.346C74.0873 34.3676 74.195 34.3891 74.2812 34.3891C75.0354 34.3891 75.2078 33.7211 75.2078 32.9454C75.2078 32.5791 75.1432 32.1696 75.0785 31.8248H77.7721C77.8152 32.105 77.8583 32.3636 77.8583 32.6437C77.8583 34.3676 76.6085 35.208 75.4879 35.208C75.3586 35.208 75.2294 35.1864 75.1216 35.1649C76.1344 35.8976 76.6731 36.9319 76.6731 38.2679C76.6731 40.4012 74.9708 42.2329 72.0186 42.2329ZM72.0617 40.1642C73.2253 40.1642 73.8718 39.4962 73.8718 38.1602C73.8718 36.781 73.2684 36.1346 72.0832 36.1346C70.9196 36.1346 70.2947 36.738 70.2947 38.1171C70.2947 39.4746 70.8981 40.1642 72.0617 40.1642ZM69.325 46.9089C69.325 48.0295 70.7041 48.3096 72.1263 48.3096C73.6347 48.3096 74.9061 48.0295 74.9061 47.1675C74.9061 46.0254 72.6866 46.1763 70.8334 45.8962C69.993 45.8315 69.325 46.2409 69.325 46.9089ZM86.0412 45.6807C85.6965 45.1204 85.3732 44.4955 85.1362 43.6335C84.4897 45.1635 83.0675 45.9177 81.5376 45.9177C79.8352 45.9177 78.4777 45.0127 78.4777 43.0733C78.4777 39.4962 82.5935 39.7979 84.8345 38.742C84.7052 37.1474 83.5631 36.738 82.1409 36.738C81.1497 36.738 80.0723 36.9319 78.9948 37.1689V34.5615C80.2446 34.2599 81.4729 34.0875 82.5719 34.0875C85.5025 34.0875 87.679 35.3157 87.679 38.8713V41.8019C87.679 42.8578 87.7005 43.9999 87.916 45.6807H86.0412ZM81.3867 42.5992C81.3867 43.3319 81.8393 43.6982 82.5288 43.6982C83.5631 43.6982 84.8345 42.7285 84.8345 40.983V40.509C83.1537 41.3063 81.3867 41.0477 81.3867 42.5992ZM97.5346 37.1043C95.4659 37.0181 94.2592 37.4491 93.7636 38.2679V45.6807H90.7468V38.6127C90.7468 37.5137 90.7252 36.0699 90.5959 34.3245H92.5138C92.9232 34.8632 93.3111 35.8545 93.505 36.781C94.0437 35.0356 95.2505 34.0875 97.5346 34.0875V37.1043ZM109.043 45.9177C105.682 45.9177 103.311 44.0645 103.311 39.9918C103.311 36.113 105.789 34.0875 109.172 34.0875C109.927 34.0875 110.745 34.1952 111.564 34.3891V36.9103C110.832 36.7595 110.121 36.6733 109.517 36.6733C107.578 36.6733 106.306 37.4922 106.306 40.0134C106.306 42.5346 107.556 43.3319 109.474 43.3319C110.121 43.3319 110.832 43.2457 111.564 43.0948V45.616C110.681 45.7884 109.84 45.9177 109.043 45.9177ZM118.59 45.9177C114.97 45.9177 113.16 43.3534 113.16 40.1211C113.16 36.7595 115.099 34.0875 118.805 34.0875C122.404 34.0875 124.236 36.6518 124.236 39.8841C124.236 43.2457 122.296 45.9177 118.59 45.9177ZM118.698 43.5042C120.422 43.5042 121.24 42.1467 121.24 39.9918C121.24 37.7938 120.443 36.5009 118.698 36.5009C116.952 36.5009 116.133 37.8585 116.133 40.0134C116.133 42.2113 116.952 43.5042 118.698 43.5042ZM134.313 38.9144C134.313 37.4491 133.559 36.8026 132.331 36.8026C131.188 36.8026 130.391 37.3413 129.896 38.074V45.6807H126.879V38.6127C126.879 37.5137 126.857 36.0699 126.728 34.3245H128.646C129.034 34.8417 129.378 35.7252 129.594 36.5656C130.068 35.2942 131.21 34.0875 133.279 34.0875C135.606 34.0875 137.33 35.3804 137.33 38.4403V45.6807H134.313V38.9144Z" fill="white"/>
<g clip-path="url(#clip1_10765_21904)">
<path d="M322.202 26.7642C318.048 26.7642 314.669 30.1436 314.669 34.2975V38.601C314.669 38.6494 314.607 38.733 314.563 38.7462C314.154 38.8826 313.824 39.0014 313.52 39.1158C313.16 39.2566 312.887 39.657 312.887 40.0487V49.9318C312.887 50.319 313.16 50.7194 313.516 50.8646C316.293 51.9647 319.214 52.5235 322.202 52.5235C325.19 52.5235 328.112 51.9647 330.888 50.8646C331.249 50.7238 331.518 50.3234 331.518 49.9318V40.0487C331.518 39.657 331.245 39.2566 330.884 39.1158C330.58 38.997 330.25 38.8826 329.841 38.7462C329.793 38.7286 329.735 38.6494 329.735 38.601V34.2975C329.735 30.1436 326.356 26.7642 322.202 26.7642ZM320.152 43.0585C320.152 41.9232 321.071 41.0079 322.202 41.0079C323.333 41.0079 324.253 41.9276 324.253 43.0585C324.253 43.8109 323.83 44.4402 323.227 44.7966V48.1892C323.227 48.7569 322.77 49.2145 322.202 49.2145C321.635 49.2145 321.177 48.7569 321.177 48.1892V44.7966C320.574 44.4402 320.152 43.8109 320.152 43.0585ZM327.144 34.2975V38.0113C325.524 37.6637 323.861 37.4877 322.202 37.4877C320.543 37.4877 318.884 37.6637 317.261 38.0113V34.3019C317.261 31.5781 319.478 29.3603 322.202 29.3603C324.926 29.3559 327.144 31.5693 327.144 34.2975Z" fill="white"/>
</g>
</g>
<defs>
<filter id="filter0_f_10765_21904" x="-78.8351" y="-26.4503" width="246.444" height="210.089" filterUnits="userSpaceOnUse" color-interpolation-filters="sRGB">
<feFlood flood-opacity="0" result="BackgroundImageFix"/>
<feBlend mode="normal" in="SourceGraphic" in2="BackgroundImageFix" result="shape"/>
<feGaussianBlur stdDeviation="25.2652" result="effect1_foregroundBlur_10765_21904"/>
</filter>
<filter id="filter1_f_10765_21904" x="187.384" y="-87.1881" width="258.924" height="226.066" filterUnits="userSpaceOnUse" color-interpolation-filters="sRGB">
<feFlood flood-opacity="0" result="BackgroundImageFix"/>
<feBlend mode="normal" in="SourceGraphic" in2="BackgroundImageFix" result="shape"/>
<feGaussianBlur stdDeviation="25.2652" result="effect1_foregroundBlur_10765_21904"/>
</filter>
<linearGradient id="paint0_linear_10765_21904" x1="33.7369" y1="65.8136" x2="99.328" y2="93.5676" gradientUnits="userSpaceOnUse">
<stop stop-color="#E51B2D"/>
<stop offset="1" stop-color="#E51B2D"/>
</linearGradient>
<linearGradient id="paint1_linear_10765_21904" x1="307.052" y1="11.8555" x2="361.272" y2="60.6167" gradientUnits="userSpaceOnUse">
<stop stop-color="#E51B2D"/>
<stop offset="1" stop-color="#E51B2D"/>
</linearGradient>
<clipPath id="clip0_10765_21904">
<rect x="8.69141" y="5.44434" width="361.622" height="63.8793" rx="5.44611" fill="white"/>
</clipPath>
<clipPath id="clip1_10765_21904">
<rect width="18.6309" height="25.7594" fill="white" transform="translate(312.914 26.7637)"/>
</clipPath>
</defs>
</svg>
