<svg width="362" height="64" viewBox="0 0 362 64" fill="none" xmlns="http://www.w3.org/2000/svg">
<g clip-path="url(#clip0_10765_22411)">
<g clip-path="url(#clip1_10765_22411)">
<rect width="372.417" height="124.139" transform="translate(-10.7852 -5.396)" fill="white"/>
<g filter="url(#filter0_f_10765_22411)">
<path d="M371.336 50.7732C361.45 68.5129 279.709 68.3009 254.505 57.4921C229.3 46.6833 242.68 7.28558 252.566 -10.4541C262.452 -28.1937 330.934 -13.376 356.139 -2.56719C381.344 8.24162 381.222 33.0336 371.336 50.7732Z" fill="white"/>
</g>
<g filter="url(#filter1_f_10765_22411)">
<path d="M-43.0173 18.5207C-39.6651 -9.57219 37.5292 -52.9935 64.9506 -52.5691C92.3719 -52.1447 93.0173 5.66311 89.6651 33.756C86.3129 61.849 16.7087 79.4038 -10.7127 78.9794C-38.1341 78.555 -46.3695 46.6137 -43.0173 18.5207Z" fill="white"/>
</g>
<rect x="3.24219" y="2.1582" width="355.031" height="59.3907" rx="17.9036" fill="black"/>
<path d="M32.2871 40.1914V24.873H37.8945C41.5684 24.873 43.373 26.7852 43.373 29.8574C43.373 33.2949 41.2246 35.3789 37.8086 35.3789H35.3164V40.1914H32.2871ZM35.3164 32.8652H37.5938C39.248 32.8652 40.2578 31.8984 40.2578 30.0293C40.2578 28.2891 39.3125 27.5156 37.6582 27.5156H35.3164V32.8652ZM52.5558 40.1914C52.212 39.6328 51.8898 39.0098 51.6534 38.1504C51.0089 39.6758 49.5909 40.4277 48.0655 40.4277C46.3683 40.4277 45.0148 39.5254 45.0148 37.5918C45.0148 34.0254 49.1183 34.3262 51.3527 33.2734C51.2237 31.6836 50.0851 31.2754 48.6671 31.2754C47.6788 31.2754 46.6046 31.4687 45.5304 31.7051V29.1055C46.7765 28.8047 48.0011 28.6328 49.0968 28.6328C52.0187 28.6328 54.1886 29.8574 54.1886 33.4023V36.3242C54.1886 37.377 54.2101 38.5156 54.4249 40.1914H52.5558ZM47.9151 37.1191C47.9151 37.8496 48.3663 38.2148 49.0538 38.2148C50.0851 38.2148 51.3527 37.248 51.3527 35.5078V35.0352C49.6769 35.8301 47.9151 35.5723 47.9151 37.1191ZM60.8566 36.7539C60.5773 36.7539 60.298 36.7324 60.0187 36.7109C59.6965 36.8828 59.5676 37.1621 59.5676 37.4629C59.5676 38.2363 60.7062 38.2578 62.1887 38.3867C64.3586 38.5586 66.7434 38.9453 66.7434 41.459C66.7434 43.8652 64.1867 45.0254 60.7277 45.0254C57.591 45.0254 55.4211 44.166 55.4211 42.1035C55.4211 40.4922 57.0539 39.7832 58.3859 39.8906C57.634 39.5684 57.1398 39.0098 57.1398 38.2793C57.1398 37.291 57.9777 36.6895 58.966 36.4746C57.2473 35.8945 56.3449 34.4766 56.3449 32.6719C56.3449 30.3516 58.0422 28.6328 60.9855 28.6328C61.6945 28.6328 62.3176 28.7402 62.8547 28.8906C62.9191 28.9121 63.0266 28.9336 63.1125 28.9336C63.8644 28.9336 64.0363 28.2676 64.0363 27.4941C64.0363 27.1289 63.9719 26.7207 63.9074 26.377H66.593C66.6359 26.6562 66.6789 26.9141 66.6789 27.1934C66.6789 28.9121 65.4328 29.75 64.3156 29.75C64.1867 29.75 64.0578 29.7285 63.9504 29.707C64.9602 30.4375 65.4973 31.4687 65.4973 32.8008C65.4973 34.9277 63.8 36.7539 60.8566 36.7539ZM60.8996 34.6914C62.0598 34.6914 62.7043 34.0254 62.7043 32.6934C62.7043 31.3184 62.1027 30.6738 60.9211 30.6738C59.7609 30.6738 59.1379 31.2754 59.1379 32.6504C59.1379 34.0039 59.7394 34.6914 60.8996 34.6914ZM58.1711 41.416C58.1711 42.5332 59.5461 42.8125 60.9641 42.8125C62.468 42.8125 63.7355 42.5332 63.7355 41.6738C63.7355 40.5352 61.5226 40.6855 59.675 40.4063C58.8371 40.3418 58.1711 40.75 58.1711 41.416ZM74.8374 40.1914C74.4937 39.6328 74.1714 39.0098 73.9351 38.1504C73.2906 39.6758 71.8726 40.4277 70.3472 40.4277C68.6499 40.4277 67.2964 39.5254 67.2964 37.5918C67.2964 34.0254 71.3999 34.3262 73.6343 33.2734C73.5054 31.6836 72.3667 31.2754 70.9488 31.2754C69.9605 31.2754 68.8863 31.4687 67.812 31.7051V29.1055C69.0581 28.8047 70.2827 28.6328 71.3784 28.6328C74.3003 28.6328 76.4702 29.8574 76.4702 33.4023V36.3242C76.4702 37.377 76.4917 38.5156 76.7066 40.1914H74.8374ZM70.1968 37.1191C70.1968 37.8496 70.648 38.2148 71.3355 38.2148C72.3667 38.2148 73.6343 37.248 73.6343 35.5078V35.0352C71.9585 35.8301 70.1968 35.5723 70.1968 37.1191ZM86.2965 31.6406C84.234 31.5547 83.0309 31.9844 82.5367 32.8008V40.1914H79.5289V33.1445C79.5289 32.0488 79.5074 30.6094 79.3785 28.8691H81.2906C81.6988 29.4062 82.0855 30.3945 82.2789 31.3184C82.816 29.5781 84.0191 28.6328 86.2965 28.6328V31.6406ZM97.7707 40.4277C94.4191 40.4277 92.0558 38.5801 92.0558 34.5195C92.0558 30.6523 94.5265 28.6328 97.8996 28.6328C98.6515 28.6328 99.4679 28.7402 100.284 28.9336V31.4473C99.5539 31.2969 98.8449 31.2109 98.2433 31.2109C96.3097 31.2109 95.0421 32.0273 95.0421 34.541C95.0421 37.0547 96.2882 37.8496 98.2003 37.8496C98.8449 37.8496 99.5539 37.7637 100.284 37.6133V40.127C99.4035 40.2988 98.5656 40.4277 97.7707 40.4277ZM107.289 40.4277C103.68 40.4277 101.875 37.8711 101.875 34.6484C101.875 31.2969 103.808 28.6328 107.504 28.6328C111.092 28.6328 112.918 31.1895 112.918 34.4121C112.918 37.7637 110.984 40.4277 107.289 40.4277ZM107.396 38.0215C109.115 38.0215 109.931 36.668 109.931 34.5195C109.931 32.3281 109.137 31.0391 107.396 31.0391C105.656 31.0391 104.84 32.3926 104.84 34.541C104.84 36.7324 105.656 38.0215 107.396 38.0215ZM122.965 33.4453C122.965 31.9844 122.213 31.3398 120.989 31.3398C119.85 31.3398 119.055 31.877 118.561 32.6074V40.1914H115.553V33.1445C115.553 32.0488 115.532 30.6094 115.403 28.8691H117.315C117.701 29.3848 118.045 30.2656 118.26 31.1035C118.733 29.8359 119.871 28.6328 121.934 28.6328C124.254 28.6328 125.973 29.9219 125.973 32.9727V40.1914H122.965V33.4453Z" fill="white"/>
<g clip-path="url(#clip2_10765_22411)">
<path d="M310.311 21.2568C306.17 21.2568 302.8 24.6262 302.8 28.7677V33.0583C302.8 33.1066 302.739 33.1899 302.695 33.2031C302.287 33.3391 301.958 33.4575 301.655 33.5716C301.295 33.712 301.023 34.1112 301.023 34.5017V44.3553C301.023 44.7413 301.295 45.1406 301.651 45.2853C304.419 46.3821 307.332 46.9393 310.311 46.9393C313.29 46.9393 316.203 46.3821 318.971 45.2853C319.331 45.145 319.599 44.7457 319.599 44.3553V34.5017C319.599 34.1112 319.327 33.712 318.967 33.5716C318.664 33.4532 318.335 33.3391 317.927 33.2031C317.879 33.1855 317.822 33.1066 317.822 33.0583V28.7677C317.822 24.6262 314.453 21.2568 310.311 21.2568ZM308.267 37.5025C308.267 36.3706 309.184 35.4581 310.311 35.4581C311.439 35.4581 312.355 36.375 312.355 37.5025C312.355 38.2527 311.934 38.8801 311.333 39.2354V42.618C311.333 43.1839 310.877 43.6402 310.311 43.6402C309.745 43.6402 309.289 43.1839 309.289 42.618V39.2354C308.688 38.8801 308.267 38.2527 308.267 37.5025ZM315.238 28.7677V32.4704C313.623 32.1238 311.965 31.9484 310.311 31.9484C308.657 31.9484 307.003 32.1238 305.384 32.4704V28.7721C305.384 26.0564 307.595 23.8453 310.311 23.8453C313.027 23.8409 315.238 26.0476 315.238 28.7677Z" fill="white"/>
</g>
<path d="M160.132 36.4248C160.084 36.6555 160.037 36.8886 159.989 37.1194C158.802 37.3172 157.61 37.449 156.418 37.522C157.684 37.1806 158.923 36.8204 160.132 36.4248Z" fill="#ED1C27"/>
<path d="M186.669 13.7543C183.272 23.0962 176.28 31.5298 166.844 35.236C166.844 35.236 167.223 33.3841 167.225 33.3841C174.885 29.0214 180.112 21.209 182.225 12.8272C182.971 12.4225 185.008 11.2671 185.008 11.2671C185.008 11.2671 186.084 12.8531 186.669 13.7543Z" fill="#ED1C27"/>
<path d="M170.596 16.9628C170.664 16.6239 170.771 16.4122 171.157 16.3839C172.81 16.2545 174.461 15.9886 176.11 16.0027C178.147 16.0168 179.494 17.4452 179.76 19.6101C180.809 17.4334 181.633 15.1579 182.223 12.826C182.195 12.8048 182.166 12.786 182.138 12.7672C180.511 11.6636 178.651 11.3671 176.742 11.2871C172.841 11.1176 169.063 11.8706 165.33 12.8942C165.132 12.9507 164.902 13.2519 164.854 13.4755C164.525 15.0709 158.691 43.4684 158.691 43.4684H163.057C164.286 43.4684 165.34 42.5271 165.589 41.3176C165.591 41.3223 170.312 18.3582 170.596 16.9628Z" fill="white"/>
<path d="M185.387 16.8716C181.91 24.3992 176.072 31.0139 168.492 34.5294C180.768 38.0144 188.848 26.0111 185.387 16.8716Z" fill="white"/>
<path d="M157.173 22.862C148.257 14.3037 133.058 24.0715 135.495 35.7101C137.011 42.9506 144.899 44.5578 151.282 42.8495C155.332 41.767 154.849 37.8632 154.849 37.8632C149.768 39.0303 140.1 37.9808 140.893 34.1241C144.802 35.2136 150.758 35.4724 154.939 33.3381C160.394 30.552 159.463 25.4175 157.173 22.862ZM153.435 27.74C152.073 30.5332 144.29 30.5097 141.488 29.6931C143.245 25.7305 147.866 23.3632 152.104 25.0787C153.383 25.5987 153.951 26.6717 153.435 27.74Z" fill="white"/>
<path d="M213.306 21.4053C209.531 20.1746 205.002 19.6099 201.686 19.6099C192.911 19.6099 187.387 27.4575 187.645 34.3428C187.745 36.9853 188.638 42.9834 196.674 43.6729C198.906 43.8635 201.035 43.5788 202.899 42.2093C202.913 42.1975 203.043 42.0822 203.013 42.2469C202.946 42.6305 202.797 43.4729 202.797 43.4729C202.797 43.4729 206.987 43.4729 208.974 43.4729C209.348 43.4729 209.401 43.2164 209.455 42.9552C210.883 36.0135 212.321 29.0859 213.733 22.1395C213.823 21.7018 213.735 21.5418 213.306 21.4053ZM206.497 25.5421C205.744 29.1212 205.014 32.705 204.254 36.2864C204.187 36.5947 204.026 36.8747 203.789 37.0842C201.985 38.6796 199.881 39.2043 197.532 38.6678C193.027 37.6395 193.766 31.2931 195.343 28.2317C196.781 25.4456 200.031 23.8714 203.339 24.2973C206.651 24.7208 206.582 25.1256 206.497 25.5421Z" fill="white"/>
<path d="M290.569 27.9846C290.107 22.5066 285.754 19.6099 280.529 19.6099C269.572 19.6099 265.953 28.7047 266.287 35.0252C266.606 41.0939 272.009 43.92 277.452 43.4141C282.509 43.1152 286.308 40.8209 288.658 36.3265C290.017 33.7215 290.898 30.9754 290.569 27.9846ZM275.458 38.2772C270.635 37.2912 272.27 30.9543 273.276 29.0859C275.706 24.5726 279.018 24.3655 280.901 24.662C283.388 25.0503 284.799 26.8151 284.659 29.7965C284.449 34.3098 281.069 39.4232 275.458 38.2772Z" fill="white"/>
<path d="M213.238 54.0345L214.055 50.013C214.179 49.5424 214.622 49.2072 215.107 49.193C217.556 49.124 218.395 48.6962 219.619 47.3605C220.555 46.1673 221.263 45.2095 222.049 44.1066C222.154 43.9616 222.163 43.7026 222.125 43.5124C220.799 36.7552 217.452 19.6114 217.452 19.6114C217.452 19.6114 223.553 19.5567 223.937 22.0143C224.674 26.7204 226.417 36.2347 226.5 36.6102C226.715 36.237 232.421 26.4066 235.091 21.6934C236.4 19.3808 241.391 19.6114 243.039 19.6114C238.12 27.8612 228.565 43.8594 227.075 46.3456C223.205 52.7962 219.799 54.0844 216.232 54.0393C215.261 54.0274 213.238 54.0345 213.238 54.0345Z" fill="white"/>
<path d="M261.839 36.8934C261.493 38.5712 260.865 41.6232 260.844 41.7315C260.808 41.9103 260.732 42.108 260.493 42.1974C257.199 43.421 253.681 43.9975 250.481 42.8704C240.126 39.2277 242.907 22.6971 253.722 20.0663C259.032 18.7744 264.328 20.6451 264.586 20.7251C264.887 20.8193 265.074 21.1205 265.012 21.4264C264.825 22.3464 264.231 25.2596 264.205 25.3655C261.209 24.4031 258.061 23.7065 255.001 24.7749C248.918 26.9021 247.596 37.2699 253.646 38.4842C256.545 39.0677 259.198 38.0465 261.839 36.8934Z" fill="white"/>
<path d="M247.211 52.5131C248.048 52.6847 250.116 52.6313 250.163 51.3196C250.163 50.7935 249.463 50.3016 248.799 50.1605C247.977 49.9889 247.454 49.9851 246.625 50.1605C246.114 50.3512 245.956 49.8631 246.42 49.6992C247.301 49.3865 250.737 49.3217 250.898 51.3196C250.757 53.2947 247.757 53.1536 247.081 53.0202C246.813 52.9706 246.609 52.8486 246.609 52.5207V50.8773C246.609 50.4884 247.207 50.4922 247.207 50.8773V52.5131H247.211Z" fill="white"/>
<path d="M253.666 50.1993C252.998 50.1993 251.873 52.1782 251.539 52.8874C251.343 53.3107 250.713 53.0094 250.914 52.5824C251.268 51.8198 252.608 49.5168 253.658 49.5397C254.708 49.5207 256.049 51.8198 256.402 52.5824C256.599 53.0094 255.974 53.3107 255.777 52.8874C255.447 52.1782 254.331 50.1993 253.666 50.1993Z" fill="white"/>
<path d="M258.344 52.4285C259.013 52.4285 260.137 50.4496 260.468 49.7404C260.664 49.3172 261.293 49.6184 261.093 50.0416C260.739 50.8042 259.398 53.1072 258.348 53.0881C257.299 53.1072 255.958 50.808 255.604 50.0416C255.408 49.6146 256.033 49.3134 256.233 49.7404C256.563 50.4496 257.676 52.4285 258.344 52.4285Z" fill="white"/>
<path d="M262.227 49.8793V52.7619C262.227 53.1927 261.555 53.1775 261.555 52.7466V49.8717C261.555 49.4256 262.227 49.4218 262.227 49.8793Z" fill="white"/>
<path d="M265.442 52.4285C266.111 52.4285 267.235 50.4496 267.565 49.7404C267.762 49.3172 268.391 49.6184 268.19 50.0416C267.833 50.8042 266.492 53.1072 265.442 53.0881C264.392 53.1072 263.052 50.808 262.698 50.0416C262.501 49.6146 263.126 49.3134 263.323 49.7404C263.653 50.4496 264.766 52.4285 265.434 52.4285" fill="white"/>
<path d="M270.603 51.6125C270.8 52.0167 271.362 52.3446 271.904 52.459C272.722 52.6344 273.245 52.6344 274.075 52.459C274.57 52.3027 274.743 52.7679 274.275 52.9204C273.355 53.2216 269.982 53.3283 269.785 51.3228C269.895 49.4125 272.588 49.4621 273.618 49.5955C274.122 49.6603 274.019 50.1751 273.493 50.0683C272.805 49.9806 270.933 49.8739 270.568 51.0749H272.486C272.785 51.0749 272.785 51.6125 272.486 51.6125H270.603Z" fill="white"/>
<path d="M281.3 52.516C282.138 52.6876 284.206 52.6342 284.253 51.3226C284.253 50.7964 283.553 50.3045 282.885 50.1635C282.067 49.9919 281.544 49.9881 280.715 50.1635C280.203 50.3541 280.046 49.866 280.51 49.7021C281.395 49.3894 284.827 49.3246 284.988 51.3226C284.847 53.2977 281.847 53.1566 281.175 53.0231C280.907 52.9736 280.703 52.8515 280.703 52.5236V50.8803C280.703 50.4914 281.3 50.4952 281.3 50.8803V52.516Z" fill="white"/>
<path d="M287.759 50.1993C287.09 50.1993 285.962 52.1782 285.632 52.8874C285.435 53.3107 284.81 53.0094 285.007 52.5824C285.364 51.8198 286.705 49.5168 287.751 49.5397C288.801 49.5207 290.141 51.8198 290.495 52.5824C290.692 53.0094 290.067 53.3107 289.87 52.8874C289.54 52.1782 288.427 50.1993 287.759 50.1993Z" fill="white"/>
<path d="M269.321 49.8793V52.7619C269.321 53.1927 268.648 53.1775 268.648 52.7466V49.8717C268.648 49.4256 269.321 49.4218 269.321 49.8793Z" fill="white"/>
<path d="M277.398 51.9018C276.981 51.1659 276.525 50.1898 276.21 50.1669C275.436 50.1669 275.786 51.6463 275.774 52.8016C275.77 53.2096 275.102 53.2096 275.102 52.7559C275.102 51.2841 274.775 49.5264 276.226 49.5264C276.651 49.5264 277.052 50.144 277.413 50.7236C277.83 51.4633 278.326 52.4394 278.636 52.4623C279.411 52.4623 279.041 51.0134 279.057 49.8581C279.061 49.4501 279.729 49.4501 279.729 49.9038C279.729 51.3794 280.075 53.1067 278.624 53.1067C278.196 53.1067 277.76 52.489 277.398 51.9056" fill="white"/>
<path fill-rule="evenodd" clip-rule="evenodd" d="M237.889 50.2422C237.903 50.3513 237.889 50.8184 237.45 51.4595C236.989 52.1653 237.717 53.3451 239.187 53.045C239.51 53.1576 239.858 53.1746 240.083 53.1712C240.308 53.1712 240.66 53.1576 240.983 53.0485C242.453 53.3485 243.177 52.1653 242.717 51.4595C242.274 50.8219 242.263 50.3513 242.277 50.2422H237.896H237.889Z" fill="#E5252B"/>
<path fill-rule="evenodd" clip-rule="evenodd" d="M240.077 53.1628C238.645 53.1253 238.386 52.4854 238.779 52.3527C239.01 52.2744 239.312 52.145 239.312 52.145C239.158 51.4234 239.41 50.501 240.081 50.5044C240.751 50.5044 240.993 51.4541 240.842 52.1621C240.842 52.1621 241.148 52.2676 241.372 52.3561C241.748 52.4956 241.509 53.1287 240.077 53.1662" fill="#0682C4"/>
<path fill-rule="evenodd" clip-rule="evenodd" d="M239.541 52.6594C239.159 51.6297 239.496 50.6646 240.081 50.6646C240.638 50.6679 241.017 51.6025 240.624 52.656C240.624 52.656 240.439 52.6152 240.064 52.6152C239.783 52.6152 239.545 52.6594 239.545 52.6594" fill="#FFE11B"/>
<path fill-rule="evenodd" clip-rule="evenodd" d="M240.073 53.1781C240.651 53.1781 241.103 53.0591 241.103 52.8925C241.103 52.7259 240.651 52.6035 240.073 52.6035C239.495 52.6035 239.043 52.7225 239.043 52.8925C239.043 53.0625 239.495 53.1781 240.073 53.1781Z" fill="#F49824"/>
<path fill-rule="evenodd" clip-rule="evenodd" d="M238.169 50.7539H238.864C238.973 50.7539 239.06 50.839 239.06 50.9446V51.3976C239.06 51.5065 238.973 51.5917 238.864 51.5917H238.169C238.06 51.5917 237.969 51.5065 237.969 51.3976V50.9446C237.969 50.839 238.056 50.7539 238.169 50.7539Z" fill="#0682C4"/>
<path d="M238.248 50.8667H238.794C238.877 50.8667 238.944 50.9312 238.944 51.0092V51.3383C238.944 51.4198 238.877 51.4842 238.794 51.4842H238.248C238.164 51.4842 238.098 51.4198 238.098 51.3383V51.0092C238.098 50.9312 238.164 50.8667 238.248 50.8667Z" fill="#231F20"/>
<path fill-rule="evenodd" clip-rule="evenodd" d="M238.944 51.252C238.698 51.2284 238.615 50.9493 238.594 50.8618H238.795C238.878 50.8618 238.944 50.9257 238.944 51.0031V51.2486V51.252Z" fill="#FFE11B"/>
<path fill-rule="evenodd" clip-rule="evenodd" d="M238.451 50.8667C238.437 50.9474 238.358 51.2434 238.098 51.2568V51.008C238.098 50.9306 238.164 50.8667 238.247 50.8667H238.451Z" fill="#FFE11B"/>
<path fill-rule="evenodd" clip-rule="evenodd" d="M241.298 50.7539H241.99C242.098 50.7539 242.19 50.839 242.19 50.9446V51.3976C242.19 51.5065 242.102 51.5917 241.99 51.5917H241.298C241.189 51.5917 241.102 51.5065 241.102 51.3976V50.9446C241.102 50.839 241.189 50.7539 241.298 50.7539Z" fill="#0682C4"/>
<path d="M241.377 50.8667H241.926C242.01 50.8667 242.077 50.9312 242.077 51.0092V51.3383C242.077 51.4198 242.01 51.4842 241.926 51.4842H241.377C241.297 51.4842 241.23 51.4198 241.23 51.3383V51.0092C241.23 50.9312 241.297 50.8667 241.377 50.8667Z" fill="#231F20"/>
<path fill-rule="evenodd" clip-rule="evenodd" d="M242.073 51.252C241.827 51.2284 241.743 50.9493 241.723 50.8618H241.927C242.01 50.8618 242.076 50.9257 242.076 51.0031V51.2486L242.073 51.252Z" fill="#FFE11B"/>
<path fill-rule="evenodd" clip-rule="evenodd" d="M241.58 50.8667C241.563 50.9474 241.487 51.2434 241.227 51.2568V51.008C241.227 50.9306 241.292 50.8667 241.372 50.8667H241.58Z" fill="#FFE11B"/>
<path fill-rule="evenodd" clip-rule="evenodd" d="M241.521 48.4878C241.447 48.2472 241.433 48.1286 241.66 48.1286H242.16C242.464 48.1218 242.338 48.3523 242.31 48.576C242.272 48.8708 242.272 48.9623 242.272 48.9623C242.272 48.9623 241.521 48.4946 241.521 48.4912" fill="#E5252B"/>
<path fill-rule="evenodd" clip-rule="evenodd" d="M240.074 50.2182C239.325 50.2182 238.299 50.2829 237.638 50.3307C237.131 50.3682 236.738 49.9931 237.075 49.6385C237.796 48.8815 239.55 47.9302 240.081 47.9302C240.647 47.9302 242.367 48.8815 243.087 49.6385C243.425 49.9931 243.087 50.3307 242.574 50.3307C242.008 50.3307 240.823 50.2182 240.074 50.2182Z" fill="#F49824"/>
<path d="M240.484 51.9133C240.484 51.8598 240.526 51.8164 240.581 51.8164C240.636 51.8164 240.674 51.8598 240.674 51.9133C240.674 51.9667 240.632 52.0068 240.581 52.0068C240.529 52.0068 240.484 51.9634 240.484 51.9133Z" fill="#231F20"/>
<path fill-rule="evenodd" clip-rule="evenodd" d="M240.077 52.5874C239.779 52.5874 239.539 52.6317 239.539 52.6317C239.184 51.6258 239.508 50.6813 240.077 50.6813C240.647 50.6813 240.974 51.6293 240.615 52.6317C240.615 52.6317 240.387 52.5874 240.077 52.5874ZM240.605 52.6658C240.9 52.7102 241.097 52.7954 241.097 52.8909C241.097 53.0341 240.643 53.1534 240.081 53.1534C239.518 53.1534 239.065 53.0341 239.065 52.8909C239.065 52.7954 239.258 52.7102 239.554 52.6658C239.554 52.6658 239.873 52.6283 240.081 52.6283C240.288 52.6283 240.608 52.6658 240.608 52.6658M240.651 52.6352C241.023 51.5918 240.661 50.6336 240.081 50.637C239.501 50.637 239.139 51.5952 239.511 52.6352C239.223 52.6897 239.033 52.7818 239.033 52.8909C239.033 52.925 239.054 52.9557 239.089 52.9864C238.604 52.7818 238.559 52.4442 238.826 52.3521C239.054 52.2737 239.336 52.168 239.336 52.168C239.188 51.4656 239.416 50.5245 240.084 50.5245C240.752 50.5245 240.981 51.4656 240.83 52.168C240.83 52.168 241.108 52.2771 241.34 52.3521C241.6 52.4374 241.561 52.775 241.079 52.9829C241.115 52.9523 241.132 52.9216 241.132 52.8875C241.132 52.7818 240.942 52.6863 240.654 52.6317M241.551 48.482C241.494 48.2604 241.491 48.1683 241.688 48.1683H242.12C242.405 48.1649 242.289 48.3763 242.264 48.5911C242.25 48.7207 242.24 48.8264 242.236 48.9048C242.008 48.748 241.776 48.6082 241.554 48.482M241.051 53.0375C242.43 53.2626 243.101 52.1441 242.662 51.4656C242.321 50.9746 242.24 50.562 242.229 50.3506C241.326 50.3063 240.703 50.2619 240.081 50.2551C239.459 50.2619 238.836 50.3063 237.933 50.3506C237.919 50.562 237.838 50.9746 237.497 51.4656C237.057 52.1441 237.729 53.2626 239.107 53.0375C238.523 52.8227 238.45 52.4578 238.762 52.3385C238.991 52.2533 239.297 52.1441 239.297 52.1441C239.146 51.4213 239.409 50.4665 240.077 50.4665C240.749 50.4665 241.013 51.4179 240.858 52.1441C240.858 52.1441 241.164 52.2533 241.392 52.3385C241.705 52.4544 241.631 52.8227 241.048 53.0375M240.081 50.1665C239.304 50.1767 238.569 50.2312 237.704 50.2858C237.166 50.3199 236.864 49.9721 237.201 49.6107C237.701 49.0821 239.406 47.991 240.081 47.991C240.756 47.991 242.458 49.0821 242.961 49.6107C243.298 49.9687 242.996 50.3199 242.461 50.2858C241.596 50.2312 240.858 50.1801 240.084 50.1665M241.452 48.424C241.445 48.4036 241.438 48.3797 241.435 48.3593C241.396 48.2297 241.435 48.0865 241.663 48.0865H242.166C242.461 48.0865 242.43 48.2842 242.377 48.4752C242.342 48.6116 242.314 48.7855 242.3 48.9492C242.3 48.9492 242.711 49.2424 242.939 49.4299C243.657 50.0198 243.189 50.4017 242.503 50.371C242.433 50.3676 242.366 50.3642 242.3 50.3608C242.303 50.5552 242.363 50.9166 242.679 51.3292C243.474 52.2533 242.419 53.4126 240.932 53.0852C240.686 53.1637 240.295 53.2012 240.081 53.2012C239.866 53.2012 239.476 53.1637 239.227 53.0852C237.739 53.4126 236.684 52.2533 237.479 51.3292C237.796 50.92 237.855 50.5586 237.859 50.3608L237.658 50.371C236.973 50.4051 236.505 50.0198 237.222 49.4299C238.291 48.557 239.582 47.9092 240.081 47.9058C240.355 47.9058 240.868 48.1069 241.452 48.4275" fill="#231F20"/>
<path d="M238.859 51.6104H238.166C238.043 51.6104 237.945 51.5153 237.945 51.3964V50.9445C237.945 50.829 238.043 50.7339 238.166 50.7339H238.859C238.978 50.7339 239.076 50.829 239.076 50.9445V51.3964C239.076 51.5153 238.978 51.6104 238.859 51.6104ZM238.169 50.7747C238.071 50.7747 237.991 50.8528 237.991 50.9445V51.3964C237.991 51.4915 238.071 51.5697 238.169 51.5697H238.863C238.961 51.5697 239.038 51.4915 239.038 51.3964V50.9445C239.038 50.8494 238.957 50.7747 238.863 50.7747H238.169Z" fill="#231F20"/>
<path d="M241.993 51.6104H241.303C241.184 51.6104 241.086 51.5153 241.086 51.3964V50.9445C241.086 50.829 241.184 50.7339 241.303 50.7339H241.993C242.115 50.7339 242.213 50.829 242.213 50.9445V51.3964C242.213 51.5153 242.115 51.6104 241.993 51.6104ZM241.3 50.7747C241.201 50.7747 241.124 50.8528 241.124 50.9445V51.3964C241.124 51.4915 241.205 51.5697 241.3 51.5697H241.989C242.087 51.5697 242.168 51.4915 242.168 51.3964V50.9445C242.168 50.8494 242.087 50.7747 241.989 50.7747H241.3Z" fill="#231F20"/>
</g>
</g>
<defs>
<filter id="filter0_f_10765_22411" x="189.667" y="-69.0753" width="238.236" height="184.434" filterUnits="userSpaceOnUse" color-interpolation-filters="sRGB">
<feFlood flood-opacity="0" result="BackgroundImageFix"/>
<feBlend mode="normal" in="SourceGraphic" in2="BackgroundImageFix" result="shape"/>
<feGaussianBlur stdDeviation="25.1898" result="effect1_foregroundBlur_10765_22411"/>
</filter>
<filter id="filter1_f_10765_22411" x="-94.1022" y="-102.952" width="235.556" height="232.318" filterUnits="userSpaceOnUse" color-interpolation-filters="sRGB">
<feFlood flood-opacity="0" result="BackgroundImageFix"/>
<feBlend mode="normal" in="SourceGraphic" in2="BackgroundImageFix" result="shape"/>
<feGaussianBlur stdDeviation="25.1898" result="effect1_foregroundBlur_10765_22411"/>
</filter>
<clipPath id="clip0_10765_22411">
<rect width="361.622" height="63.6886" rx="19.4304" fill="white"/>
</clipPath>
<clipPath id="clip1_10765_22411">
<rect y="0.00341797" width="361.622" height="63.6886" rx="19.4304" fill="white"/>
</clipPath>
<clipPath id="clip2_10765_22411">
<rect width="18.5753" height="25.6825" fill="white" transform="translate(301.023 21.2568)"/>
</clipPath>
</defs>
</svg>
