<svg width="362" height="64" viewBox="0 0 362 64" fill="none" xmlns="http://www.w3.org/2000/svg">
<g clip-path="url(#clip0_10761_23099)">
<g clip-path="url(#clip1_10761_23099)">
<mask id="mask0_10761_23099" style="mask-type:alpha" maskUnits="userSpaceOnUse" x="0" y="0" width="362" height="65">
<rect x="0.0429688" width="361.622" height="64.3984" rx="17.9573" fill="#00126D"/>
</mask>
<g mask="url(#mask0_10761_23099)">
<rect x="0.0429688" width="361.622" height="64.3984" rx="10.7331" fill="#00126D"/>
<ellipse cx="27.9617" cy="2.12485" rx="338.598" ry="106.444" fill="url(#paint0_radial_10761_23099)"/>
<ellipse cx="325.716" cy="6.69865" rx="420.126" ry="67.3764" fill="url(#paint1_radial_10761_23099)"/>
<ellipse cx="377.302" cy="37.2565" rx="338.598" ry="21.821" fill="url(#paint2_radial_10761_23099)"/>
<ellipse cx="303.016" cy="60.6733" rx="338.598" ry="33.5298" fill="url(#paint3_radial_10761_23099)"/>
<ellipse cx="23.0476" cy="84.887" rx="338.598" ry="45.5047" fill="url(#paint4_radial_10761_23099)"/>
<ellipse cx="-7.33517" cy="70.4365" rx="338.598" ry="36.1909" fill="url(#paint5_radial_10761_23099)"/>
<ellipse cx="-7.33517" cy="42.5165" rx="338.598" ry="36.1909" fill="url(#paint6_radial_10761_23099)"/>
<ellipse cx="67.7349" cy="-19.3579" rx="157.547" ry="44.6694" fill="url(#paint7_radial_10761_23099)"/>
</g>
<rect x="3.29688" y="2.1792" width="356.094" height="59.5685" rx="17.9573" fill="white"/>
<path d="M34.6604 40.334V24.9698H40.2846C43.9694 24.9698 45.7795 26.8876 45.7795 29.9691C45.7795 33.4169 43.6247 35.5071 40.1984 35.5071H37.6988V40.334H34.6604ZM37.6988 32.9859H39.9829C41.6422 32.9859 42.655 32.0162 42.655 30.1414C42.655 28.396 41.7068 27.6202 40.0476 27.6202H37.6988V32.9859ZM54.9898 40.334C54.645 39.7737 54.3217 39.1488 54.0847 38.2869C53.4383 39.8168 52.016 40.571 50.4861 40.571C48.7837 40.571 47.4262 39.666 47.4262 37.7266C47.4262 34.1495 51.542 34.4512 53.783 33.3953C53.6537 31.8007 52.5117 31.3913 51.0894 31.3913C50.0982 31.3913 49.0208 31.5852 47.9433 31.8222V29.2149C49.1932 28.9132 50.4214 28.7408 51.5204 28.7408C54.451 28.7408 56.6275 29.9691 56.6275 33.5246V36.4552C56.6275 37.5111 56.649 38.6532 56.8645 40.334H54.9898ZM50.3352 37.2525C50.3352 37.9852 50.7878 38.3515 51.4773 38.3515C52.5117 38.3515 53.783 37.3818 53.783 35.6364V35.1623C52.1022 35.9596 50.3352 35.701 50.3352 37.2525ZM63.3155 36.8862C63.0353 36.8862 62.7552 36.8646 62.4751 36.8431C62.1518 37.0155 62.0225 37.2956 62.0225 37.5973C62.0225 38.3731 63.1646 38.3946 64.6515 38.5239C66.8279 38.6963 69.2198 39.0842 69.2198 41.6054C69.2198 44.0188 66.6555 45.1824 63.1862 45.1824C60.0401 45.1824 57.8636 44.3205 57.8636 42.2518C57.8636 40.6357 59.5014 39.9246 60.8374 40.0323C60.0832 39.7091 59.5875 39.1488 59.5875 38.4161C59.5875 37.4249 60.4279 36.8215 61.4192 36.6061C59.6953 36.0242 58.7902 34.602 58.7902 32.7919C58.7902 30.4647 60.4926 28.7408 63.4448 28.7408C64.1559 28.7408 64.7808 28.8485 65.3195 28.9994C65.3841 29.0209 65.4919 29.0425 65.5781 29.0425C66.3323 29.0425 66.5047 28.3745 66.5047 27.5987C66.5047 27.2324 66.44 26.8229 66.3754 26.4782H69.069C69.1121 26.7583 69.1552 27.0169 69.1552 27.297C69.1552 29.0209 67.9053 29.8613 66.7848 29.8613C66.6555 29.8613 66.5262 29.8398 66.4185 29.8182C67.4313 30.5509 67.97 31.5852 67.97 32.9212C67.97 35.0546 66.2676 36.8862 63.3155 36.8862ZM63.3586 34.8175C64.5222 34.8175 65.1687 34.1495 65.1687 32.8135C65.1687 31.4344 64.5653 30.7879 63.3801 30.7879C62.2165 30.7879 61.5916 31.3913 61.5916 32.7704C61.5916 34.128 62.1949 34.8175 63.3586 34.8175ZM60.6219 41.5623C60.6219 42.6828 62.001 42.9629 63.4232 42.9629C64.9316 42.9629 66.203 42.6828 66.203 41.8208C66.203 40.6788 63.9835 40.8296 62.1303 40.5495C61.2899 40.4848 60.6219 40.8943 60.6219 41.5623ZM77.3381 40.334C76.9933 39.7737 76.6701 39.1488 76.4331 38.2869C75.7866 39.8168 74.3644 40.571 72.8344 40.571C71.1321 40.571 69.7745 39.666 69.7745 37.7266C69.7745 34.1495 73.8903 34.4512 76.1314 33.3953C76.0021 31.8007 74.86 31.3913 73.4378 31.3913C72.4466 31.3913 71.3691 31.5852 70.2917 31.8222V29.2149C71.5415 28.9132 72.7698 28.7408 73.8688 28.7408C76.7994 28.7408 78.9758 29.9691 78.9758 33.5246V36.4552C78.9758 37.5111 78.9974 38.6532 79.2129 40.334H77.3381ZM72.6836 37.2525C72.6836 37.9852 73.1361 38.3515 73.8257 38.3515C74.86 38.3515 76.1314 37.3818 76.1314 35.6364V35.1623C74.4506 35.9596 72.6836 35.701 72.6836 37.2525ZM88.8315 31.7576C86.7628 31.6714 85.5561 32.1024 85.0605 32.9212V40.334H82.0437V33.266C82.0437 32.167 82.0221 30.7233 81.8928 28.9778H83.8106C84.2201 29.5165 84.608 30.5078 84.8019 31.4344C85.3406 29.6889 86.5473 28.7408 88.8315 28.7408V31.7576ZM100.34 40.571C96.9784 40.571 94.6081 38.7178 94.6081 34.6451C94.6081 30.7664 97.0862 28.7408 100.469 28.7408C101.224 28.7408 102.042 28.8485 102.861 29.0425V31.5637C102.129 31.4128 101.417 31.3266 100.814 31.3266C98.8747 31.3266 97.6033 32.1455 97.6033 34.6667C97.6033 37.1879 98.8532 37.9852 100.771 37.9852C101.417 37.9852 102.129 37.899 102.861 37.7481V40.2693C101.978 40.4417 101.137 40.571 100.34 40.571ZM109.887 40.571C106.267 40.571 104.456 38.0067 104.456 34.7744C104.456 31.4128 106.396 28.7408 110.102 28.7408C113.701 28.7408 115.533 31.3051 115.533 34.5374C115.533 37.899 113.593 40.571 109.887 40.571ZM109.995 38.1576C111.718 38.1576 112.537 36.8 112.537 34.6451C112.537 32.4472 111.74 31.1542 109.995 31.1542C108.249 31.1542 107.43 32.5118 107.43 34.6667C107.43 36.8646 108.249 38.1576 109.995 38.1576ZM125.61 33.5677C125.61 32.1024 124.856 31.4559 123.627 31.4559C122.485 31.4559 121.688 31.9946 121.192 32.7273V40.334H118.176V33.266C118.176 32.167 118.154 30.7233 118.025 28.9778H119.943C120.33 29.495 120.675 30.3785 120.891 31.2189C121.365 29.9475 122.507 28.7408 124.576 28.7408C126.903 28.7408 128.627 30.0337 128.627 33.0936V40.334H125.61V33.5677Z" fill="#1D1D1D"/>
<g clip-path="url(#clip2_10761_23099)">
<path d="M313.55 21.4165C309.396 21.4165 306.016 24.7959 306.016 28.9498V33.2533C306.016 33.3017 305.955 33.3853 305.911 33.3985C305.502 33.5349 305.172 33.6537 304.868 33.7682C304.507 33.909 304.234 34.3094 304.234 34.701V44.5841C304.234 44.9713 304.507 45.3717 304.864 45.517C307.64 46.617 310.562 47.1759 313.55 47.1759C316.538 47.1759 319.459 46.617 322.236 45.517C322.597 45.3762 322.865 44.9757 322.865 44.5841V34.701C322.865 34.3094 322.592 33.909 322.232 33.7682C321.928 33.6493 321.598 33.5349 321.189 33.3985C321.14 33.3809 321.083 33.3017 321.083 33.2533V28.9498C321.083 24.7959 317.704 21.4165 313.55 21.4165ZM311.499 37.7108C311.499 36.5755 312.419 35.6603 313.55 35.6603C314.681 35.6603 315.6 36.5799 315.6 37.7108C315.6 38.4633 315.178 39.0925 314.575 39.4489V42.8416C314.575 43.4092 314.117 43.8668 313.55 43.8668C312.982 43.8668 312.525 43.4092 312.525 42.8416V39.4489C311.922 39.0925 311.499 38.4633 311.499 37.7108ZM318.491 28.9498V32.6637C316.872 32.3161 315.209 32.14 313.55 32.14C311.891 32.14 310.232 32.3161 308.608 32.6637V28.9542C308.608 26.2304 310.826 24.0127 313.55 24.0127C316.274 24.0083 318.491 26.2216 318.491 28.9498Z" fill="#1D1D1D"/>
</g>
<path d="M161.846 37.5854C161.798 37.8169 161.751 38.0507 161.703 38.2821C160.512 38.4805 159.317 38.6127 158.121 38.6859C159.39 38.3435 160.634 37.9822 161.846 37.5854Z" fill="#ED1C27"/>
<path d="M188.462 14.8472C185.056 24.2171 178.043 32.676 168.578 36.3932C168.578 36.3932 168.958 34.5358 168.961 34.5358C176.643 30.16 181.887 22.3243 184.006 13.9173C184.754 13.5114 186.797 12.3525 186.797 12.3525C186.797 12.3525 187.876 13.9433 188.462 14.8472Z" fill="#ED1C27"/>
<path d="M172.342 18.0653C172.411 17.7254 172.518 17.513 172.905 17.4847C174.564 17.3549 176.219 17.0882 177.873 17.1024C179.916 17.1165 181.268 18.5491 181.534 20.7205C182.586 18.5373 183.413 16.2551 184.004 13.9161C183.976 13.8949 183.947 13.876 183.919 13.8571C182.287 12.7502 180.422 12.4528 178.507 12.3726C174.594 12.2026 170.805 12.9579 167.061 13.9846C166.862 14.0412 166.631 14.3433 166.584 14.5675C166.254 16.1677 160.402 44.6503 160.402 44.6503H164.781C166.014 44.6503 167.071 43.7062 167.32 42.4931C167.323 42.4978 172.057 19.4649 172.342 18.0653Z" fill="#1D1D1D"/>
<path d="M187.176 17.9736C183.689 25.5238 177.833 32.1583 170.23 35.6843C182.543 39.1798 190.647 27.1405 187.176 17.9736Z" fill="#1D1D1D"/>
<path d="M158.879 23.9821C149.937 15.3982 134.692 25.1952 137.137 36.8686C138.657 44.1309 146.568 45.7429 152.971 44.0294C157.033 42.9437 156.548 39.0282 156.548 39.0282C151.453 40.1988 141.755 39.1462 142.551 35.2779C146.471 36.3706 152.446 36.6302 156.639 34.4896C162.11 31.6951 161.176 26.5452 158.879 23.9821ZM155.13 28.8747C153.764 31.6763 145.958 31.6526 143.147 30.8337C144.91 26.8591 149.545 24.4848 153.795 26.2054C155.078 26.727 155.648 27.8032 155.13 28.8747Z" fill="#1D1D1D"/>
<path d="M215.18 22.521C211.393 21.2867 206.851 20.7202 203.525 20.7202C194.723 20.7202 189.183 28.5914 189.442 35.4972C189.542 38.1477 190.438 44.1638 198.498 44.8553C200.736 45.0465 202.872 44.7609 204.741 43.3873C204.756 43.3755 204.886 43.2598 204.856 43.425C204.789 43.8097 204.639 44.6547 204.639 44.6547C204.639 44.6547 208.842 44.6547 210.835 44.6547C211.21 44.6547 211.263 44.3974 211.317 44.1354C212.75 37.173 214.192 30.2246 215.608 23.2574C215.698 22.8184 215.61 22.6579 215.18 22.521ZM208.35 26.6702C207.595 30.26 206.863 33.8546 206.1 37.4467C206.034 37.7559 205.872 38.0368 205.635 38.2468C203.824 39.847 201.715 40.3733 199.358 39.8352C194.84 38.8038 195.581 32.4385 197.163 29.3679C198.605 26.5734 201.865 24.9945 205.183 25.4217C208.505 25.8465 208.436 26.2525 208.35 26.6702Z" fill="#1D1D1D"/>
<path d="M292.673 29.1201C292.21 23.6256 287.843 20.7202 282.603 20.7202C271.613 20.7202 267.983 29.8423 268.318 36.1817C268.639 42.2686 274.057 45.1031 279.517 44.5957C284.589 44.2959 288.399 41.9948 290.756 37.4869C292.12 34.8741 293.003 32.1198 292.673 29.1201ZM277.516 39.4434C272.68 38.4545 274.319 32.0986 275.328 30.2246C277.766 25.6978 281.087 25.4901 282.976 25.7875C285.47 26.1769 286.886 27.9471 286.746 30.9374C286.534 35.4642 283.144 40.5928 277.516 39.4434Z" fill="#1D1D1D"/>
<path d="M215.113 55.2479L215.933 51.2144C216.056 50.7423 216.501 50.4062 216.988 50.3919C219.444 50.3228 220.285 49.8937 221.513 48.5539C222.452 47.3572 223.162 46.3965 223.951 45.2903C224.055 45.1449 224.065 44.8851 224.027 44.6944C222.696 37.9169 219.34 20.7217 219.34 20.7217C219.34 20.7217 225.459 20.6669 225.844 23.1319C226.583 27.852 228.331 37.3948 228.415 37.7715C228.631 37.3972 234.354 27.5373 237.031 22.81C238.345 20.4905 243.35 20.7217 245.004 20.7217C240.069 28.9963 230.486 45.0424 228.992 47.536C225.11 54.0059 221.694 55.298 218.116 55.2527C217.142 55.2408 215.113 55.2479 215.113 55.2479Z" fill="#1D1D1D"/>
<path d="M263.861 38.0555C263.514 39.7383 262.884 42.7995 262.863 42.908C262.827 43.0874 262.751 43.2857 262.511 43.3754C259.207 44.6026 255.679 45.1809 252.47 44.0504C242.083 40.3968 244.872 23.8166 255.719 21.178C261.046 19.8822 266.358 21.7586 266.617 21.8388C266.918 21.9332 267.106 22.2353 267.044 22.5421C266.856 23.465 266.26 26.3869 266.234 26.4931C263.229 25.5278 260.072 24.8291 257.002 25.9007C250.902 28.0343 249.576 38.4332 255.643 39.651C258.551 40.2363 261.212 39.212 263.861 38.0555Z" fill="#1D1D1D"/>
<path d="M249.186 53.7217C250.026 53.8938 252.101 53.8403 252.148 52.5247C252.148 51.9969 251.446 51.5036 250.78 51.3621C249.955 51.19 249.431 51.1862 248.599 51.3621C248.086 51.5533 247.928 51.0638 248.394 50.8994C249.277 50.5858 252.724 50.5208 252.885 52.5247C252.743 54.5057 249.735 54.3642 249.056 54.2303C248.788 54.1806 248.583 54.0582 248.583 53.7294V52.0811C248.583 51.691 249.182 51.6948 249.182 52.0811V53.7217H249.186Z" fill="#ED1C27"/>
<path d="M255.663 51.401C254.992 51.401 253.865 53.3858 253.529 54.0972C253.332 54.5217 252.701 54.2195 252.902 53.7912C253.257 53.0264 254.602 50.7165 255.655 50.7394C256.708 50.7203 258.052 53.0264 258.407 53.7912C258.604 54.2195 257.978 54.5217 257.78 54.0972C257.449 53.3858 256.329 51.401 255.663 51.401Z" fill="#ED1C27"/>
<path d="M260.353 53.6369C261.023 53.6369 262.151 51.652 262.482 50.9407C262.679 50.5162 263.31 50.8183 263.109 51.2428C262.754 52.0077 261.41 54.3176 260.357 54.2985C259.304 54.3176 257.959 52.0115 257.604 51.2428C257.407 50.8145 258.034 50.5124 258.235 50.9407C258.566 51.652 259.682 53.6369 260.353 53.6369Z" fill="#ED1C27"/>
<path d="M264.249 51.08V53.9712C264.249 54.4034 263.574 54.3881 263.574 53.9559V51.0724C263.574 50.6249 264.249 50.6211 264.249 51.08Z" fill="#ED1C27"/>
<path d="M267.47 53.6369C268.14 53.6369 269.268 51.652 269.599 50.9407C269.797 50.5162 270.428 50.8183 270.226 51.2428C269.868 52.0077 268.523 54.3176 267.47 54.2985C266.417 54.3176 265.072 52.0115 264.718 51.2428C264.52 50.8145 265.147 50.5124 265.345 50.9407C265.676 51.652 266.792 53.6369 267.462 53.6369" fill="#ED1C27"/>
<path d="M272.648 52.8185C272.846 53.2238 273.409 53.5527 273.954 53.6675C274.774 53.8434 275.298 53.8434 276.13 53.6675C276.627 53.5107 276.801 53.9772 276.331 54.1302C275.409 54.4323 272.025 54.5394 271.828 52.5278C271.939 50.6118 274.64 50.6615 275.673 50.7954C276.178 50.8604 276.075 51.3767 275.547 51.2696C274.857 51.1816 272.98 51.0746 272.613 52.2792H274.537C274.837 52.2792 274.837 52.8185 274.537 52.8185H272.648Z" fill="#ED1C27"/>
<path d="M283.378 53.7246C284.218 53.8967 286.292 53.8432 286.339 52.5276C286.339 51.9999 285.637 51.5065 284.967 51.365C284.147 51.1929 283.622 51.1891 282.79 51.365C282.278 51.5562 282.12 51.0667 282.585 50.9023C283.472 50.5887 286.915 50.5237 287.077 52.5276C286.935 54.5086 283.926 54.3671 283.252 54.2333C282.983 54.1836 282.778 54.0612 282.778 53.7323V52.084C282.778 51.6939 283.378 51.6978 283.378 52.084V53.7246Z" fill="#ED1C27"/>
<path d="M289.857 51.401C289.186 51.401 288.055 53.3858 287.723 54.0972C287.526 54.5217 286.899 54.2195 287.096 53.7912C287.455 53.0264 288.8 50.7165 289.849 50.7394C290.902 50.7203 292.247 53.0264 292.601 53.7912C292.799 54.2195 292.172 54.5217 291.974 54.0972C291.643 53.3858 290.527 51.401 289.857 51.401Z" fill="#ED1C27"/>
<path d="M271.362 51.08V53.9712C271.362 54.4034 270.688 54.3881 270.688 53.9559V51.0724C270.688 50.6249 271.362 50.6211 271.362 51.08Z" fill="#ED1C27"/>
<path d="M279.463 53.1086C279.045 52.3705 278.588 51.3915 278.272 51.3686C277.496 51.3686 277.847 52.8524 277.835 54.0112C277.831 54.4204 277.16 54.4204 277.16 53.9653C277.16 52.4891 276.833 50.7261 278.288 50.7261C278.714 50.7261 279.116 51.3456 279.479 51.9269C279.897 52.6688 280.394 53.6478 280.706 53.6708C281.482 53.6708 281.112 52.2176 281.127 51.0588C281.131 50.6496 281.802 50.6496 281.802 51.1047C281.802 52.5847 282.149 54.3171 280.694 54.3171C280.264 54.3171 279.826 53.6976 279.463 53.1124" fill="#ED1C27"/>
<path fill-rule="evenodd" clip-rule="evenodd" d="M239.836 51.4443C239.85 51.5538 239.836 52.0223 239.396 52.6653C238.934 53.3732 239.664 54.5565 241.138 54.2556C241.462 54.3684 241.811 54.3855 242.037 54.3821C242.263 54.3821 242.615 54.3684 242.94 54.259C244.414 54.56 245.14 53.3732 244.678 52.6653C244.234 52.0257 244.223 51.5538 244.237 51.4443H239.843H239.836Z" fill="#E5252B"/>
<path fill-rule="evenodd" clip-rule="evenodd" d="M242.031 54.3729C240.595 54.3353 240.334 53.6935 240.728 53.5604C240.961 53.4818 241.264 53.3521 241.264 53.3521C241.109 52.6283 241.362 51.7031 242.034 51.7066C242.707 51.7066 242.95 52.6591 242.798 53.3692C242.798 53.3692 243.105 53.475 243.33 53.5638C243.707 53.7037 243.467 54.3387 242.031 54.3763" fill="#0682C4"/>
<path fill-rule="evenodd" clip-rule="evenodd" d="M241.495 53.8685C241.112 52.8357 241.449 51.8677 242.036 51.8677C242.595 51.8711 242.975 52.8084 242.581 53.8651C242.581 53.8651 242.395 53.8242 242.019 53.8242C241.738 53.8242 241.499 53.8685 241.499 53.8685" fill="#FFE11B"/>
<path fill-rule="evenodd" clip-rule="evenodd" d="M242.029 54.3889C242.609 54.3889 243.063 54.2695 243.063 54.1024C243.063 53.9353 242.609 53.8125 242.029 53.8125C241.449 53.8125 240.996 53.9319 240.996 54.1024C240.996 54.2729 241.449 54.3889 242.029 54.3889Z" fill="#F49824"/>
<path fill-rule="evenodd" clip-rule="evenodd" d="M240.119 51.957H240.816C240.925 51.957 241.013 52.0424 241.013 52.1483V52.6026C241.013 52.7119 240.925 52.7973 240.816 52.7973H240.119C240.009 52.7973 239.918 52.7119 239.918 52.6026V52.1483C239.918 52.0424 240.006 51.957 240.119 51.957Z" fill="#0682C4"/>
<path d="M240.198 52.0703H240.745C240.829 52.0703 240.896 52.135 240.896 52.2132V52.5434C240.896 52.625 240.829 52.6897 240.745 52.6897H240.198C240.114 52.6897 240.047 52.625 240.047 52.5434V52.2132C240.047 52.135 240.114 52.0703 240.198 52.0703Z" fill="#231F20"/>
<path fill-rule="evenodd" clip-rule="evenodd" d="M240.894 52.4567C240.647 52.4331 240.564 52.1531 240.543 52.0654H240.745C240.828 52.0654 240.894 52.1295 240.894 52.2071V52.4534V52.4567Z" fill="#FFE11B"/>
<path fill-rule="evenodd" clip-rule="evenodd" d="M240.401 52.0703C240.388 52.1513 240.308 52.4481 240.047 52.4616V52.212C240.047 52.1344 240.113 52.0703 240.196 52.0703H240.401Z" fill="#FFE11B"/>
<path fill-rule="evenodd" clip-rule="evenodd" d="M243.256 51.957H243.949C244.058 51.957 244.15 52.0424 244.15 52.1483V52.6026C244.15 52.7119 244.062 52.7973 243.949 52.7973H243.256C243.147 52.7973 243.059 52.7119 243.059 52.6026V52.1483C243.059 52.0424 243.147 51.957 243.256 51.957Z" fill="#0682C4"/>
<path d="M243.339 52.0703H243.889C243.974 52.0703 244.04 52.135 244.04 52.2132V52.5434C244.04 52.625 243.974 52.6897 243.889 52.6897H243.339C243.258 52.6897 243.191 52.625 243.191 52.5434V52.2132C243.191 52.135 243.258 52.0703 243.339 52.0703Z" fill="#231F20"/>
<path fill-rule="evenodd" clip-rule="evenodd" d="M244.035 52.4567C243.788 52.4331 243.704 52.1531 243.684 52.0654H243.889C243.972 52.0654 244.038 52.1295 244.038 52.2071V52.4534L244.035 52.4567Z" fill="#FFE11B"/>
<path fill-rule="evenodd" clip-rule="evenodd" d="M243.538 52.0703C243.521 52.1513 243.444 52.4481 243.184 52.4616V52.212C243.184 52.1344 243.25 52.0703 243.33 52.0703H243.538Z" fill="#FFE11B"/>
<path fill-rule="evenodd" clip-rule="evenodd" d="M243.478 49.6842C243.404 49.4429 243.39 49.3239 243.618 49.3239H244.119C244.424 49.3171 244.298 49.5482 244.27 49.7726C244.231 50.0684 244.231 50.1602 244.231 50.1602C244.231 50.1602 243.478 49.691 243.478 49.6876" fill="#E5252B"/>
<path fill-rule="evenodd" clip-rule="evenodd" d="M242.029 51.4198C241.278 51.4198 240.248 51.4848 239.585 51.5327C239.077 51.5703 238.682 51.1941 239.021 50.8384C239.744 50.0792 241.503 49.125 242.036 49.125C242.604 49.125 244.328 50.0792 245.051 50.8384C245.39 51.1941 245.051 51.5327 244.536 51.5327C243.968 51.5327 242.78 51.4198 242.029 51.4198Z" fill="#F49824"/>
<path d="M242.441 53.1201C242.441 53.0665 242.483 53.0229 242.538 53.0229C242.593 53.0229 242.631 53.0665 242.631 53.1201C242.631 53.1737 242.59 53.2139 242.538 53.2139C242.486 53.2139 242.441 53.1704 242.441 53.1201Z" fill="#231F20"/>
<path fill-rule="evenodd" clip-rule="evenodd" d="M242.032 53.7963C241.733 53.7963 241.493 53.8407 241.493 53.8407C241.137 52.8318 241.461 51.8845 242.032 51.8845C242.604 51.8845 242.932 52.8352 242.572 53.8407C242.572 53.8407 242.343 53.7963 242.032 53.7963ZM242.561 53.8749C242.858 53.9194 243.055 54.0049 243.055 54.1006C243.055 54.2443 242.6 54.364 242.036 54.364C241.472 54.364 241.017 54.2443 241.017 54.1006C241.017 54.0049 241.211 53.9194 241.507 53.8749C241.507 53.8749 241.828 53.8373 242.036 53.8373C242.244 53.8373 242.565 53.8749 242.565 53.8749M242.607 53.8441C242.981 52.7976 242.618 51.8366 242.036 51.84C241.454 51.84 241.091 52.801 241.465 53.8441C241.175 53.8989 240.985 53.9912 240.985 54.1006C240.985 54.1348 241.006 54.1656 241.041 54.1964C240.555 53.9912 240.509 53.6526 240.777 53.5603C241.006 53.4816 241.288 53.3756 241.288 53.3756C241.14 52.6711 241.369 51.7272 242.039 51.7272C242.709 51.7272 242.939 52.6711 242.787 53.3756C242.787 53.3756 243.066 53.485 243.298 53.5603C243.559 53.6458 243.521 53.9844 243.037 54.193C243.073 54.1622 243.09 54.1314 243.09 54.0972C243.09 53.9912 242.9 53.8954 242.611 53.8407M243.51 49.6786C243.454 49.4563 243.45 49.3639 243.647 49.3639H244.081C244.367 49.3605 244.251 49.5725 244.226 49.788C244.212 49.918 244.201 50.024 244.198 50.1026C243.968 49.9453 243.736 49.8051 243.513 49.6786M243.009 54.2477C244.392 54.4734 245.065 53.3516 244.624 52.6711C244.282 52.1786 244.201 51.7648 244.191 51.5527C243.284 51.5083 242.66 51.4638 242.036 51.457C241.412 51.4638 240.787 51.5083 239.881 51.5527C239.867 51.7648 239.786 52.1786 239.444 52.6711C239.003 53.3516 239.677 54.4734 241.059 54.2477C240.474 54.0322 240.4 53.6663 240.713 53.5466C240.943 53.4611 241.249 53.3517 241.249 53.3517C241.098 52.6266 241.362 51.669 242.032 51.669C242.706 51.669 242.97 52.6232 242.815 53.3517C242.815 53.3517 243.122 53.4611 243.351 53.5466C243.665 53.6629 243.591 54.0322 243.006 54.2477M242.036 51.368C241.257 51.3783 240.519 51.433 239.652 51.4877C239.112 51.5219 238.809 51.1731 239.148 50.8106C239.648 50.2805 241.359 49.1861 242.036 49.1861C242.713 49.1861 244.42 50.2805 244.924 50.8106C245.263 51.1697 244.959 51.5219 244.423 51.4877C243.556 51.433 242.815 51.3817 242.039 51.368M243.411 49.6204C243.404 49.5999 243.397 49.576 243.394 49.5554C243.355 49.4255 243.394 49.2818 243.623 49.2818H244.127C244.423 49.2818 244.392 49.4802 244.339 49.6717C244.303 49.8085 244.275 49.9829 244.261 50.1471C244.261 50.1471 244.674 50.4412 244.903 50.6293C245.622 51.221 245.153 51.604 244.466 51.5732C244.395 51.5698 244.328 51.5664 244.261 51.563C244.265 51.7579 244.325 52.1204 244.642 52.5343C245.439 53.4611 244.381 54.6239 242.889 54.2956C242.642 54.3742 242.251 54.4119 242.036 54.4119C241.821 54.4119 241.429 54.3742 241.179 54.2956C239.687 54.6239 238.629 53.4611 239.426 52.5343C239.744 52.1239 239.804 51.7613 239.807 51.563L239.606 51.5732C238.918 51.6074 238.449 51.221 239.169 50.6293C240.241 49.7538 241.535 49.104 242.036 49.1006C242.311 49.1006 242.826 49.3024 243.411 49.6238" fill="#231F20"/>
<path d="M240.811 52.8162H240.116C239.993 52.8162 239.895 52.7208 239.895 52.6015V52.1483C239.895 52.0324 239.993 51.937 240.116 51.937H240.811C240.931 51.937 241.029 52.0324 241.029 52.1483V52.6015C241.029 52.7208 240.931 52.8162 240.811 52.8162ZM240.119 51.9779C240.021 51.9779 239.94 52.0563 239.94 52.1483V52.6015C239.94 52.6969 240.021 52.7753 240.119 52.7753H240.815C240.913 52.7753 240.99 52.6969 240.99 52.6015V52.1483C240.99 52.0529 240.909 51.9779 240.815 51.9779H240.119Z" fill="#231F20"/>
<path d="M243.953 52.8162H243.261C243.141 52.8162 243.043 52.7208 243.043 52.6015V52.1483C243.043 52.0324 243.141 51.937 243.261 51.937H243.953C244.075 51.937 244.174 52.0324 244.174 52.1483V52.6015C244.174 52.7208 244.075 52.8162 243.953 52.8162ZM243.257 51.9779C243.159 51.9779 243.082 52.0563 243.082 52.1483V52.6015C243.082 52.6969 243.162 52.7753 243.257 52.7753H243.949C244.047 52.7753 244.128 52.6969 244.128 52.6015V52.1483C244.128 52.0529 244.047 51.9779 243.949 51.9779H243.257Z" fill="#231F20"/>
</g>
</g>
<defs>
<radialGradient id="paint0_radial_10761_23099" cx="0" cy="0" r="1" gradientUnits="userSpaceOnUse" gradientTransform="translate(27.9617 2.12485) rotate(90) scale(106.444 338.598)">
<stop stop-color="#F8991D"/>
<stop offset="0.93" stop-color="#F8991D" stop-opacity="0"/>
</radialGradient>
<radialGradient id="paint1_radial_10761_23099" cx="0" cy="0" r="1" gradientUnits="userSpaceOnUse" gradientTransform="translate(325.716 6.69865) rotate(90) scale(67.3764 420.126)">
<stop stop-color="#BCBABA"/>
<stop offset="1" stop-color="#959595" stop-opacity="0"/>
</radialGradient>
<radialGradient id="paint2_radial_10761_23099" cx="0" cy="0" r="1" gradientUnits="userSpaceOnUse" gradientTransform="translate(377.302 37.2565) rotate(90) scale(21.821 338.598)">
<stop stop-color="#959595"/>
<stop offset="1" stop-color="#959595" stop-opacity="0"/>
</radialGradient>
<radialGradient id="paint3_radial_10761_23099" cx="0" cy="0" r="1" gradientUnits="userSpaceOnUse" gradientTransform="translate(303.016 60.6733) rotate(90) scale(33.5298 338.598)">
<stop stop-color="#1D1D1D"/>
<stop offset="1" stop-color="#1D1D1D" stop-opacity="0"/>
</radialGradient>
<radialGradient id="paint4_radial_10761_23099" cx="0" cy="0" r="1" gradientUnits="userSpaceOnUse" gradientTransform="translate(23.0476 84.887) rotate(90) scale(45.5047 338.598)">
<stop stop-color="#FFBB00"/>
<stop offset="0.93" stop-color="#FFBB00" stop-opacity="0"/>
</radialGradient>
<radialGradient id="paint5_radial_10761_23099" cx="0" cy="0" r="1" gradientUnits="userSpaceOnUse" gradientTransform="translate(-7.33517 70.4365) rotate(90) scale(36.1909 338.598)">
<stop stop-color="#ED1C27"/>
<stop offset="1" stop-color="#ED1C27" stop-opacity="0"/>
</radialGradient>
<radialGradient id="paint6_radial_10761_23099" cx="0" cy="0" r="1" gradientUnits="userSpaceOnUse" gradientTransform="translate(-7.33517 42.5165) rotate(90) scale(36.1909 338.598)">
<stop stop-color="#ED1C27"/>
<stop offset="1" stop-color="#ED1C27" stop-opacity="0"/>
</radialGradient>
<radialGradient id="paint7_radial_10761_23099" cx="0" cy="0" r="1" gradientUnits="userSpaceOnUse" gradientTransform="translate(67.7349 -19.3579) rotate(90) scale(44.6694 157.547)">
<stop stop-color="#ED1C27"/>
<stop offset="1" stop-color="#ED1C27" stop-opacity="0"/>
</radialGradient>
<clipPath id="clip0_10761_23099">
<rect width="361.622" height="63.6886" rx="19.4304" fill="white"/>
</clipPath>
<clipPath id="clip1_10761_23099">
<rect width="361.622" height="63.8793" rx="19.4886" fill="white"/>
</clipPath>
<clipPath id="clip2_10761_23099">
<rect width="18.6309" height="25.7594" fill="white" transform="translate(304.223 21.4165)"/>
</clipPath>
</defs>
</svg>
