<svg width="362" height="64" viewBox="0 0 362 64" fill="none" xmlns="http://www.w3.org/2000/svg">
<g clip-path="url(#clip0_10761_23600)">
<g clip-path="url(#clip1_10761_23600)">
<rect width="372.417" height="124.139" transform="translate(-10.8125 -5.396)" fill="#5F6062"/>
<g filter="url(#filter0_f_10761_23600)">
<path d="M371.317 50.7688C361.431 68.5085 279.69 68.2966 254.485 57.4877C229.28 46.6789 242.661 7.28118 252.546 -10.4584C262.432 -28.1981 330.915 -13.3804 356.119 -2.57159C381.324 8.23722 381.202 33.0292 371.317 50.7688Z" fill="#1E1F20"/>
</g>
<g filter="url(#filter1_f_10761_23600)">
<path d="M-43.0485 18.5212C-39.6964 -9.5717 37.4979 -52.993 64.9193 -52.5686C92.3407 -52.1442 92.986 5.6636 89.6339 33.7565C86.2817 61.8494 16.6774 79.4043 -10.7439 78.9799C-38.1653 78.5554 -46.4007 46.6141 -43.0485 18.5212Z" fill="#1E1F20"/>
</g>
<rect x="3.21094" y="2.1582" width="355.031" height="59.3907" rx="29.6954" fill="white"/>
<path d="M32.2559 40.188V24.8696H37.8633C41.5371 24.8696 43.3418 26.7817 43.3418 29.854C43.3418 33.2915 41.1934 35.3755 37.7773 35.3755H35.2852V40.188H32.2559ZM35.2852 32.8618H37.5625C39.2168 32.8618 40.2266 31.895 40.2266 30.0259C40.2266 28.2856 39.2813 27.5122 37.627 27.5122H35.2852V32.8618ZM52.5245 40.188C52.1808 39.6294 51.8585 39.0063 51.6222 38.147C50.9776 39.6724 49.5597 40.4243 48.0343 40.4243C46.337 40.4243 44.9835 39.522 44.9835 37.5884C44.9835 34.022 49.087 34.3228 51.3214 33.27C51.1925 31.6802 50.0538 31.272 48.6359 31.272C47.6476 31.272 46.5734 31.4653 45.4991 31.7017V29.102C46.7452 28.8013 47.9698 28.6294 49.0655 28.6294C51.9874 28.6294 54.1573 29.854 54.1573 33.3989V36.3208C54.1573 37.3735 54.1788 38.5122 54.3937 40.188H52.5245ZM47.8839 37.1157C47.8839 37.8462 48.3351 38.2114 49.0226 38.2114C50.0538 38.2114 51.3214 37.2446 51.3214 35.5044V35.0317C49.6456 35.8267 47.8839 35.5688 47.8839 37.1157ZM60.8254 36.7505C60.5461 36.7505 60.2668 36.729 59.9875 36.7075C59.6652 36.8794 59.5363 37.1587 59.5363 37.4595C59.5363 38.2329 60.675 38.2544 62.1574 38.3833C64.3273 38.5552 66.7121 38.9419 66.7121 41.4556C66.7121 43.8618 64.1555 45.022 60.6965 45.022C57.5598 45.022 55.3898 44.1626 55.3898 42.1001C55.3898 40.4888 57.0226 39.7798 58.3547 39.8872C57.6027 39.5649 57.1086 39.0063 57.1086 38.2759C57.1086 37.2876 57.9465 36.686 58.9348 36.4712C57.216 35.8911 56.3137 34.4731 56.3137 32.6685C56.3137 30.3481 58.0109 28.6294 60.9543 28.6294C61.6633 28.6294 62.2863 28.7368 62.8234 28.8872C62.8879 28.9087 62.9953 28.9302 63.0812 28.9302C63.8332 28.9302 64.0051 28.2642 64.0051 27.4907C64.0051 27.1255 63.9406 26.7173 63.8762 26.3735H66.5617C66.6047 26.6528 66.6477 26.9106 66.6477 27.1899C66.6477 28.9087 65.4016 29.7466 64.2844 29.7466C64.1555 29.7466 64.0266 29.7251 63.9191 29.7036C64.9289 30.4341 65.466 31.4653 65.466 32.7974C65.466 34.9243 63.7687 36.7505 60.8254 36.7505ZM60.8684 34.688C62.0285 34.688 62.673 34.022 62.673 32.6899C62.673 31.3149 62.0715 30.6704 60.8898 30.6704C59.7297 30.6704 59.1066 31.272 59.1066 32.647C59.1066 34.0005 59.7082 34.688 60.8684 34.688ZM58.1398 41.4126C58.1398 42.5298 59.5148 42.8091 60.9328 42.8091C62.4367 42.8091 63.7043 42.5298 63.7043 41.6704C63.7043 40.5317 61.4914 40.6821 59.6437 40.4028C58.8059 40.3384 58.1398 40.7466 58.1398 41.4126ZM74.8062 40.188C74.4624 39.6294 74.1402 39.0063 73.9038 38.147C73.2593 39.6724 71.8413 40.4243 70.3159 40.4243C68.6187 40.4243 67.2652 39.522 67.2652 37.5884C67.2652 34.022 71.3687 34.3228 73.6031 33.27C73.4741 31.6802 72.3355 31.272 70.9175 31.272C69.9292 31.272 68.855 31.4653 67.7808 31.7017V29.102C69.0269 28.8013 70.2515 28.6294 71.3472 28.6294C74.2691 28.6294 76.439 29.854 76.439 33.3989V36.3208C76.439 37.3735 76.4605 38.5122 76.6753 40.188H74.8062ZM70.1656 37.1157C70.1656 37.8462 70.6167 38.2114 71.3042 38.2114C72.3355 38.2114 73.6031 37.2446 73.6031 35.5044V35.0317C71.9273 35.8267 70.1656 35.5688 70.1656 37.1157ZM86.2652 31.6372C84.2027 31.5513 82.9996 31.981 82.5055 32.7974V40.188H79.4977V33.1411C79.4977 32.0454 79.4762 30.606 79.3473 28.8657H81.2594C81.6676 29.4028 82.0543 30.3911 82.2477 31.3149C82.7848 29.5747 83.9879 28.6294 86.2652 28.6294V31.6372ZM97.7394 40.4243C94.3878 40.4243 92.0246 38.5767 92.0246 34.5161C92.0246 30.6489 94.4953 28.6294 97.8683 28.6294C98.6203 28.6294 99.4367 28.7368 100.253 28.9302V31.4438C99.5226 31.2935 98.8136 31.2075 98.2121 31.2075C96.2785 31.2075 95.0109 32.0239 95.0109 34.5376C95.0109 37.0513 96.257 37.8462 98.1691 37.8462C98.8136 37.8462 99.5226 37.7603 100.253 37.6099V40.1235C99.3722 40.2954 98.5343 40.4243 97.7394 40.4243ZM107.258 40.4243C103.648 40.4243 101.844 37.8677 101.844 34.645C101.844 31.2935 103.777 28.6294 107.473 28.6294C111.06 28.6294 112.887 31.186 112.887 34.4087C112.887 37.7603 110.953 40.4243 107.258 40.4243ZM107.365 38.0181C109.084 38.0181 109.9 36.6646 109.9 34.5161C109.9 32.3247 109.105 31.0356 107.365 31.0356C105.625 31.0356 104.808 32.3892 104.808 34.5376C104.808 36.729 105.625 38.0181 107.365 38.0181ZM122.934 33.4419C122.934 31.981 122.182 31.3364 120.957 31.3364C119.819 31.3364 119.024 31.8735 118.53 32.604V40.188H115.522V33.1411C115.522 32.0454 115.5 30.606 115.371 28.8657H117.283C117.67 29.3813 118.014 30.2622 118.229 31.1001C118.701 29.8325 119.84 28.6294 121.903 28.6294C124.223 28.6294 125.942 29.9185 125.942 32.9692V40.188H122.934V33.4419Z" fill="#1D1D1D"/>
<g clip-path="url(#clip2_10761_23600)">
<path d="M310.284 21.2534C306.142 21.2534 302.773 24.6228 302.773 28.7642V33.0549C302.773 33.1032 302.711 33.1865 302.668 33.1997C302.26 33.3357 301.931 33.4541 301.628 33.5682C301.268 33.7086 300.996 34.1078 300.996 34.4983V44.3519C300.996 44.7379 301.268 45.1372 301.623 45.2819C304.392 46.3787 307.305 46.9359 310.284 46.9359C313.263 46.9359 316.176 46.3787 318.944 45.2819C319.304 45.1415 319.571 44.7423 319.571 44.3519V34.4983C319.571 34.1078 319.299 33.7086 318.94 33.5682C318.637 33.4497 318.308 33.3357 317.9 33.1997C317.852 33.1821 317.795 33.1032 317.795 33.0549V28.7642C317.795 24.6228 314.425 21.2534 310.284 21.2534ZM308.239 37.4991C308.239 36.3672 309.156 35.4547 310.284 35.4547C311.411 35.4547 312.328 36.3716 312.328 37.4991C312.328 38.2493 311.907 38.8767 311.306 39.232V42.6145C311.306 43.1805 310.85 43.6367 310.284 43.6367C309.718 43.6367 309.262 43.1805 309.262 42.6145V39.232C308.66 38.8767 308.239 38.2493 308.239 37.4991ZM315.211 28.7642V32.467C313.596 32.1204 311.938 31.9449 310.284 31.9449C308.63 31.9449 306.976 32.1204 305.357 32.467V28.7686C305.357 26.053 307.568 23.8418 310.284 23.8418C312.999 23.8375 315.211 26.0442 315.211 28.7642Z" fill="#1D1D1D"/>
</g>
<path d="M160.097 36.4248C160.049 36.6555 160.002 36.8886 159.954 37.1194C158.767 37.3172 157.575 37.449 156.383 37.522C157.648 37.1806 158.888 36.8204 160.097 36.4248Z" fill="#ED1C27"/>
<path d="M186.633 13.7543C183.237 23.0962 176.245 31.5298 166.809 35.236C166.809 35.236 167.188 33.3841 167.19 33.3841C174.85 29.0214 180.077 21.209 182.19 12.8272C182.936 12.4225 184.973 11.2671 184.973 11.2671C184.973 11.2671 186.048 12.8531 186.633 13.7543Z" fill="#ED1C27"/>
<path d="M170.561 16.9628C170.629 16.6239 170.736 16.4122 171.122 16.3839C172.775 16.2545 174.426 15.9886 176.075 16.0027C178.112 16.0168 179.459 17.4452 179.725 19.6101C180.774 17.4334 181.598 15.1579 182.188 12.826C182.159 12.8048 182.131 12.786 182.103 12.7672C180.475 11.6636 178.616 11.3671 176.707 11.2871C172.806 11.1176 169.028 11.8706 165.295 12.8942C165.096 12.9507 164.867 13.2519 164.819 13.4755C164.49 15.0709 158.656 43.4684 158.656 43.4684H163.021C164.251 43.4684 165.305 42.5271 165.553 41.3176C165.556 41.3223 170.276 18.3582 170.561 16.9628Z" fill="#1D1D1D"/>
<path d="M185.352 16.8716C181.875 24.3992 176.036 31.0139 168.457 34.5294C180.733 38.0144 188.812 26.0111 185.352 16.8716Z" fill="#1D1D1D"/>
<path d="M157.137 22.862C148.222 14.3037 133.023 24.0715 135.46 35.7101C136.976 42.9506 144.864 44.5578 151.247 42.8495C155.297 41.767 154.814 37.8632 154.814 37.8632C149.733 39.0303 140.065 37.9808 140.858 34.1241C144.766 35.2136 150.723 35.4724 154.904 33.3381C160.359 30.552 159.428 25.4175 157.137 22.862ZM153.4 27.74C152.038 30.5332 144.255 30.5097 141.453 29.6931C143.21 25.7305 147.831 23.3632 152.069 25.0787C153.348 25.5987 153.916 26.6717 153.4 27.74Z" fill="#1D1D1D"/>
<path d="M213.271 21.4053C209.496 20.1746 204.967 19.6099 201.651 19.6099C192.876 19.6099 187.352 27.4575 187.61 34.3428C187.71 36.9853 188.603 42.9834 196.639 43.6729C198.87 43.8635 201 43.5788 202.864 42.2093C202.878 42.1975 203.008 42.0822 202.977 42.2469C202.911 42.6305 202.762 43.4729 202.762 43.4729C202.762 43.4729 206.952 43.4729 208.939 43.4729C209.313 43.4729 209.365 43.2164 209.42 42.9552C210.848 36.0135 212.286 29.0859 213.698 22.1395C213.788 21.7018 213.7 21.5418 213.271 21.4053ZM206.462 25.5421C205.708 29.1212 204.979 32.705 204.219 36.2864C204.152 36.5947 203.991 36.8747 203.754 37.0842C201.949 38.6796 199.846 39.2043 197.497 38.6678C192.992 37.6395 193.731 31.2931 195.308 28.2317C196.746 25.4456 199.995 23.8714 203.304 24.2973C206.616 24.7208 206.547 25.1256 206.462 25.5421Z" fill="#1D1D1D"/>
<path d="M290.534 27.9846C290.072 22.5066 285.719 19.6099 280.494 19.6099C269.537 19.6099 265.917 28.7047 266.251 35.0252C266.571 41.0939 271.974 43.92 277.417 43.4141C282.474 43.1152 286.273 40.8209 288.622 36.3265C289.982 33.7215 290.863 30.9754 290.534 27.9846ZM275.422 38.2772C270.6 37.2912 272.234 30.9543 273.241 29.0859C275.671 24.5726 278.982 24.3655 280.865 24.662C283.352 25.0503 284.764 26.8151 284.624 29.7965C284.414 34.3098 281.034 39.4232 275.422 38.2772Z" fill="#1D1D1D"/>
<path d="M213.203 54.0345L214.02 50.013C214.143 49.5424 214.586 49.2072 215.072 49.193C217.521 49.124 218.359 48.6962 219.584 47.3605C220.52 46.1673 221.228 45.2095 222.014 44.1066C222.118 43.9616 222.128 43.7026 222.09 43.5124C220.764 36.7552 217.417 19.6114 217.417 19.6114C217.417 19.6114 223.518 19.5567 223.902 22.0143C224.639 26.7204 226.382 36.2347 226.465 36.6102C226.68 36.237 232.386 26.4066 235.055 21.6934C236.365 19.3808 241.356 19.6114 243.004 19.6114C238.085 27.8612 228.53 43.8594 227.04 46.3456C223.17 52.7962 219.764 54.0844 216.197 54.0393C215.226 54.0274 213.203 54.0345 213.203 54.0345Z" fill="#1D1D1D"/>
<path d="M261.803 36.8934C261.458 38.5712 260.83 41.6232 260.809 41.7315C260.773 41.9103 260.697 42.108 260.458 42.1974C257.163 43.421 253.646 43.9975 250.446 42.8704C240.091 39.2277 242.872 22.6971 253.686 20.0663C258.997 18.7744 264.293 20.6451 264.551 20.7251C264.852 20.8193 265.039 21.1205 264.977 21.4264C264.79 22.3464 264.196 25.2596 264.17 25.3655C261.173 24.4031 258.026 23.7065 254.965 24.7749C248.883 26.9021 247.561 37.2699 253.611 38.4842C256.51 39.0677 259.163 38.0465 261.803 36.8934Z" fill="#1D1D1D"/>
<path d="M247.175 52.5131C248.013 52.6847 250.081 52.6313 250.128 51.3196C250.128 50.7935 249.428 50.3016 248.764 50.1605C247.942 49.9889 247.419 49.9851 246.59 50.1605C246.079 50.3512 245.921 49.8631 246.385 49.6992C247.266 49.3865 250.702 49.3217 250.863 51.3196C250.722 53.2947 247.722 53.1536 247.046 53.0202C246.778 52.9706 246.574 52.8486 246.574 52.5207V50.8773C246.574 50.4884 247.171 50.4922 247.171 50.8773V52.5131H247.175Z" fill="#ED1C27"/>
<path d="M253.631 50.1993C252.963 50.1993 251.838 52.1782 251.504 52.8874C251.307 53.3107 250.678 53.0094 250.879 52.5824C251.233 51.8198 252.573 49.5168 253.623 49.5397C254.673 49.5207 256.013 51.8198 256.367 52.5824C256.564 53.0094 255.939 53.3107 255.742 52.8874C255.412 52.1782 254.295 50.1993 253.631 50.1993Z" fill="#ED1C27"/>
<path d="M258.309 52.4285C258.978 52.4285 260.102 50.4496 260.432 49.7404C260.629 49.3172 261.258 49.6184 261.058 50.0416C260.704 50.8042 259.363 53.1072 258.313 53.0881C257.264 53.1072 255.923 50.808 255.569 50.0416C255.372 49.6146 255.998 49.3134 256.198 49.7404C256.528 50.4496 257.641 52.4285 258.309 52.4285Z" fill="#ED1C27"/>
<path d="M262.192 49.8793V52.7619C262.192 53.1927 261.52 53.1775 261.52 52.7466V49.8717C261.52 49.4256 262.192 49.4218 262.192 49.8793Z" fill="#ED1C27"/>
<path d="M265.407 52.4285C266.075 52.4285 267.2 50.4496 267.53 49.7404C267.727 49.3172 268.356 49.6184 268.155 50.0416C267.797 50.8042 266.457 53.1072 265.407 53.0881C264.357 53.1072 263.017 50.808 262.663 50.0416C262.466 49.6146 263.091 49.3134 263.288 49.7404C263.618 50.4496 264.731 52.4285 265.399 52.4285" fill="#ED1C27"/>
<path d="M270.568 51.6125C270.764 52.0167 271.327 52.3446 271.869 52.459C272.687 52.6344 273.21 52.6344 274.039 52.459C274.535 52.3027 274.708 52.7679 274.24 52.9204C273.32 53.2216 269.947 53.3283 269.75 51.3228C269.86 49.4125 272.553 49.4621 273.583 49.5955C274.087 49.6603 273.984 50.1751 273.458 50.0683C272.769 49.9806 270.898 49.8739 270.532 51.0749H272.451C272.75 51.0749 272.75 51.6125 272.451 51.6125H270.568Z" fill="#ED1C27"/>
<path d="M281.265 52.516C282.103 52.6876 284.171 52.6342 284.218 51.3226C284.218 50.7964 283.518 50.3045 282.85 50.1635C282.032 49.9919 281.509 49.9881 280.679 50.1635C280.168 50.3541 280.011 49.866 280.475 49.7021C281.36 49.3894 284.792 49.3246 284.953 51.3226C284.812 53.2977 281.812 53.1566 281.139 53.0231C280.872 52.9736 280.668 52.8515 280.668 52.5236V50.8803C280.668 50.4914 281.265 50.4952 281.265 50.8803V52.516Z" fill="#ED1C27"/>
<path d="M287.723 50.1993C287.055 50.1993 285.927 52.1782 285.596 52.8874C285.4 53.3107 284.775 53.0094 284.971 52.5824C285.329 51.8198 286.67 49.5168 287.716 49.5397C288.765 49.5207 290.106 51.8198 290.46 52.5824C290.656 53.0094 290.031 53.3107 289.835 52.8874C289.505 52.1782 288.392 50.1993 287.723 50.1993Z" fill="#ED1C27"/>
<path d="M269.286 49.8793V52.7619C269.286 53.1927 268.613 53.1775 268.613 52.7466V49.8717C268.613 49.4256 269.286 49.4218 269.286 49.8793Z" fill="#ED1C27"/>
<path d="M277.363 51.9018C276.946 51.1659 276.49 50.1898 276.175 50.1669C275.401 50.1669 275.751 51.6463 275.739 52.8016C275.735 53.2096 275.067 53.2096 275.067 52.7559C275.067 51.2841 274.74 49.5264 276.191 49.5264C276.616 49.5264 277.017 50.144 277.378 50.7236C277.795 51.4633 278.291 52.4394 278.601 52.4623C279.376 52.4623 279.006 51.0134 279.022 49.8581C279.026 49.4501 279.694 49.4501 279.694 49.9038C279.694 51.3794 280.04 53.1067 278.589 53.1067C278.161 53.1067 277.724 52.489 277.363 51.9056" fill="#ED1C27"/>
<path fill-rule="evenodd" clip-rule="evenodd" d="M237.854 50.2422C237.868 50.3513 237.854 50.8184 237.415 51.4595C236.954 52.1653 237.682 53.3451 239.152 53.045C239.475 53.1576 239.823 53.1746 240.048 53.1712C240.273 53.1712 240.625 53.1576 240.948 53.0485C242.418 53.3485 243.142 52.1653 242.682 51.4595C242.239 50.8219 242.228 50.3513 242.242 50.2422H237.861H237.854Z" fill="#E5252B"/>
<path fill-rule="evenodd" clip-rule="evenodd" d="M240.042 53.1628C238.61 53.1253 238.35 52.4854 238.744 52.3527C238.975 52.2744 239.277 52.145 239.277 52.145C239.123 51.4234 239.375 50.501 240.046 50.5044C240.716 50.5044 240.958 51.4541 240.807 52.1621C240.807 52.1621 241.113 52.2676 241.337 52.3561C241.713 52.4956 241.474 53.1287 240.042 53.1662" fill="#0682C4"/>
<path fill-rule="evenodd" clip-rule="evenodd" d="M239.506 52.6594C239.124 51.6297 239.461 50.6646 240.046 50.6646C240.603 50.6679 240.982 51.6025 240.589 52.656C240.589 52.656 240.403 52.6152 240.028 52.6152C239.748 52.6152 239.51 52.6594 239.51 52.6594" fill="#FFE11B"/>
<path fill-rule="evenodd" clip-rule="evenodd" d="M240.038 53.1781C240.616 53.1781 241.068 53.0591 241.068 52.8925C241.068 52.7259 240.616 52.6035 240.038 52.6035C239.46 52.6035 239.008 52.7225 239.008 52.8925C239.008 53.0625 239.46 53.1781 240.038 53.1781Z" fill="#F49824"/>
<path fill-rule="evenodd" clip-rule="evenodd" d="M238.134 50.7539H238.829C238.937 50.7539 239.025 50.839 239.025 50.9446V51.3976C239.025 51.5065 238.937 51.5917 238.829 51.5917H238.134C238.025 51.5917 237.934 51.5065 237.934 51.3976V50.9446C237.934 50.839 238.021 50.7539 238.134 50.7539Z" fill="#0682C4"/>
<path d="M238.213 50.8667H238.758C238.842 50.8667 238.909 50.9312 238.909 51.0092V51.3383C238.909 51.4198 238.842 51.4842 238.758 51.4842H238.213C238.129 51.4842 238.062 51.4198 238.062 51.3383V51.0092C238.062 50.9312 238.129 50.8667 238.213 50.8667Z" fill="#231F20"/>
<path fill-rule="evenodd" clip-rule="evenodd" d="M238.909 51.252C238.663 51.2284 238.579 50.9493 238.559 50.8618H238.76C238.843 50.8618 238.909 50.9257 238.909 51.0031V51.2486V51.252Z" fill="#FFE11B"/>
<path fill-rule="evenodd" clip-rule="evenodd" d="M238.416 50.8667C238.402 50.9474 238.322 51.2434 238.062 51.2568V51.008C238.062 50.9306 238.128 50.8667 238.212 50.8667H238.416Z" fill="#FFE11B"/>
<path fill-rule="evenodd" clip-rule="evenodd" d="M241.263 50.7539H241.954C242.063 50.7539 242.154 50.839 242.154 50.9446V51.3976C242.154 51.5065 242.067 51.5917 241.954 51.5917H241.263C241.154 51.5917 241.066 51.5065 241.066 51.3976V50.9446C241.066 50.839 241.154 50.7539 241.263 50.7539Z" fill="#0682C4"/>
<path d="M241.342 50.8667H241.891C241.975 50.8667 242.042 50.9312 242.042 51.0092V51.3383C242.042 51.4198 241.975 51.4842 241.891 51.4842H241.342C241.262 51.4842 241.195 51.4198 241.195 51.3383V51.0092C241.195 50.9312 241.262 50.8667 241.342 50.8667Z" fill="#231F20"/>
<path fill-rule="evenodd" clip-rule="evenodd" d="M242.038 51.252C241.791 51.2284 241.708 50.9493 241.688 50.8618H241.892C241.975 50.8618 242.041 50.9257 242.041 51.0031V51.2486L242.038 51.252Z" fill="#FFE11B"/>
<path fill-rule="evenodd" clip-rule="evenodd" d="M241.545 50.8667C241.528 50.9474 241.451 51.2434 241.191 51.2568V51.008C241.191 50.9306 241.257 50.8667 241.337 50.8667H241.545Z" fill="#FFE11B"/>
<path fill-rule="evenodd" clip-rule="evenodd" d="M241.485 48.4878C241.412 48.2472 241.398 48.1286 241.625 48.1286H242.125C242.429 48.1218 242.303 48.3523 242.275 48.576C242.236 48.8708 242.236 48.9623 242.236 48.9623C242.236 48.9623 241.485 48.4946 241.485 48.4912" fill="#E5252B"/>
<path fill-rule="evenodd" clip-rule="evenodd" d="M240.039 50.2182C239.29 50.2182 238.263 50.2829 237.602 50.3307C237.096 50.3682 236.702 49.9931 237.04 49.6385C237.761 48.8815 239.515 47.9302 240.046 47.9302C240.612 47.9302 242.331 48.8815 243.052 49.6385C243.39 49.9931 243.052 50.3307 242.539 50.3307C241.973 50.3307 240.788 50.2182 240.039 50.2182Z" fill="#F49824"/>
<path d="M240.449 51.9133C240.449 51.8598 240.491 51.8164 240.546 51.8164C240.601 51.8164 240.639 51.8598 240.639 51.9133C240.639 51.9667 240.597 52.0068 240.546 52.0068C240.494 52.0068 240.449 51.9634 240.449 51.9133Z" fill="#231F20"/>
<path fill-rule="evenodd" clip-rule="evenodd" d="M240.042 52.5874C239.743 52.5874 239.504 52.6317 239.504 52.6317C239.149 51.6258 239.473 50.6813 240.042 50.6813C240.612 50.6813 240.939 51.6293 240.58 52.6317C240.58 52.6317 240.352 52.5874 240.042 52.5874ZM240.57 52.6658C240.865 52.7102 241.062 52.7954 241.062 52.8909C241.062 53.0341 240.608 53.1534 240.046 53.1534C239.483 53.1534 239.03 53.0341 239.03 52.8909C239.03 52.7954 239.223 52.7102 239.518 52.6658C239.518 52.6658 239.838 52.6283 240.046 52.6283C240.253 52.6283 240.573 52.6658 240.573 52.6658M240.615 52.6352C240.988 51.5918 240.626 50.6336 240.046 50.637C239.466 50.637 239.103 51.5952 239.476 52.6352C239.188 52.6897 238.998 52.7818 238.998 52.8909C238.998 52.925 239.019 52.9557 239.054 52.9864C238.569 52.7818 238.523 52.4442 238.791 52.3521C239.019 52.2737 239.3 52.168 239.3 52.168C239.153 51.4656 239.381 50.5245 240.049 50.5245C240.717 50.5245 240.946 51.4656 240.795 52.168C240.795 52.168 241.072 52.2771 241.304 52.3521C241.565 52.4374 241.526 52.775 241.044 52.9829C241.079 52.9523 241.097 52.9216 241.097 52.8875C241.097 52.7818 240.907 52.6863 240.619 52.6317M241.515 48.482C241.459 48.2604 241.456 48.1683 241.653 48.1683H242.085C242.37 48.1649 242.254 48.3763 242.229 48.5911C242.215 48.7207 242.205 48.8264 242.201 48.9048C241.973 48.748 241.74 48.6082 241.519 48.482M241.016 53.0375C242.394 53.2626 243.066 52.1441 242.626 51.4656C242.285 50.9746 242.205 50.562 242.194 50.3506C241.29 50.3063 240.668 50.2619 240.046 50.2551C239.423 50.2619 238.801 50.3063 237.898 50.3506C237.883 50.562 237.803 50.9746 237.462 51.4656C237.022 52.1441 237.694 53.2626 239.072 53.0375C238.488 52.8227 238.414 52.4578 238.727 52.3385C238.956 52.2533 239.262 52.1441 239.262 52.1441C239.111 51.4213 239.374 50.4665 240.042 50.4665C240.714 50.4665 240.977 51.4179 240.823 52.1441C240.823 52.1441 241.129 52.2533 241.357 52.3385C241.67 52.4544 241.596 52.8227 241.013 53.0375M240.046 50.1665C239.269 50.1767 238.534 50.2312 237.669 50.2858C237.131 50.3199 236.829 49.9721 237.166 49.6107C237.665 49.0821 239.371 47.991 240.046 47.991C240.721 47.991 242.423 49.0821 242.925 49.6107C243.263 49.9687 242.96 50.3199 242.426 50.2858C241.561 50.2312 240.823 50.1801 240.049 50.1665M241.417 48.424C241.41 48.4036 241.403 48.3797 241.399 48.3593C241.361 48.2297 241.399 48.0865 241.628 48.0865H242.131C242.426 48.0865 242.394 48.2842 242.342 48.4752C242.307 48.6116 242.278 48.7855 242.264 48.9492C242.264 48.9492 242.676 49.2424 242.904 49.4299C243.622 50.0198 243.154 50.4017 242.468 50.371C242.398 50.3676 242.331 50.3642 242.264 50.3608C242.268 50.5552 242.328 50.9166 242.644 51.3292C243.439 52.2533 242.384 53.4126 240.897 53.0852C240.651 53.1637 240.26 53.2012 240.046 53.2012C239.831 53.2012 239.441 53.1637 239.191 53.0852C237.704 53.4126 236.649 52.2533 237.444 51.3292C237.76 50.92 237.82 50.5586 237.824 50.3608L237.623 50.371C236.938 50.4051 236.47 50.0198 237.187 49.4299C238.256 48.557 239.547 47.9092 240.046 47.9058C240.32 47.9058 240.833 48.1069 241.417 48.4275" fill="#231F20"/>
<path d="M238.824 51.6104H238.131C238.008 51.6104 237.91 51.5153 237.91 51.3964V50.9445C237.91 50.829 238.008 50.7339 238.131 50.7339H238.824C238.943 50.7339 239.041 50.829 239.041 50.9445V51.3964C239.041 51.5153 238.943 51.6104 238.824 51.6104ZM238.134 50.7747C238.036 50.7747 237.956 50.8528 237.956 50.9445V51.3964C237.956 51.4915 238.036 51.5697 238.134 51.5697H238.828C238.926 51.5697 239.003 51.4915 239.003 51.3964V50.9445C239.003 50.8494 238.922 50.7747 238.828 50.7747H238.134Z" fill="#231F20"/>
<path d="M241.958 51.6104H241.268C241.149 51.6104 241.051 51.5153 241.051 51.3964V50.9445C241.051 50.829 241.149 50.7339 241.268 50.7339H241.958C242.08 50.7339 242.178 50.829 242.178 50.9445V51.3964C242.178 51.5153 242.08 51.6104 241.958 51.6104ZM241.264 50.7747C241.166 50.7747 241.089 50.8528 241.089 50.9445V51.3964C241.089 51.4915 241.17 51.5697 241.264 51.5697H241.954C242.052 51.5697 242.133 51.4915 242.133 51.3964V50.9445C242.133 50.8494 242.052 50.7747 241.954 50.7747H241.264Z" fill="#231F20"/>
</g>
</g>
<defs>
<filter id="filter0_f_10761_23600" x="189.648" y="-69.0797" width="238.236" height="184.434" filterUnits="userSpaceOnUse" color-interpolation-filters="sRGB">
<feFlood flood-opacity="0" result="BackgroundImageFix"/>
<feBlend mode="normal" in="SourceGraphic" in2="BackgroundImageFix" result="shape"/>
<feGaussianBlur stdDeviation="25.1898" result="effect1_foregroundBlur_10761_23600"/>
</filter>
<filter id="filter1_f_10761_23600" x="-94.1334" y="-102.951" width="235.556" height="232.318" filterUnits="userSpaceOnUse" color-interpolation-filters="sRGB">
<feFlood flood-opacity="0" result="BackgroundImageFix"/>
<feBlend mode="normal" in="SourceGraphic" in2="BackgroundImageFix" result="shape"/>
<feGaussianBlur stdDeviation="25.1898" result="effect1_foregroundBlur_10761_23600"/>
</filter>
<clipPath id="clip0_10761_23600">
<rect width="361.622" height="63.6886" rx="19.4304" fill="white"/>
</clipPath>
<clipPath id="clip1_10761_23600">
<rect width="361.622" height="63.6886" rx="31.8443" fill="white"/>
</clipPath>
<clipPath id="clip2_10761_23600">
<rect width="18.5753" height="25.6825" fill="white" transform="translate(300.996 21.2544)"/>
</clipPath>
</defs>
</svg>
