<svg width="362" height="64" viewBox="0 0 362 64" fill="none" xmlns="http://www.w3.org/2000/svg">
<g clip-path="url(#clip0_10761_22739)">
<rect width="375.697" height="124.511" transform="translate(-14.0664 -5.41699)" fill="#F8991D"/>
<g filter="url(#filter0_f_10761_22739)">
<path d="M-16.4819 23.2518C1.70517 7.97462 82.358 33.8914 102.127 53.017C121.897 72.1427 89.9765 108.767 71.7895 124.044C53.6025 139.321 -7.01877 102.436 -26.7882 83.3101C-46.5577 64.1844 -34.6689 38.5289 -16.4819 23.2518Z" fill="url(#paint0_linear_10761_22739)" fill-opacity="0.87"/>
</g>
<g filter="url(#filter1_f_10761_22739)">
<path d="M267.633 -40.0955C293.139 -51.926 370.493 -8.74658 384.578 14.8802C398.664 38.507 350.154 69.2894 324.648 81.1198C299.143 92.9503 247.645 42.7219 233.559 19.0951C219.474 -4.53167 242.128 -28.265 267.633 -40.0955Z" fill="url(#paint1_linear_10761_22739)" fill-opacity="0.87"/>
</g>
<rect x="3.23828" y="2.16162" width="356.094" height="59.5685" rx="29.7843" fill="white"/>
<path d="M161.811 36.5288C161.763 36.7602 161.716 36.994 161.668 37.2255C160.477 37.4238 159.282 37.5561 158.086 37.6293C159.355 37.2869 160.598 36.9255 161.811 36.5288Z" fill="#ED1C27"/>
<path d="M188.427 13.7906C185.02 23.1605 178.008 31.6193 168.543 35.3366C168.543 35.3366 168.923 33.4791 168.925 33.4791C176.608 29.1034 181.851 21.2676 183.97 12.8607C184.719 12.4547 186.762 11.2959 186.762 11.2959C186.762 11.2959 187.84 12.8867 188.427 13.7906Z" fill="#ED1C27"/>
<path d="M172.307 17.0087C172.376 16.6688 172.483 16.4564 172.87 16.4281C174.528 16.2983 176.184 16.0316 177.838 16.0457C179.881 16.0599 181.233 17.4925 181.499 19.6639C182.551 17.4807 183.378 15.1984 183.969 12.8595C183.941 12.8382 183.912 12.8194 183.884 12.8005C182.252 11.6936 180.387 11.3962 178.472 11.3159C174.559 11.146 170.77 11.9013 167.026 12.9279C166.827 12.9846 166.596 13.2867 166.549 13.5109C166.218 15.1111 160.367 43.5936 160.367 43.5936H164.746C165.978 43.5936 167.036 42.6495 167.285 41.4364C167.287 41.4411 172.022 18.4082 172.307 17.0087Z" fill="#1D1D1D"/>
<path d="M187.141 16.917C183.653 24.4672 177.797 31.1016 170.195 34.6277C182.508 38.1231 190.612 26.0839 187.141 16.917Z" fill="#1D1D1D"/>
<path d="M158.844 22.9255C149.902 14.3415 134.657 24.1386 137.102 35.812C138.622 43.0742 146.533 44.6862 152.935 42.9727C156.998 41.8871 156.513 37.9715 156.513 37.9715C151.417 39.1422 141.72 38.0895 142.516 34.2212C146.436 35.314 152.41 35.5736 156.603 33.4329C162.075 30.6385 161.141 25.4886 158.844 22.9255ZM155.095 27.8181C153.729 30.6196 145.923 30.596 143.112 29.777C144.875 25.8025 149.51 23.4282 153.76 25.1487C155.043 25.6703 155.613 26.7466 155.095 27.8181Z" fill="#1D1D1D"/>
<path d="M215.145 21.4644C211.358 20.23 206.816 19.6636 203.49 19.6636C194.688 19.6636 189.148 27.5347 189.407 34.4406C189.507 37.0911 190.403 43.1071 198.463 43.7987C200.701 43.9898 202.837 43.7043 204.706 42.3306C204.721 42.3188 204.851 42.2032 204.82 42.3684C204.754 42.7531 204.604 43.598 204.604 43.598C204.604 43.598 208.807 43.598 210.8 43.598C211.175 43.598 211.227 43.3408 211.282 43.0788C212.715 36.1163 214.157 29.168 215.573 22.2008C215.663 21.7618 215.575 21.6013 215.145 21.4644ZM208.315 25.6136C207.559 29.2034 206.828 32.7979 206.065 36.3901C205.999 36.6993 205.837 36.9801 205.6 37.1902C203.789 38.7904 201.68 39.3167 199.323 38.7786C194.805 37.7472 195.546 31.3818 197.128 28.3112C198.57 25.5168 201.829 23.9378 205.148 24.365C208.469 24.7899 208.4 25.1958 208.315 25.6136Z" fill="#1D1D1D"/>
<path d="M292.638 28.0634C292.175 22.5689 287.808 19.6636 282.568 19.6636C271.578 19.6636 267.948 28.7856 268.283 35.125C268.603 41.2119 274.022 44.0465 279.482 43.539C284.554 43.2393 288.364 40.9381 290.721 36.4302C292.084 33.8175 292.968 31.0632 292.638 28.0634ZM277.481 38.3868C272.644 37.3979 274.284 31.0419 275.293 29.168C277.731 24.6412 281.052 24.4335 282.94 24.7309C285.435 25.1203 286.851 26.8904 286.711 29.8807C286.499 34.4076 283.109 39.5362 277.481 38.3868Z" fill="#1D1D1D"/>
<path d="M215.078 54.1913L215.898 50.1577C216.021 49.6857 216.465 49.3496 216.953 49.3353C219.409 49.2661 220.25 48.837 221.478 47.4973C222.417 46.3005 223.127 45.3398 223.916 44.2337C224.02 44.0883 224.03 43.8284 223.992 43.6377C222.661 36.8602 219.304 19.6651 219.304 19.6651C219.304 19.6651 225.424 19.6103 225.809 22.0752C226.548 26.7954 228.296 36.3382 228.379 36.7148C228.596 36.3406 234.318 26.4807 236.996 21.7534C238.31 19.4338 243.315 19.6651 244.969 19.6651C240.034 27.9396 230.451 43.9858 228.957 46.4793C225.075 52.9493 221.659 54.2414 218.081 54.1961C217.107 54.1842 215.078 54.1913 215.078 54.1913Z" fill="#1D1D1D"/>
<path d="M263.826 36.9989C263.479 38.6817 262.849 41.7428 262.828 41.8514C262.792 42.0308 262.716 42.229 262.476 42.3187C259.172 43.546 255.644 44.1242 252.434 42.9937C242.048 39.3402 244.837 22.76 255.684 20.1213C261.01 18.8256 266.322 20.7019 266.581 20.7822C266.883 20.8766 267.071 21.1787 267.009 21.4855C266.821 22.4083 266.225 25.3302 266.199 25.4364C263.194 24.4711 260.036 23.7725 256.967 24.844C250.866 26.9776 249.541 37.3765 255.608 38.5944C258.516 39.1797 261.177 38.1554 263.826 36.9989Z" fill="#1D1D1D"/>
<path d="M249.151 52.6656C249.991 52.8377 252.065 52.7841 252.113 51.4685C252.113 50.9408 251.411 50.4475 250.744 50.306C249.92 50.1339 249.396 50.13 248.564 50.306C248.051 50.4972 247.893 50.0077 248.359 49.8432C249.242 49.5296 252.688 49.4646 252.85 51.4685C252.708 53.4495 249.699 53.308 249.021 53.1742C248.753 53.1245 248.548 53.0021 248.548 52.6732V51.0249C248.548 50.6348 249.147 50.6387 249.147 51.0249V52.6656H249.151Z" fill="#ED1C27"/>
<path d="M255.628 50.3449C254.957 50.3449 253.829 52.3297 253.494 53.041C253.297 53.4655 252.666 53.1634 252.867 52.7351C253.222 51.9702 254.567 49.6603 255.62 49.6833C256.673 49.6642 258.017 51.9702 258.372 52.7351C258.569 53.1634 257.942 53.4655 257.745 53.041C257.414 52.3297 256.294 50.3449 255.628 50.3449Z" fill="#ED1C27"/>
<path d="M260.318 52.5807C260.988 52.5807 262.116 50.5959 262.447 49.8846C262.644 49.4601 263.275 49.7622 263.074 50.1867C262.719 50.9515 261.374 53.2614 260.322 53.2423C259.269 53.2614 257.924 50.9554 257.569 50.1867C257.372 49.7584 257.999 49.4562 258.2 49.8846C258.531 50.5959 259.647 52.5807 260.318 52.5807Z" fill="#ED1C27"/>
<path d="M264.213 50.0239V52.9151C264.213 53.3472 263.539 53.3319 263.539 52.8998V50.0162C263.539 49.5688 264.213 49.565 264.213 50.0239Z" fill="#ED1C27"/>
<path d="M267.435 52.5807C268.105 52.5807 269.233 50.5959 269.564 49.8846C269.761 49.4601 270.392 49.7622 270.191 50.1867C269.832 50.9515 268.488 53.2614 267.435 53.2423C266.382 53.2614 265.037 50.9554 264.682 50.1867C264.485 49.7584 265.112 49.4562 265.309 49.8846C265.641 50.5959 266.757 52.5807 267.427 52.5807" fill="#ED1C27"/>
<path d="M272.613 51.7623C272.81 52.1677 273.374 52.4966 273.918 52.6113C274.739 52.7872 275.263 52.7872 276.095 52.6113C276.592 52.4545 276.766 52.9211 276.296 53.074C275.374 53.3762 271.99 53.4832 271.793 51.4717C271.903 49.5557 274.605 49.6054 275.638 49.7392C276.143 49.8043 276.04 50.3205 275.512 50.2135C274.821 50.1255 272.944 50.0184 272.578 51.2231H274.502C274.802 51.2231 274.802 51.7623 274.502 51.7623H272.613Z" fill="#ED1C27"/>
<path d="M283.343 52.6685C284.183 52.8406 286.257 52.787 286.304 51.4715C286.304 50.9437 285.602 50.4504 284.932 50.3089C284.112 50.1368 283.587 50.133 282.755 50.3089C282.242 50.5001 282.085 50.0106 282.55 49.8461C283.437 49.5326 286.88 49.4675 287.042 51.4715C286.9 53.4525 283.891 53.311 283.216 53.1771C282.948 53.1274 282.743 53.005 282.743 52.6761V51.0279C282.743 50.6378 283.343 50.6416 283.343 51.0279V52.6685Z" fill="#ED1C27"/>
<path d="M289.822 50.3449C289.151 50.3449 288.02 52.3297 287.688 53.041C287.491 53.4655 286.864 53.1634 287.061 52.7351C287.42 51.9702 288.765 49.6603 289.814 49.6833C290.867 49.6642 292.211 51.9702 292.566 52.7351C292.763 53.1634 292.136 53.4655 291.939 53.041C291.608 52.3297 290.492 50.3449 289.822 50.3449Z" fill="#ED1C27"/>
<path d="M271.327 50.0239V52.9151C271.327 53.3472 270.652 53.3319 270.652 52.8998V50.0162C270.652 49.5688 271.327 49.565 271.327 50.0239Z" fill="#ED1C27"/>
<path d="M279.428 52.0525C279.01 51.3144 278.553 50.3353 278.237 50.3124C277.46 50.3124 277.811 51.7962 277.8 52.955C277.796 53.3642 277.125 53.3642 277.125 52.9091C277.125 51.4329 276.798 49.6699 278.253 49.6699C278.679 49.6699 279.081 50.2895 279.444 50.8707C279.862 51.6127 280.359 52.5917 280.67 52.6146C281.447 52.6146 281.077 51.1614 281.092 50.0026C281.096 49.5934 281.767 49.5934 281.767 50.0485C281.767 51.5285 282.114 53.2609 280.659 53.2609C280.229 53.2609 279.791 52.6414 279.428 52.0563" fill="#ED1C27"/>
<path fill-rule="evenodd" clip-rule="evenodd" d="M239.801 50.3882C239.815 50.4976 239.801 50.9662 239.36 51.6091C238.898 52.3171 239.628 53.5004 241.102 53.1994C241.427 53.3123 241.776 53.3294 242.002 53.326C242.227 53.326 242.58 53.3123 242.905 53.2029C244.379 53.5038 245.105 52.3171 244.643 51.6091C244.199 50.9696 244.188 50.4976 244.202 50.3882H239.808H239.801Z" fill="#E5252B"/>
<path fill-rule="evenodd" clip-rule="evenodd" d="M241.996 53.3167C240.559 53.2792 240.299 52.6374 240.693 52.5042C240.926 52.4257 241.228 52.2959 241.228 52.2959C241.073 51.5722 241.327 50.647 241.999 50.6504C242.672 50.6504 242.915 51.6029 242.763 52.313C242.763 52.313 243.069 52.4189 243.295 52.5076C243.671 52.6476 243.432 53.2826 241.996 53.3201" fill="#0682C4"/>
<path fill-rule="evenodd" clip-rule="evenodd" d="M241.46 52.8124C241.077 51.7796 241.414 50.8115 242.001 50.8115C242.56 50.8149 242.94 51.7523 242.546 52.809C242.546 52.809 242.36 52.7681 241.984 52.7681C241.702 52.7681 241.463 52.8124 241.463 52.8124" fill="#FFE11B"/>
<path fill-rule="evenodd" clip-rule="evenodd" d="M241.994 53.3327C242.574 53.3327 243.028 53.2133 243.028 53.0462C243.028 52.8791 242.574 52.7563 241.994 52.7563C241.414 52.7563 240.961 52.8757 240.961 53.0462C240.961 53.2168 241.414 53.3327 241.994 53.3327Z" fill="#F49824"/>
<path fill-rule="evenodd" clip-rule="evenodd" d="M240.083 50.9009H240.78C240.89 50.9009 240.978 50.9863 240.978 51.0922V51.5465C240.978 51.6558 240.89 51.7412 240.78 51.7412H240.083C239.974 51.7412 239.883 51.6558 239.883 51.5465V51.0922C239.883 50.9863 239.971 50.9009 240.083 50.9009Z" fill="#0682C4"/>
<path d="M240.163 51.0142H240.71C240.794 51.0142 240.86 51.0788 240.86 51.1571V51.4872C240.86 51.5689 240.794 51.6335 240.71 51.6335H240.163C240.078 51.6335 240.012 51.5689 240.012 51.4872V51.1571C240.012 51.0788 240.078 51.0142 240.163 51.0142Z" fill="#231F20"/>
<path fill-rule="evenodd" clip-rule="evenodd" d="M240.859 51.4006C240.612 51.377 240.529 51.097 240.508 51.0093H240.709C240.793 51.0093 240.859 51.0734 240.859 51.151V51.3972V51.4006Z" fill="#FFE11B"/>
<path fill-rule="evenodd" clip-rule="evenodd" d="M240.366 51.0142C240.352 51.0951 240.272 51.392 240.012 51.4055V51.1558C240.012 51.0783 240.078 51.0142 240.161 51.0142H240.366Z" fill="#FFE11B"/>
<path fill-rule="evenodd" clip-rule="evenodd" d="M243.221 50.9009H243.914C244.023 50.9009 244.115 50.9863 244.115 51.0922V51.5465C244.115 51.6558 244.027 51.7412 243.914 51.7412H243.221C243.111 51.7412 243.023 51.6558 243.023 51.5465V51.0922C243.023 50.9863 243.111 50.9009 243.221 50.9009Z" fill="#0682C4"/>
<path d="M243.304 51.0142H243.854C243.938 51.0142 244.005 51.0788 244.005 51.1571V51.4872C244.005 51.5689 243.938 51.6335 243.854 51.6335H243.304C243.223 51.6335 243.156 51.5689 243.156 51.4872V51.1571C243.156 51.0788 243.223 51.0142 243.304 51.0142Z" fill="#231F20"/>
<path fill-rule="evenodd" clip-rule="evenodd" d="M244 51.4006C243.753 51.377 243.669 51.097 243.648 51.0093H243.854C243.937 51.0093 244.003 51.0734 244.003 51.151V51.3972L244 51.4006Z" fill="#FFE11B"/>
<path fill-rule="evenodd" clip-rule="evenodd" d="M243.503 51.0142C243.486 51.0951 243.409 51.392 243.148 51.4055V51.1558C243.148 51.0783 243.214 51.0142 243.294 51.0142H243.503Z" fill="#FFE11B"/>
<path fill-rule="evenodd" clip-rule="evenodd" d="M243.443 48.6281C243.369 48.3867 243.355 48.2677 243.583 48.2677H244.084C244.389 48.2609 244.262 48.4921 244.234 48.7165C244.196 49.0122 244.196 49.104 244.196 49.104C244.196 49.104 243.443 48.6349 243.443 48.6315" fill="#E5252B"/>
<path fill-rule="evenodd" clip-rule="evenodd" d="M241.994 50.3637C241.243 50.3637 240.213 50.4287 239.55 50.4765C239.042 50.5142 238.647 50.138 238.986 49.7823C239.709 49.023 241.468 48.0688 242.001 48.0688C242.569 48.0688 244.293 49.023 245.016 49.7823C245.354 50.138 245.016 50.4765 244.501 50.4765C243.933 50.4765 242.745 50.3637 241.994 50.3637Z" fill="#F49824"/>
<path d="M242.406 52.064C242.406 52.0104 242.448 51.9668 242.503 51.9668C242.558 51.9668 242.596 52.0104 242.596 52.064C242.596 52.1176 242.555 52.1578 242.503 52.1578C242.451 52.1578 242.406 52.1142 242.406 52.064Z" fill="#231F20"/>
<path fill-rule="evenodd" clip-rule="evenodd" d="M241.997 52.7401C241.697 52.7401 241.458 52.7846 241.458 52.7846C241.101 51.7757 241.426 50.8283 241.997 50.8283C242.568 50.8283 242.896 51.7791 242.537 52.7846C242.537 52.7846 242.308 52.7401 241.997 52.7401ZM242.526 52.8188C242.822 52.8632 243.02 52.9487 243.02 53.0445C243.02 53.1881 242.565 53.3078 242.001 53.3078C241.436 53.3078 240.982 53.1881 240.982 53.0445C240.982 52.9487 241.176 52.8632 241.472 52.8188C241.472 52.8188 241.793 52.7811 242.001 52.7811C242.209 52.7811 242.53 52.8188 242.53 52.8188M242.572 52.788C242.946 51.7415 242.583 50.7804 242.001 50.7839C241.419 50.7839 241.056 51.7449 241.429 52.788C241.14 52.8427 240.95 52.935 240.95 53.0445C240.95 53.0787 240.971 53.1095 241.006 53.1402C240.52 52.935 240.474 52.5965 240.742 52.5041C240.971 52.4255 241.253 52.3194 241.253 52.3194C241.105 51.6149 241.334 50.671 242.004 50.671C242.674 50.671 242.904 51.6149 242.752 52.3194C242.752 52.3194 243.03 52.4289 243.263 52.5041C243.524 52.5896 243.485 52.9282 243.002 53.1368C243.037 53.106 243.055 53.0753 243.055 53.0411C243.055 52.935 242.865 52.8393 242.576 52.7846M243.475 48.6224C243.418 48.4001 243.415 48.3078 243.612 48.3078H244.046C244.332 48.3044 244.215 48.5164 244.191 48.7318C244.177 48.8618 244.166 48.9678 244.162 49.0465C243.933 48.8892 243.7 48.7489 243.478 48.6224M242.974 53.1915C244.356 53.4173 245.03 52.2955 244.589 51.6149C244.247 51.1224 244.166 50.7086 244.155 50.4966C243.249 50.4521 242.625 50.4077 242.001 50.4008C241.377 50.4077 240.752 50.4521 239.846 50.4966C239.832 50.7086 239.751 51.1224 239.409 51.6149C238.968 52.2955 239.641 53.4173 241.024 53.1915C240.438 52.9761 240.364 52.6101 240.678 52.4904C240.908 52.4049 241.214 52.2955 241.214 52.2955C241.063 51.5705 241.327 50.6129 241.997 50.6129C242.671 50.6129 242.935 51.567 242.78 52.2955C242.78 52.2955 243.087 52.4049 243.316 52.4904C243.63 52.6067 243.556 52.9761 242.971 53.1915M242.001 50.3119C241.221 50.3222 240.484 50.3769 239.617 50.4316C239.077 50.4658 238.774 50.117 239.113 49.7544C239.613 49.2243 241.324 48.1299 242.001 48.1299C242.678 48.1299 244.385 49.2243 244.889 49.7544C245.227 50.1135 244.924 50.4658 244.388 50.4316C243.521 50.3769 242.78 50.3256 242.004 50.3119M243.376 48.5643C243.369 48.5438 243.362 48.5198 243.358 48.4993C243.32 48.3693 243.358 48.2257 243.588 48.2257H244.092C244.388 48.2257 244.356 48.424 244.304 48.6156C244.268 48.7524 244.24 48.9268 244.226 49.091C244.226 49.091 244.639 49.3851 244.868 49.5732C245.587 50.1648 245.118 50.5479 244.43 50.5171C244.36 50.5137 244.293 50.5103 244.226 50.5068C244.229 50.7018 244.289 51.0643 244.607 51.4781C245.404 52.4049 244.346 53.5677 242.854 53.2394C242.607 53.3181 242.216 53.3557 242.001 53.3557C241.786 53.3557 241.394 53.3181 241.144 53.2394C239.652 53.5677 238.594 52.4049 239.391 51.4781C239.708 51.0677 239.768 50.7052 239.772 50.5068L239.571 50.5171C238.883 50.5513 238.414 50.1648 239.134 49.5732C240.206 48.6977 241.5 48.0479 242.001 48.0444C242.276 48.0444 242.791 48.2462 243.376 48.5677" fill="#231F20"/>
<path d="M240.776 51.76H240.081C239.958 51.76 239.859 51.6646 239.859 51.5454V51.0921C239.859 50.9763 239.958 50.8809 240.081 50.8809H240.776C240.895 50.8809 240.994 50.9763 240.994 51.0921V51.5454C240.994 51.6646 240.895 51.76 240.776 51.76ZM240.084 50.9217C239.986 50.9217 239.905 51.0001 239.905 51.0921V51.5454C239.905 51.6408 239.986 51.7191 240.084 51.7191H240.779C240.878 51.7191 240.955 51.6408 240.955 51.5454V51.0921C240.955 50.9967 240.874 50.9217 240.779 50.9217H240.084Z" fill="#231F20"/>
<path d="M243.917 51.76H243.226C243.106 51.76 243.008 51.6646 243.008 51.5454V51.0921C243.008 50.9763 243.106 50.8809 243.226 50.8809H243.917C244.04 50.8809 244.139 50.9763 244.139 51.0921V51.5454C244.139 51.6646 244.04 51.76 243.917 51.76ZM243.222 50.9217C243.124 50.9217 243.046 51.0001 243.046 51.0921V51.5454C243.046 51.6408 243.127 51.7191 243.222 51.7191H243.914C244.012 51.7191 244.093 51.6408 244.093 51.5454V51.0921C244.093 50.9967 244.012 50.9217 243.914 50.9217H243.222Z" fill="#231F20"/>
<path d="M34.6565 40.2393V24.875H40.2807C43.9655 24.875 45.7756 26.7929 45.7756 29.8743C45.7756 33.3221 43.6208 35.4123 40.1945 35.4123H37.6949V40.2393H34.6565ZM37.6949 32.8911H39.979C41.6383 32.8911 42.6511 31.9215 42.6511 30.0467C42.6511 28.3013 41.7029 27.5255 40.0437 27.5255H37.6949V32.8911ZM54.9859 40.2393C54.6411 39.679 54.3178 39.0541 54.0808 38.1921C53.4343 39.7221 52.0121 40.4763 50.4822 40.4763C48.7798 40.4763 47.4223 39.5712 47.4223 37.6319C47.4223 34.0548 51.5381 34.3565 53.7791 33.3006C53.6498 31.706 52.5078 31.2965 51.0855 31.2965C50.0943 31.2965 49.0169 31.4905 47.9394 31.7275V29.1201C49.1893 28.8184 50.4175 28.6461 51.5165 28.6461C54.4471 28.6461 56.6236 29.8743 56.6236 33.4299V36.3605C56.6236 37.4164 56.6451 38.5585 56.8606 40.2393H54.9859ZM50.3313 37.1578C50.3313 37.8904 50.7839 38.2568 51.4734 38.2568C52.5078 38.2568 53.7791 37.2871 53.7791 35.5416V35.0676C52.0983 35.8649 50.3313 35.6063 50.3313 37.1578ZM63.3116 36.7915C63.0314 36.7915 62.7513 36.7699 62.4712 36.7484C62.1479 36.9208 62.0186 37.2009 62.0186 37.5026C62.0186 38.2783 63.1607 38.2999 64.6476 38.4292C66.824 38.6016 69.2159 38.9894 69.2159 41.5106C69.2159 43.9241 66.6516 45.0877 63.1823 45.0877C60.0362 45.0877 57.8597 44.2258 57.8597 42.1571C57.8597 40.5409 59.4974 39.8298 60.8335 39.9376C60.0793 39.6143 59.5836 39.0541 59.5836 38.3214C59.5836 37.3302 60.424 36.7268 61.4153 36.5113C59.6914 35.9295 58.7863 34.5073 58.7863 32.6972C58.7863 30.37 60.4887 28.6461 63.4409 28.6461C64.152 28.6461 64.7769 28.7538 65.3156 28.9046C65.3802 28.9262 65.488 28.9477 65.5742 28.9477C66.3284 28.9477 66.5008 28.2797 66.5008 27.504C66.5008 27.1376 66.4361 26.7282 66.3715 26.3834H69.0651C69.1082 26.6636 69.1513 26.9222 69.1513 27.2023C69.1513 28.9262 67.9014 29.7666 66.7809 29.7666C66.6516 29.7666 66.5223 29.745 66.4146 29.7235C67.4274 30.4561 67.9661 31.4905 67.9661 32.8265C67.9661 34.9598 66.2637 36.7915 63.3116 36.7915ZM63.3547 34.7228C64.5183 34.7228 65.1648 34.0548 65.1648 32.7188C65.1648 31.3396 64.5614 30.6932 63.3762 30.6932C62.2126 30.6932 61.5877 31.2965 61.5877 32.6757C61.5877 34.0332 62.191 34.7228 63.3547 34.7228ZM60.618 41.4675C60.618 42.5881 61.9971 42.8682 63.4193 42.8682C64.9277 42.8682 66.1991 42.5881 66.1991 41.7261C66.1991 40.584 63.9796 40.7349 62.1264 40.4547C61.286 40.3901 60.618 40.7995 60.618 41.4675ZM77.3342 40.2393C76.9894 39.679 76.6662 39.0541 76.4292 38.1921C75.7827 39.7221 74.3605 40.4763 72.8305 40.4763C71.1282 40.4763 69.7706 39.5712 69.7706 37.6319C69.7706 34.0548 73.8864 34.3565 76.1275 33.3006C75.9982 31.706 74.8561 31.2965 73.4339 31.2965C72.4427 31.2965 71.3652 31.4905 70.2878 31.7275V29.1201C71.5376 28.8184 72.7659 28.6461 73.8649 28.6461C76.7955 28.6461 78.9719 29.8743 78.9719 33.4299V36.3605C78.9719 37.4164 78.9935 38.5585 79.209 40.2393H77.3342ZM72.6797 37.1578C72.6797 37.8904 73.1322 38.2568 73.8218 38.2568C74.8561 38.2568 76.1275 37.2871 76.1275 35.5416V35.0676C74.4467 35.8649 72.6797 35.6063 72.6797 37.1578ZM88.8276 31.6629C86.7589 31.5767 85.5522 32.0077 85.0566 32.8265V40.2393H82.0397V33.1713C82.0397 32.0723 82.0182 30.6285 81.8889 28.8831H83.8067C84.2162 29.4218 84.604 30.413 84.798 31.3396C85.3367 29.5942 86.5434 28.6461 88.8276 28.6461V31.6629ZM100.336 40.4763C96.9745 40.4763 94.6042 38.6231 94.6042 34.5504C94.6042 30.6716 97.0823 28.6461 100.465 28.6461C101.22 28.6461 102.038 28.7538 102.857 28.9477V31.4689C102.125 31.3181 101.414 31.2319 100.81 31.2319C98.8708 31.2319 97.5994 32.0507 97.5994 34.5719C97.5994 37.0931 98.8493 37.8904 100.767 37.8904C101.414 37.8904 102.125 37.8043 102.857 37.6534V40.1746C101.974 40.347 101.133 40.4763 100.336 40.4763ZM109.883 40.4763C106.263 40.4763 104.453 37.912 104.453 34.6797C104.453 31.3181 106.392 28.6461 110.098 28.6461C113.697 28.6461 115.529 31.2104 115.529 34.4427C115.529 37.8043 113.589 40.4763 109.883 40.4763ZM109.991 38.0628C111.714 38.0628 112.533 36.7053 112.533 34.5504C112.533 32.3524 111.736 31.0595 109.991 31.0595C108.245 31.0595 107.426 32.4171 107.426 34.5719C107.426 36.7699 108.245 38.0628 109.991 38.0628ZM125.606 33.473C125.606 32.0077 124.852 31.3612 123.624 31.3612C122.481 31.3612 121.684 31.8999 121.189 32.6326V40.2393H118.172V33.1713C118.172 32.0723 118.15 30.6285 118.021 28.8831H119.939C120.327 29.4003 120.671 30.2838 120.887 31.1242C121.361 29.8528 122.503 28.6461 124.572 28.6461C126.899 28.6461 128.623 29.939 128.623 32.9989V40.2393H125.606V33.473Z" fill="#1D1D1D"/>
<g clip-path="url(#clip1_10761_22739)">
<path d="M313.522 21.3135C309.369 21.3135 305.989 24.6929 305.989 28.8468V33.1503C305.989 33.1987 305.928 33.2823 305.884 33.2955C305.474 33.4319 305.144 33.5507 304.841 33.6651C304.48 33.8059 304.207 34.2064 304.207 34.598V44.4811C304.207 44.8683 304.48 45.2687 304.836 45.4139C307.613 46.514 310.535 47.0728 313.522 47.0728C316.51 47.0728 319.432 46.514 322.209 45.4139C322.569 45.2731 322.838 44.8727 322.838 44.4811V34.598C322.838 34.2064 322.565 33.8059 322.204 33.6651C321.901 33.5463 321.571 33.4319 321.161 33.2955C321.113 33.2779 321.056 33.1987 321.056 33.1503V28.8468C321.056 24.6929 317.676 21.3135 313.522 21.3135ZM311.472 37.6078C311.472 36.4725 312.392 35.5573 313.522 35.5573C314.653 35.5573 315.573 36.4769 315.573 37.6078C315.573 38.3602 315.151 38.9895 314.548 39.3459V42.7385C314.548 43.3062 314.09 43.7638 313.522 43.7638C312.955 43.7638 312.497 43.3062 312.497 42.7385V39.3459C311.894 38.9895 311.472 38.3602 311.472 37.6078ZM318.464 28.8468V32.5606C316.845 32.213 315.181 32.037 313.522 32.037C311.864 32.037 310.205 32.213 308.581 32.5606V28.8512C308.581 26.1274 310.799 23.9097 313.522 23.9097C316.246 23.9053 318.464 26.1186 318.464 28.8468Z" fill="#1D1D1D"/>
</g>
</g>
<defs>
<filter id="filter0_f_10761_22739" x="-87.546" y="-31.898" width="246.444" height="210.089" filterUnits="userSpaceOnUse" color-interpolation-filters="sRGB">
<feFlood flood-opacity="0" result="BackgroundImageFix"/>
<feBlend mode="normal" in="SourceGraphic" in2="BackgroundImageFix" result="shape"/>
<feGaussianBlur stdDeviation="25.2652" result="effect1_foregroundBlur_10761_22739"/>
</filter>
<filter id="filter1_f_10761_22739" x="178.7" y="-92.6388" width="258.924" height="226.066" filterUnits="userSpaceOnUse" color-interpolation-filters="sRGB">
<feFlood flood-opacity="0" result="BackgroundImageFix"/>
<feBlend mode="normal" in="SourceGraphic" in2="BackgroundImageFix" result="shape"/>
<feGaussianBlur stdDeviation="25.2652" result="effect1_foregroundBlur_10761_22739"/>
</filter>
<linearGradient id="paint0_linear_10761_22739" x1="25.026" y1="60.3658" x2="90.6171" y2="88.1198" gradientUnits="userSpaceOnUse">
<stop stop-color="#E51B2D"/>
<stop offset="1" stop-color="#E51B2D"/>
</linearGradient>
<linearGradient id="paint1_linear_10761_22739" x1="298.368" y1="6.40485" x2="352.588" y2="55.166" gradientUnits="userSpaceOnUse">
<stop stop-color="#E51B2D"/>
<stop offset="1" stop-color="#E51B2D"/>
</linearGradient>
<clipPath id="clip0_10761_22739">
<rect y="-0.000488281" width="361.622" height="63.8793" rx="31.9397" fill="white"/>
</clipPath>
<clipPath id="clip1_10761_22739">
<rect width="18.6309" height="25.7594" fill="white" transform="translate(304.191 21.3145)"/>
</clipPath>
</defs>
</svg>
