<svg width="99" height="99" viewBox="0 0 99 99" fill="none" xmlns="http://www.w3.org/2000/svg">
<mask id="mask0_10770_30683" style="mask-type:alpha" maskUnits="userSpaceOnUse" x="0" y="0" width="99" height="99">
<rect width="98.3906" height="98.3906" rx="14" fill="#00126D"/>
</mask>
<g mask="url(#mask0_10770_30683)">
<rect width="98.3906" height="98.3906" rx="14" fill="#9A9A9A"/>
</g>
<rect x="3.39062" y="3.30615" width="91.9608" height="91.9608" rx="14" fill="black"/>
<path fill-rule="evenodd" clip-rule="evenodd" d="M65.2366 74.7939C65.2754 75.0962 65.2366 76.3904 64.0236 78.1664C62.7523 80.1218 64.7611 83.3904 68.8175 82.5591C69.7103 82.8708 70.671 82.918 71.2921 82.9086C71.9132 82.9086 72.8836 82.8708 73.7764 82.5685C77.8328 83.3998 79.8319 80.1218 78.5606 78.1664C77.3379 76.3999 77.3087 75.0962 77.3476 74.7939H65.256H65.2366Z" fill="#E5252B"/>
<path fill-rule="evenodd" clip-rule="evenodd" d="M71.283 82.8844C67.3306 82.7807 66.6138 81.0078 67.6988 80.6401C68.3381 80.4232 69.1712 80.0648 69.1712 80.0648C68.745 78.0656 69.4425 75.5101 71.2927 75.5196C73.143 75.5196 73.8114 78.1505 73.3949 80.112C73.3949 80.112 74.2377 80.4043 74.8576 80.6495C75.8942 81.0361 75.2354 82.7901 71.283 82.8938" fill="#0682C4"/>
<path fill-rule="evenodd" clip-rule="evenodd" d="M69.8041 81.4896C68.7499 78.6368 69.6784 75.9629 71.2936 75.9629C72.8314 75.9723 73.876 78.5614 72.7927 81.4801C72.7927 81.4801 72.2801 81.3672 71.2452 81.3672C70.4714 81.3672 69.8138 81.4896 69.8138 81.4896" fill="#FFE11B"/>
<path fill-rule="evenodd" clip-rule="evenodd" d="M71.2732 82.9269C72.8691 82.9269 74.1168 82.5972 74.1168 82.1357C74.1168 81.6741 72.8691 81.335 71.2732 81.335C69.6774 81.335 68.4297 81.6647 68.4297 82.1357C68.4297 82.6067 69.6774 82.9269 71.2732 82.9269Z" fill="#F49824"/>
<path fill-rule="evenodd" clip-rule="evenodd" d="M66.017 76.2104H67.9351C68.2354 76.2104 68.4776 76.4463 68.4776 76.7388V77.9937C68.4776 78.2956 68.2354 78.5315 67.9351 78.5315H66.017C65.7167 78.5315 65.4648 78.2956 65.4648 77.9937V76.7388C65.4648 76.4463 65.707 76.2104 66.017 76.2104Z" fill="#0682C4"/>
<path d="M66.2275 76.522H67.7331C67.9647 76.522 68.1481 76.7006 68.1481 76.9168V77.8286C68.1481 78.0542 67.9647 78.2328 67.7331 78.2328H66.2275C65.9959 78.2328 65.8125 78.0542 65.8125 77.8286V76.9168C65.8125 76.7006 65.9959 76.522 66.2275 76.522Z" fill="#231F20"/>
<path fill-rule="evenodd" clip-rule="evenodd" d="M68.1499 77.5892C67.4706 77.5239 67.241 76.7506 67.1836 76.5083H67.7385C67.9681 76.5083 68.1499 76.6853 68.1499 76.8997V77.5799V77.5892Z" fill="#FFE11B"/>
<path fill-rule="evenodd" clip-rule="evenodd" d="M66.7961 76.522C66.7579 76.7456 66.5378 77.5656 65.8203 77.6028V76.9133C65.8203 76.699 66.0021 76.522 66.2317 76.522H66.7961Z" fill="#FFE11B"/>
<path fill-rule="evenodd" clip-rule="evenodd" d="M74.648 76.2104H76.5564C76.8567 76.2104 77.1085 76.4463 77.1085 76.7388V77.9937C77.1085 78.2956 76.8664 78.5315 76.5564 78.5315H74.648C74.3476 78.5315 74.1055 78.2956 74.1055 77.9937V76.7388C74.1055 76.4463 74.3476 76.2104 74.648 76.2104Z" fill="#0682C4"/>
<path d="M74.8742 76.522H76.3894C76.6211 76.522 76.8044 76.7006 76.8044 76.9168V77.8286C76.8044 78.0542 76.6211 78.2328 76.3894 78.2328H74.8742C74.6522 78.2328 74.4688 78.0542 74.4688 77.8286V76.9168C74.4688 76.7006 74.6522 76.522 74.8742 76.522Z" fill="#231F20"/>
<path fill-rule="evenodd" clip-rule="evenodd" d="M76.7905 77.5892C76.1112 77.5239 75.8816 76.7506 75.8242 76.5083H76.3887C76.6183 76.5083 76.8001 76.6853 76.8001 76.8997V77.5799L76.7905 77.5892Z" fill="#FFE11B"/>
<path fill-rule="evenodd" clip-rule="evenodd" d="M75.4289 76.522C75.3811 76.7456 75.1706 77.5656 74.4531 77.6028V76.9133C74.4531 76.699 74.6349 76.522 74.8549 76.522H75.4289Z" fill="#FFE11B"/>
<path fill-rule="evenodd" clip-rule="evenodd" d="M75.2613 69.9313C75.0588 69.2646 75.0203 68.936 75.6469 68.936H77.0256C77.8643 68.9172 77.5173 69.5557 77.4401 70.1754C77.3341 70.9924 77.3341 71.2459 77.3341 71.2459C77.3341 71.2459 75.2613 69.9501 75.2613 69.9407" fill="#E5252B"/>
<path fill-rule="evenodd" clip-rule="evenodd" d="M71.2735 74.7259C69.2065 74.7259 66.3729 74.9054 64.5485 75.0376C63.1511 75.1416 62.0642 74.1024 62.9958 73.12C64.9851 71.0228 69.8276 68.3872 71.293 68.3872C72.8553 68.3872 77.6007 71.0228 79.5901 73.12C80.5217 74.1024 79.5901 75.0376 78.1732 75.0376C76.6109 75.0376 73.3405 74.7259 71.2735 74.7259Z" fill="#F49824"/>
<path d="M72.4023 79.4232C72.4023 79.2751 72.5164 79.1548 72.6684 79.1548C72.8205 79.1548 72.925 79.2751 72.925 79.4232C72.925 79.5712 72.811 79.6823 72.6684 79.6823C72.5259 79.6823 72.4023 79.562 72.4023 79.4232Z" fill="#231F20"/>
<path fill-rule="evenodd" clip-rule="evenodd" d="M71.2813 81.29C70.4565 81.29 69.7966 81.4128 69.7966 81.4128C68.8164 78.6261 69.7093 76.0094 71.2813 76.0094C72.8534 76.0094 73.7559 78.6355 72.7661 81.4128C72.7661 81.4128 72.1353 81.29 71.2813 81.29ZM72.737 81.5073C73.5521 81.6301 74.0955 81.8663 74.0955 82.1308C74.0955 82.5275 72.8437 82.8582 71.2911 82.8582C69.7384 82.8582 68.4865 82.5275 68.4865 82.1308C68.4865 81.8663 69.0203 81.6301 69.8354 81.5073C69.8354 81.5073 70.7185 81.4034 71.2911 81.4034C71.8636 81.4034 72.7467 81.5073 72.7467 81.5073M72.8631 81.4223C73.8918 78.5316 72.8923 75.8771 71.2911 75.8866C69.6899 75.8866 68.6903 78.5411 69.719 81.4223C68.9232 81.5734 68.3991 81.8285 68.3991 82.1308C68.3991 82.2253 68.4574 82.3103 68.5544 82.3953C67.2153 81.8285 67.0891 80.8933 67.8266 80.6382C68.4574 80.4209 69.2338 80.1281 69.2338 80.1281C68.8262 78.1821 69.4569 75.5748 71.3007 75.5748C73.1445 75.5748 73.7754 78.1821 73.3581 80.1281C73.3581 80.1281 74.1247 80.4304 74.7651 80.6382C75.4833 80.8744 75.3765 81.8096 74.047 82.3858C74.1441 82.3008 74.1926 82.2158 74.1926 82.1213C74.1926 81.8285 73.6686 81.564 72.8729 81.4128M75.3474 69.9163C75.1922 69.3022 75.1824 69.0472 75.7259 69.0472H76.9195C77.7056 69.0378 77.3853 69.6234 77.3174 70.2186C77.2786 70.5775 77.2495 70.8704 77.2398 71.0877C76.609 70.6531 75.9685 70.2658 75.3571 69.9163M73.9694 82.537C77.7735 83.1605 79.627 80.062 78.414 78.1821C77.4726 76.8218 77.2495 75.6787 77.2204 75.093C74.7264 74.9702 73.0087 74.8474 71.2911 74.8285C69.5734 74.8474 67.8557 74.9702 65.3617 75.093C65.3229 75.6787 65.0997 76.8218 64.1584 78.1821C62.9453 80.062 64.7989 83.1605 68.603 82.537C66.992 81.9419 66.7883 80.9311 67.652 80.6004C68.2827 80.3643 69.127 80.062 69.127 80.062C68.7097 78.0593 69.4375 75.4142 71.2813 75.4142C73.1349 75.4142 73.8626 78.0498 73.4357 80.062C73.4357 80.062 74.28 80.3643 74.9107 80.6004C75.7744 80.9216 75.5706 81.9419 73.9597 82.537M71.2911 74.5829C69.1464 74.6113 67.1182 74.7624 64.731 74.9136C63.2462 75.008 62.4116 74.0445 63.3433 73.0431C64.7213 71.5789 69.4278 68.556 71.2911 68.556C73.1543 68.556 77.8511 71.5789 79.2389 73.0431C80.1705 74.035 79.3359 75.008 77.8608 74.9136C75.4736 74.7624 73.4356 74.6207 71.3007 74.5829M75.0757 69.7557C75.0563 69.699 75.0369 69.6329 75.0272 69.5762C74.9204 69.2172 75.0272 68.8205 75.658 68.8205H77.0457C77.8608 68.8205 77.7735 69.3684 77.6279 69.8974C77.5309 70.2753 77.4533 70.7571 77.4144 71.2105C77.4144 71.2105 78.5499 72.0229 79.1806 72.5425C81.1603 74.1767 79.8696 75.2347 77.9773 75.1497C77.7832 75.1403 77.5988 75.1308 77.4144 75.1214C77.4242 75.6598 77.5891 76.6612 78.4625 77.8042C80.6556 80.3643 77.7444 83.5761 73.6395 82.6692C72.9602 82.8865 71.883 82.9904 71.2911 82.9904C70.6991 82.9904 69.6219 82.8865 68.9329 82.6692C64.828 83.5761 61.9167 80.3643 64.1099 77.8042C64.9833 76.6706 65.1482 75.6693 65.158 75.1214L64.6048 75.1497C62.7125 75.2442 61.4218 74.1767 63.4015 72.5425C66.3516 70.1241 69.9131 68.3293 71.2911 68.3198C72.048 68.3198 73.4648 68.8772 75.0757 69.7652" fill="#231F20"/>
<path d="M67.9169 78.5817H66.0034C65.6651 78.5817 65.3945 78.3182 65.3945 77.9888V76.7369C65.3945 76.4169 65.6651 76.1533 66.0034 76.1533H67.9169C68.2454 76.1533 68.516 76.4169 68.516 76.7369V77.9888C68.516 78.3182 68.2454 78.5817 67.9169 78.5817ZM66.013 76.2663C65.7425 76.2663 65.5202 76.4828 65.5202 76.7369V77.9888C65.5202 78.2523 65.7425 78.4688 66.013 78.4688H67.9265C68.1971 78.4688 68.4097 78.2523 68.4097 77.9888V76.7369C68.4097 76.4733 68.1875 76.2663 67.9265 76.2663H66.013Z" fill="#231F20"/>
<path d="M76.5616 78.5817H74.6578C74.3292 78.5817 74.0586 78.3182 74.0586 77.9888V76.7369C74.0586 76.4169 74.3292 76.1533 74.6578 76.1533H76.5616C76.8999 76.1533 77.1705 76.4169 77.1705 76.7369V77.9888C77.1705 78.3182 76.8999 78.5817 76.5616 78.5817ZM74.6481 76.2663C74.3775 76.2663 74.1649 76.4828 74.1649 76.7369V77.9888C74.1649 78.2523 74.3872 78.4688 74.6481 78.4688H76.552C76.8225 78.4688 77.0448 78.2523 77.0448 77.9888V76.7369C77.0448 76.4733 76.8225 76.2663 76.552 76.2663H74.6481Z" fill="#231F20"/>
<path d="M25.5147 68.189C25.416 68.6714 25.3173 69.1587 25.2186 69.6412C22.7461 70.0547 20.2637 70.3303 17.7812 70.4829C20.4167 69.7692 22.9978 69.016 25.5147 68.189Z" fill="#ED1C27"/>
<path d="M80.6912 20.8503C73.6281 40.3549 59.088 57.9631 39.4648 65.7011C39.4648 65.7011 40.2529 61.8346 40.2578 61.8346C56.1869 52.7258 67.0575 36.4147 71.451 18.9145C73.0025 18.0695 77.2385 15.6572 77.2385 15.6572C77.2385 15.6572 79.4746 18.9686 80.6912 20.8503Z" fill="#ED1C27"/>
<path d="M47.2672 27.5524C47.4101 26.8449 47.6317 26.4027 48.4346 26.3438C51.8725 26.0735 55.3056 25.5184 58.7338 25.5478C62.9697 25.5773 65.7723 28.5595 66.3239 33.0795C68.5059 28.535 70.22 23.7841 71.4464 18.9153C71.3873 18.8711 71.3282 18.8318 71.2691 18.7925C67.8853 16.4883 64.0188 15.8692 60.0489 15.7022C51.9366 15.3484 44.0804 16.9206 36.3179 19.0578C35.9041 19.1757 35.4263 19.8045 35.3278 20.2713C34.6432 23.6023 22.5117 82.8924 22.5117 82.8924H31.5894C34.1457 82.8924 36.3376 80.9272 36.8547 78.402C36.8597 78.4118 46.6762 30.4658 47.2672 27.5524Z" fill="white"/>
<path d="M78.0241 27.3647C70.7935 43.0815 58.6522 56.8919 42.8906 64.232C68.4194 71.5081 85.2203 46.4469 78.0241 27.3647Z" fill="white"/>
</svg>
