<svg width="99" height="99" viewBox="0 0 99 99" fill="none" xmlns="http://www.w3.org/2000/svg">
<g clip-path="url(#clip0_10770_31376)">
<rect width="98" height="98" transform="translate(0 0.046875)" fill="#F8991D"/>
<g filter="url(#filter0_f_10770_31376)">
<path d="M-12.403 55.14C-0.387339 45.0468 52.8978 62.1693 65.9589 74.8051C79.02 87.4409 57.9311 111.638 45.9155 121.731C33.8998 131.824 -6.15101 107.455 -19.2121 94.8189C-32.2733 82.1831 -24.4187 65.2332 -12.403 55.14Z" fill="url(#paint0_linear_10770_31376)" fill-opacity="0.87"/>
</g>
<g filter="url(#filter1_f_10770_31376)">
<path d="M61.5057 -18.9671C78.1729 -26.698 128.722 1.51862 137.926 16.9581C147.131 32.3976 115.431 52.513 98.7635 60.2439C82.0963 67.9748 48.4437 35.1519 39.2393 19.7124C30.0349 4.27295 44.8386 -11.2362 61.5057 -18.9671Z" fill="url(#paint1_linear_10770_31376)" fill-opacity="0.87"/>
</g>
<rect x="3.17578" y="3.146" width="91.9608" height="91.9608" rx="21" fill="black"/>
<path fill-rule="evenodd" clip-rule="evenodd" d="M65.0217 74.6338C65.0606 74.9361 65.0217 76.2303 63.8087 78.0062C62.5375 79.9617 64.5462 83.2302 68.6026 82.3989C69.4954 82.7107 70.4562 82.7579 71.0773 82.7484C71.6983 82.7484 72.6688 82.7107 73.5616 82.4084C77.6179 83.2397 79.617 79.9617 78.3457 78.0062C77.123 76.2397 77.0939 74.9361 77.1327 74.6338H65.0412H65.0217Z" fill="#E5252B"/>
<path fill-rule="evenodd" clip-rule="evenodd" d="M71.0682 82.7243C67.1158 82.6205 66.3989 80.8477 67.4839 80.4799C68.1233 80.263 68.9564 79.9047 68.9564 79.9047C68.5301 77.9055 69.2276 75.35 71.0779 75.3594C72.9282 75.3594 73.5966 77.9904 73.18 79.9518C73.18 79.9518 74.0228 80.2442 74.6428 80.4894C75.6793 80.876 75.0206 82.6299 71.0682 82.7337" fill="#0682C4"/>
<path fill-rule="evenodd" clip-rule="evenodd" d="M69.5892 81.3294C68.535 78.4766 69.4636 75.8027 71.0788 75.8027C72.6166 75.8121 73.6611 78.4013 72.5779 81.32C72.5779 81.32 72.0652 81.207 71.0304 81.207C70.2566 81.207 69.5989 81.3294 69.5989 81.3294" fill="#FFE11B"/>
<path fill-rule="evenodd" clip-rule="evenodd" d="M71.0584 82.7668C72.6542 82.7668 73.9019 82.4371 73.9019 81.9755C73.9019 81.5139 72.6542 81.1748 71.0584 81.1748C69.4625 81.1748 68.2148 81.5045 68.2148 81.9755C68.2148 82.4465 69.4625 82.7668 71.0584 82.7668Z" fill="#F49824"/>
<path fill-rule="evenodd" clip-rule="evenodd" d="M65.8022 76.0503H67.7202C68.0205 76.0503 68.2627 76.2862 68.2627 76.5786V77.8335C68.2627 78.1354 68.0205 78.3713 67.7202 78.3713H65.8022C65.5019 78.3713 65.25 78.1354 65.25 77.8335V76.5786C65.25 76.2862 65.4922 76.0503 65.8022 76.0503Z" fill="#0682C4"/>
<path d="M66.0127 76.3618H67.5183C67.7499 76.3618 67.9333 76.5404 67.9333 76.7566V77.6684C67.9333 77.894 67.7499 78.0726 67.5183 78.0726H66.0127C65.781 78.0726 65.5977 77.894 65.5977 77.6684V76.7566C65.5977 76.5404 65.781 76.3618 66.0127 76.3618Z" fill="#231F20"/>
<path fill-rule="evenodd" clip-rule="evenodd" d="M67.935 77.429C67.2558 77.3638 67.0262 76.5904 66.9688 76.3481H67.5236C67.7532 76.3481 67.935 76.5252 67.935 76.7395V77.4197V77.429Z" fill="#FFE11B"/>
<path fill-rule="evenodd" clip-rule="evenodd" d="M66.5813 76.3618C66.543 76.5854 66.323 77.4054 65.6055 77.4427V76.7532C65.6055 76.5389 65.7872 76.3618 66.0168 76.3618H66.5813Z" fill="#FFE11B"/>
<path fill-rule="evenodd" clip-rule="evenodd" d="M74.4331 76.0503H76.3415C76.6418 76.0503 76.8937 76.2862 76.8937 76.5786V77.8335C76.8937 78.1354 76.6515 78.3713 76.3415 78.3713H74.4331C74.1328 78.3713 73.8906 78.1354 73.8906 77.8335V76.5786C73.8906 76.2862 74.1328 76.0503 74.4331 76.0503Z" fill="#0682C4"/>
<path d="M74.6593 76.3618H76.1746C76.4062 76.3618 76.5896 76.5404 76.5896 76.7566V77.6684C76.5896 77.894 76.4062 78.0726 76.1746 78.0726H74.6593C74.4373 78.0726 74.2539 77.894 74.2539 77.6684V76.7566C74.2539 76.5404 74.4373 76.3618 74.6593 76.3618Z" fill="#231F20"/>
<path fill-rule="evenodd" clip-rule="evenodd" d="M76.5756 77.429C75.8964 77.3638 75.6668 76.5904 75.6094 76.3481H76.1738C76.4034 76.3481 76.5852 76.5252 76.5852 76.7395V77.4197L76.5756 77.429Z" fill="#FFE11B"/>
<path fill-rule="evenodd" clip-rule="evenodd" d="M75.2141 76.3618C75.1662 76.5854 74.9558 77.4054 74.2383 77.4427V76.7532C74.2383 76.5389 74.42 76.3618 74.6401 76.3618H75.2141Z" fill="#FFE11B"/>
<path fill-rule="evenodd" clip-rule="evenodd" d="M75.0464 69.7712C74.844 69.1045 74.8054 68.7758 75.4321 68.7758H76.8107C77.6495 68.757 77.3024 69.3955 77.2253 70.0153C77.1192 70.8322 77.1193 71.0857 77.1193 71.0857C77.1193 71.0857 75.0464 69.7899 75.0464 69.7805" fill="#E5252B"/>
<path fill-rule="evenodd" clip-rule="evenodd" d="M71.0587 74.5658C68.9917 74.5658 66.158 74.7452 64.3336 74.8775C62.9362 74.9814 61.8493 73.9423 62.7809 72.9598C64.7703 70.8627 69.6128 68.2271 71.0781 68.2271C72.6405 68.2271 77.3859 70.8627 79.3752 72.9598C80.3069 73.9423 79.3752 74.8775 77.9584 74.8775C76.396 74.8775 73.1257 74.5658 71.0587 74.5658Z" fill="#F49824"/>
<path d="M72.1875 79.263C72.1875 79.1149 72.3016 78.9946 72.4536 78.9946C72.6056 78.9946 72.7102 79.1149 72.7102 79.263C72.7102 79.4111 72.5961 79.5221 72.4536 79.5221C72.3111 79.5221 72.1875 79.4018 72.1875 79.263Z" fill="#231F20"/>
<path fill-rule="evenodd" clip-rule="evenodd" d="M71.0665 81.1299C70.2416 81.1299 69.5817 81.2527 69.5817 81.2527C68.6016 78.4659 69.4944 75.8492 71.0665 75.8492C72.6386 75.8492 73.5411 78.4754 72.5512 81.2527C72.5512 81.2527 71.9205 81.1299 71.0665 81.1299ZM72.5221 81.3472C73.3373 81.47 73.8807 81.7061 73.8807 81.9706C73.8807 82.3674 72.6289 82.698 71.0762 82.698C69.5235 82.698 68.2717 82.3674 68.2717 81.9706C68.2717 81.7061 68.8054 81.47 69.6206 81.3472C69.6206 81.3472 70.5037 81.2432 71.0762 81.2432C71.6488 81.2432 72.5319 81.3472 72.5319 81.3472M72.6483 81.2621C73.677 78.3715 72.6774 75.717 71.0762 75.7264C69.475 75.7264 68.4755 78.3809 69.5041 81.2621C68.7084 81.4133 68.1843 81.6683 68.1843 81.9706C68.1843 82.0651 68.2426 82.1501 68.3396 82.2351C67.0004 81.6683 66.8743 80.7331 67.6118 80.4781C68.2426 80.2608 69.0189 79.968 69.0189 79.968C68.6113 78.0219 69.2421 75.4147 71.0859 75.4147C72.9297 75.4147 73.5605 78.0219 73.1432 79.968C73.1432 79.968 73.9098 80.2702 74.5503 80.4781C75.2684 80.7142 75.1617 81.6494 73.8322 82.2257C73.9292 82.1407 73.9778 82.0556 73.9778 81.9612C73.9778 81.6683 73.4538 81.4038 72.658 81.2527M75.1326 69.7561C74.9773 69.1421 74.9676 68.887 75.511 68.887H76.7047C77.4907 68.8776 77.1705 69.4633 77.1025 70.0584C77.0637 70.4174 77.0346 70.7103 77.0249 70.9275C76.3942 70.493 75.7537 70.1056 75.1423 69.7561M73.7545 82.3768C77.5586 83.0003 79.4121 79.9018 78.1991 78.0219C77.2578 76.6616 77.0346 75.5186 77.0055 74.9329C74.5115 74.8101 72.7939 74.6873 71.0762 74.6684C69.3586 74.6873 67.6409 74.8101 65.1469 74.9329C65.108 75.5186 64.8849 76.6616 63.9435 78.0219C62.7305 79.9018 64.584 83.0003 68.3881 82.3768C66.7772 81.7817 66.5734 80.7709 67.4371 80.4403C68.0679 80.2041 68.9121 79.9018 68.9121 79.9018C68.4948 77.8991 69.2227 75.2541 71.0665 75.2541C72.92 75.2541 73.6478 77.8897 73.2208 79.9018C73.2208 79.9018 74.0651 80.2041 74.6959 80.4403C75.5596 80.7615 75.3558 81.7817 73.7449 82.3768M71.0762 74.4228C68.9316 74.4511 66.9034 74.6023 64.5161 74.7534C63.0314 74.8479 62.1968 73.8843 63.1284 72.883C64.5064 71.4188 69.213 68.3958 71.0762 68.3958C72.9394 68.3958 77.6363 71.4188 79.024 72.883C79.9556 73.8749 79.121 74.8479 77.646 74.7534C75.2587 74.6023 73.2208 74.4605 71.0859 74.4228M74.8608 69.5955C74.8414 69.5389 74.822 69.4727 74.8123 69.4161C74.7056 69.0571 74.8124 68.6603 75.4431 68.6603H76.8308C77.646 68.6603 77.5586 69.2082 77.4131 69.7372C77.316 70.1151 77.2384 70.5969 77.1996 71.0503C77.1996 71.0503 78.335 71.8627 78.9658 72.3823C80.9455 74.0166 79.6547 75.0746 77.7624 74.9896C77.5683 74.9801 77.384 74.9707 77.1996 74.9612C77.2093 75.4997 77.3742 76.501 78.2476 77.6441C80.4408 80.2041 77.5295 83.4159 73.4246 82.5091C72.7453 82.7263 71.6682 82.8303 71.0762 82.8303C70.4843 82.8303 69.407 82.7263 68.718 82.5091C64.6131 83.4159 61.7019 80.2041 63.895 77.6441C64.7684 76.5105 64.9334 75.5091 64.9431 74.9612L64.39 74.9896C62.4976 75.084 61.207 74.0166 63.1866 72.3823C66.1367 69.964 69.6982 68.1691 71.0762 68.1597C71.8331 68.1597 73.2499 68.717 74.8608 69.605" fill="#231F20"/>
<path d="M67.702 78.4216H65.7885C65.4503 78.4216 65.1797 78.158 65.1797 77.8286V76.5767C65.1797 76.2567 65.4503 75.9932 65.7885 75.9932H67.702C68.0306 75.9932 68.3012 76.2567 68.3012 76.5767V77.8286C68.3012 78.158 68.0306 78.4216 67.702 78.4216ZM65.7982 76.1061C65.5276 76.1061 65.3053 76.3226 65.3053 76.5767V77.8286C65.3053 78.0922 65.5276 78.3086 65.7982 78.3086H67.7117C67.9823 78.3086 68.1949 78.0922 68.1949 77.8286V76.5767C68.1949 76.3132 67.9726 76.1061 67.7117 76.1061H65.7982Z" fill="#231F20"/>
<path d="M76.3468 78.4216H74.4429C74.1143 78.4216 73.8438 78.158 73.8438 77.8286V76.5767C73.8438 76.2567 74.1143 75.9932 74.4429 75.9932H76.3468C76.685 75.9932 76.9556 76.2567 76.9556 76.5767V77.8286C76.9556 78.158 76.685 78.4216 76.3468 78.4216ZM74.4332 76.1061C74.1627 76.1061 73.95 76.3226 73.95 76.5767V77.8286C73.95 78.0922 74.1723 78.3086 74.4332 78.3086H76.3371C76.6077 78.3086 76.83 78.0922 76.83 77.8286V76.5767C76.83 76.3132 76.6077 76.1061 76.3371 76.1061H74.4332Z" fill="#231F20"/>
<path d="M25.2999 68.0288C25.2012 68.5112 25.1025 68.9986 25.0038 69.481C22.5312 69.8945 20.0488 70.1702 17.5664 70.3228C20.2018 69.609 22.7829 68.8558 25.2999 68.0288Z" fill="#ED1C27"/>
<path d="M80.4764 20.6901C73.4132 40.1947 58.8732 57.803 39.25 65.5409C39.25 65.5409 40.0381 61.6744 40.043 61.6744C55.9721 52.5657 66.8426 36.2545 71.2362 18.7544C72.7877 17.9094 77.0236 15.4971 77.0236 15.4971C77.0236 15.4971 79.2598 18.8084 80.4764 20.6901Z" fill="#ED1C27"/>
<path d="M47.0524 27.3922C47.1952 26.6847 47.4169 26.2426 48.2197 26.1836C51.6577 25.9134 55.0908 25.3582 58.5189 25.3877C62.7548 25.4172 65.5574 28.3994 66.1091 32.9193C68.2911 28.3748 70.0051 23.6239 71.2316 18.7551C71.1725 18.7109 71.1134 18.6716 71.0543 18.6323C67.6705 16.3281 63.804 15.7091 59.834 15.542C51.7217 15.1883 43.8656 16.7605 36.103 18.8976C35.6893 19.0155 35.2115 19.6444 35.113 20.1111C34.4283 23.4421 22.2969 82.7323 22.2969 82.7323H31.3745C33.9309 82.7323 36.1227 80.7671 36.6399 78.2418C36.6448 78.2516 46.4613 30.3056 47.0524 27.3922Z" fill="white"/>
<path d="M77.8093 27.2046C70.5787 42.9213 58.4373 56.7318 42.6758 64.0718C68.2046 71.348 85.0054 46.2867 77.8093 27.2046Z" fill="white"/>
</g>
<defs>
<filter id="filter0_f_10770_31376" x="-59.3528" y="18.7043" width="162.819" height="138.799" filterUnits="userSpaceOnUse" color-interpolation-filters="sRGB">
<feFlood flood-opacity="0" result="BackgroundImageFix"/>
<feBlend mode="normal" in="SourceGraphic" in2="BackgroundImageFix" result="shape"/>
<feGaussianBlur stdDeviation="16.692" result="effect1_foregroundBlur_10770_31376"/>
</filter>
<filter id="filter1_f_10770_31376" x="3.38991" y="-53.3025" width="169.201" height="147.728" filterUnits="userSpaceOnUse" color-interpolation-filters="sRGB">
<feFlood flood-opacity="0" result="BackgroundImageFix"/>
<feBlend mode="normal" in="SourceGraphic" in2="BackgroundImageFix" result="shape"/>
<feGaussianBlur stdDeviation="16.5101" result="effect1_foregroundBlur_10770_31376"/>
</filter>
<linearGradient id="paint0_linear_10770_31376" x1="15.0201" y1="79.6602" x2="58.3543" y2="97.9966" gradientUnits="userSpaceOnUse">
<stop stop-color="#E51B2D"/>
<stop offset="1" stop-color="#E51B2D"/>
</linearGradient>
<linearGradient id="paint1_linear_10770_31376" x1="81.5901" y1="11.4197" x2="117.021" y2="43.2838" gradientUnits="userSpaceOnUse">
<stop stop-color="#E51B2D"/>
<stop offset="1" stop-color="#E51B2D"/>
</linearGradient>
<clipPath id="clip0_10770_31376">
<rect y="0.046875" width="98" height="98" rx="19.4886" fill="white"/>
</clipPath>
</defs>
</svg>
