<svg width="99" height="99" viewBox="0 0 99 99" fill="none" xmlns="http://www.w3.org/2000/svg">
<g clip-path="url(#clip0_10770_30907)">
<rect width="98" height="98" transform="translate(0 0.4375)" fill="#F8991D"/>
<g filter="url(#filter0_f_10770_30907)">
<path d="M-12.403 55.5306C-0.387339 45.4374 52.8978 62.5599 65.9589 75.1957C79.02 87.8315 57.9311 112.028 45.9155 122.121C33.8998 132.215 -6.15101 107.845 -19.2121 95.2095C-32.2733 82.5737 -24.4187 65.6238 -12.403 55.5306Z" fill="url(#paint0_linear_10770_30907)" fill-opacity="0.87"/>
</g>
<g filter="url(#filter1_f_10770_30907)">
<path d="M61.5057 -18.5764C78.1729 -26.3073 128.722 1.90925 137.926 17.3487C147.131 32.7882 115.431 52.9037 98.7635 60.6346C82.0963 68.3655 48.4437 35.5425 39.2393 20.1031C30.0349 4.66358 44.8386 -10.8455 61.5057 -18.5764Z" fill="url(#paint1_linear_10770_30907)" fill-opacity="0.87"/>
</g>
<rect x="3.17578" y="3.53662" width="91.9608" height="91.9608" rx="21" fill="white"/>
<path fill-rule="evenodd" clip-rule="evenodd" d="M65.0217 75.0244C65.0606 75.3267 65.0217 76.6209 63.8087 78.3969C62.5375 80.3523 64.5462 83.6208 68.6026 82.7895C69.4954 83.1013 70.4562 83.1485 71.0773 83.1391C71.6983 83.1391 72.6688 83.1013 73.5616 82.799C77.6179 83.6303 79.617 80.3523 78.3457 78.3969C77.123 76.6303 77.0939 75.3267 77.1327 75.0244H65.0412H65.0217Z" fill="#E5252B"/>
<path fill-rule="evenodd" clip-rule="evenodd" d="M71.0682 83.1149C67.1158 83.0112 66.3989 81.2383 67.4839 80.8705C68.1233 80.6536 68.9564 80.2953 68.9564 80.2953C68.5301 78.2961 69.2276 75.7406 71.0779 75.75C72.9282 75.75 73.5966 78.381 73.18 80.3425C73.18 80.3425 74.0228 80.6348 74.6428 80.88C75.6793 81.2666 75.0206 83.0206 71.0682 83.1243" fill="#0682C4"/>
<path fill-rule="evenodd" clip-rule="evenodd" d="M69.5892 81.72C68.535 78.8672 69.4636 76.1934 71.0788 76.1934C72.6166 76.2028 73.6611 78.7919 72.5779 81.7106C72.5779 81.7106 72.0652 81.5976 71.0304 81.5976C70.2566 81.5976 69.5989 81.72 69.5989 81.72" fill="#FFE11B"/>
<path fill-rule="evenodd" clip-rule="evenodd" d="M71.0584 83.1574C72.6542 83.1574 73.9019 82.8277 73.9019 82.3661C73.9019 81.9046 72.6542 81.5654 71.0584 81.5654C69.4625 81.5654 68.2148 81.8951 68.2148 82.3661C68.2148 82.8371 69.4625 83.1574 71.0584 83.1574Z" fill="#F49824"/>
<path fill-rule="evenodd" clip-rule="evenodd" d="M65.8022 76.4409H67.7202C68.0205 76.4409 68.2627 76.6768 68.2627 76.9693V78.2241C68.2627 78.5261 68.0205 78.7619 67.7202 78.7619H65.8022C65.5019 78.7619 65.25 78.5261 65.25 78.2241V76.9693C65.25 76.6768 65.4922 76.4409 65.8022 76.4409Z" fill="#0682C4"/>
<path d="M66.0127 76.7524H67.5183C67.7499 76.7524 67.9333 76.9311 67.9333 77.1473V78.0591C67.9333 78.2847 67.7499 78.4633 67.5183 78.4633H66.0127C65.781 78.4633 65.5977 78.2847 65.5977 78.0591V77.1473C65.5977 76.9311 65.781 76.7524 66.0127 76.7524Z" fill="#231F20"/>
<path fill-rule="evenodd" clip-rule="evenodd" d="M67.935 77.8196C67.2558 77.7544 67.0262 76.981 66.9688 76.7388H67.5236C67.7532 76.7388 67.935 76.9158 67.935 77.1301V77.8103V77.8196Z" fill="#FFE11B"/>
<path fill-rule="evenodd" clip-rule="evenodd" d="M66.5813 76.7524C66.543 76.9761 66.323 77.796 65.6055 77.8333V77.1438C65.6055 76.9295 65.7872 76.7524 66.0168 76.7524H66.5813Z" fill="#FFE11B"/>
<path fill-rule="evenodd" clip-rule="evenodd" d="M74.4331 76.4409H76.3415C76.6418 76.4409 76.8937 76.6768 76.8937 76.9693V78.2241C76.8937 78.5261 76.6515 78.7619 76.3415 78.7619H74.4331C74.1328 78.7619 73.8906 78.5261 73.8906 78.2241V76.9693C73.8906 76.6768 74.1328 76.4409 74.4331 76.4409Z" fill="#0682C4"/>
<path d="M74.6593 76.7524H76.1746C76.4062 76.7524 76.5896 76.9311 76.5896 77.1473V78.0591C76.5896 78.2847 76.4062 78.4633 76.1746 78.4633H74.6593C74.4373 78.4633 74.2539 78.2847 74.2539 78.0591V77.1473C74.2539 76.9311 74.4373 76.7524 74.6593 76.7524Z" fill="#231F20"/>
<path fill-rule="evenodd" clip-rule="evenodd" d="M76.5756 77.8196C75.8964 77.7544 75.6668 76.981 75.6094 76.7388H76.1738C76.4034 76.7388 76.5852 76.9158 76.5852 77.1301V77.8103L76.5756 77.8196Z" fill="#FFE11B"/>
<path fill-rule="evenodd" clip-rule="evenodd" d="M75.2141 76.7524C75.1662 76.9761 74.9558 77.796 74.2383 77.8333V77.1438C74.2383 76.9295 74.42 76.7524 74.6401 76.7524H75.2141Z" fill="#FFE11B"/>
<path fill-rule="evenodd" clip-rule="evenodd" d="M75.0464 70.1618C74.844 69.4951 74.8054 69.1664 75.4321 69.1664H76.8107C77.6495 69.1476 77.3024 69.7862 77.2253 70.4059C77.1192 71.2228 77.1193 71.4764 77.1193 71.4764C77.1193 71.4764 75.0464 70.1805 75.0464 70.1712" fill="#E5252B"/>
<path fill-rule="evenodd" clip-rule="evenodd" d="M71.0587 74.9564C68.9917 74.9564 66.158 75.1359 64.3336 75.2681C62.9362 75.372 61.8493 74.3329 62.7809 73.3504C64.7703 71.2533 69.6128 68.6177 71.0781 68.6177C72.6405 68.6177 77.3859 71.2533 79.3752 73.3504C80.3069 74.3329 79.3752 75.2681 77.9584 75.2681C76.396 75.2681 73.1257 74.9564 71.0587 74.9564Z" fill="#F49824"/>
<path d="M72.1875 79.6536C72.1875 79.5056 72.3016 79.3853 72.4536 79.3853C72.6056 79.3853 72.7102 79.5056 72.7102 79.6536C72.7102 79.8017 72.5961 79.9128 72.4536 79.9128C72.3111 79.9128 72.1875 79.7925 72.1875 79.6536Z" fill="#231F20"/>
<path fill-rule="evenodd" clip-rule="evenodd" d="M71.0665 81.5205C70.2416 81.5205 69.5817 81.6433 69.5817 81.6433C68.6016 78.8566 69.4944 76.2398 71.0665 76.2398C72.6386 76.2398 73.5411 78.866 72.5512 81.6433C72.5512 81.6433 71.9205 81.5205 71.0665 81.5205ZM72.5221 81.7378C73.3373 81.8606 73.8807 82.0968 73.8807 82.3613C73.8807 82.758 72.6289 83.0886 71.0762 83.0886C69.5235 83.0886 68.2717 82.758 68.2717 82.3613C68.2717 82.0968 68.8054 81.8606 69.6206 81.7378C69.6206 81.7378 70.5037 81.6339 71.0762 81.6339C71.6488 81.6339 72.5319 81.7378 72.5319 81.7378M72.6483 81.6528C73.677 78.7621 72.6774 76.1076 71.0762 76.117C69.475 76.117 68.4755 78.7715 69.5041 81.6528C68.7084 81.8039 68.1843 82.059 68.1843 82.3613C68.1843 82.4557 68.2426 82.5407 68.3396 82.6258C67.0004 82.059 66.8743 81.1237 67.6118 80.8687C68.2426 80.6514 69.0189 80.3586 69.0189 80.3586C68.6113 78.4126 69.2421 75.8053 71.0859 75.8053C72.9297 75.8053 73.5605 78.4126 73.1432 80.3586C73.1432 80.3586 73.9098 80.6608 74.5503 80.8687C75.2684 81.1048 75.1617 82.0401 73.8322 82.6163C73.9292 82.5313 73.9778 82.4463 73.9778 82.3518C73.9778 82.059 73.4538 81.7945 72.658 81.6433M75.1326 70.1467C74.9773 69.5327 74.9676 69.2777 75.511 69.2777H76.7047C77.4907 69.2682 77.1705 69.8539 77.1025 70.449C77.0637 70.808 77.0346 71.1009 77.0249 71.3181C76.3942 70.8836 75.7537 70.4963 75.1423 70.1467M73.7545 82.7675C77.5586 83.3909 79.4121 80.2924 78.1991 78.4125C77.2578 77.0522 77.0346 75.9092 77.0055 75.3235C74.5115 75.2007 72.7939 75.0779 71.0762 75.059C69.3586 75.0779 67.6409 75.2007 65.1469 75.3235C65.108 75.9092 64.8849 77.0522 63.9435 78.4125C62.7305 80.2924 64.584 83.3909 68.3881 82.7675C66.7772 82.1723 66.5734 81.1615 67.4371 80.8309C68.0679 80.5947 68.9121 80.2924 68.9121 80.2924C68.4948 78.2898 69.2227 75.6447 71.0665 75.6447C72.92 75.6447 73.6478 78.2803 73.2208 80.2924C73.2208 80.2924 74.0651 80.5947 74.6959 80.8309C75.5596 81.1521 75.3558 82.1723 73.7449 82.7675M71.0762 74.8134C68.9316 74.8417 66.9034 74.9929 64.5161 75.144C63.0314 75.2385 62.1968 74.2749 63.1284 73.2736C64.5064 71.8094 69.213 68.7865 71.0762 68.7865C72.9394 68.7865 77.6363 71.8094 79.024 73.2736C79.9556 74.2655 79.121 75.2385 77.646 75.144C75.2587 74.9929 73.2208 74.8512 71.0859 74.8134M74.8608 69.9862C74.8414 69.9295 74.822 69.8634 74.8123 69.8067C74.7056 69.4477 74.8124 69.051 75.4431 69.051H76.8308C77.646 69.051 77.5586 69.5989 77.4131 70.1279C77.316 70.5057 77.2384 70.9875 77.1996 71.441C77.1996 71.441 78.335 72.2534 78.9658 72.7729C80.9455 74.4072 79.6547 75.4652 77.7624 75.3802C77.5683 75.3707 77.384 75.3613 77.1996 75.3518C77.2093 75.8903 77.3742 76.8916 78.2476 78.0347C80.4408 80.5947 77.5295 83.8066 73.4246 82.8997C72.7453 83.117 71.6682 83.2209 71.0762 83.2209C70.4843 83.2209 69.407 83.117 68.718 82.8997C64.6131 83.8066 61.7019 80.5947 63.895 78.0347C64.7684 76.9011 64.9334 75.8998 64.9431 75.3518L64.39 75.3802C62.4976 75.4747 61.207 74.4072 63.1866 72.7729C66.1367 70.3546 69.6982 68.5597 71.0762 68.5503C71.8331 68.5503 73.2499 69.1076 74.8608 69.9956" fill="#231F20"/>
<path d="M67.702 78.8122H65.7885C65.4503 78.8122 65.1797 78.5487 65.1797 78.2192V76.9674C65.1797 76.6473 65.4503 76.3838 65.7885 76.3838H67.702C68.0306 76.3838 68.3012 76.6473 68.3012 76.9674V78.2192C68.3012 78.5487 68.0306 78.8122 67.702 78.8122ZM65.7982 76.4967C65.5276 76.4967 65.3053 76.7132 65.3053 76.9674V78.2192C65.3053 78.4828 65.5276 78.6993 65.7982 78.6993H67.7117C67.9823 78.6993 68.1949 78.4828 68.1949 78.2192V76.9674C68.1949 76.7038 67.9726 76.4967 67.7117 76.4967H65.7982Z" fill="#231F20"/>
<path d="M76.3468 78.8122H74.4429C74.1143 78.8122 73.8438 78.5487 73.8438 78.2192V76.9674C73.8438 76.6473 74.1143 76.3838 74.4429 76.3838H76.3468C76.685 76.3838 76.9556 76.6473 76.9556 76.9674V78.2192C76.9556 78.5487 76.685 78.8122 76.3468 78.8122ZM74.4332 76.4967C74.1627 76.4967 73.95 76.7132 73.95 76.9674V78.2192C73.95 78.4828 74.1723 78.6993 74.4332 78.6993H76.3371C76.6077 78.6993 76.83 78.4828 76.83 78.2192V76.9674C76.83 76.7038 76.6077 76.4967 76.3371 76.4967H74.4332Z" fill="#231F20"/>
<path d="M25.2999 68.4194C25.2012 68.9019 25.1025 69.3892 25.0038 69.8716C22.5312 70.2851 20.0488 70.5608 17.5664 70.7134C20.2018 69.9996 22.7829 69.2464 25.2999 68.4194Z" fill="#ED1C27"/>
<path d="M80.4764 21.0807C73.4132 40.5854 58.8732 58.1936 39.25 65.9316C39.25 65.9316 40.0381 62.065 40.043 62.065C55.9721 52.9563 66.8426 36.6451 71.2362 19.145C72.7877 18.3 77.0236 15.8877 77.0236 15.8877C77.0236 15.8877 79.2598 19.1991 80.4764 21.0807Z" fill="#ED1C27"/>
<path d="M47.0524 27.7828C47.1952 27.0753 47.4169 26.6332 48.2197 26.5742C51.6577 26.304 55.0908 25.7488 58.5189 25.7783C62.7548 25.8078 65.5574 28.79 66.1091 33.3099C68.2911 28.7654 70.0051 24.0145 71.2316 19.1458C71.1725 19.1015 71.1134 19.0622 71.0543 19.0229C67.6705 16.7187 63.804 16.0997 59.834 15.9327C51.7217 15.5789 43.8656 17.1511 36.103 19.2882C35.6893 19.4061 35.2115 20.035 35.113 20.5017C34.4283 23.8328 22.2969 83.1229 22.2969 83.1229H31.3745C33.9309 83.1229 36.1227 81.1577 36.6399 78.6324C36.6448 78.6423 46.4613 30.6962 47.0524 27.7828Z" fill="#1D1D1D"/>
<path d="M77.8093 27.5952C70.5787 43.3119 58.4373 57.1224 42.6758 64.4624C68.2046 71.7386 85.0054 46.6773 77.8093 27.5952Z" fill="#1D1D1D"/>
</g>
<defs>
<filter id="filter0_f_10770_30907" x="-59.3528" y="19.095" width="162.819" height="138.799" filterUnits="userSpaceOnUse" color-interpolation-filters="sRGB">
<feFlood flood-opacity="0" result="BackgroundImageFix"/>
<feBlend mode="normal" in="SourceGraphic" in2="BackgroundImageFix" result="shape"/>
<feGaussianBlur stdDeviation="16.692" result="effect1_foregroundBlur_10770_30907"/>
</filter>
<filter id="filter1_f_10770_30907" x="3.38991" y="-52.9118" width="169.201" height="147.728" filterUnits="userSpaceOnUse" color-interpolation-filters="sRGB">
<feFlood flood-opacity="0" result="BackgroundImageFix"/>
<feBlend mode="normal" in="SourceGraphic" in2="BackgroundImageFix" result="shape"/>
<feGaussianBlur stdDeviation="16.5101" result="effect1_foregroundBlur_10770_30907"/>
</filter>
<linearGradient id="paint0_linear_10770_30907" x1="15.0201" y1="80.0509" x2="58.3543" y2="98.3872" gradientUnits="userSpaceOnUse">
<stop stop-color="#E51B2D"/>
<stop offset="1" stop-color="#E51B2D"/>
</linearGradient>
<linearGradient id="paint1_linear_10770_30907" x1="81.5901" y1="11.8103" x2="117.021" y2="43.6744" gradientUnits="userSpaceOnUse">
<stop stop-color="#E51B2D"/>
<stop offset="1" stop-color="#E51B2D"/>
</linearGradient>
<clipPath id="clip0_10770_30907">
<rect y="0.4375" width="98" height="98" rx="19.4886" fill="white"/>
</clipPath>
</defs>
</svg>
